<?xml version="1.0" encoding="utf-8"?>
<!-- Generator: Adobe Illustrator 22.1.0, SVG Export Plug-In . SVG Version: 6.00 Build 0)  -->
<svg version="1.1" width="24px" id="Layer_1" xmlns="http://www.w3.org/2000/svg" xmlns:xlink="http://www.w3.org/1999/xlink" x="0px" y="0px"
	 viewBox="0 0 100 100" style="enable-background:new 0 0 100 100;" xml:space="preserve">
<style type="text/css">
	.st0{fill:#FFFFFF;}
</style>
<path class="st0" d="M40.4,46.6c0,0,9.5-0.7,9.5-11.8c0-11.1-7.7-16.5-17.5-16.5H0v62h32.3C32.3,80.4,52,81,52,62
	C52,62,52.8,46.6,40.4,46.6L40.4,46.6z M29.9,29.4h2.3c0,0,4.4,0,4.4,6.5c0,6.5-2.6,7.4-5.5,7.4H14.2V29.4L29.9,29.4L29.9,29.4z
	 M31.4,69.3H14.2V52.8h18.1c0,0,6.5-0.1,6.5,8.5C38.8,68.5,33.9,69.3,31.4,69.3L31.4,69.3z M78.2,34.1c-23.8,0-23.8,23.8-23.8,23.8
	s-1.6,23.7,23.8,23.7c0,0,21.2,1.2,21.2-16.5H88.6c0,0,0.4,6.7-9.9,6.7c0,0-10.9,0.7-10.9-10.8h32.1C99.8,61,103.3,34.1,78.2,34.1
	L78.2,34.1z M67.6,52.8c0,0,1.3-9.6,10.9-9.6c9.6,0,9.5,9.6,9.5,9.6H67.6z M90.5,29.6H64.9V22h25.6L90.5,29.6L90.5,29.6z"/>
</svg>
