<svg version="1.1" width="24" xmlns="http://www.w3.org/2000/svg" xmlns:xlink="http://www.w3.org/1999/xlink" x="0px" y="0px"
	viewBox="0 0 41.8 42.5" xml:space="preserve">
	<path fill="#008FC3" d="M28.6,27.5c-1.6,1.7-3.8,2.7-6.1,2.7h-1.9c-2.1,0-4.2-0.8-5.7-2.3c-1.4-1.5-2.2-3.4-2.1-5.4V20
				c0-2.1,0.8-4,2.2-5.5c1.5-1.5,3.5-2.3,5.6-2.3h1.8c2.3,0,4.6,1,6.2,2.7c1.5,1.6,3.6,2.4,5.8,2.3c0.5,0,1,0,1.5-0.1l0,0
				c-0.2-0.5-0.4-1-0.7-1.4L33,12c-2-3.4-5.6-5.5-9.6-5.5h-4.3c-4,0-7.6,2.1-9.6,5.5l-2.2,3.7c-2,3.4-2,7.7,0,11.1l2.2,3.8
				c2,3.4,5.6,5.5,9.6,5.5h4.3c4,0,7.6-2.1,9.6-5.5l2.2-3.7c0.3-0.4,0.7-1.4,0.7-1.4c-0.5-0.1-1-0.1-1.5-0.1
				C32.2,25.1,30.1,25.9,28.6,27.5" />
	<path fill="#008FC3" d="M22.4,14.5h-1.9c-2.9-0.1-5.4,2.1-5.6,5.1c0,0.1,0,0.3,0,0.4v2.5c-0.1,2.9,2.3,5.4,5.2,5.4
				c0.1,0,0.2,0,0.4,0h1.8c4.9,0,4.5-5,11.9-5c0.7,0,1.4,0.1,2.1,0.2c0.2-1.3,0.2-2.6,0-3.8c-0.7,0.1-1.4,0.2-2.1,0.2
				C27,19.5,27.4,14.5,22.4,14.5" />
	<path fill="#008FC3" d="M40.7,24.9c-1.3-0.9-2.8-1.5-4.4-1.8c0,0-0.2,1.6-0.4,2.4c1.3,0.2,2.4,0.5,3.4,1.2l0,0
				c-3.1,10-13.7,15.6-23.8,12.6S-0.1,25.6,3,15.5S16.7-0.1,26.8,2.9c6,1.9,10.7,6.6,12.6,12.6l0,0c-1,0.8-2.2,1.4-3.5,1.6
				c0.2,0.7,0.3,1.6,0.4,2.2c0,0,3.2-1,4.5-1.8c0.9-0.5,1.2-1.6,0.8-2.5C38.1,3.8,26.2-2.5,15,0.9C3.8,4.4-2.5,16.3,0.9,27.5
				S16.3,45,27.5,41.6c6.7-2.1,12-7.3,14.1-14.1C41.9,26.6,41.6,25.5,40.7,24.9" />
</svg>