<?xml version="1.0" encoding="utf-8"?>
<!-- Generator: Adobe Illustrator 22.1.0, SVG Export Plug-In . SVG Version: 6.00 Build 0)  -->
<svg version="1.1" width="24px" id="Layer_1" xmlns="http://www.w3.org/2000/svg" xmlns:xlink="http://www.w3.org/1999/xlink" x="0px" y="0px"
	 viewBox="0 0 100 100" style="enable-background:new 0 0 100 100;" xml:space="preserve">
<style type="text/css">
	.st0{fill:#007BFF;}
</style>
<g>
	<path class="st0" d="M0,50c0-13.8,4.9-25.6,14.6-35.4C24.4,4.9,36.2,0,50,0c13.8,0,25.6,4.9,35.4,14.6C95.1,24.4,100,36.2,100,50
		s-4.9,25.6-14.6,35.4S63.8,100,50,100c-13.8,0-25.6-4.9-35.4-14.6C4.9,75.6,0,63.8,0,50z M5.5,50c0,12.2,4.4,22.7,13.1,31.4
		c8.7,8.7,19.2,13.1,31.4,13.1c12.2,0,22.7-4.4,31.4-13.1S94.5,62.2,94.5,50c0-12.2-4.4-22.7-13.1-31.4C72.7,9.8,62.2,5.5,50,5.5
		c-12.2,0-22.7,4.4-31.4,13.1C9.8,27.3,5.5,37.8,5.5,50z M19.5,60.7c-0.3-0.3-0.3-0.5,0-0.8c0.5-0.5,1.2-0.7,2-0.6
		c0.8,0.1,1.2,0.3,1.4,0.4c0.9,0.4,1.9,1.3,3,2.6c1.1,1.4,2,2.3,2.6,2.8c3.1,2.6,6.3,2.8,9.6,0.6c0.3-0.9,0.7-1.7,1.3-2.3
		c0.6-0.7,1.1-1.1,1.7-1.4c0.5-0.3,1.4-0.7,2.7-1.2c-4.3-0.4-7.8-1.1-10.4-2.2c-2.7-1.1-4.8-2.5-6.3-4.2c-2.1-2.3-3.4-5.4-3.8-9.2
		C22.7,41.5,23,38.1,24,35c0.8-2,1.9-3.7,3.3-5.3c-1-3.3-0.8-7,0.6-11.1c4.2,0.3,7.9,1.7,11.3,4.3c6.5-1.7,13.3-1.8,20.3-0.2
		c0.9-0.7,2.3-1.5,4.2-2.4c1.9-1,4.3-1.5,7.1-1.7c0.5,1.4,0.9,3.1,1.1,5.1s0.1,3.8-0.3,5.5c3,3.1,4.6,7.3,4.7,12.5
		c0,4.2-0.7,7.6-2.1,10.4c-1.4,2.7-4,5-7.6,6.8c-2.5,1.2-5.7,1.9-9.8,2.1c1.8,0.9,3.2,1.9,4,2.8c0.8,1,1.4,2.5,1.7,4.6v6.2l0.2,6
		c0.4,0.7,0.8,1.2,1.4,1.7c0.5,0.5,1,0.8,1.4,1c0.4,0.2,0.5,0.5,0.4,0.9c-0.1,0.4-0.7,0.6-1.6,0.6c-2.2,0-4-0.8-5.3-2.3
		c-0.4-0.7-0.6-1.4-0.6-2.3v-9.4c0-1-0.3-1.8-0.8-2.2c-0.5-0.5-1-0.7-1.6-0.9v12.3c0,2.2,0.3,3.6,0.8,4.3c0.5,0.7,0.8,1.3,1,2
		c0.1,0.1,0,0.2-0.3,0.3c-0.3,0.1-0.9,0-1.7-0.3c-1.7-0.4-2.9-1.3-3.5-2.6s-1-2.8-1-4.4V66.8h-2.5v12.1c0,1.6-0.3,3.1-1,4.5
		c-0.9,1.8-2.6,2.8-5.1,2.9c-0.4-0.1-0.6-0.3-0.6-0.4c0.1-0.1,0.5-0.8,1.2-2c0.1-0.3,0.3-0.8,0.5-1.6c0.2-0.8,0.3-1.7,0.3-2.7V67.4
		c-0.5,0.1-1,0.4-1.5,0.9c-0.5,0.5-0.7,1.2-0.7,2.2v9.4c0,0.9-0.2,1.7-0.6,2.3c-1.2,1.6-2.9,2.3-5.3,2.3c-0.9,0-1.4-0.2-1.6-0.6
		c-0.1-0.3-0.1-0.5,0.1-0.7c0.2-0.2,0.5-0.4,0.9-0.7c0.4-0.3,0.7-0.5,0.8-0.6c0.5-0.4,0.9-0.9,1.2-1.6c0.4-0.5,0.5-1.9,0.3-4.1
		s-0.2-3.6-0.1-4.3c-3.4,1.2-6.8,0.6-10.4-1.8c-1-1-2.1-2.5-3.1-4.5C23.4,64.4,21.9,62.7,19.5,60.7L19.5,60.7z"/>
</g>
</svg>
