<?xml version="1.0" encoding="utf-8"?>
<!-- Generator: Adobe Illustrator 22.1.0, SVG Export Plug-In . SVG Version: 6.00 Build 0)  -->
<svg version="1.1" width="24px" id="Layer_1" xmlns="http://www.w3.org/2000/svg" xmlns:xlink="http://www.w3.org/1999/xlink" x="0px" y="0px"
	 viewBox="0 0 100 100" style="enable-background:new 0 0 100 100;" xml:space="preserve">
<style type="text/css">
	.st0{fill:#FFFFFF;}
</style>
<path class="st0" d="M33.3,50c0-9.2,7.5-16.7,16.7-16.7S66.6,40.8,66.6,50S59.2,66.7,50,66.7S33.3,59.2,33.3,50 M24.3,50
	c0,14.2,11.5,25.7,25.7,25.7S75.6,64.2,75.6,50S64.1,24.3,50,24.3S24.3,35.8,24.3,50 M70.6,23.3c0,3.3,2.7,6,6,6c3.3,0,6-2.7,6-6
	s-2.7-6-6-6C73.3,17.3,70.6,20,70.6,23.3 M29.7,90.7c-4.9-0.2-7.5-1-9.3-1.7c-2.3-0.9-4-2-5.8-3.7c-1.7-1.7-2.8-3.4-3.7-5.7
	c-0.7-1.8-1.5-4.4-1.7-9.3C9,64.9,9,63.4,9,50S9,35.1,9.3,29.8c0.2-4.9,1-7.5,1.7-9.3c0.9-2.3,2-4,3.7-5.8c1.7-1.7,3.4-2.8,5.8-3.7
	c1.8-0.7,4.4-1.5,9.3-1.7C35,9.1,36.6,9,50,9c13.4,0,14.9,0.1,20.2,0.3c4.9,0.2,7.5,1,9.3,1.7c2.3,0.9,4,2,5.8,3.7
	c1.7,1.7,2.8,3.4,3.7,5.8c0.7,1.8,1.5,4.4,1.7,9.3c0.2,5.3,0.3,6.9,0.3,20.2c0,13.3,0,14.9-0.3,20.2c-0.2,4.9-1,7.5-1.7,9.3
	c-0.9,2.3-2,4-3.7,5.7c-1.7,1.7-3.4,2.8-5.8,3.7c-1.8,0.7-4.4,1.5-9.3,1.7C64.9,90.9,63.3,91,50,91C36.6,91,35,90.9,29.7,90.7
	 M29.3,0.3c-5.3,0.2-9,1.1-12.1,2.3c-3.3,1.3-6.1,3-8.9,5.8c-2.8,2.8-4.5,5.6-5.8,8.9c-1.2,3.2-2.1,6.8-2.3,12.1
	C0,34.7-0.1,36.4-0.1,50S0,65.3,0.3,70.6c0.2,5.3,1.1,9,2.3,12.1c1.3,3.3,3,6.1,5.8,8.9c2.8,2.8,5.6,4.5,8.9,5.8
	c3.2,1.2,6.8,2.1,12.1,2.3c5.3,0.2,7,0.3,20.6,0.3c13.6,0,15.3-0.1,20.6-0.3c5.3-0.2,9-1.1,12.1-2.3c3.3-1.3,6.1-3,8.9-5.8
	c2.8-2.8,4.5-5.6,5.8-8.9c1.2-3.2,2.1-6.8,2.3-12.1c0.2-5.3,0.3-7,0.3-20.6s-0.1-15.3-0.3-20.6c-0.2-5.3-1.1-9-2.3-12.1
	c-1.3-3.3-3-6.1-5.8-8.9c-2.8-2.8-5.6-4.5-8.9-5.8c-3.2-1.2-6.8-2.1-12.1-2.3C65.2,0.1,63.5,0,50,0C36.4,0,34.7,0.1,29.3,0.3"/>
</svg>
