<?xml version="1.0" encoding="utf-8"?>
<!-- Generator: Adobe Illustrator 22.1.0, SVG Export Plug-In . SVG Version: 6.00 Build 0)  -->
<svg version="1.1" width="24px" id="Layer_1" xmlns="http://www.w3.org/2000/svg" xmlns:xlink="http://www.w3.org/1999/xlink" x="0px" y="0px"
	 viewBox="0 0 100 100" style="enable-background:new 0 0 100 100;" xml:space="preserve">
<style type="text/css">
	.st0{fill:#FFFFFF;}
</style>
<g>
	<path class="st0" d="M87.9,46.9L87.9,46.9c0-0.6,0.1-1.2,0.1-1.8c0-16.2-13.3-29.3-29.8-29.3c-11.8,0-22,6.8-26.8,16.7
		C29,30.7,26,29.7,23,29.7c-7.6,0-13.7,6.1-13.7,13.5c0,1.4,0.2,2.8,0.6,4C4,50.7,0,57,0,64.3c0,10.9,8.9,19.7,19.8,19.8l0.2,0
		l0.1,0l0.1,0h59c0.4,0,0.7,0.1,1.1,0.1c10.9,0,19.7-8.7,19.7-19.4C100,56.7,95,49.8,87.9,46.9z M79.8,62.7
		c-0.5,2.5-1.7,4.7-3.7,6.5c-2,1.8-4.3,2.9-7.2,3.4c-1,0.2-2,0.2-3,0.2c-4.3,0-8.4-1.6-11.8-4.7c-1-0.9-1.9-1.8-2.7-2.9l-4.6-5.3
		c-0.8-1.1-1.6-2-2.5-2.8c-2.3-2.1-4.9-3.1-7.1-3.1c-0.7,0-1.3,0.1-1.9,0.2c-1,0.3-1.9,0.8-2.6,1.5c-0.9,0.9-1.5,1.9-1.7,3
		c-0.1,0.4-0.1,0.8-0.1,1.2c0,1.6,0.6,3,1.7,4.1l0.1,0.1c1.3,1.1,2.8,1.7,4.6,1.7c2.3,0,4.5-0.8,7-3.2l4,4.7l0.4,0.5
		c-3.7,3.5-7.1,4.8-11.7,4.8c-4.2,0-7.6-1.2-10.3-3.6h0c-2-1.8-3.2-4-3.7-6.6c-0.2-0.9-0.3-1.8-0.2-2.7c0-3.7,1.3-6.7,4-9.1
		c2.7-2.4,6.1-3.6,10.2-3.6c4.3,0,8.3,1.6,11.8,4.8c0.9,0.8,1.7,1.7,2.6,2.7L56,60c0.8,1.1,1.6,2,2.5,2.8c2.3,2.1,4.9,3.1,7,3.1
		c1.8,0,3.3-0.6,4.6-1.7c1.1-1,1.7-2.2,1.8-3.6l0-0.6c0-0.6-0.1-1.2-0.3-1.7c-0.3-0.9-0.8-1.7-1.6-2.4c-1.2-1.2-2.7-1.7-4.6-1.7
		c-2.3,0-4.5,0.8-7,3.1l-4-4.7L54,51.9c3.5-3.5,7-4.7,11.8-4.7c4.2,0,7.6,1.2,10.2,3.6l0.1,0c2.6,2.4,4,5.4,4,9.2
		C80,60.9,79.9,61.8,79.8,62.7z"/>
</g>
</svg>
