<svg version="1.1" width="24px" id="Layer_1" xmlns="http://www.w3.org/2000/svg" xmlns:xlink="http://www.w3.org/1999/xlink" x="0px" y="0px"
	 viewBox="0 0 100 100" style="enable-background:new 0 0 100 100;" xml:space="preserve">
<style type="text/css">
	.st0{fill:#FFFFFF;}
</style>
<path fill="var(--bg-main)" d="M0,13.3c0-3.2,1.1-5.9,3.4-8c2.3-2.1,5.2-3.1,8.8-3.1c3.5,0,6.4,1,8.6,3.1c2.3,2.1,3.4,4.9,3.4,8.3
	c0,3.1-1.1,5.7-3.3,7.7c-2.3,2.1-5.2,3.2-8.9,3.2h-0.1c-3.5,0-6.4-1.1-8.6-3.2S0,16.5,0,13.3z M1.3,97.8V33.3h21.4v64.5H1.3z
	 M34.6,97.8H56v-36c0-2.3,0.3-4,0.8-5.2c0.9-2.2,2.3-4,4.1-5.6c1.8-1.5,4.1-2.3,6.9-2.3c7.2,0,10.8,4.9,10.8,14.6v34.5H100v-37
	c0-9.5-2.3-16.7-6.8-21.7s-10.5-7.4-17.9-7.4c-8.3,0-14.8,3.6-19.4,10.7v0.2h-0.1l0.1-0.2v-9.2H34.6c0.1,2.1,0.2,8.5,0.2,19.2
	C34.7,63.3,34.7,78.3,34.6,97.8z"/>
</svg>
