<?xml version="1.0" encoding="utf-8"?>
<!-- Generator: Adobe Illustrator 22.1.0, SVG Export Plug-In . SVG Version: 6.00 Build 0)  -->
<svg version="1.1" width="24px" id="Layer_1" xmlns="http://www.w3.org/2000/svg" xmlns:xlink="http://www.w3.org/1999/xlink" x="0px" y="0px"
	 viewBox="0 0 100 100" style="enable-background:new 0 0 100 100;" xml:space="preserve">
<style type="text/css">
	.st0{fill:#FFFFFF;}
</style>
<g>
	<path class="st0" d="M50,0C22.4,0,0,22.4,0,50c0,20.9,12.8,38.8,31,46.3c-2.1-16.3,3.8-28.7,6.6-41.9c-4.8-7.8,0.6-23.5,10.8-19.6
		c12.6,4.8-10.9,29,4.9,32c16.5,3.2,23.2-27.3,13-37.2c-14.8-14.3-43-0.3-39.5,20.1c0.4,2.5,4.6,6.5,4.6,6.5s-0.2,2.4-1.3,6.9
		c-9.5-2-13.4-9.1-13.1-18.6c0.6-15.5,14.6-26.4,28.7-27.9h0c17.8-1.9,34.5,6.2,36.9,22.2c2.6,18-8,37.5-27.1,36.1
		c-5.2-0.4-7.3-2.8-11.4-5.2C42,80.6,39.4,91,32,96.7c5.6,2.2,11.7,3.3,18,3.3c27.6,0,50-22.4,50-50S77.6,0,50,0z"/>
</g>
</svg>
