<svg xmlns="http://www.w3.org/2000/svg" viewBox="0 0 168.51 185.68" id="sb-logo-mark" alt="Sullivan Logo Bug - Navigation Button" role="button" aria-label="Open Navigation">
    <path fill="#fc4640" d="M71.16,179.69,15.59,147.6a26.16,26.16,0,0,1-13.1-22.68V60.75a26.19,26.19,0,0,1,13.1-22.68L71.16,6A26.18,26.18,0,0,1,97.35,6l55.57,32.08A26.21,26.21,0,0,1,166,60.75v64.17a26.19,26.19,0,0,1-13.1,22.68L97.35,179.69A26.18,26.18,0,0,1,71.16,179.69Z"></path>
    <path fill="white" d="M84.25,185.68a28.63,28.63,0,0,1-14.34-3.84L14.34,149.76A28.77,28.77,0,0,1,0,124.92V60.75A28.78,28.78,0,0,1,14.34,35.91L69.91,3.83a28.74,28.74,0,0,1,28.68,0l55.58,32.08a28.78,28.78,0,0,1,14.34,24.84v64.17a28.77,28.77,0,0,1-14.34,24.84L98.59,181.84A28.61,28.61,0,0,1,84.25,185.68ZM84.25,5A23.73,23.73,0,0,0,72.4,8.14L16.83,40.23A23.76,23.76,0,0,0,5,60.75v64.17a23.77,23.77,0,0,0,11.85,20.53L72.4,177.53a23.77,23.77,0,0,0,23.7,0l55.57-32.08a23.78,23.78,0,0,0,11.86-20.53V60.75a23.77,23.77,0,0,0-11.86-20.52L96.1,8.14A23.67,23.67,0,0,0,84.25,5Z"></path>
    <path fill="white" d="M111.25,107.88q0,10.41-7.67,16.34t-19.53,5.92q-17.22,0-26.8-9.68l9.28-9.28q6.18,6.18,17.72,6.18,13,0,13-9.06,0-4.12-2.17-6.14t-6.59-2.62L79.62,98.3Q60.13,95.62,60.14,77.79q0-10,6.9-16.13T85.7,55.53q14.83,0,23.7,8.56l-9.07,9q-5.25-5-15-5-5.46,0-8.39,2.63A8.53,8.53,0,0,0,74,77.28a7,7,0,0,0,2.32,5.36,12,12,0,0,0,6.64,2.78l8.66,1.23q9.38,1.35,14,5.67Q111.25,97.69,111.25,107.88Z"></path>
</svg>