<svg id="Layer_1" data-name="Layer 1" xmlns="http://www.w3.org/2000/svg" width="1000" height="1000" viewBox="0 0 1000 1000">
  <g id="Group_334" data-name="Group 334">
    <path id="Path_5340" data-name="Path 5340" d="M364.34665,277.31626c8.8999-33.322,74.77588-153.11108,176.70019-139.15991s358.39991,21.477,347.35205,193.688S804.61374,790.37827,573.999,818.7053s-403.74023-64.286-444.894-128.09-48.99024-201.6289,47.023-242.15088S355.45065,310.63926,364.34665,277.31626Z" fill="#006b92" fill-opacity="0.25"/>
    <g id="Group_333" data-name="Group 333">
      <path id="Path_5273" data-name="Path 5273" d="M269.42346,368.30106s11.849-4.739,26.068-37.916,30.807-86.5,30.807-86.5l7.109-30.807,5.925,9.479,29.622,24.883,29.623,17.776,35.547-7.109,23.7-2.37-13.036-14.221,35.547,5.925,20.143,7.109-2.37-10.664-4.739-8.294,22.513,3.554,20.14307,10.67,21.328,18.958s0-14.219-4.739-21.328h0l10.664,2.37,14.219,9.479,9.479,10.664,67.539-56.875,8.294,8.294,20.143,40.287,11.848,35.542,5.925,28.438v13.034l9.479-4.74,8.294-4.739-10.664,28.437-7.109,10.664-3.555,29.623,8.6,23.371,9.177,10.991,3.554,1.185,16.589,4.739-8.294,7.11,20.143,13.034,2.37,11.849,10.664,13.033,9.479,17.774v8.294l-28.43994-1.188,4.207,14.2,7.642,43.859,5.925,52.136,1.185,112.565-74.649,28.44,9.479,5.924,27.253,2.37,29.623-13.034,28.437-29.622,17.774-29.623s14.218-43.841,14.218-45.026,14.219-42.656,14.219-42.656l18.958-31.992,21.329-22.514s25.955-14.438,26.6-14.921,31.46,1.894,31.46,1.894l18.958,8.294,13.034,13.034,2.37,14.219-7.11,14.218-15.4,3.555h-18.962l-16.588,3.555-10.664,11.845-11.849,18.958-21.329,62.8-16.588,49.765-17.774,29.623-28.437,27.252-26.068,11.849-28.437,7.11h-34.362l-53.321-15.4-24.883-13.034-58.062,21.324v11.849l-7.109,20.144-14.219,13.034-20.143,5.924-22.513-4.74-11.847-9.478-5.925-10.664-3.554-14.219-48.581-1.184-40.287-9.48-3.555,8.3-8.294,11.847-15.4,9.479h-17.773l-18.958-10.664-7.11-14.219-4.739-14.219,3.554-9.479,1.185-11.849-18.962-17.777-4.74,1.184-24.883-4.739-20.147-9.479-20.143-16.589,2.37-14.219,5.924-24.883,5.925-23.7,3.554-9.479h-3.55l-5.925,1.185-9.479-1.185-5.924-5.924-2.37-7.11,1.185-10.664-9.48-7.109-8.294-9.479-4.739-8.295s-5.925-8.294-5.925-9.479-2.37-17.773-2.37-17.773,1.185-13.034,1.185-14.219,3.555-10.664,3.555-11.849,4.739-9.479,4.739-9.479l7.11-8.294,11.849-7.11,10.664-3.555,5.924-1.184-35.547-20.14505-29.622-15.4,10.664-5.925-16.588-9.475s16.588-7.109,16.588-8.294-5.924-3.555-5.924-3.555l18.958-11.851,1.185-22.513,16.588-47.4,13.034-9.479,27.253-2.37Z" fill="#bff3d6"/>
      <g id="Group_330" data-name="Group 330">
        <path id="Path_5274" data-name="Path 5274" d="M359.38946,551.74009c-11.165,0-11.183,14.439,0,14.439C370.55444,566.17905,370.57245,551.74009,359.38946,551.74009Z" fill="#ffc3c3"/>
        <path id="Path_5275" data-name="Path 5275" d="M343.39346,548.18607c-15.111,0-15.136,21.548,0,21.548C358.50046,569.73405,358.52945,548.18607,343.39346,548.18607Z" fill="#ffc3c3"/>
        <path id="Path_5276" data-name="Path 5276" d="M378.94046,547.22108c-15.111,0-15.136,22.513,0,22.513C394.05145,569.73405,394.07645,547.22108,378.94046,547.22108Z" fill="#ffc3c3"/>
        <path id="Path_5277" data-name="Path 5277" d="M364.21545,541.29606l-7.11-1.18-5.924-2.37,2.37-2.37,10.664-5.924,10.664,2.37-1.185,4.74-5.924,3.554Z" fill="#ffc3c3"/>
        <path id="Path_5278" data-name="Path 5278" d="M365.40045,492.71607h7.109l7.109,2.37-3.555,2.37-10.663,5.924-9.479-5.924-1.185-3.555,7.109-1.185Z" fill="#ffc3c3"/>
      </g>
      <path id="Path_5279" data-name="Path 5279" d="M592.01547,410.26105c-.859-18.637-21.237-26.5-37.2-28.842a383.63839,383.63839,0,0,0-47.562-3.762,3.306,3.306,0,0,0-2.281-.834c-13.253-2.935-27.314-3.472-40.833-3.916-13.759-.452-28.194-.941-41.806,1.382a4.693,4.693,0,0,0-.523.144c-32.173-.514-64.344-.777-96.517-1.173-17.555-.216-35.11-.577-52.666-.729q-12.873-.113-25.747-.272c-3.239-.043-6-.331-8.748.544a3.685,3.685,0,0,0-4.974-.607c-.34.234-.661.489-.994.73-7.117,1.173-13.863,6.416-16.09,13.074a3.654,3.654,0,0,0,.488,3.415,72.90006,72.90006,0,0,0-10.746,28.524,5.03489,5.03489,0,0,0-.372,1.119c-4.129,20.3-7.777,42.245-.031,62.178a68.938,68.938,0,0,0,32.2,36.08c27.1,13.9,60.126,6.77,80.436-14.72a5.063,5.063,0,0,0,5.85-2.474q9.529-16.166,18.9-32.42c4.845-8.448,9.565-21.42,20.232-23.7,23.63-5.059,31.537,24.592,33.118,41.856a6.88107,6.88107,0,0,0,3.245,5.6,3.42127,3.42127,0,0,0,.379,1.569c2.4,4.5,7.679,7.492,11.732,10.394a132.5702,132.5702,0,0,1,12.068,9.341,3.551,3.551,0,0,0,1.105,5.342c7.529,4.657,16.9,6.895,25.456,8.827,3.176.717,6.354,1.333,9.537,1.9a5.3,5.3,0,0,0,3.345,1.539q3.393.314,6.827.443,3.617.2,7.239.323a5.306,5.306,0,0,0,2.24-.372q3.1-.158,6.172-.521a4.53358,4.53358,0,0,0,1.036.7c11.216,5.443,23.549,3.254,34.63-1.428a236.202,236.202,0,0,0,34.615-18.333c18.837-12.023,37.311-31.627,34.59-55.743-.406-3.6-3.866-6.213-7.365-4.227a10.50009,10.50009,0,0,1-4.731,1.469c.595-10.61-.809-21.874-2.855-32.273,2.036-.517,4.038-1.194,6.043-1.848,3.183-1.038,6.639-1.927,9.438-3.806a3.266,3.266,0,0,0,1.12854-4.47883Z" fill="#bff2f5"/>
      <path id="Path_5280" data-name="Path 5280" d="M307.34045,587.50706l7.109-5.924,1.185-7.109,7.109-3.555,5.924,1.185,5.924,2.37,9.479,11.849,4.74,8.294v10.664l-7.11,4.73505h-8.294l-7.109,4.74-66.354,39.1-15.218,6.835-10.85-.911-7.109-5.924-.92-9.5.92-8.276,7.109-9.479,15.4-7.109,7.109-3.555,11.491,4.7,14.577-3.512,12.661-7.782,9.852-12.361Z" fill="#bfe3f0"/>
      <path id="Path_5281" data-name="Path 5281" d="M422.39246,732.69407c-2.474-4.461-4.945-8.929-7.489-13.351-1.865-3.241-3.789-6.865-6.383-9.682,2.9-2.355,2.183-8.042-2.347-7.585-14.534,1.466-30.352-7.745-35.03-21.928-4.745-14.384,2.121-30.844,15.193-38.123a4.225,4.225,0,0,0,2.077-5.21c3.11-3.613,4.658-8.086,2.408-13.33-4.365-10.17-17.454-10.318-26.777-9.246-8.883,1.02-21.078,3.534-25.348,12.546-2.787,5.885.049,14.461,5.854,16.748.477,9.358,1.731,18.334,1.346,27.684-7.105,9.576-14.3,19.089-21.46,28.622-7.087,9.433-15.315,19.005-20.939,29.386a3.47079,3.47079,0,0,0-.228.528,2.747,2.747,0,0,0-1.042,3.155c6.669,19.449,35.307,24.211,52.864,24.753,22.7.7,46.645-4.948,65.461-18.014a4.79292,4.79292,0,0,0,2.1-3.311A4.063,4.063,0,0,0,422.39246,732.69407Z" fill="#bfe3f0"/>
      <path id="Path_5282" data-name="Path 5282" d="M717.45145,766.80009c-1.965.475-3.935.925-5.9,1.377a14.45863,14.45863,0,0,0-2.515-1.971c-2.953-1.817-7.069,1.928-4.945,4.945,3.2,4.543,5.645,8.752,4.083,14.485-1.412,5.177,5.977,6.936,7.86,2.167,2.121-5.373,4.369-10.712,6.252-16.173C723.30044,768.67808,720.18845,766.13908,717.45145,766.80009Z" fill="#80e7ac"/>
      <path id="Path_5283" data-name="Path 5283" d="M782.79446,732.55808c-.876-3.089-6.013-4.36-7.488-.978-1.906,4.37-4.788,7.423-7.646,11.131a2.776,2.776,0,0,0,.468,3.62,3.30793,3.30793,0,0,0,1.982,2.414,21.63921,21.63921,0,0,1,9.862,8.9c2.254,3.833,7.294,1.771,7.733-2.1C788.55844,748.05405,784.80044,739.64408,782.79446,732.55808Z" fill="#80e7ac"/>
      <path id="Path_5284" data-name="Path 5284" d="M822.61746,694.72306a68.42615,68.42615,0,0,0-12.024-20.607,2.451,2.451,0,0,0-2.368-.868,2.06,2.06,0,0,0-3.439,1.475,46.21064,46.21064,0,0,1-1.071,6.006c-.052.014-.1.028-.156.045a3.04,3.04,0,0,0-2.083,1.352l-.527.763a2.934,2.934,0,0,0,.761,3.811h0a28.57535,28.57535,0,0,1-3.925,6.489,2.807,2.807,0,0,0,3.385,4.386,20.322,20.322,0,0,1,17.163.436,2.944,2.944,0,0,0,3.235-.228A2.88705,2.88705,0,0,0,822.61746,694.72306Z" fill="#80e7ac"/>
      <path id="Path_5285" data-name="Path 5285" d="M845.18643,636.682a3.7667,3.7667,0,0,0-.858-1.625c-.031-.029-.067-.054-.1-.083-.218-2.309-1.472-4.677-2.284-6.753q-1.49406-3.826-3.1-7.608c-1.052-2.479-2.134-4.935-3.342-7.341a41.35279,41.35279,0,0,0-2.02-3.788c-.766-1.2-1.734-2.229-2.6-3.347a1.37608,1.37608,0,0,0-.808-.523,2.37012,2.37012,0,0,0-3.352,1.447c-.523,2-.906,4.019-1.469,6.014-.581,2.057-1.2,4.109-1.94,6.116-.681,1.857-1.435,3.68-2.246,5.483-.67,1.491-1.438,3.053-1.993,4.625a2.73,2.73,0,0,0-1.122,2.993,2.883,2.883,0,0,0,3.459,1.964,30.05319,30.05319,0,0,1,11.1.537,27.91515,27.91515,0,0,1,5.3,1.726c.92.416,1.839.85,2.743,1.3.451.223.884.489,1.337.705a3.76455,3.76455,0,0,0,1.69.269,1.677,1.677,0,0,0,1.60492-2.111Z" fill="#80e7ac"/>
      <path id="Path_5286" data-name="Path 5286" d="M881.54349,548.26908a2.7,2.7,0,0,0-3.88-1.579,57.14375,57.14375,0,0,0-15.944,11.391,1.762,1.762,0,0,0-1.455,1.516,2.757,2.757,0,0,0,.642,4.164,59.5154,59.5154,0,0,1,15.971,15.076,2.8,2.8,0,0,0,3.448,1.13,2.766,2.766,0,0,0,1.63-3.092,3.28525,3.28525,0,0,0,.425-.82A39.043,39.043,0,0,0,881.54349,548.26908Z" fill="#80e7ac"/>
      <path id="Path_5287" data-name="Path 5287" d="M307.06647,469.25108a24.09961,24.09961,0,0,0-4.083-5.886,16.813,16.813,0,0,0-8.417-4.611c-.533-.115-1.072-.2-1.613-.267-1.576-.184-1.8,2.28-.365,2.7a15.029,15.029,0,0,1,6.062,3.4c-.133-.006-.266-.013-.4-.013-6.6,0-11.942,7.048-11.942,15.742s5.347,15.741,11.942,15.741,11.942-7.048,11.942-15.741a22.15516,22.15516,0,0,0-2.167-9.084Q307.577,470.248,307.06647,469.25108Z" fill="#008fc3"/>
      <path id="Path_5288" data-name="Path 5288" d="M452.98245,469.16007c-3.012-5.537-8.1-9.951-14.267-10.673-1.576-.184-1.8,2.28-.365,2.7a15.029,15.029,0,0,1,6.062,3.4c-.133-.006-.266-.013-.4-.013-6.6,0-11.942,7.048-11.942,15.742s5.346,15.741,11.942,15.741,11.942-7.048,11.942-15.742A23.76493,23.76493,0,0,0,452.98245,469.16007Z" fill="#008fc3"/>
      <g id="Group_331" data-name="Group 331">
        <path id="Path_5289" data-name="Path 5289" d="M700.55044,415.19007a11.04494,11.04494,0,0,1-3.322-10.088c.343-1.692-.8-3.9-2.826-3.709-15.317,1.452-38.855,2.144-52.921,8.38-3.555-3.555-21.328-10.664-22.513,0,0,1.185-8.115,2.93-15.4,5.026-8.258,2.374-16.548,4.638-24.822,6.953a2.812,2.812,0,0,0-2.033,2.67c.33,7.862.746,15.715,1.481,23.548a2.34909,2.34909,0,0,0,.676,1.476,2.811,2.811,0,0,0,3.15143,2.42319q.09228-.012.18359-.03018c11.015-2.192,23.359-6.813,34.4-8.889,10.664,2.37,17.748-.146,22.833-8.255a2.3569,2.3569,0,0,0,.3-.838c19.833-4.543,39.676-9.035,59.494-13.638a3.034,3.034,0,0,0,1.318-5.029Z" fill="#fff"/>
        <path id="Path_5290" data-name="Path 5290" d="M768.06143,503.71607a67.9604,67.9604,0,0,0-9.663-19.548,48.35964,48.35964,0,0,0-6.894-8.139,12.67363,12.67363,0,0,0-4.45-2.707,8.30742,8.30742,0,0,0-1.619-.344,2.169,2.169,0,0,0-3.12-1.307c-3.584,1.944-7.8,1.03-11.536.059a92.807,92.807,0,0,0-39.308-2.9c-9.063.91-18.064,2.412-27.054,3.851q-13.969,2.236-27.934,4.494c-4.814.774-9.653,1.46-14.4,2.579a50.90087,50.90087,0,0,0-6.958,2.1,23.14338,23.14338,0,0,0-3.261,1.473,26.38772,26.38772,0,0,0-2.714,2.1c-.76.591-.213,1.776.594,1.974a82.64731,82.64731,0,0,0,11.67609,6.715,2.4419,2.4419,0,0,0,1.036,1.729l5.453,4.08c-.931-.01-1.861-.009-2.779-.009q-3.97494,0-7.945.259a127.07253,127.07253,0,0,0-16.544,2.189,112.43959,112.43959,0,0,0-15.847,4.3c-2.566.918-5.093,1.918-7.569,3.056-.925.426-1.875.862-2.822,1.313a1.941,1.941,0,0,0-2.854-1.272,220.34108,220.34108,0,0,1-35.231,16.045c-12.317,4.335-25.1,7.141-37.441,11.385a199.5845,199.5845,0,0,0-59.471,32.725,193.49913,193.49913,0,0,0-27.351,26.7,2.08785,2.08785,0,0,0-.5,1.165,79.73008,79.73008,0,0,0-15.419,40.675,1.208,1.208,0,0,0,.83,1.348,1.627,1.627,0,0,0,.995,1.559c1.663.835,3.345,1.632,5.022,2.439a2.039,2.039,0,0,0,2.7-.71c1.987-2.936,6.419,0,8.425,1.334a51.17321,51.17321,0,0,1,7.62,6.215,56.0749,56.0749,0,0,1,11.232,15.874c5.664,11.9,7.789,27.753,1.034,39.669a22.715,22.715,0,0,1-15.978,11.281,1.655,1.655,0,0,0-.445-.4,1.81292,1.81292,0,0,0-1.365-.179,1.794,1.794,0,0,0-1.058.814,1.81606,1.81606,0,0,0-.195.612,1.2,1.2,0,0,0,.387,1.978c.108.262.223.519.335.763a8.64253,8.64253,0,0,0,1.162,1.795,7.78832,7.78832,0,0,0,1.5,1.421,4.43814,4.43814,0,0,0,1.033.54,2.76708,2.76708,0,0,0,.813.207c.044.013.088.026.132.037a1.23888,1.23888,0,0,0,.349.053l.128-.015h.042a5.1,5.1,0,0,0,.777,1.92c.3.518.566,1.052.879,1.561.627,1.016,1.254,2.035,1.907,3.034s1.326,1.993,2.024,2.966c.205.286.419.615.646.943v.005c-2.617,7.1-10.618,9.915-17.058,12.409-3.847,1.489-7.681,3.01-11.524,4.509-2.013.786-4.028,1.564-6.038,2.356-1.69.666-3.871,1.138-5.022,2.595a1.66191,1.66191,0,0,0-1.032,1.061,10.05607,10.05607,0,0,0-.224,3.043q-.02,1.521-.038,3.041-.037,3.04194-.076,6.082c-.024,2.027-.031,4.055-.045,6.082q-.009,1.52106.067,3.041c.01.183.021.35.036.511l-.077-.013a1.535,1.535,0,0,0-1.709,2.223,12.339,12.339,0,0,0,1.2,1.4.953.953,0,0,0,1.7-.174,147.36832,147.36832,0,0,0,25.532,4.048,174.39078,174.39078,0,0,0,23.724.237,631.18309,631.18309,0,0,0,73.7,1.864,580.768,580.768,0,0,0,75.264-8.255c13.93-2.373,27.9-4.721,41.73-7.606a1.994,1.994,0,0,0,1.474-1.468h.041a86.21453,86.21453,0,0,0,9.625-2.026q23.811-5.175,47.179-12.156a2.353,2.353,0,0,0,1.688-1.564q20.362-6.027,40.462-12.913c8.755-3.008,17.462-6.1,25.893-9.927a2.28606,2.28606,0,0,0,3.485-1.213,125.61063,125.61063,0,0,0,1.894-12.552q.762-6.13293,1.326-12.289,1.14093-12.451,1.473-24.96a382.85851,382.85851,0,0,0-1.935-49.371q-1.155-11.211-2.959-22.35c-.118-1.7-.241-3.391-.407-5.081-.218-2.2-.381-4.407-.692-6.591a2.1129,2.1129,0,0,0,.724-1.658c-.171-3.2-.744-6.4-1.118-9.582q-.528-4.5-1.123-9-1.227-9.27-2.828-18.485c-2.165-12.363-4.822-24.667-8.106-36.783-.913-3.37-1.841-6.743-2.866-10.081-.648-2.11-1.424-4.167-2.222-6.217a89.36439,89.36439,0,0,1,12.773-1.8c2.39-.135,4.784-.131,7.176-.2,1.285-.039,2.571,0,3.855-.033.355-.009.73-.019,1.1-.04a2.01917,2.01917,0,0,0,.225.152,10.65105,10.65105,0,0,0,1.927.764,2.311,2.311,0,0,0,2.82019-2.83383Z" fill="#fff"/>
        <path id="Path_5291" data-name="Path 5291" d="M289.18445,553.677c-2.893-8.971-11.524-15.313-19.9-18.809-10.49-4.378-22.09-4.714-33.3-4.464-1.691.038-3.382.092-5.072.149a9.06544,9.06544,0,0,0-2.228.132,7.57472,7.57472,0,0,0-2.228,1.6c-.428.347-.852.7-1.279,1.047l-.027.005c-7.312,2.145-12.943,7.486-17.348,13.51a59.41982,59.41982,0,0,0-9.769,21.319,60.746,60.746,0,0,0,7.414,45.469c4.919,7.972,11.808,14.415,18.626,20.734a2.32,2.32,0,0,0,3.24,0q3.373-3.832,6.782-7.633a1.24217,1.24217,0,0,0,.614-.783c.982-1.774-1-3.917-2.695-3.122a26.192,26.192,0,0,1-7.708-14.67c-1.257-7.563.506-15.475,3.068-22.586a65.89,65.89,0,0,1,35.978-38.169,96.49867,96.49867,0,0,1,11.631-3.8,2.0242,2.0242,0,0,0,.9-.523q1.3.939,2.552,2.01a40.95613,40.95613,0,0,1,7.962,9.751C287.28345,556.27006,289.73047,555.36906,289.18445,553.677Z" fill="#fff"/>
        <path id="Path_5292" data-name="Path 5292" d="M306.35446,634.49607l.009-.295c.036-1.252.314-2.728-.22-3.886a1.3,1.3,0,0,0-2.218,0,2.43672,2.43672,0,0,0-.333.884,1.16515,1.16515,0,0,0-1.02-.011c-8.851,4.4-17.115,10.025-25.458,15.3q-5.7,3.608-11.381,7.251-3.726.9-7.455,1.782c-2.228.524-5.053.741-6.929,2.171a3.661,3.661,0,0,0-.357,5.617,4.23257,4.23257,0,0,0,1.1.764,239.61112,239.61112,0,0,0-9.56,33.48c-1.155,5.648-1.99,11.346-2.741,17.061q-.565,4.3-.972,8.63c-.277,2.974-2.934,5.846-2.578,8.82.1.8,1.71,3.642,2.37,3.555,2.313,2.935,6.568,4.788,9.479,7.109,3.428,2.734,7.112,3.619,10.933,5.773a84.19266,84.19266,0,0,0,37.44195,11.01508c.464,1.139,2.248.961,2.774-.1a2.279,2.279,0,0,0,.128-3.816c-.052-6.987-.077-13.964.266-20.951.385-7.86,1.056-15.7,1.673-23.547q1.878-23.882,3.754-47.763c.711-9.037,1.551-18.076,2.112-27.124A1.774,1.774,0,0,0,306.35446,634.49607Zm-52.116,25.912a11.57052,11.57052,0,0,1,1.706-.446l.406-.1a3.27593,3.27593,0,0,1-2.53.76A3.18372,3.18372,0,0,1,254.23846,660.40806Z" fill="#fff"/>
        <path id="Path_5293" data-name="Path 5293" d="M413.06845,527.52607c-5.057-4.311-10-8.757-14.966-13.169a2.067,2.067,0,0,0-2.389-.312q-2.2-1.686-4.4-3.38c-3.366-2.609-6.713-5.7-10.495-7.7-3.242-1.712-7.39-2.377-10.659-.307a10.30039,10.30039,0,0,0-3.065,3.376c-.544.854-1.17,2.395-2.37,1.729-1.364-.758-1.983-2.939-2.894-4.144a11.16312,11.16312,0,0,0-4.329-3.442c-7.077-3.205-14.385.048-19.6,5.128-6.487,6.324-10.4,15.105-19.327,18.531a1.6,1.6,0,0,0,.7,3.111,27.29244,27.29244,0,0,0,6.531,4.126,32.36226,32.36226,0,0,0,8.4,2.33,33.16289,33.16289,0,0,0,17.438-2.285c2.817-1.2,5.265-3,7.941-4.457a10.13294,10.13294,0,0,1,8.8-.869c6.223,2.248,10.431,8.047,16.925,9.837a17.57575,17.57575,0,0,0,5.368.6,16.14724,16.14724,0,0,0,5.949,1.1,17.17,17.17,0,0,0,13.292-6.709c.16.12.318.242.478.361C412.39447,532.46708,414.96646,529.14506,413.06845,527.52607Z" fill="#fff"/>
        <ellipse id="Ellipse_252" data-name="Ellipse 252" cx="296.75744" cy="476.65405" rx="4.207" ry="5.428" fill="#fff"/>
        <circle id="Ellipse_253" data-name="Ellipse 253" cx="293.22845" cy="469.59805" r="1.221" fill="#fff"/>
        <ellipse id="Ellipse_254" data-name="Ellipse 254" cx="442.51947" cy="476.65405" rx="4.207" ry="5.428" fill="#fff"/>
        <circle id="Ellipse_255" data-name="Ellipse 255" cx="438.99047" cy="469.59805" r="1.221" fill="#fff"/>
      </g>
      <path id="Path_5294" data-name="Path 5294" d="M261.20047,620.92405s-25.64,10.186-27.748,16.508-2.81,13.347,3.161,15.1,14.05-1.054,22.479-5.62,66.71-38.75,66.71-38.75l-29.128.114-14.8,11.772Z" fill="#40d9e1"/>
      <path id="Path_5295" data-name="Path 5295" d="M336.00745,698.54606l-25.288,31.963s17.561,16.156,51.982,16.156,49.875-11.942,49.875-11.942l-16.156-30.557-9.132-3.863s-10.186,1.4-15.455,8.78-12.644-.351-15.8-2.809-10.186-3.513-13.7-1.757S336.00745,698.54606,336.00745,698.54606Z" fill="#80c7e1"/>
      <g id="Group_332" data-name="Group 332">
        <path id="Path_5296" data-name="Path 5296" d="M555.09347,264.28307a46.3906,46.3906,0,0,0-9.338-10.753,91.6301,91.6301,0,0,0-11.413-8.8,78.80032,78.80032,0,0,0-26.316-10.8,81.858,81.858,0,0,0-16.353-1.728c-3-.01-3.423,3.911-1.291,5.1.77,1.529,1.873,2.9,2.741,4.382a49.746,49.746,0,0,1,2.62,5.12c.582,1.32,1.1,2.669,1.559,4.036-16.18-7.6-34.388-11.789-52.233-9.433a1.577,1.577,0,0,0,0,3.151c4.751.343,9.493.834,14.208,1.521s9.42,1.576,14.057,2.71a121.80167,121.80167,0,0,1,13.666,4.177q3.328,1.243,6.57,2.7,1.611.726,3.2,1.507a7.91085,7.91085,0,0,0,2.3.9c1.261.2,3.478.628,3.922-1.014.535-1.964-.191-4.214-.743-6.115a51.20166,51.20166,0,0,0-2.162-5.984,49.32556,49.32556,0,0,0-2.735-5.4c-.319-.544-.644-1.1-.985-1.664a81.68317,81.68317,0,0,1,28.5,7.745,83.06348,83.06348,0,0,1,14.569,8.772c4.684,3.625,8.618,7.967,12.947,11.961a1.736,1.736,0,0,0,2.71-2.091Z" fill="#008fc3"/>
        <path id="Path_5297" data-name="Path 5297" d="M717.37643,371.89905a35.20258,35.20258,0,0,0-6.065,3.951c-1.966,1.461-3.928,2.947-5.837,4.483-1.819,1.464-3.578,3.02-5.346,4.545-1.917,1.654-4.149,3.252-5.137,5.623-.818,1.963,1.51,3.732,3.273,3.272,2.26-.589,4.24-2.785,5.966-4.3,1.841-1.614,3.694-3.231,5.481-4.9,3.381-3.168,7.3-6.616,9.781-10.556C720.38943,372.59208,718.67746,371.30607,717.37643,371.89905Z" fill="#008fc3"/>
        <path id="Path_5298" data-name="Path 5298" d="M320.32046,307.12806c-.472-2.053-3.45-1.49-3.546.48-.149,3.038.112,6.031-.215,9.082a48.66822,48.66822,0,0,1-1.683,8.415,32.96472,32.96472,0,0,1-3.4,7.949c-.782,1.3-1.647,2.55-2.543,3.777-.827,1.132-2,2.243-2.277,3.651-.187.943.639,2.115,1.714,1.713,2.641-.989,4.386-4.631,5.675-6.98a66.78652,66.78652,0,0,0,4.09-8.917,42.29427,42.29427,0,0,0,2.246-9.352A29.28148,29.28148,0,0,0,320.32046,307.12806Z" fill="#008fc3"/>
        <path id="Path_5299" data-name="Path 5299" d="M458.12945,255.89606a36.27553,36.27553,0,0,1-3.747-.624,41.089,41.089,0,0,0-4.251-.314c-2.567-.1-5.139-.227-7.706-.307a95.62863,95.62863,0,0,0-16.052.859,121.78467,121.78467,0,0,0-17.636,3.8c-1.71.5-3.392,1.088-5.072,1.679q-1.26.45-2.523.881c-.724.248-1.555.762-2.343.522-.529-.162-.8-.624-1.2-.964a8.65442,8.65442,0,0,0-1.521-1.085q-1.97-1.061-3.923-2.15-3.9-2.175-7.723-4.478-6.888-4.153-13.479-8.775c-4.218-2.97-8.425-5.965-12.5-9.129-4.108-3.19-8.54-6.106-12.432-9.552-4.33-3.834-8.517-7.8-12.545-11.948a1.167,1.167,0,0,0-.841-.7,1.7,1.7,0,0,0-1.509,0,1.439,1.439,0,0,0-1.1.369c-1.59,1.537-1.835,4.465-2.257,6.549-.133.652-.249,1.3-.353,1.948-1.864,8.938-4.647,17.568-7.278,26.314-2.775,9.226-5.03,18.6-7.9,27.8-1.463,4.7-3.017,9.374-4.589,14.04-1.5,4.453-2.753,8.987-4.315,13.421-3.2,9.072-7.194,17.835-10.586,26.821-3.888,10.3-9.307,19.823-13.966,29.774a1.432,1.432,0,0,0,2.471,1.444c5.189-8.393,8.868-17.573,13.662-26.167,2.3-4.125,4.464-8.224,6.353-12.557,1.974-4.529,3.84-9.1,5.734-13.664s3.865-9.106,5.756-13.676c1.8-4.344,3.224-8.874,4.694-13.338q4.621-14.037,8.33-28.347c1.348-5.218,1.988-10.551,2.913-15.846.566-3.238,1.047-6.485,1.546-9.732a1.73142,1.73142,0,0,0,.118-.31c.279-1.007.532-2,.768-3,7.985,21.225,15.246,43.586,13.719,66.424a88.42285,88.42285,0,0,1-1.341,10.252c-.105.57-.231,1.14-.366,1.709.065-.271-1.162-1.343-1.367-1.545a15.37555,15.37555,0,0,0-1.611-1.371c-1.568-1.163-3.462-1.659-4.68-3.277a2.08733,2.08733,0,0,0-.557-.592c-.921-.537-2.1.652-2.215,1.514-.259,1.943.038,3.915-.246,5.873a25.48855,25.48855,0,0,1-1.556,5.67c-1.464,3.734-4.1,6.569-6.21,9.9a1.4,1.4,0,0,0,1.9,1.9c3.706-2.328,5.909-6.682,7.437-10.656a31.43482,31.43482,0,0,0,1.679-6.437c.135-.869.284-1.777.38-2.691a12.746,12.746,0,0,1,2.884,2.559,14.72321,14.72321,0,0,1,2.638,5.43c-.136.718-.247,1.438-.313,2.16-.155,1.7,2.223,2.066,3.025.819a12.43529,12.43529,0,0,0,.706-1.266,1.608,1.608,0,0,0,.829-1.724c-.009-.071-.022-.141-.032-.211a54.87724,54.87724,0,0,0,1.435-5.406,72.70077,72.70077,0,0,0,1.472-9.093,97.90039,97.90039,0,0,0,.029-18.984c-1.152-12.856-4.445-25.379-8.58-37.572-2.242-6.611-4.852-13.084-7.326-19.611,2.9,2.971,5.845,5.9,8.875,8.723,3.867,3.607,7.451,7.52,11.544,10.884a213.70165,213.70165,0,0,0,25.821,18.21c4.613,2.766,9.215,5.488,13.973,7.986a67.59166,67.59166,0,0,0-13.136,7.268c-1.5,1.106-.687,4.134,1.4,3.318,6.088-2.384,11.973-5.175,18.145-7.365a147.73874,147.73874,0,0,1,18.968-5.336c6.424-1.349,12.947-2.131,19.446-3.009a72.21847,72.21847,0,0,1,9.769-.654c1.645.006,3.286.066,4.93.108a46.33274,46.33274,0,0,1,5.078-.086C460.14847,259.61607,460.62247,256.00106,458.12945,255.89606Z" fill="#008fc3"/>
        <path id="Path_5300" data-name="Path 5300" d="M619.84946,311.87608c-.809-1.495-2.457-2.609-3.7-3.742a21.34066,21.34066,0,0,0-4.062-3.256,1.548,1.548,0,0,0-2.1,2.1,21.16358,21.16358,0,0,0,3.4,3.922c1.17,1.184,2.377,2.825,3.883,3.563a1.908,1.908,0,0,0,2.579-2.587Z" fill="#008fc3"/>
        <path id="Path_5301" data-name="Path 5301" d="M717.85043,328.52805a1.778,1.778,0,0,0-2.6-1.922,26.273,26.273,0,0,0-3.384,3.3,23.21754,23.21754,0,0,1-4.047,2.658c-1.283.818-2.592,1.608-3.872,2.43-.391.252-.81.5-1.235.758-.181-3.515-.672-7.057-1.085-10.516q-.8-6.72-1.941-13.4a262.5068,262.5068,0,0,0-5.706-26.195,245.24651,245.24651,0,0,0-20.548-50.259c-2.416-4.474-5.076-8.8-7.909-13.015-2.848-4.242-6.015-8.218-9.051-12.322a2.01395,2.01395,0,0,0-3.158-.068,190.52467,190.52467,0,0,1-16.874,12.754,190.15762,190.15762,0,0,0-16.848,13.126c-2.751,2.317-5.308,4.844-8.066,7.162s-5.52,4.632-8.287,6.94c-5.355,4.467-10.744,8.9-16.043,13.43l-.757.645a35.401,35.401,0,0,0-5.279-5.552,59.65881,59.65881,0,0,0-8.377-6.4c-5.789-3.724-12.054-6.512-18.917-7.326-1.705-.2-1.755,2.267-.378,2.792,5.9,2.249,11.825,4.811,16.919,8.6a50.84389,50.84389,0,0,1,6.833,6.252c1.58,1.706,2.9,3.862,4.481,5.638-4.374,3.706-8.742,7.423-12.957,11.3-1.237,1.137.418,3.377,1.827,2.368,2.42-1.732,4.795-3.526,7.153-5.342,1.188-.914,2.385-1.817,3.574-2.73,1.137-.873,2.228-1.81,3.366-2.677.612-.465,1.271-.863,1.881-1.33.692-.53,1.315-1.142,2.009-1.669.74-.562,1.486-1.115,2.221-1.685q1.8-1.392,3.586-2.8,3.578-2.81,7.135-5.644l2.887-2.29c5.651-4.476,11.248-9.029,17.119-13.2a177.48278,177.48278,0,0,0,16.513-13.581c4.574-4.172,9.084-8.4,13.8-12.4a605.05384,605.05384,0,0,1-.816,78.748q-.454,5.685-.993,11.365c-.174,1.834-.345,3.663-.46,5.5-.109,1.754-.024,3.538-.1,5.285a97.36615,97.36615,0,0,0-5.3-8.682c-2.1-3.4-4.212-6.786-6.388-10.138a1.959,1.959,0,0,0-3.619.98c-.189,3.645-.481,7.287-.727,10.928-.056.835-.13,1.68-.2,2.529-2.6-4.257-5.223-8.5-7.776-12.783a1.9,1.9,0,0,0-3.5.949c-.233,2.984-.983,6.5-.284,9.442.263,1.107,2.121,1.5,2.615.341a14.12478,14.12478,0,0,0,.919-3.536c2.453,4.384,7.424,13.157,7.983,13.85.495.712,2.487,1.106,2.854-.149.018-.063.977-8.005,1.175-10.643.11-1.463.213-2.928.318-4.392q1.386,2.439,2.79,4.87c1.923,3.335,3.66,7.186,6.165,10.118,1.233,1.443,4.755,1.26,5.793-2.4a42.81037,42.81037,0,0,0,1.04-4.677c.295-1.774.574-3.546.772-5.332.369-3.325.716-6.652,1.013-9.983.6-6.777,1.041-13.566,1.508-20.353.943-13.681,1.136-27.429.949-41.139-.088-6.493-.333-12.98-.682-19.464,3.454,5.724,6.6,11.686,9.722,17.551,4.177,7.84,8.139,15.779,11.553,23.986a261.079,261.079,0,0,1,15.547,50.9c.923,4.842,1.714,9.712,2.334,14.6.642,5.068.857,10.2,1.612,15.25.325,2.177,2.872,2.321,4.25,1.14a15.70052,15.70052,0,0,0,4.394-1.349,20.07351,20.07351,0,0,0,4.72-2.972,14.72674,14.72674,0,0,0,1.507-1.5,89.29077,89.29077,0,0,1-4.062,15.227,83.0888,83.0888,0,0,1-4.249,9.683c-1.639,3.165-3.743,6.108-5.053,9.413-.652,1.644,1.642,2.588,2.745,1.6,2.705-2.428,4.513-5.887,6.237-9.063a87.33778,87.33778,0,0,0,4.781-10.4,81.9,81.9,0,0,0,5.095-22.016A2.23511,2.23511,0,0,0,717.85043,328.52805Z" fill="#008fc3"/>
        <path id="Path_5302" data-name="Path 5302" d="M244.50546,526.09705c-2.694-1.792-5.854-2.972-8.71-4.491-2.884-1.533-5.744-3.1-8.668-4.564-5.851-2.919-11.735-5.771-17.56-8.743s-11.653-5.932-17.54-8.778c-2.946-1.424-5.885-2.864-8.839-4.271-1.277-.608-2.547-1.239-3.833-1.827.646-.274,1.274-.551,1.873-.786,2.1-.826,5.126-1.441,6.678-3.123a1.828,1.828,0,0,0,.5-1.352,2.46309,2.46309,0,0,0-1.119-3.559c-3.1-1.264-6.207-2.509-9.311-3.76-1.319-.531-2.643-1.076-3.983-1.57,1.524-.619,3.027-1.3,4.49-2.049,3.25-1.665,7.337-3.788,9.664-6.676a1.727,1.727,0,0,0-2.083-2.7,48.41312,48.41312,0,0,0-4.495,2.869,55.226,55.226,0,0,1-4.943,2.74,50.25488,50.25488,0,0,1-4.965,2.108c-1.684.613-3.628.941-4.992,2.143a1.883,1.883,0,0,0,.827,3.13,5.37241,5.37241,0,0,0,.589.062,49.18535,49.18535,0,0,0,8.408,4.026q3.035,1.251,6.068,2.5c-1.088.484-2.145,1.037-3.078,1.42-1.848.76-4.14,1.419-5.743,2.723-.937.227-1.636,1.407-.986,2.209a1.523,1.523,0,0,0,1.152.919,59.59267,59.59267,0,0,0,7.189,4.127c2.894,1.515,5.805,3,8.707,4.5,5.915,3.054,11.893,5.977,17.867,8.911,5.869,2.882,11.681,5.875,17.531,8.8,2.932,1.463,5.925,2.789,8.879,4.2s5.87,3.214,8.972,4.311C245.15745,530.28107,246.20045,527.22407,244.50546,526.09705Z" fill="#008fc3"/>
        <path id="Path_5303" data-name="Path 5303" d="M253.02345,439.73905c-2.8.988-5.615,1.911-8.391,2.957a54.90759,54.90759,0,0,0-7.979,3.285c-1.5.856-.44,2.937,1.118,2.65a54.63249,54.63249,0,0,0,8.128-2.623c2.694-.955,5.339-2.034,8.012-3.046C255.89346,442.21607,255.07146,439.01606,253.02345,439.73905Z" fill="#008fc3"/>
        <path id="Path_5304" data-name="Path 5304" d="M287.67145,413.21607c-5.749.6-11.522,1.488-17.23,2.4-2.763.443-5.53.858-8.3,1.28-3.715.566-7.438,1.116-10.759,3a2.45314,2.45314,0,0,0-1.134,1.047c-.5,1.166,1.225,1.845,2.053,2.094a32.59935,32.59935,0,0,1,6.292,2.455,15.94873,15.94873,0,0,1,2.876,2.025c-.163.045-.324.09-.481.129a51.75809,51.75809,0,0,0-5.235,1.547,25.88532,25.88532,0,0,0-9.071,5.2c-1.153,1.1.309,2.769,1.63,2.112a69.33013,69.33013,0,0,1,8.935-4.173,24.63232,24.63232,0,0,1,4.822-1.177c1.583-.185,3.14.113,4.572-.676a1.832,1.832,0,0,0,.445-2.839,2.16935,2.16935,0,0,0-.445-.756,20.57823,20.57823,0,0,0-8.8-5.731c1.494-.162,2.986-.38,4.446-.546,2.9-.329,5.792-.669,8.691-.977,5.75-.612,11.552-1.271,17.259-2.193C290.61246,417.05707,290.08646,412.96006,287.67145,413.21607Z" fill="#008fc3"/>
        <path id="Path_5305" data-name="Path 5305" d="M306.76547,419.84907a32.6,32.6,0,0,0-13.81-11.4c-5.257-2.206-11.5-4.068-17.245-3.316a1.374,1.374,0,0,0,0,2.746c5.384.589,10.412,1.382,15.1,4.293a38.50957,38.50957,0,0,1,11.348,10.371C304.11645,425.34306,308.76047,422.65006,306.76547,419.84907Z" fill="#008fc3"/>
        <path id="Path_5306" data-name="Path 5306" d="M511.81546,452.58005c-2.8-6.141-9.171-11.058-16.018-11.473-2.033-.123-2.543,3.265-.488,3.6,5.991.985,10.918,3.941,13.553,9.6C509.79446,456.30405,512.71945,454.56507,511.81546,452.58005Z" fill="#008fc3"/>
        <path id="Path_5307" data-name="Path 5307" d="M514.62344,435.25706c-4.177-2-8.388-3.752-12.735-5.352l-6.441-2.371c-.245-.09-.49-.185-.736-.283l.035-.006a20.60009,20.60009,0,0,1,5.346.192c1.7.2,2.017-2.207.81-2.989a10.16307,10.16307,0,0,0-6.992-1.281c-1.8.26-4.217.866-5.632,2.237-1.615.272-1.754,2.651-.476,3.555,1.757,1.243,4.206,1.733,6.218,2.461l6.451,2.335c4.318,1.563,8.618,2.936,13.064,4.083C515.02945,438.22306,516.11246,435.97108,514.62344,435.25706Z" fill="#008fc3"/>
        <path id="Path_5308" data-name="Path 5308" d="M491.85547,418.31608c-3.074-.958-6.741-.349-9.77.518a34.41734,34.41734,0,0,0-3.4,1.165l.6-1.393c1.082-2.52,2.6-5.3,2.992-8.027a1.623,1.623,0,0,0-1.226-1.776c.552-1.64-.524-3.765-2.623-3.031a43.21315,43.21315,0,0,0-6.659,3.539q-3.477,1.962-6.97,3.894c-4.573,2.528-9.1,5.049-13.478,7.891a1.423,1.423,0,0,0,1.435,2.455c4.714-2,9.258-4.28,13.827-6.606q3.41-1.735,6.832-3.443c1.669-.831,3.546-1.568,5.22-2.511a61.29937,61.29937,0,0,0-3.052,5.841q-.99,1.958-1.979,3.916a10.09289,10.09289,0,0,0-1.554,4.178,1.906,1.906,0,0,0,1.84664,1.96357q.05018.0015.10035.00042a1.755,1.755,0,0,0,1.807-.236,22.3256,22.3256,0,0,1,7.284-4.194c2.788-.837,5.516-.759,8.361-1.126a1.545,1.545,0,0,0,.406-3.018Z" fill="#008fc3"/>
        <path id="Path_5309" data-name="Path 5309" d="M706.89249,418.43708a140.31969,140.31969,0,0,0-7.987-17.476,2.431,2.431,0,0,0-2.29-3.2,162.78888,162.78888,0,0,0-28.072,2.254c-4.573.774-9.118,1.8-13.613,2.938-2.252.57-4.5,1.167-6.726,1.837-2.03.612-4.643,1.12-6.206,2.616a1.22384,1.22384,0,0,0-.269.4,13.469,13.469,0,0,0-7.68-5.153c-6.646-1.685-13.444.932-19.239,4.068a1.747,1.747,0,0,0,.468,3.134c-2.49.361-5.019,1.056-7.373,1.528-3.43.687-6.855,1.393-10.286,2.073-.664.131-1.327.255-1.99.384a51.326,51.326,0,0,0-39.992-35.885c-5.215-.91-11.579-1.705-16.606.373a1.41,1.41,0,0,0,.373,2.754c2.934.387,5.924.155,8.876.331a46.90674,46.90674,0,0,1,8.788,1.38,48.00083,48.00083,0,0,1,15.432,7.123,46.949,46.949,0,0,1,18.156,24.858c-1.121.2-2.24.413-3.363.61-1.838.322-3.664.713-5.493,1.082-1.809.366-3.711.417-5.375,1.229-.067.033-.13.067-.191.1a1.415,1.415,0,0,0-1.6.3c-.939,1.2-.945,2.306-.995,3.789-.053,1.621-.1,3.238-.11,4.86-.027,3.007-.079,6.016-.064,9.024s.021,6.018.074,9.025c.034,2.007-.117,4.2-.015,6.316a2.719,2.719,0,0,0,.547,3.579c.766,2.029,4.1,2.068,4.6-.223,2.6-.586,5.216-1.461,7.751-2.069q1.11-.267,2.223-.529a64.50909,64.50909,0,0,1-12.511,41.85c-9.411,12.592-23.238,20.8-37.284,27.252-4.369,2.007-8.738,4.193-13.216,5.924-4.64,1.793-9.414,3.321-13.95,5.367-1.65.744-.428,3.132,1.177,2.791,4.493-.956,8.909-2.442,13.286-3.824s8.826-2.514,13.138-4.159a118.25881,118.25881,0,0,0,22.565-11.436c13.835-9.053,24.488-22.075,29.639-37.862a66.94317,66.94317,0,0,0,3.181-27.072c-.008-.089-.021-.177-.035-.264q1.173-.289,2.344-.589c3.506-.9,7.026-1.745,10.542-2.607a92.608,92.608,0,0,0,9.683-2.612c-.014.1-.027.2-.04.292a2.389,2.389,0,0,0,4.317,1.918,19.21314,19.21314,0,0,0,13.8-3.238,19.583,19.583,0,0,0,7.588-10.521,1.89133,1.89133,0,0,0,.424-.007c9.906-1.346,19.723-3.188,29.555-5.059q7.18-1.368,14.361-2.736l7.517-1.451c2.428-.469,5.031-.71,7.292-1.741a1.85311,1.85311,0,0,0,.8-.661C704.56845,422.57706,707.75046,420.82206,706.89249,418.43708Zm-90.087-8.9c.081.039.167.076.243.118-.255.017-.512.046-.769.073Zm2.346,16.124c-.2,5.32-.8,10.535-1.505,15.778a77.48535,77.48535,0,0,0-10.49,1.81c-3.551.739-7.094,1.507-10.653,2.2s-7.1,1.483-10.643,2.242c-1.829.392-3.656.8-5.49,1.166-.453.09-.917.166-1.384.24-.063-1.462-.18-2.92-.211-4.3-.067-3.009-.179-6.017-.283-9.025s-.276-6.017-.421-9.024c-.073-1.51-.172-3.015-.28-4.522,1.771.016,3.559-.762,5.281-1.151,1.817-.41,3.639-.8,5.444-1.258q5.081-1.288,10.18-2.455c3.4-.783,6.814-1.541,10.219-2.316,3.253-.74,6.917-1.237,9.994-2.6a22.31571,22.31571,0,0,1,.229,3.381c.103,3.277.136,6.552.013,9.834Zm21.171-5.08a63.688,63.688,0,0,1-1.063,8.967c-.578,2.9-1.3,5.937-3.2,8.265a13.564,13.564,0,0,1-13.553,4.7,107.86177,107.86177,0,0,0,1.414-20.583c-.067-3.6.129-7.774-1.043-11.221a8.1104,8.1104,0,0,0-1.688-2.794c4.16-1.463,8.473-2.511,12.778-.977,5.8529,2.07794,6.65192,8.20495,6.35492,13.64294Zm60.623-2.5c-2.452-.113-5.061.734-7.46,1.2l-7.173,1.394c-4.9.952-9.786,1.926-14.678,2.89-9.37,1.847-18.717,3.717-27.972,6.02.849-5.227,1.524-10.984.485-16.194a14.51961,14.51961,0,0,0-1.207-3.573c2.008.179,4.058-.647,5.988-1.151,2.25-.588,4.5-1.177,6.766-1.693,4.437-1.008,8.91-1.789,13.416-2.418a190.95427,190.95427,0,0,1,26.7-1.855,151.12285,151.12285,0,0,0,5.216,15.39.71545.71545,0,0,0-.08112-.01306Z" fill="#008fc3"/>
        <path id="Path_5310" data-name="Path 5310" d="M732.44046,424.00407c-2.665-1.19-5.406-2.119-8.153-3.1-2.615-.935-5.128-2.117-7.935-2.328-4.045-.305-10.581,2.09-10.584,6.99a2.69,2.69,0,0,0,4.975,1.348c.794-1.375.842-2.633,2.468-3.342a9.5871,9.5871,0,0,1,5.348-.179c4.335.714,8.44,2.426,12.734,3.333C732.83945,427.05207,734.06747,424.73106,732.44046,424.00407Z" fill="#008fc3"/>
        <path id="Path_5311" data-name="Path 5311" d="M748.88644,453.67905c-3.592-2.068-7.648-3.55-11.423-5.266q-3.57294-1.626-7.156-3.229c2.178-1.171,4.309-2.437,6.361-3.8,2.921.342,4.059-4.262,1-4.951-3.2-.719-6.422-1.25-9.645-1.848-3.1-.576-6.258-1.524-9.427-1.507-1.421.007-2.126,2.106-.756,2.792,2.828,1.416,6.017,1.982,9.045,2.84,1.527.433,3.046.879,4.569,1.312-2.676.951-5.308,2.04-7.876,3.222a2.4,2.4,0,0,0,0,4.117q5.878,2.694,11.767,5.367c3.864,1.746,7.731,3.848,11.744,5.217C749.61948,458.80906,751.14743,454.98106,748.88644,453.67905Z" fill="#008fc3"/>
        <path id="Path_5312" data-name="Path 5312" d="M629.20047,499.08207c-3.908-2.476-7.755-5.053-11.683-7.5q-2.8-1.74-5.6-3.474c-1.93-1.188-3.916-2.733-6.082-3.432-1.576-.509-2.41,1.481-1.495,2.568,1.388,1.651,3.536,2.855,5.269,4.127q2.809,2.063,5.635,4.1c1.973,1.432,3.972,2.829,5.973,4.224-1.1.062-2.2.18-3.149.225-2.342.11-4.679.306-7.013.51a122.20637,122.20637,0,0,0-14.713,2.255,124.22706,124.22706,0,0,0-14.162,3.831c-2.268.771-4.516,1.606-6.722,2.541-1.934.821-5.018,1.571-6.08,3.5a1.386,1.386,0,0,0,.821,2.017c2.135.394,4.456-1.206,6.405-1.979,2.175-.864,4.359-1.7,6.574-2.46a101.20022,101.20022,0,0,1,27.877-5.556c2.334-.15,4.674-.168,7.013-.126,2.38.042,5.329.707,7.606-.021a2.29418,2.29418,0,0,0,1.172-.8C629.42044,505.13108,631.92245,500.80707,629.20047,499.08207Z" fill="#008fc3"/>
        <path id="Path_5313" data-name="Path 5313" d="M763.50845,460.88306c-3.178-.432-6.721,2.193-9.4,3.682-1.822,1.012-3.765,1.962-5.629,3.015a68.87457,68.87457,0,0,0,5.153-6.86,44.70489,44.70489,0,0,0,4.809-7.525,1.766,1.766,0,0,0-2.761-2.13,44.44622,44.44622,0,0,0-5.853,6.636c-1.787,2.308-3.966,4.639-5.394,7.182a2.316,2.316,0,0,0,.094,2.484,585.70071,585.70071,0,0,0-78.15,2.119q-5.367.49649-10.72,1.125c-3.744.447-7.388,1.209-11.1,1.817a1.2,1.2,0,0,0-.849.555c-2.988.051-5.972.227-8.939.572-5.285.615-11.125,1.192-16.034,3.337a1.286,1.286,0,0,0-.758,1.378,49.95424,49.95424,0,0,1-8.061-7.141c-1.136-1.235-3.316.394-2.353,1.816a41.95435,41.95435,0,0,0,10.628,10.714c1.286.912,11.209,6.693,13.529,6.248a4.48575,4.48575,0,0,0,.548-.032,2.435,2.435,0,0,0,1.216-4.492,10.955,10.955,0,0,0-3.47894-1.267c-1.066-.324-2.121-.676-3.161-1.076a41.59191,41.59191,0,0,1-6.194-3.044c-.139-.082-.273-.171-.411-.254,2.264-.17,4.513-.655,6.758-.977,2.578-.371,5.172-.635,7.77-.815a133.80541,133.80541,0,0,1,15.768-.253,115.40822,115.40822,0,0,1,15.374,1.77q3.8.70005,7.544,1.684,1.869.488,3.722,1.041a11.211,11.211,0,0,0,3.986.852c1.571-.122,2.809-2.172,1.406-3.394-1.962-1.708-5.114-2.173-7.587-2.826q-3.892-1.027-7.849-1.789-2.305-.445-4.627-.8l1.8-.142c6.463-.505,12.925-.8,19.4-1.11q19.416-.937,38.879-.682,10.757.123,21.5.57a2.426,2.426,0,0,0,3.034,1.541c3.354-1.338,6.451-3.634,9.536-5.505,2.593-1.574,6.652-3.356,7.836-6.309A1.4,1.4,0,0,0,763.50845,460.88306Z" fill="#008fc3"/>
        <path id="Path_5314" data-name="Path 5314" d="M414.93246,522.64207c-.387.575-.748,1.154-1.107,1.728-.117-.089-.234-.179-.347-.269q-2.062-1.632-4.131-3.255c-2.574-2.018-5.019-4.178-7.574-6.213-5.007-3.991-10.047-7.969-15.136-11.855-4.184-3.195-9.16-6.047-14.618-5.067a13.01387,13.01387,0,0,0-6.246,3.053,20.153,20.153,0,0,0-21-4.584c-8.935,3.433-12.393,12.848-18.6,19.335-3.479,3.638-8.61,6.4-13.766,5.281-1.478-.321-2.566,1.806-1.08,2.562a12.19311,12.19311,0,0,0,2.673,1.008,1.6236,1.6236,0,0,0,.126.623c.894,2.1,3.068,3.769,4.808,5.161a33.818,33.818,0,0,0,30.316,6.605.65282.65282,0,0,0,.118.291c3.354,4.608,9.8,6.533,15.281,5.832a18.78408,18.78408,0,0,0,12.352-7.2c10.584,5.517,23.077,6.868,33.106.084a22.7405,22.7405,0,0,0,5.943-5.827,1.6,1.6,0,0,0,1.055-1.76,12.50048,12.50048,0,0,0,1.4-4.567C418.70047,521.56406,415.90045,521.20808,414.93246,522.64207Zm-50.66,17.474a15.777,15.777,0,0,1-8.308-1.127,14.524,14.524,0,0,1,8.958-5.992,7.62512,7.62512,0,0,0-1.926,3.2.878.878,0,0,0,1.6.673,14.92887,14.92887,0,0,1,2.512-3.177,8.35973,8.35973,0,0,1,1.638-1.08c.287,0,.575.009.866.024a8.4891,8.4891,0,0,0,1.264.328c.873.186,1.714.508,2.587.667q.5.315,1,.62A16.089,16.089,0,0,1,364.27246,540.11607Zm46.5-11.594a23.27286,23.27286,0,0,1-5.886,4.237,23.73883,23.73883,0,0,1-14.551,2.21c-12.112-1.914-21.228-10.423-29.916-18.366a1.292,1.292,0,0,0-2.021,1.559,39.66929,39.66929,0,0,0,4.575,6.458c-.023-.007-.045-.015-.068-.021a1.829,1.829,0,0,0-3,1.169,34.17444,34.17444,0,0,1-9.821,5.7,31.60025,31.60025,0,0,1-12.293,1.682,31.12565,31.12565,0,0,1-11.779-3.1,32.50069,32.50069,0,0,1-5.048-2.974c-1.03-.753-1.948-1.691-2.919-2.546.367-.056.738-.127,1.116-.219a19.94325,19.94325,0,0,0,7.178-3.593c4.638-3.5,7.663-8.4,11.308-12.835,3.264-3.968,7.39-7.233,12.725-7.453a15.869,15.869,0,0,1,12.4,5.227,7.7304,7.7304,0,0,0-.173,1.345c-.129,3.143,4.946,3.919,5.565.753.328-1.68.733-2.982,2.215-3.952a8.617,8.617,0,0,1,5.065-1.29c4.747.161,9.024,3.893,12.563,6.681,4.451,3.506,8.639,7.384,13.276,10.649,2.335,1.644,4.52,3.487,6.747,5.274,1,.8,2.1,1.878,3.276,2.822-.172.197-.348.392-.536.583Z" fill="#008fc3"/>
        <path id="Path_5315" data-name="Path 5315" d="M540.74747,503.75407a1.3,1.3,0,0,0-1.325-1.082,1.43517,1.43517,0,0,0-.49.087,2.01592,2.01592,0,0,0-1.524.707,82.85064,82.85064,0,0,1-9.941,8.894,85.93458,85.93458,0,0,1-10.582,6.993c-7.532,4.242-16,6.771-24.418,8.624a82.757,82.757,0,0,1-49.683-4.241,86.55017,86.55017,0,0,1-37.591-31.164,84.09108,84.09108,0,0,1-10.636-22.106c-2.413-7.8-4.4-16.168-9.92-22.458-5.927-6.749-15.357-8.462-23.614-5.382-9.033,3.368-15.392,10.455-19.792,18.833-4.422,8.419-7.32,17.532-11.95,25.849a68.718,68.718,0,0,1-16.547,19.135c-13.028,10.721-29.673,16.931-46.605,16.317a67.365,67.365,0,0,1-45.2-19.59c-13.138-13.381-18.24-31.835-18.889-50.155a101.88793,101.88793,0,0,1,1.481-20.624,150.35008,150.35008,0,0,1,4.979-20.175c.921-2.915,1.928-5.8,2.973-8.673.363-.995.763-1.974,1.129-2.967a47.88423,47.88423,0,0,1,1.9-4.534c.369-.753.764-1.494,1.189-2.217a10.74754,10.74754,0,0,0,.781-2.17c.273-.821.576-1.632.815-2.464a50.43765,50.43765,0,0,0,1.084-5.353c.273-1.578-2.053-2.917-2.827-1.191a65.86912,65.86912,0,0,0-2.427,6.309c-7.2,15.594-13.055,31.791-15.66,48.845a101.86466,101.86466,0,0,0-1.157,13.722c-.039.006-.078.008-.117.016-1.757.391-3.223,1.794-4.644,2.853-1.494,1.113-2.943,2.279-4.433,3.4a93.314,93.314,0,0,0-8.485,6.866c-1.346,1.285.36,3.245,1.909,2.473a90.20033,90.20033,0,0,0,9.478-5.746c1.543-1.024,3.135-1.957,4.674-2.986.558-.373,1.138-.729,1.7-1.109.568,13.073,3.832,26.018,10.472,37.34,9.1,15.514,24.458,26.572,41.681,31.407a73.7869,73.7869,0,0,0,51.709-4.735c15.872-7.553,29.134-20.613,37.707-35.9,4.913-8.76,7.706-18.657,13.687-26.826,4.349-5.94,12.424-11.449,20.127-9.958,7.839,1.518,11.176,9.361,13.4,16.2,1.287,3.964,2.341,8,3.775,11.917a90.6305,90.6305,0,0,0,5.436,12.07,92.79116,92.79116,0,0,0,36.3,36.394,88.6799,88.6799,0,0,0,51.308,10.934,81.95521,81.95521,0,0,0,26.3-6.718,108.90068,108.90068,0,0,0,22.916-13.691,85.16847,85.16847,0,0,0,9.409-9.053A2.2,2.2,0,0,0,540.74747,503.75407Z" fill="#008fc3"/>
        <path id="Path_5316" data-name="Path 5316" d="M557.81448,411.60908c-3.716-11.265-10.392-21.617-20.265-28.408-10.647-7.323-23.525-9.893-36.194-10.867-14.343-1.1-28.817-.748-43.19-.971q-23.516-.365-47.029-.7-47.205-.6-94.409-1.125-23.516-.277-47.029-.517c-6.975-.06-13.954-.326-20.927-.032-3.086.13-6.177.217-9.248.557a33.77072,33.77072,0,0,0-8.534,2.61,10.39991,10.39991,0,0,0-3.2,1.927,1.368,1.368,0,0,0,.6,2.263,9.94609,9.94609,0,0,0,4.552-.215,112.782,112.782,0,0,1,27.188-1.934c15.228.685,30.482.415,45.724.581q45.626.5,91.25,1.015c30.309.338,60.626.348,90.933.846,12.34.2,24.975.98,36.589,5.525,10.876,4.255,19.267,12.506,24.522,22.841s7.19,22.167,6.861,33.7a101.01459,101.01459,0,0,1-2.66,21.374,187.32246,187.32246,0,0,1-6.073,21.2c-1.255,3.351-2.3,6.731-3.266,10.174-.754,2.691,3.075,3.571,4.074,1.124,2.87-7.026,4.924-14.342,7.142-21.6a158.267,158.267,0,0,0,4.865-21.393C562.11844,436.81608,561.90048,423.98008,557.81448,411.60908Z" fill="#008fc3"/>
        <path id="Path_5317" data-name="Path 5317" d="M542.25449,499.94605a1.307,1.307,0,1,0,1.25488,1.25488A1.307,1.307,0,0,0,542.25449,499.94605Z" fill="#008fc3"/>
        <path id="Path_5318" data-name="Path 5318" d="M210.17245,377.03306a16.29992,16.29992,0,0,0-5.672,4.083,1.385,1.385,0,0,0,1.337,2.3,16.30025,16.30025,0,0,0,6.243-3.105C213.51446,379.07606,211.98645,376.30607,210.17245,377.03306Z" fill="#008fc3"/>
        <path id="Path_5319" data-name="Path 5319" d="M212.78746,369.04307a38.15037,38.15037,0,0,0-7.276-2.155,1.611,1.611,0,0,0-1.236,2.931,38.19249,38.19249,0,0,0,6.787,3.314C213.42346,373.95808,215.13145,370.03806,212.78746,369.04307Z" fill="#008fc3"/>
        <path id="Path_5320" data-name="Path 5320" d="M218.23846,363.04105c-1.11-2.506-2.26-4.994-3.4-7.488a36.79969,36.79969,0,0,0-3.892-7.2,1.554,1.554,0,0,0-2.826,1.192,37.42451,37.42451,0,0,0,2.97,7.8c1.194,2.591,2.374,5.189,3.6,7.767C215.83145,367.52506,219.29346,365.42307,218.23846,363.04105Z" fill="#008fc3"/>
        <path id="Path_5321" data-name="Path 5321" d="M224.97746,355.52906a56.07083,56.07083,0,0,0-1.58,8.794c-.087,2.158,3.366,2.677,3.811.516a56.18848,56.18848,0,0,0,.6-8.928C227.87546,354.31007,225.30046,353.92408,224.97746,355.52906Z" fill="#008fc3"/>
        <path id="Path_5322" data-name="Path 5322" d="M239.67445,359.99006a73.47,73.47,0,0,0-8.984,6.571c-2.157,1.9.961,4.9,3.124,3.124a70.09352,70.09352,0,0,0,7.559-7.493C242.39246,361.06007,241.07446,359.08707,239.67445,359.99006Z" fill="#008fc3"/>
        <path id="Path_5323" data-name="Path 5323" d="M390.60046,553.45408c-1.43-4.712-4.418-8.485-9.649-8.734-5.678-.271-10.211,3.668-13.5,7.856a6.77607,6.77607,0,0,0-.894-.853,14.30022,14.30022,0,0,0-4.87-2.437,9.02052,9.02052,0,0,0-4.38-.42,7.4824,7.4824,0,0,0-2.733,1.112c-.247.162-1.987,1.116-1.773,1.452-1.255-1.975-3.779-3.414-5.784-4.3a14.61113,14.61113,0,0,0-8.145-1.225c-5.239.85-9.63,4.963-9.98,10.378-.369,5.722,3.512,11.125,8.508,13.592a15.835,15.835,0,0,0,16.753-1.564c.047-.039.09-.078.132-.119a10.62,10.62,0,0,0,11.452-.011,10.08106,10.08106,0,0,0,1.218-.982,17.335,17.335,0,0,0,10.785,5.5,13.516,13.516,0,0,0,11.854-4.765C392.86145,563.698,392.04745,558.24009,390.60046,553.45408Zm-51.17,12.943c-3.714-1.717-7.006-5.561-6.914-9.832.09-4.149,3.915-7,7.8-7.364a11.20777,11.20777,0,0,1,6.034,1.264c1.707.86,3.069,2.314,4.719,3.206a12.342,12.342,0,0,0-.963,2.084c-.049.139-.092.281-.135.423-.747-.156-1.489-.374-2.223-.564a4.97415,4.97415,0,0,0-2.626-.3.733.733,0,0,0-.32,1.212,4.608,4.608,0,0,0,2.2,1.042c.843.262,1.732.477,2.556.8a10.84133,10.84133,0,0,0,.021,1.915,20.80261,20.80261,0,0,1-2.925,1.212,15.30125,15.30125,0,0,0-3.226.7.67.67,0,0,0,0,1.144c1.584,1.2,4.78.535,6.668-.642a10.8689,10.8689,0,0,0,1.339,2.7c-3.78192,2.04516-7.92794,2.88721-12.01,1.00018Zm20.723-.866a6.4,6.4,0,0,1-6.67444-6.11322q-.0081-.18429-.00555-.36877a7.921,7.921,0,0,1,1.105-3.883,4.35189,4.35189,0,0,1,2.724-2.4,5.627,5.627,0,0,1,2.183.158,12.884,12.884,0,0,1,3.545,1.184,5.73091,5.73091,0,0,1,3,4.664,6.332,6.332,0,0,1-5.87467,6.75849l-.00735.00048Zm19.837,3.175c-4.139.333-7.853-2.128-10.566-5.082a10.61513,10.61513,0,0,0,.613-1.981,9.978,9.978,0,0,0,7.521,1.945c.831-.177.71-1.328,0-1.565a28.78219,28.78219,0,0,1-3.96-1.288,25.36455,25.36455,0,0,1-2.737-1.79,8.48167,8.48167,0,0,0,2.789-.511,8.03944,8.03944,0,0,0,3.112-1.606.651.651,0,0,0-.455-1.1c-1.063-.048-2.117.392-3.2.436-1.113.046-2.225.133-3.341.135h-.008a9.6288,9.6288,0,0,0-.686-1.541,1.37022,1.37022,0,0,0,.32-.184c3.476-2.779,7.439-7.1,12.385-6.03,2.4.517,3.671,2.522,4.4,4.706a23.14458,23.14458,0,0,1,1.4,7.267,8.242,8.242,0,0,1-7.592,8.18908Z" fill="#008fc3"/>
        <path id="Path_5324" data-name="Path 5324" d="M736.08145,529.96107c-11.55-10.709-25.26-19.335-39.388-26.212a191.26983,191.26983,0,0,0-44.851-15.267,149.34,149.34,0,0,0-26.394-3.366c-2.633-.067-3.2,3.883-.484,4.14,15.562,1.472,30.773,3.869,45.691,8.681a192.5688,192.5688,0,0,1,41.955,19.465,244.93824,244.93824,0,0,1,21.448,15.246C735.80044,534.00205,737.63345,531.40006,736.08145,529.96107Z" fill="#008fc3"/>
        <path id="Path_5325" data-name="Path 5325" d="M676.16147,533.02207c-19.474-14.787-43-24.2-67.063-28.2a167.3301,167.3301,0,0,0-20.593-2.109c-3.379-.137-3.393,5.2,0,5.263a157.14732,157.14732,0,0,1,68.468,17.6,189.13826,189.13826,0,0,1,17.54,10.259C676.30844,537.02405,677.78848,534.25706,676.16147,533.02207Z" fill="#008fc3"/>
        <path id="Path_5326" data-name="Path 5326" d="M217.83546,514.05506c-2.4-1.7-5.039-3.041-7.468-4.694-1.718-.274-3.444-.5-5.125-.734-3.807-.541-7.63-.966-11.466-1.244a162.389,162.389,0,0,0-22.955-.031,164.23586,164.23586,0,0,0-44.263,9.045,130.86887,130.86887,0,0,0-23.37,10.941,1.317,1.317,0,0,0,1.328,2.273,190.53666,190.53666,0,0,1,42.309-14.727,158.87138,158.87138,0,0,1,43.936-2.974c4.206.3,8.4.754,12.567,1.4,4.2.652,8.338,1.756,12.544,2.306a1.952,1.952,0,0,0,2.237-1.42A1.15068,1.15068,0,0,1,217.83546,514.05506Z" fill="#008fc3"/>
        <path id="Path_5327" data-name="Path 5327" d="M181.89445,482.56507a300.70043,300.70043,0,0,0-111.775.936c-5.163,1.014-10.3,2.15-15.4,3.458-5.116,1.313-10.1,2.952-15.152,4.458-1.7.507-.977,3.177.735,2.667,8.787-2.618,17.932-4.51,26.931-6.242q13.634-2.626,27.467-3.972a313.50589,313.50589,0,0,1,55.2-.363,305.51514,305.51514,0,0,1,30.633,3.985C183.75146,488.08005,185.12846,483.15208,181.89445,482.56507Z" fill="#008fc3"/>
        <path id="Path_5328" data-name="Path 5328" d="M187.95146,461.05308a344.299,344.299,0,0,0-87.157-17.008c-8.808-.519-17.765-1-26.575-.35a1.374,1.374,0,0,0,0,2.746c7.747.489,15.511.554,23.258,1.127,7.66.567,15.312,1.436,22.92,2.487a334.31747,334.31747,0,0,1,45.192,9.39q8.625,2.44,17.125,5.34C184.45045,463.54505,186.17645,462.24805,187.95146,461.05308Z" fill="#008fc3"/>
        <path id="Path_5329" data-name="Path 5329" d="M687.45145,508.97407c-2.627-.355-5.443.491-8.049.92l-7.8,1.285a125.99654,125.99654,0,0,0-15.772,3.246,1.65,1.65,0,0,0,.436,3.226,129.64337,129.64337,0,0,0,15.925-1.764c2.611-.384,5.219-.793,7.828-1.189,2.577-.392,5.624-.427,7.977-1.564C689.64548,512.33707,689.38748,509.23505,687.45145,508.97407Z" fill="#008fc3"/>
        <path id="Path_5330" data-name="Path 5330" d="M343.74145,597.95109c-.323-2.14-3.845-2.057-4.241,0-.834,4.33-8.6-3.87-9.658-5.3a19.09949,19.09949,0,0,1-2.942-6.22c-.215-.766-1.513-6.2.882-5.1,1.129.52,2.721-.628,1.879-1.879a3.455,3.455,0,0,0-4.321-1.23,4.976,4.976,0,0,0-3.023,4.292c-.442,4.089,1.469,8.437,3.5,11.87a21.69321,21.69321,0,0,0,8.917,8.539,7.03008,7.03008,0,0,0,6.445.15A4.854,4.854,0,0,0,343.74145,597.95109Z" fill="#008fc3"/>
        <path id="Path_5331" data-name="Path 5331" d="M378.14746,624.36906c-2.258.951-4.293,2.311-6.636,3.1a29.35427,29.35427,0,0,1-7.465,1.4,30.87721,30.87721,0,0,1-7.363-.433,21.90719,21.90719,0,0,1-3.6-.881,20.56019,20.56019,0,0,0-3.675-1.343,1.309,1.309,0,0,0-1.261,2.167c1.549,1.983,4.9,3.03,7.22,3.816a25.66462,25.66462,0,0,0,8.674,1.172,26.735,26.735,0,0,0,8.37-1.622c2.609-.935,5.63-2.209,7.516-4.316C381.02145,626.216,379.98047,623.59806,378.14746,624.36906Z" fill="#008fc3"/>
        <path id="Path_5332" data-name="Path 5332" d="M394.05347,624.401c-2.46-7.472-10.105-11.079-17.386-12.078a61.34175,61.34175,0,0,0-25.082,2.23,57.99129,57.99129,0,0,0-11.389,4.457c-3.141,1.7-5.989,4.2-7.028,7.73-1.989,6.759,2.982,12.255,8.683,15.569a2.55737,2.55737,0,0,0-.184.848c-.272,5.505.055,11.077.089,16.587q.027,4.146.059,8.293a39.022,39.022,0,0,0,.171,5.153c-.033.04-.068.078-.1.12-6.812,8.9-13.741,17.7-20.521,26.618-3.382,4.448-6.558,9.042-9.9,13.52q-2.4,3.224-4.833,6.426c-1.625,2.154-3.766,4.335-4.81,6.829a1.318,1.318,0,0,0,1.919,1.475c2.077-1.563,3.589-4.051,5.208-6.074q2.622-3.276,5.253-6.543c3.517-4.342,7.182-8.558,10.662-12.931,6.976-8.767,13.791-17.66,20.729-26.457a2.381,2.381,0,0,0,.3-2.794,36.3294,36.3294,0,0,0,.193-5.342q.027-4.146.053-8.293c.029-5.093.3-10.24.124-15.337.4.151.8.293,1.188.419,1.725.56,2.613-1.9,1.192-2.826-2.638-1.714-5.591-2.878-7.853-5.119a9.751,9.751,0,0,1-3.211-7.568c.239-2.649,2.431-4.6,4.543-5.942a40.25535,40.25535,0,0,1,8.791-3.995,59.50039,59.50039,0,0,1,19.648-3.1c5.975.063,12.858.734,17.043,5.532a8.73406,8.73406,0,0,1,2.242,7.918c-.722,2.761-3.691,4.662-5.4,6.81-.573.719-1.919,2.006-1.342,3.04.479.855,1.667.145,2.26-.165,1.5-.787,3.281-1.1,4.68-2.056a10.858,10.858,0,0,0,4.01-12.953Z" fill="#008fc3"/>
        <path id="Path_5333" data-name="Path 5333" d="M377.24347,638.838c-1.7-.148-3.584.679-5.194,1.168-1.531.466-3.109.808-4.048,2.178a1.339,1.339,0,0,0,.479,1.826c1.529.7,3.04.207,4.623-.183,1.633-.4,3.668-.651,5.046-1.642a1.813,1.813,0,0,0-.906-3.347Z" fill="#008fc3"/>
        <path id="Path_5334" data-name="Path 5334" d="M354.37945,642.58207a1.692,1.692,0,1,0,1.619,1.619A1.692,1.692,0,0,0,354.37945,642.58207Z" fill="#008fc3"/>
        <path id="Path_5335" data-name="Path 5335" d="M301.80044,730.56205a1.865,1.865,0,0,0-2.806-1.61l-.231.129a1.957,1.957,0,0,0-.874,1.137,1.92732,1.92732,0,0,0,0,1.011,1.833,1.833,0,0,0,1.581,1.362,1.44716,1.44716,0,0,0,.758-.034,1.89967,1.89967,0,0,0,.84-.489l.186-.188h0A1.87981,1.87981,0,0,0,301.80044,730.56205Z" fill="#008fc3"/>
        <path id="Path_5336" data-name="Path 5336" d="M504.03046,530.40406a286.45811,286.45811,0,0,0-54.843,29.158,234.63111,234.63111,0,0,0-24.515,19.254c-7.612,6.811-14.74,14.289-20.209,22.96-5.969,9.461-10.566,21.046-9.713,32.435a1.8,1.8,0,0,0,3.592,0,63.78205,63.78205,0,0,1,8.311-28.34c4.908-8.574,11.692-15.991,18.932-22.65a235.0674,235.0674,0,0,1,23.3-18.658,253.58905,253.58905,0,0,1,25.132-15.979,265.62749,265.62749,0,0,1,31.03-14.489C507.32147,533.20707,506.31247,529.49506,504.03046,530.40406Z" fill="#008fc3"/>
        <path id="Path_5337" data-name="Path 5337" d="M959.29245,563.21006c-5.4-12.845-18.7-21.354-31.729-24.889-13.191-3.579-27.449-2.64-40.363,1.623a79.20331,79.20331,0,0,0-17.679,8.472,99.176,99.176,0,0,0-24.41,22.265q-3.50894,4.39508-6.612,9.095c-2.155,3.249-4.15,6.6-6.032,10.018a163.6004,163.6004,0,0,0-9.29,19.27c-6.864,16.437-11.872,33.472-17.215,50.435l-.075.237c-2.409,7.643-4.9,15.263-7.674,22.781-5.532,14.97-12.274,29.6-21.57,42.634q-1.55,2.174-3.189,4.282c-8.746,11.235-19.621,20.966-32.557,27.088-12.3,5.82-26.559,8.655-40.092,6.495a63.52155,63.52155,0,0,1-10.824-2.644c20.328-6.334,40.426-13.53,60.02-21.837,2.233-.947,4.442-1.922,6.631-2.955.68-.33,3.351-2.186,3.49-3.491a565.62129,565.62129,0,0,0,2.922-85.847,617.83158,617.83158,0,0,0-9.871-87.512c-1.524-8.126-3.256-16.222-5.1-24.281s-3.7-16.137-6.122-24.05a1.8009,1.8009,0,0,0-.088-.213c9.187.4,16.7.689,16.909.7,1.867.057,3.735.1,5.6.172,1.829.064,4.05.342,5-1.639a2.589,2.589,0,0,0-.095-2.36c.87-1.683.421-4.227.225-6.031a41.88291,41.88291,0,0,0-1.2-6.407,39.506,39.506,0,0,0-5.22-12.056,43.39944,43.39944,0,0,0-9.048-9.679c-.954-.748-2.02-1.549-3.156-2.31a1.28,1.28,0,0,0-.752-2.274,1.166,1.166,0,0,0-1.2,1.06,14.817,14.817,0,0,0-7.264-2.279c-2.831.033-3.337,3.439-1.337,4.939,1.569,1.178,3.615,1.8,5.359,2.7a44.43592,44.43592,0,0,1,4.945,2.989,35.48483,35.48483,0,0,1,8.1,7.983,40.83569,40.83569,0,0,1,5.742,9.985,33.973,33.973,0,0,1,1.546,5.823c.212,1.194.166,2.653.383,3.96-1.468-.158-3.071.008-4.478-.011-7.7-.107-15.409-.33-23.106-.194-8.635.152-17.273.079-25.907.287a1.6,1.6,0,0,0,0,3.189c6.1.415,16.719.922,26.207,1.34a1.53786,1.53786,0,0,0-.167,1.16c3.211,14.309,6.789,28.5,9.372,42.947s4.829,28.978,6.489,43.579a630.883,630.883,0,0,1,3.634,87.4q-.60608,23.507-3.016,46.916c-10.925,4.065-21.669,8.611-32.621,12.616q-17.30009,6.327-34.914,11.754-1.682.519-3.367,1.026c.561-.4-16.78,5.185-20.271,5.817q-23.366,6.337-47.118,11.108a729.71171,729.71171,0,0,1-145.5,14.143,706.15858,706.15858,0,0,1-73.216-4.1q-4.5-.486-8.987-1.03a2.464,2.464,0,0,0-2.449,2.449,2.506,2.506,0,0,0,2.449,2.449,718.50317,718.50317,0,0,0,73.494,4.927,719.79875,719.79875,0,0,0,73.619-2.6,726.16994,726.16994,0,0,0,72.6-10.042q20.34393-3.85794,40.446-8.874c-9.322,5.078-18.873,9.716-28.593,14a380.89652,380.89652,0,0,1-79.09,25.241,334.05378,334.05378,0,0,1-87.009,5.85,286.468,286.468,0,0,1-78.661-16.32c-24.439-8.831-48.084-20.829-68.9-36.442q-1.488-1.116-2.961-2.251a4.645,4.645,0,0,1-.7.527c-.185.113-.375.218-.565.323-.007.01-.015.018-.021.028-.163-5.87-.613-11.747-1-17.585-.148-2.26-3.606-2.307-3.553,0,.113,4.912.2,9.846.432,14.769a92.26783,92.26783,0,0,1-20.546-3.709,99.08014,99.08014,0,0,1-19.273-8.085,101.9877,101.9877,0,0,1-17.2-11.891c-.745-.637-1.473-1.293-2.2-1.954-.533-.485-1.681-1.006-1.841-1.776a1.34975,1.34975,0,0,1,.022-.5,39.18215,39.18215,0,0,1,.613-4.109c.191-1.7.363-3.407.536-5.111.343-3.368.69-6.737,1.2-10.085.921-6.054,2.136-12.072,3.466-18.048s2.9-11.922,4.7-17.787q1.35-4.4,2.873-8.741c.986-2.821,2.571-5.84,3.029-8.81,2.665-1.2,5.234-2.539,7.627-3.773,11.267-5.807,22.279-12.192,33.2-18.615.239-.14.475-.283.714-.424a123.30676,123.30676,0,0,1,4.8,17.163,166.29893,166.29893,0,0,1,2.249,18.749,1.77173,1.77173,0,0,0,.077.4c-.568,9.246-1.2,18.488-1.748,27.735-.4,6.774-.8,13.547-1.137,20.325-.139,2.824,4.205,2.8,4.379,0,1.471-23.577,2.555-47.192,3.7-70.787.165-3.387.338-6.774.476-10.162a92.744,92.744,0,0,0,.241-10.163,1.50817,1.50817,0,0,0-.395-.907q2.3-1.434,4.594-2.893c6.1-3.892,11.925-8.231,18.053-12.065a1.838,1.838,0,0,0,.9-1.838,16.09269,16.09269,0,0,0,8.473,1.142c6.671-.936,11.42-6.252,10.977-13.1-.477-7.363-4.839-14.628-9.244-20.331-4.272-5.529-9.88-10.787-17.254-11.07-7.234-.279-15,6.215-12.373,13.963.842,2.482,4.717,1.469,3.964-1.093a6.577,6.577,0,0,1,1.537-6.339,8.209,8.209,0,0,1,7.152-2.3c5.555.561,9.845,4.895,13.1,9.063,4.684,5.989,15.4,23.495,2.35,26.58-5.879,1.39-11.7-2.5-16.1-5.956-1.691-1.329-4.053.835-2.431,2.431a37.51235,37.51235,0,0,0,6.873,5.507c-4.612,3.407-9.627,6.328-14.441,9.441q-7.28114,4.71093-14.66415,9.28088c-9.84,6.1-19.829,11.962-30.025,17.452-5.051,2.719-10.118,5.449-15.238,8.035-4.738,2.393-10.017,4.284-15.4,3.943a12.56106,12.56106,0,0,1-10.935-6.979,16.51007,16.51007,0,0,1-.425-12.626c4.25-11.693,16.707-15.623,26.86-20.51a1.335,1.335,0,0,0,.568-.506,31.055,31.055,0,0,0,5.755,3.031c9.354,3.7,18.9.791,27.046-4.4,7.522-4.791,14.533-11.034,18.744-19.011,4.228-8.011,5.158-17.957.744-26.109-2.524-4.661-6.733-8.095-10.994-11.1q-1.353-.956-2.73-1.881a2.2284,2.2284,0,0,0-.066-.268,44.42539,44.42539,0,0,0-1.559-4.685,42.06448,42.06448,0,0,0-2.459-4.7,54.60965,54.60965,0,0,0-4.343-6.608,13.11791,13.11791,0,0,0-4.11-2.982c-1.736-.932-3.511-1.786-5.277-2.658-3.158-1.561-6.352-3.09-9.606-4.442a71.86815,71.86815,0,0,0-19.758-5.12c-12.964-1.42-26.13,1.82-35.637,11.063-18.185,17.685-22.536,46.961-12.277,69.761,5.46,12.138,14.715,21.882,25.895,28.966-3.224,7.82-2.17,17.522,5.134,22.787a16.8248,16.8248,0,0,0,4.2,2.235q.578.206,1.169.368c.382.107.784.168,1.162.286a10.221,10.221,0,0,0,2.4.337,20.89053,20.89053,0,0,0,2.465.016,26.51981,26.51981,0,0,0,5-.776q.588-.145,1.172-.313.286-.081.572-.168c.076-.023.549-.115.571-.177-.078.225-.156.448-.238.666q-.859,2.309-1.67,4.637-1.509,4.345-2.837,8.751-2.71,8.964-4.7,18.127c-1.319,6.086-2.258,12.231-3.036,18.408-.451,3.58-.911,7.161-1.2,10.758-.167,2.052-.253,4.111-.228,6.17q.018,1.575.127,3.148a4.335,4.335,0,0,0,.61,2.585,90.41212,90.41212,0,0,0,48.51,28.429c2.527.558,5.085.965,7.651,1.295,1.982.254,4.016.4,6.018.6a45.08247,45.08247,0,0,0,4.939.491c.079,0,.584.028.583-.123.008.723,3.885,3.129,4.533,3.637q2.394,1.875,4.831,3.693c1.912,1.426,3.92,2.715,5.883,4.071,2.165,1.495,4.539,3,3.84,6.029-.506,2.2-2.251,3.8-3.1,5.856a29.16406,29.16406,0,0,0-1.852,6.566,43.39172,43.39172,0,0,0,.044,13.845,40.33217,40.33217,0,0,0,12.765,23.266,39.9,39.9,0,0,0,24.113,10.5,38.43806,38.43806,0,0,0,24.877-6.712,43.64891,43.64891,0,0,0,16.443-22.733,292.22689,292.22689,0,0,0,47.124,9.367,304.36494,304.36494,0,0,0,39.688,1.909c-.277.005.987,6.777,1.147,7.375a37.541,37.541,0,0,0,2.855,7.356,42.03206,42.03206,0,0,0,15.918,17.1,44.703,44.703,0,0,0,4.212,2.314,40.45538,40.45538,0,0,0,8.964,3.093,46.711,46.711,0,0,0,50-22.108c4.836-8.344,7.531-18.821,6.554-28.6a375.93334,375.93334,0,0,0,41.91394-14.615q6.22806-2.592,12.319-5.457c28.568,15.02,59.5,26.478,92.058,27.794,29.36,1.187,59.647-5.977,83.29-23.982,23.69-18.04,38.014-44.982,47.98-72.474,11.276-31.109,17.682-63.955,31.2-94.254,5.217-11.69,12.424-24.262,24.429-30.027,12.424-5.967,26.407.076,39.371-2.968a21.2,21.2,0,0,0,14.827-11.916A25.541,25.541,0,0,0,959.29245,563.21006Zm-653.552,67.306c-.352,2.506-.419,5.08-.618,7.592-.23,2.918-.4,5.84-.589,8.761q-.133,2.081-.258,4.161a90.19991,90.19991,0,0,0-4.854-16.69Q302.59045,632.43907,305.74045,630.51609Zm-69.648-6.728a.28583.28583,0,0,0-.012-.1c-.682-3.3-1.938-6.428-2.492-9.774a41.0754,41.0754,0,0,1-.326-10.4q.2-2.21394.6-4.393a33.00444,33.00444,0,0,0,3.644,1.884,4.55461,4.55461,0,0,0,1.417,1.008c2.836,1.677,4.508,4.451,6.594,6.886.268.313,1.573,1.425,1.573,1.8q.551.615,1.118,1.214c.167.175,1.07.875,1.07,1.086q.828.812,1.691,1.585c.229.2,1.67,1.172,1.67,1.418a62.70144,62.70144,0,0,0-16.547,7.781Zm-6.448-9.655c.016.111.033.223.05.335-.139-.353-.273-.708-.4-1.069a36.6853,36.6853,0,0,1-1.871-10.923,49.70015,49.70015,0,0,1,4.584-21.757c.292-.634.605-1.258.916-1.883-.383.769.128,1.428.79,1.871.721.483,2.318.659,2.47,1.726.086.606-.744,1.245-1.013,1.72q-.7,1.23-1.341,2.489a42.70345,42.70345,0,0,0-2.192,5.1,45.67665,45.67665,0,0,0-2.412,11.219,48.545,48.545,0,0,0,.419,11.16705Zm29.3-43.72a1.93321,1.93321,0,0,1-.375.909,2.053,2.053,0,1,1-1.72-3.163,1.929,1.929,0,0,1,2.094,2.249Zm-2.768-6a6,6,0,0,0-5.348,6.456,6.10013,6.10013,0,0,0,.942,2.588c.374.58.559.533.178,1.044-1.136,1.523-2.711,2.6-3.784,4.189-1.084,1.607-2.147,3.544-3.972,4.415-1.093.522-1.994-1.04-2.62-1.667a13.6881,13.6881,0,0,0-2.944-2.209c-.7-.4-1.832-.892-1.423-1.9,1.876-4.631,5.033-8.832,8.144-12.694a70.18449,70.18449,0,0,1,10.251-10.28107q1.3-1.063,2.651-2.069.645-.363,1.3-.711c.538-.286,3,.989,3.567,1.262,2.009.963,4.8,3.239,4.767,5.764-.018,1.4-1.66,2.592-2.511,3.545-1.392,1.559-2.848,3.092-4.217,4.687a5.18593,5.18593,0,0,0-4.982-2.424Zm34.765-2.269c3.428,2.543,7,5.025,9.821,8.267a18.07673,18.07673,0,0,1,3.528,6.25,46.56692,46.56692,0,0,1-8.763-.054,21.83871,21.83871,0,0,1-4.884-.853c-1.668-.517-3.315-1.4-5.071-1.513-1.337-.082-1.754,1.573-1.011,2.443,1.167,1.369,3.131,2.022,4.772,2.659a58.53162,58.53162,0,0,0,5.559,1.958,31.59993,31.59993,0,0,0,10.408.863,26.74589,26.74589,0,0,1-1.434,9.932,27.58205,27.58205,0,0,1-2.064,4.61c-1.63-.192-3.292-.038-4.934-.183a26.90523,26.90523,0,0,1-5.074-1,20.39865,20.39865,0,0,1-4.631-1.946c-1.537-.893-2.868-2.09-4.682-2.3-.98-.115-1.538.995-1.37,1.8.405,1.941,2.316,3.213,3.835,4.294a30.44888,30.44888,0,0,0,5.12,2.975,29.00128,29.00128,0,0,0,7.486,2.322,59.13481,59.13481,0,0,1-13.466,11.03,3.44967,3.44967,0,0,0-.337-.271c-2.289-1.614-4.7-2.916-6.922-4.659a40.97531,40.97531,0,0,1-6.148-5.707c-1.01-1.206-2.652.33-2.052,1.583a36.95406,36.95406,0,0,0,2.234,4.2,25.90587,25.90587,0,0,0,2.923,3.764,27.00125,27.00125,0,0,0,4.546,3.857,20.643,20.643,0,0,1-12.548.9c-9.586-2.52-16.047-10.726-21.821-18.213a2.676,2.676,0,0,0-2.821-1.134,19.68726,19.68726,0,0,1,.177-3.619,18.11893,18.11893,0,0,1,2.54-6.577,1.6689,1.6689,0,0,0,.255-.691,6.77381,6.77381,0,0,0,3.79-2.249c1.256-1.411,2.427-2.914,3.618-4.381,1.115-1.374,2.746-2.823,3.124-4.6a5.69983,5.69983,0,0,0,2.615.459,6.134,6.134,0,0,0,5.483-6.277c1.3-1.258,2.512-2.625,3.752-3.927a35.26328,35.26328,0,0,0,4.06-4.5,6.62983,6.62983,0,0,0,.8-1.639c.231-.723.113-1.444.584-2.1a1.2461,1.2461,0,0,1,.363-.353,1.63366,1.63366,0,0,1,.352-.142c.944-.3,1.881-.613,2.809-.963,1.787-.674,3.63-1.308,5.365-2.118,3.29807,2.68488,6.69306,5.25989,10.11307,7.79792Zm-4.8-11.043c.781,1.245,1.571,2.565,2.3,3.913-3.888-2.751-10.519-5.265-11.222-5.559-.74-.309-1.5-.57-2.261-.835a21.11657,21.11657,0,0,0-3.958-1.011c-.394-.056-.81-.113-1.241-.168a59.11768,59.11768,0,0,1,11.935-2.053,43.02088,43.02088,0,0,1,4.442,5.708Zm-88.45,25.244a55.74684,55.74684,0,0,1,13.447-32.2c8.236-9.192,19.907-13.081,32.046-12.523,7.091.326,13.947,2.206,20.627,4.509,3.5,1.206,6.948,2.5,10.348,3.958,1.1.472,2.185.968,3.273,1.463a69.60029,69.60029,0,0,0-34.315,17.653c-11.382,10.7-19.418,25.812-19.678,41.66-.142,8.62,2.007,19.14,9.192,24.675a1.19977,1.19977,0,0,0,.8.261,32.63847,32.63847,0,0,0-6.2,6.626c-20.05-10.62494-31.343-33.81091-29.545-56.08692Zm180.954,254.062c-.514.369-1.038.723-1.568,1.068-.005-2.077-.1-4.172-.1-6.237a34.57367,34.57367,0,0,0-.666-8.1,1.432,1.432,0,0,0-2.741,0,34.62326,34.62326,0,0,0-.666,8.1c0,2.792-.18,5.641-.067,8.422a1.74516,1.74516,0,0,0,.019.221,33.75715,33.75715,0,0,1-24.467,2.4,31.25492,31.25492,0,0,0,.422-4.894,37.78207,37.78207,0,0,1,.715-4.227c.315-1.4.7-2.773,1.081-4.153a38.54309,38.54309,0,0,0,1.378-4.643,1.318,1.318,0,0,0-2.183-1.271c-2.337,2.085-3.74,5.932-4.592,8.877a35.11968,35.11968,0,0,0-1.022,4.792,23.96358,23.96358,0,0,0-.4,3.985,53.55227,53.55227,0,0,1-7.871-3.994,29.30694,29.30694,0,0,1-10.2-11.017,2.23132,2.23132,0,0,0,.931-.589c1.092-1.125,1.557-2.658,2.281-4.038q1.179-2.248,2.367-4.492c1.388-2.633,3.233-5.584,3.552-8.587.15-1.42-1.663-1.778-2.541-1.053-2.272,1.875-3.662,5.124-5.055,7.668q-1.137,2.076-2.275,4.154c-.42.764-.951,1.513-1.392,2.291a36.48291,36.48291,0,0,1-1.193-3.732,38.26594,38.26594,0,0,1-1.012-13.351,43.6,43.6,0,0,1,1.288-6.841c.548-2.069,1.392-3.889,1.564-6.052a4.21971,4.21971,0,0,1,.495-1.9c1.257-2.04,3.346.052,4.622.868a61.0446,61.0446,0,0,0,5.345,3.438q4.806,2.842,9.737,5.468,9.729,5.18005,19.9,9.467a276.71206,276.71206,0,0,0,27.431,9.866A34.307,34.307,0,0,1,378.64545,830.40708Zm187.944-8.682a50.2517,50.2517,0,0,1-4.045,12.385,44.71489,44.71489,0,0,1-4.663,7.568c-.707-1.651-1.561-3.261-2.331-4.864a57.28561,57.28561,0,0,0-3.322-6.623,1.564,1.564,0,0,0-2.844,1.2,57.422,57.422,0,0,0,2.379,7.02,60.46241,60.46241,0,0,0,2.631,6.865,2.2449,2.2449,0,0,0,.158.264,40.43693,40.43693,0,0,1-9.8,7.432,42.60007,42.60007,0,0,1-13.92,4.632c-.264-3.193-.925-6.411-1.375-9.568-.516-3.617-.979-7.244-1.762-10.815-.4-1.8-3.258-1.4-3.208.434.1,3.658.529,7.293.9,10.932.32,3.118.465,6.331.959,9.442a38.80925,38.80925,0,0,1-25.7-8.156,106.15936,106.15936,0,0,0,1.23-16.728,1.409,1.409,0,0,0-2.754-.373,90.97347,90.97347,0,0,0-2.918,12.979,43.08418,43.08418,0,0,1-10.4-21.109,342.10308,342.10308,0,0,0,45.929-4.408,360.03384,360.03384,0,0,0,35.486-7.667A42.24957,42.24957,0,0,1,566.58945,821.72507Zm297.638-264.009a77.39259,77.39259,0,0,1,15.8-9.871,2.2857,2.2857,0,0,0,.244.754,29.63007,29.63007,0,0,1,1.493,25.238,37.25278,37.25278,0,0,1-2.85,5.373c-.675-1.3-1.478-2.555-2.163-3.712a32.81818,32.81818,0,0,0-5.956-7.124,39.54259,39.54259,0,0,0-7.284-5.375c-1.059-.6-2.2-1.23-3.384-1.782Q862.12643,559.41,864.22745,557.716Zm-35.138,48.424a104.054,104.054,0,0,1,9.108,16.814,106.9538,106.9538,0,0,1,3.895,10.941q.535,1.788,1,3.6a39.57515,39.57515,0,0,0-10.571-4.213,36.66038,36.66038,0,0,0-13.471-.86,279.67827,279.67827,0,0,1,10.039-26.284Zm-25.212,73.912q1.129-3.224,2.2-6.475a31.778,31.778,0,0,1,10.63,10.053,29.75671,29.75671,0,0,1,3.565,7.271,39.82147,39.82147,0,0,1,1.274,5.911c-3.785-2.343-8.953-2.82-13.258-2.893a42.1665,42.1665,0,0,0-10.071,1.024c2.04193-4.936,3.91693-9.91894,5.66-14.89294Zm-25.729,51.404c6.425,7.974,8.563,18.137,7.167,28.222q-9-7.872-18.352-15.333A111.97233,111.97233,0,0,0,778.14847,731.45609Zm-59.072,36.693q1.281-.159,2.556-.358c-.489,2.4-.553,4.854-1.166,7.252a38.23562,38.23562,0,0,1-2.8,7.551,36.27668,36.27668,0,0,1-4.18,6.589c-.185.23-.386.459-.6.688-.238-1.109-.552-2.189-.771-3.1a70.0505,70.0505,0,0,0-7.561-18.391A68.03467,68.03467,0,0,0,719.07645,768.14909Zm235.134-186.656c-6.252,12.665-23.015,8.656-34.327,8.813-6.678.093-13.138,1.158-19.043,4.418a46.74645,46.74645,0,0,0-14.185,12.81c-8.973,11.714-14.275,26.115-19.07,39.922-5.434,15.644-9.613,31.667-14.278,47.547-8.313,28.3-18.536,57.235-37.917,80.036a105.13244,105.13244,0,0,1-33.5,26.3,124.31558,124.31558,0,0,1-41.487,11.83c-31.22,3.422-62.4-4.24-90.931-16.6-5.891-2.55-11.747-5.266-17.482-8.176,6.495-3.188,12.9-6.567,19.239-10.076,7.239-4.006,14.378-8.254,21.347-12.756q4.084-1.16492,8.154-2.376,1.521-.454,3.04-.916a53.38581,53.38581,0,0,0,14.958,5.309c.149.028.3.052.448.078.023.052.048.1.076.156,2.4,4.357,5.212,8.27,6.979,12.978a60.09246,60.09246,0,0,1,2.151,7.007c.407,1.687.488,3.938,1.139,5.688a7.0598,7.0598,0,0,0-.913,1.574c-.432,1.079.8,1.932,1.737,1.737,2.5-.521,4.87-3.642,6.4-5.539a40.46079,40.46079,0,0,0,4.639-7.144,38.31079,38.31079,0,0,0,2.98-8.006,24.12906,24.12906,0,0,0,.943-8.7,1.56878,1.56878,0,0,0-.066-.278,79.89378,79.89378,0,0,0,32.04-14.418q3.321-2.5,6.378-5.253c6.844,5.36,13.819,10.511,20.917,15.515a1.29169,1.29169,0,0,0,.571.229,1.529,1.529,0,0,0,2.718-.4c4.393-11.64.774-25.62-7.11-34.973a166.72748,166.72748,0,0,0,15.146-27.477,36.77788,36.77788,0,0,1,12.4-2.278c4.638.012,8.922,1.48,13.482,1.9a1.2926,1.2926,0,0,0,.594-.077,1.868,1.868,0,0,0,2.961-1.337c.239-5.817-2.416-12.251-5.47-17.089a35.65728,35.65728,0,0,0-12.46784-11.9231c3.425-10.619,6.562-21.37,9.98-32.009a35.10963,35.10963,0,0,1,14.305-.189,31.82572,31.82572,0,0,1,7.8,2.567c1.678.824,3.98,1.76,4.995,3.407a9.34373,9.34373,0,0,0,.876,1.416c1.553,1.725,3.329-.978,3.09-2.505-.645-4.121-2.411-8.227-3.571-12.234-.422-1.458-.861-2.912-1.338-4.353-.37-1.117-1.466-2.891-1.466-4.038a101.22443,101.22443,0,0,0-10.745-20.261c1.839-3.813,3.811-7.571,5.955-11.256a123.76671,123.76671,0,0,1,19.348-25.543,37.48643,37.48643,0,0,1,4.771,2.066,35.14637,35.14637,0,0,1,6.69,4.832,43.08929,43.08929,0,0,1,5.459,6.223c1.614,2.2,2.436,4.911,4.1,7.031a1.6,1.6,0,0,0,2.7-1.12c0-.057-.014-.114-.019-.171,4.786-4.015,6.905-11.4,7.562-17.328a31.62676,31.62676,0,0,0-4-19.6,2.70465,2.70465,0,0,0-.171-.244,71.47692,71.47692,0,0,1,17.379-4.583c13.02-1.707,26.748.169,38.075,7.091C949.73746,555.203,960.61948,568.50907,954.21048,581.49308Z" fill="#008fc3"/>
        <path id="Path_5338" data-name="Path 5338" d="M630.48746,520.84507a303.94643,303.94643,0,0,0-58.192,22.389,299.83119,299.83119,0,0,0-52.333,33.654c-8.187,6.6-15.954,13.66-23.445,21.028-3.223-3.267-6.63-6.367-9.916-9.572-3.223-3.145-6.382-6.386-9.749-9.377a28.79007,28.79007,0,0,0-10.117-6.271c-3.267-1.047-8.613-1.575-11.221,1.19a1.38,1.38,0,0,0,.965,2.328c1.7.045,3.358-.508,5.086-.4a15.46227,15.46227,0,0,1,3.668.705,46.96309,46.96309,0,0,0-1,5.192c-.46,2.358-.868,4.726-1.3,7.09s-.867,4.721-1.362,7.072c-.3,1.431-.7,2.857-1.01,4.3-11.044-2.759-21.69,3.43-29.537,10.824-4.463,4.207-8.6,8.8-12.766,13.3-4.538,4.9-9.351,9.685-13.5,14.927a1.768,1.768,0,0,0,2.5,2.5c.275-.242.542-.494.814-.74a2.65687,2.65687,0,0,0,.989,1.307,1.124,1.124,0,0,0,.257,1.445c2.362,1.871,4.918,3.5,7.217,5.449a61.76116,61.76116,0,0,1,6.366,6.185,51.19254,51.19254,0,0,1,9.4,15.135,50.40026,50.40026,0,0,1,3.519,17.631,37.81429,37.81429,0,0,1-2.663,15.472,2.551,2.551,0,0,0-2.9-2.048c-4.442.727-8.779,1.469-13.3,1.221a61.75168,61.75168,0,0,1-13.46-2.513c-2.69-.765-5.369-1.606-8.026-2.5.213-.03.427-.059.637-.093a22.76189,22.76189,0,0,0,6.812-2.505c2.1-1.106,4.629-2.495,5.8-4.632a1.6,1.6,0,0,0-1.779-2.314c-2,.422-3.749,1.656-5.715,2.238a37.12023,37.12023,0,0,1-5.949,1.094,39.36627,39.36627,0,0,1-6.035.2c-2.153-.065-4.259-.6-6.41-.665a1.88387,1.88387,0,0,0-.909.211,18.08547,18.08547,0,0,1-1.447-1.368,24.16621,24.16621,0,0,1-5.264-9.255q-.2-.631-.4-1.273a24.78677,24.78677,0,0,0,11.336,2.89c4.614-.05,11-1.831,13.805-5.771a1.445,1.445,0,0,0-1.616-2.1c-2.056.63-3.9,1.777-5.985,2.374a19.14187,19.14187,0,0,1-6.2.574,15.434,15.434,0,0,1-10.671-4.628,2.73,2.73,0,0,0-2.379-.93,25.70576,25.70576,0,0,1-.2-2.705c-.1-6.037,1.281-12.579,4.907-17.533,1.283,2.322,3.812,3.9,6.218,5.16a41.99754,41.99754,0,0,0,5.766,2.51,17.689,17.689,0,0,0,6.4.949,1.371,1.371,0,0,0,.363-2.679c-1.521-.594-2.969-1.266-4.534-1.786a32.2419,32.2419,0,0,1-4.538-1.9c-2.052-1.051-5.952-2.92-5.785-5.669a2.48183,2.48183,0,0,0-.023-.538,19.66708,19.66708,0,0,1,20.692-2.034c1.394.705,3.105-1.16,1.77-2.292-6.284-5.324-15.565-4.5-22.358-.564-7.626,4.422-11.969,12.86-13.278,21.344-1.358,8.809-.646,18.133,4.163,25.843,5.506,8.831,15.579,11.6,24.948,14.529,3.135.98,6.3,1.857,9.509,2.555a1.50008,1.50008,0,0,0-.156,1.02c.509,2.5,1.976,4.832,3.171,7.052q1.972,3.664,4.038,7.276c2.54,4.442,5.394,8.7,8,13.095-10.772,10.614-25.743,16.832-40.606,18.738a127.35371,127.35371,0,0,1-28.368.1,256.17807,256.17807,0,0,1-28.262-4.405,44.19358,44.19358,0,0,1-13.739-5.066,18.97093,18.97093,0,0,1-8-9.844,1.576,1.576,0,0,0-3.037.837c1.57,8.39,10.124,13.9,17.611,16.378a110.7404,110.7404,0,0,0,13.762,3.237c5.151,1,10.31,1.865,15.519,2.508,11.993,1.481,24.267,1.913,36.222.233-1.241.175-.31,12.144-.285,13.3.1,4.616.1,9.23.137,13.846.01,1.2.094,2.43,1.565,2.617a1.891,1.891,0,0,0,2.1336-1.61231q.01254-.09036.01639-.1817c.282-4.943.286-9.9.347-14.845.03-2.433.012-4.885.172-7.314.033-.514.541-6.569.21-6.506a86.97048,86.97048,0,0,0,16-4.538,65.99984,65.99984,0,0,0,23.855-15.77,2.566,2.566,0,0,0-1.654-4.26c-1.785-2.506-3.423-5.111-5.025-7.739a41.199,41.199,0,0,0,7-1.049c2.913-.592,5.813-1.269,8.672-2.083a110.06522,110.06522,0,0,0,16.437-6.1,102.27548,102.27548,0,0,0,20.081-12.4,1.91224,1.91224,0,0,0,.332-.136,132.71657,132.71657,0,0,0,11.6-6.913c3.747-2.522,7.706-4.664,11.332-7.373a1.375,1.375,0,0,0-1.386-2.372c-3.537,1.772-6.8,3.968-10.194,5.976a86.99056,86.99056,0,0,0,9.272-11.531c1.026-1.552-1.392-2.877-2.455-1.435a99.09294,99.09294,0,0,1-54.266,37.893,86.7704,86.7704,0,0,1-8.988,1.978c-3.166.505-6.543.547-9.635,1.383a2.42521,2.42521,0,0,0-.265.1l-.515-.849c-.407-.669-.807-1.343-1.209-2.016,5.047.726,10.614-1.521,14.328-4.771,5.586-4.888,7.647-12.59,8.31-19.738,1.238-13.345-3.15-27.458-11.223-38.1-4.045-5.333-9.379-10.765-15.688-13.435,2.033-.737,4.008-1.829,5.95-2.716q3.27-1.492,6.5-3.072c4.583-2.227,9.221-4.528,13.572-7.186,4.281-2.615,8.691-5.005,13.012-7.552q3.24-1.91,6.41-3.945c2.052-1.32,4.514-2.6,6.22-4.355.97-1,.007-3-1.439-2.472a40.61065,40.61065,0,0,0-6.313,3.559c-2.158,1.277-4.314,2.559-6.477,3.828a148.7451,148.7451,0,0,1-13.242,7.16c-4.568,2.089-9.063,4.345-13.621,6.459q-3.269,1.515-6.568,2.961c-1.058.466-2.167.883-3.269,1.318,2.5-2.555,4.928-5.183,7.4-7.736,4.028-4.164,7.925-8.467,12.052-12.534,7.316-7.212,17.343-14.3,28.135-10.9a2.71228,2.71228,0,0,0,.285.073,2.556,2.556,0,0,0,4.009-1.177c.7-2.383.691-4.972,1.005-7.426.309-2.425.69-4.837,1.066-7.253.371-2.381.761-4.759,1.093-7.146.175-1.262.494-2.645.639-4.009a37.28039,37.28039,0,0,1,7.181,5.794c5.91,5.73,11.578,11.735,17.567,17.379a1.469,1.469,0,0,0,2.429,1.387,315.609,315.609,0,0,1,136.039-76.522C635.30044,525.17506,633.87448,519.93006,630.48746,520.84507Zm-198.808,185.6c-1.9,3.091-4.361,5.852-7.868,7.077a12.06409,12.06409,0,0,1-9.643-.768,2.40837,2.40837,0,0,0-.941-.265,35.79752,35.79752,0,0,0-2.989-4.886c1.494.263,3,.481,4.509.643,5.8.619,12.106.446,17.287-2.49.024-.014.045-.028.068-.043-.138.25-.275.496-.423.736Z" fill="#008fc3"/>
        <path id="Path_5339" data-name="Path 5339" d="M379.21045,493.05106c-1.368-1.412-3.676-1.463-5.5-1.683a73.83687,73.83687,0,0,0-13.8-.4c-1.952.132-4.1.185-5.684,1.488a3.937,3.937,0,0,0-1.015,5.1c1.135,1.883,3.493,2.726,5.357,3.666,2.346,1.184,4.688,2.3,7.137,3.253a1.015,1.015,0,0,0,.933-.055,1.98157,1.98157,0,0,0,.267-.094c2.13-.98,4.094-2.239,6.183-3.293,1.786-.9,3.923-1.5,5.5-2.752a3.578,3.578,0,0,0,.80676-4.99533Q379.30775,493.16459,379.21045,493.05106Zm-3.673,3.171c-.495.3-1.023.555-1.523.852-.935.555-1.873,1.111-2.849,1.6-1.881.938-3.8,1.752-5.636,2.779-1.446-.95-2.917-1.851-4.435-2.7l-2.859-1.6c-.453-.253-1.784-.781-1.978-1.344-.446-1.289,3.009-1.262,3.652-1.3q3.107-.2,6.221-.122a58.58188,58.58188,0,0,1,6.206.484c1.052.14,2.111.3,3.154.494a5.12652,5.12652,0,0,1,.853.2c-.022.028-.04.06-.064.087C376.03445,495.78107,375.78744,496.06907,375.53744,496.22205Z" fill="#008fc3"/>
      </g>
    </g>
    <path id="Icon_awesome-dna" data-name="Icon awesome-dna" d="M348.60365,731.98817a1.122,1.122,0,0,0,1.118,1.252l2.275.007a1.131,1.131,0,0,0,1.125-.977c.049-.345.127-.78.239-1.273h21.955c.112.485.2.928.246,1.273a1.125,1.125,0,0,0,1.125.977l2.271-.007a1.118,1.118,0,0,0,1.118-1.252,23.047,23.047,0,0,0-8.36-14.6,36.60891,36.60891,0,0,1-4.113,2.489c.436.323.8.661,1.2,1h-8.977a27.208,27.208,0,0,1,5.534-3.614c12.1-6.016,14.322-15.389,14.73-18.757a1.122,1.122,0,0,0-1.118-1.252l-2.275-.007a1.131,1.131,0,0,0-1.125.977c-.049.345-.127.78-.239,1.273h-21.969c-.113-.492-.19-.921-.239-1.273a1.125,1.125,0,0,0-1.128-.977l-2.268.007a1.127,1.127,0,0,0-1.125,1.252c.366,3.016,2.201,10.821,11.243,16.741C350.81165,721.16717,348.96965,728.97217,348.60365,731.98817Zm15.743-19.3a26.78375,26.78375,0,0,1-4.521-3.066h9.035A26.027,26.027,0,0,1,364.34665,712.68817Zm9.218-8.691a19.82233,19.82233,0,0,1-1.477,2.25h-15.475a18.07762,18.07762,0,0,1-1.477-2.25Zm-18.436,22.5a19.82233,19.82233,0,0,1,1.477-2.25h15.426a19.10044,19.10044,0,0,1,1.491,2.25Z" fill="#008fc3"/>
  </g>
</svg>
