<svg xmlns="http://www.w3.org/2000/svg" viewBox="0 0 536.038 362.187">
  <path
  transform="translate(-50 -50)"
    d="M379.62 141.021c-34.786-38.101-92.671-14.386-104.272-72.639C238.553-116.382 11.118 120.508.631 224.162c-4.785 47.297 16.762 95.532 94.997 126.824 2.9-1.091 5.878-2.06 8.798-3.048 20.648-6.988 41.56-13.255 62.482-19.364 10.071-2.94 20.162-5.833 30.314-8.482 7.17-1.87 14.919-4.149 22.359-4.291.07-.002.14.005.21.005a21.392 21.392 0 013.938-.197c11.533-1.688 21.787 1.546 28.34 11.709 2.838 4.403 3.926 10.684 3.178 16.639 1.942-.439 3.876-.914 5.782-1.493 1.498-.456 6.728-2.56.685.05a54.937 54.937 0 013.55-1.398 23.094 23.094 0 0111.243-14.453 56.99 56.99 0 0119.948-6.352 24.478 24.478 0 014.08-1.49 47.023 47.023 0 0114.315-1.454c.317.015.953.112 1.67.206a25.096 25.096 0 0122.854.395 152.082 152.082 0 0116.107-7.6 17.955 17.955 0 018.648-1.061c1.751-.964 3.528-1.89 5.364-2.72 6.38-2.888 13.076-3.83 19.184-2.389a24.487 24.487 0 0110.55-6.252q2.533-1.545 5.136-2.982a26.637 26.637 0 018.711-2.989c11.352-59.975-15.026-130.77-33.454-150.954z"
    fill="#008fc3" opacity=".15" />
  <path
    d="M136.097 324.043a13.998 13.998 0 00-11.89-5.779 15.299 15.299 0 00-7.02 2.135c-2.069 1.237-4.315 3.123-5.003 5.514a.822.822 0 001.02.985 1.356 1.356 0 00.103.16l2.971 3.749.006.005q4.47 5.643 8.949 11.279c1.34 1.686 3.348 5.387 6.039 3.937a6.79 6.79 0 002.2-2.534c.864-1.34 1.738-2.685 2.466-4.105 2.411-4.707 3.527-10.787.159-15.346z"
    fill="#fff" />
  <path
    d="M258.053 262.346l.054.019q.263-.16.535-.306c-.114.016-.228.038-.342.054l-.247.233zm-15.166-40.827l-.048-.047.018.025zm-168.458 5.248c-.53.15-1.056.3-1.584.454a32.81 32.81 0 012.73 1.114c.024.013.036.036.057.05.461-.752.935-1.554 1.413-2.41a17.611 17.611 0 01-2.616.792zm189.093 11.066a19.163 19.163 0 001.714.947 17.444 17.444 0 001.722.729 5.163 5.163 0 011.73.74.645.645 0 01.024.876q4.2-.535 8.426-.723v-8.415q-4.069.832-8.073 1.949c-1.296.366-2.583.762-3.866 1.172l-.01.868a.864.864 0 01-.057.288.877.877 0 01-1.22.473l-1.312.51c.31.192.626.374.922.586zm-41.506-59.535l.04.092c.003-.006.002-.014.005-.02zM73.373 230.76c.21.059.421.114.631.173a76.7 76.7 0 00.434-.658q-.532.243-1.065.484z"
    fill="none" />
  <path
    d="M245.434 256.808l.005.007.75 1.678a27.352 27.352 0 014.02-.363 38.013 38.013 0 015.4.057 36.784 36.784 0 0110.731 2.526.641.641 0 01-.006 1.21c.168.106.334.221.497.347a7.787 7.787 0 013.033 6.36l7.274-1.619v-13.513c-.524-.129-1.043-.278-1.57-.394a55.26 55.26 0 00-15.236-1.028q-2.189.15-4.358.484c-1.201.185-2.404.476-3.613.682q-1.982.993-3.966 1.984c-.31.154-.623.299-.936.446l-2.022 1.129zm-108.198-94.057a31.76 31.76 0 013.958-3.043 27.371 27.371 0 019.126-3.733 28.472 28.472 0 015.67-.6.946.946 0 01.449 1.762c-.267.529-.65 1-.951 1.515a17.189 17.189 0 00-.91 1.77q-.3.684-.54 1.4a33 33 0 0118.113-3.261.545.545 0 010 1.089c-.363.026-.725.065-1.087.096l-9.827 4.913 5.877-.4-.004-.011a.592.592 0 01.499-.672l.013-.002a12.618 12.618 0 001.3-.216 14.275 14.275 0 011.474-.109c.89-.036 1.782-.078 2.672-.106a33.262 33.262 0 015.566.3 42.347 42.347 0 016.116 1.314c.593.173 1.176.376 1.759.58.29.1.583.205.875.3.25.086.539.263.812.18.183-.056.278-.216.416-.333a3.003 3.003 0 01.527-.375q.683-.367 1.36-.743 1.352-.752 2.678-1.548 2.389-1.436 4.674-3.034c.3-.21.597-.425.896-.636-.416-.178-.831-.346-1.247-.517-.318-.129-.635-.261-.956-.386a70.373 70.373 0 00-3.46-1.244l-.19-.06a76.67 76.67 0 00-2.796-.84c-.097-.028-.196-.053-.294-.08a87.473 87.473 0 00-3.293-.825q-2.628-.608-5.283-1.07a165.767 165.767 0 00-16.708-1.898q-1.876-.131-3.771-.192a57.074 57.074 0 00-20.427 3.058 42.027 42.027 0 00-9.977 5.81 15.54 15.54 0 014.072-1.184c.59-.07.609.784.13.965-.024.008-.048.02-.072.028l.327 4.604a16.047 16.047 0 012.434-2.566zm126.647 80.886a.877.877 0 01-.556-.086l-.141.058c.377.167.744.358 1.067.49a7.877 7.877 0 011.99.942c.326.078.568.486.343.764a.528.528 0 01-.4.318 20.695 20.695 0 01-2.493 1.427c-1 .524-2.013 1.036-3.02 1.554q-1.545.796-3.105 1.563a52.23 52.23 0 011.723-.156 56.493 56.493 0 017.96-.011 57.107 57.107 0 019.887 1.508v-9.905c-.878.05-1.756.085-2.632.156a106.262 106.262 0 00-10.623 1.378z"
    fill="none" />
  <path d="M261.647 261.02c.088-.014.176-.032.265-.043l-.25-.049a.803.803 0 01-.015.092z" fill="none" />
  <path
    d="M109.822 193.765l.23.027c.04-.154.085-.31.126-.464a3.833 3.833 0 01-.553.398zm-32.257 32.02c-.17.071-.348.124-.52.19a69.784 69.784 0 01-1.413 2.411.817.817 0 01-.056 1.372l-1.138.517a85.05 85.05 0 01-.434.659q10.645 3.033 21.173 6.456l.23.019q1.862.17 3.718.389c1.037.124 2.052.313 3.074.493-.12-.197-.232-.396-.349-.593-1.23-.474-2.568-.854-3.714-1.392a13.546 13.546 0 01-5.507-5.463c-7.362-12.098-3.113-29.669 8.675-37.36q.08-.054.163-.103c.222-.142.44-.289.668-.424a.497.497 0 01-.185-.38 40.989 40.989 0 01.388-6.567c-.012.016-.021.033-.033.049-.428.5-1.65.436-2.01-.83a14.793 14.793 0 01-.36-1.616c-.1-.613-.2-1.226-.268-1.843-.128-1.15-.248-2.3-.351-3.451-.21-2.343-.361-4.69-.523-7.036-.327-4.73-.394-9.482-.33-14.222.032-2.245.116-4.487.237-6.73-1.2 1.98-2.288 4.04-3.371 6.068-1.448 2.71-2.822 5.455-4.006 8.292a90.057 90.057 0 00-5.391 17.595 81.927 81.927 0 00-.81 5.048c-.222 1.752-.3 3.527-.558 5.272a.866.866 0 01-1.474.394 5.457 5.457 0 01-1.524-.466 6.964 6.964 0 01-1.637-1.027 5.093 5.093 0 01-.523-.52 30.79 30.79 0 001.409 5.265 28.678 28.678 0 001.473 3.347 36.9 36.9 0 011.752 3.254.446.446 0 01-.026.41 45.055 45.055 0 01-.506 4.731c.064.056.13.11.194.165a5.8 5.8 0 011.78 1.944c.285.679-.523 1.29-1.134 1.13a5.943 5.943 0 01-1.303-.78q-.335 1.556-.756 3.04c.365.217.728.438 1.07.687a.914.914 0 11-.923 1.578 11.039 11.039 0 01-.707-.416q-.261.808-.543 1.59c.667.254 1.329.52 1.967.828.934.45.265 1.964-.698 1.656a23.48 23.48 0 01-1.931-.732q-.29.73-.592 1.436a2.434 2.434 0 011.817 2.11.934.934 0 01-1.725.466c-.254-.438-.307-.835-.752-1.087a62.84 62.84 0 01-1.662 3.334.512.512 0 01.2.414.522.522 0 01-.245.429zm-27.677 59.353a45.05 45.05 0 00-.43 1.637c.298-1.13.618-2.252.93-3.377l-.5 1.74zm155.488-38.854l.132.018-.016-.031a.418.418 0 01-.116.013zm4.744 19.296a3.719 3.719 0 01.98 1.485 2.812 2.812 0 00-.98-1.485zm.94-114.678a87.623 87.623 0 01-3.077 3.016c-.517.48-1.019.976-1.521 1.47.828.398 1.633.832 2.427 1.285.69-1.936 1.442-3.849 2.172-5.771zm1.718 8.321c-.089-.554-.177-1.108-.274-1.66-.2-1.119-.363-2.242-.536-3.364a.597.597 0 01-.041-.107c-.1-.348-.184-.693-.266-1.038a150.888 150.888 0 00-1.566 4.324 37.44 37.44 0 012.683 1.845zm-168.626 159.2a1.113 1.113 0 01-.528-.314l-.1.617.615-.134zm151.718-73.308a3.09 3.09 0 011.027-.143 25.684 25.684 0 014.785-.137 3.34 3.34 0 011.97.514 1.342 1.342 0 01.511.889 6.978 6.978 0 011.029.021.276.276 0 01-.148-.108 4.427 4.427 0 01-.648-3.417 1.906 1.906 0 01.28-.503c-.187-.041-.373-.086-.558-.129a9.334 9.334 0 00-1.576-.228 11.269 11.269 0 00-1.59-.065 8.998 8.998 0 00-5.184 2.573 4.573 4.573 0 01.102.733zm49.567 11.686l2.022-1.13c-.647.306-1.297.608-1.944.914a.897.897 0 01-.078.216z"
    fill="#bff3d6" />
  <path
    d="M235.038 211.104a.23.23 0 01-.203-.209c-.007-.053-.007-.106-.012-.16a109.625 109.625 0 01-5.27-10.29l-.003.002a.5.5 0 01-.593-.156c-1.485-2.392-2.623-4.966-3.906-7.464-.02.524-.031 1.047-.08 1.573a38.849 38.849 0 00-.216-2.135c-.179-.34-.349-.685-.536-1.02a48.027 48.027 0 01-2.2-4.341c-.685-1.566-1.332-3.146-1.988-4.724s-1.34-3.148-2-4.728c-.623-1.5-1.118-3.068-1.628-4.611-.098-.296-.183-.596-.279-.892a39.278 39.278 0 00-3.443-3.775 42.148 42.148 0 00-4.64-3.827 39.188 39.188 0 00-1.137 11.67 30.46 30.46 0 00.465 3.544c.036.2.08.394.127.591-.023-.094.4-.464.474-.534a5.319 5.319 0 01.559-.474c.544-.4 1.2-.574 1.623-1.133a.723.723 0 01.193-.2c.319-.186.728.225.768.523.09.672-.013 1.353.085 2.03a8.79 8.79 0 00.54 1.96 20.707 20.707 0 002.153 3.423.486.486 0 01-.661.659 7.31 7.31 0 01-2.58-3.684 10.841 10.841 0 01-.581-2.225c-.047-.3-.1-.614-.132-.93a4.412 4.412 0 00-1 .885 5.083 5.083 0 00-.91 1.876c.047.248.086.5.109.747.054.589-.771.714-1.05.283a4.293 4.293 0 01-.244-.438.555.555 0 01-.287-.6.585.585 0 01.01-.073 18.927 18.927 0 01-.5-1.87 25.056 25.056 0 01-.51-3.143 33.738 33.738 0 01-.01-6.563 56.034 56.034 0 011.257-7.181 49.668 49.668 0 00-5.958-3.388 74.09 74.09 0 01-5.813 3.874c-1.6.956-3.2 1.9-4.845 2.76a23.458 23.458 0 014.555 2.514c.52.382.238 1.429-.485 1.147-2.111-.824-4.152-1.79-6.292-2.546a51.354 51.354 0 00-6.58-1.845c-2.228-.466-4.49-.737-6.743-1.04a25.12 25.12 0 00-3.388-.226c-.57 0-1.14.023-1.71.037a16.116 16.116 0 00-1.761-.03.59.59 0 01-.668-.487l-5.877.4 9.827-4.914c-1.284.11-2.565.244-3.84.43a52.592 52.592 0 00-4.875.937 42.342 42.342 0 00-4.74 1.445q-1.154.43-2.278.934-.56.25-1.108.52a2.749 2.749 0 01-.8.313c-.437.068-1.206.217-1.36-.351a4.083 4.083 0 01.258-2.114 17.673 17.673 0 01.75-2.07 17.036 17.036 0 01.948-1.865c.11-.188.223-.382.342-.575a28.392 28.392 0 00-9.883 2.677 28.823 28.823 0 00-5.052 3.033c-1.624 1.253-2.988 2.754-4.49 4.135a.6.6 0 01-.938-.727c.25-.397.521-.778.804-1.15l-.327-4.605a24.09 24.09 0 00-5.794 2.945 17.607 17.607 0 00-2.37 2.16c-.547.59-1 1.336-1.553 1.95 1.517 1.28 3.03 2.566 4.493 3.907.429.393-.145 1.167-.634.819a89.544 89.544 0 01-2.48-1.847c-.412-.316-.827-.628-1.24-.944-.393-.3-.772-.626-1.166-.925-.212-.161-.441-.3-.652-.46-.04-.03-.078-.064-.117-.096-.15.187-.305.37-.452.56l-.085.113c-.16.208-.312.422-.468.632-4.854 6.87-8.066 15.134-10.286 23.36-.095.385-.19.77-.28 1.154a4.765 4.765 0 012.163.46 5.172 5.172 0 01.672.162c1.614.529 2.611 2.79 2.921 3.66.074.208.137.419.207.628a17.496 17.496 0 011.096 3.41 50.103 50.103 0 011.057 9.83q.02 1.105-.004 2.211c-.01.424-.023.848-.043 1.272l-.024.413a50.743 50.743 0 01-1.137 8.35c-1.24 5.523-3.984 10.955-9.503 13.176a.272.272 0 01-.246-.014c-.127.044-.252.093-.38.131.49.547 1.007 1.068 1.524 1.589a19.827 19.827 0 012.235.653.444.444 0 01.263.476 17.3 17.3 0 002.8-2.47c.394-.426 1.15.137.816.629a14.515 14.515 0 01-3.247 3.365q1.02.853 2.097 1.64a10.433 10.433 0 011.745-.951c.547-.176.836.512.518.888a10.142 10.142 0 01-1.055.892c.48.326.95.664 1.446.97a73.342 73.342 0 0016.457 4.903 16.989 16.989 0 004.646-1.174 6.184 6.184 0 012.234-5.779 6.061 6.061 0 016.501-.406 5.726 5.726 0 012.96 5.31l.002.035c0 .019-.005.036-.006.055-.007.123-.002.246-.017.37-.01.076-.03.148-.043.223-.003.023-.009.046-.013.07a5.81 5.81 0 01-4.22 4.808 6.492 6.492 0 01-2.6.083 5 5 0 01-.52-.107c-.091-.023-.183-.04-.273-.068-.043-.014-.087-.037-.13-.051a5.275 5.275 0 01-.977-.385 25.765 25.765 0 00-3.376-1.478 7.12 7.12 0 01-1.473.771c13.145 5.174 26.335 10.446 38.333 17.895.205.127.41.258.614.387l1.345.71.754.688a20.631 20.631 0 015.045 4.774c1.906 2.68 2.815 6.255 1.68 9.322v1.294c9.245-2.052 18.525-4.113 27.718-6.156a34.363 34.363 0 0121.12-23.772 28.988 28.988 0 0111.4-2.185c.082-.042.166-.08.247-.123.99-.526 1.992-1.073 3.006-1.578 2.029-1.01 4.069-2 6.089-3.022s4.04-2.051 6.082-3.035c1.022-.492 2.04-.99 3.065-1.476.443-.21.883-.428 1.329-.632-.224-.095-.442-.19-.65-.272a6.3 6.3 0 01-2.315-1.08.631.631 0 01-.175-.467.85.85 0 01.388-1.23c1.075-.437 2.152-.867 3.229-1.3.457-.184.917-.372 1.38-.543a19.648 19.648 0 01-1.556-.708 10.517 10.517 0 01-3.351-2.308.6.6 0 01.722-.933c.22.123.423.272.637.405l1.312-.509c-.01-.005-.02-.006-.03-.011-3.324-1.809-6.433-3.974-9.599-6.038a66.42 66.42 0 01-11.396-9.17l-.03-.02-.018-.026a47.536 47.536 0 01-3.432-3.926 63.278 63.278 0 01-4.37-6.442zm-80.308 17.739a5.916 5.916 0 00-4.7 3.317c-.323.69-1.338.089-1.024-.597a6.853 6.853 0 015.555-3.966c.7-.042.882 1.129.169 1.246zm2.604-5.446a9.08 9.08 0 01-2.156.851l-2.237.807c-1.5.54-2.988 1.015-4.53 1.411-.52.134-.895-.644-.378-.891a49.722 49.722 0 014.416-1.85l2.234-.82c.085-.031.17-.064.255-.1h-.012a7.164 7.164 0 00-1.854.066c-.588.069-.7-.763-.281-1.033a3.533 3.533 0 012.425-.443 3.692 3.692 0 011.953.773c.56.094.608.917.165 1.229zm12.825-2.044a.493.493 0 01-.674.175c-1.635-.69-3.21-1.48-4.795-2.284q-1.182-.6-2.37-1.19c-.578-.287-1.23-.542-1.81-.868a21.175 21.175 0 011.059 2.019l.686 1.354a3.482 3.482 0 01.539 1.444.66.66 0 01-.64.679h-.035a.61.61 0 01-.627-.082 7.745 7.745 0 00-2.526-1.45 17.451 17.451 0 00-2.9-.39.534.534 0 01-.138-1.038 6.2 6.2 0 013.388.179 11.974 11.974 0 011.179.4l-.207-.482a11.73 11.73 0 01-1.038-2.775.561.561 0 01.425-.614c-.191-.567.182-1.3.91-1.048a14.997 14.997 0 012.309 1.223q1.206.678 2.417 1.346c1.586.874 3.156 1.745 4.674 2.728a.493.493 0 01.174.674zm54.74-5.046a12.122 12.122 0 015.98-1.146.475.475 0 010 .949 11.928 11.928 0 00-5.234 1.484 13.34 13.34 0 00-3.935 3.585c-.685.968-2.291.037-1.6-.931a11.3 11.3 0 014.79-3.941zm-9.49-35.027c.165-.71 1.2-.515 1.23.166.053 1.05-.038 2.085.076 3.14a16.779 16.779 0 00.584 2.909 11.373 11.373 0 001.179 2.748c.27.45.57.882.882 1.306a3.534 3.534 0 01.79 1.262c.065.326-.222.73-.594.592-.916-.342-1.521-1.6-1.968-2.413a23.054 23.054 0 01-1.418-3.083 14.585 14.585 0 01-.78-3.233 10.093 10.093 0 01.02-3.394zm-43.03 55.877a8.2 8.2 0 011.028-3.862 6.758 6.758 0 014.947-3.69c.547-.064.626.788.127.933a5.216 5.216 0 00-2.1 1.177h.139c2.287 0 4.14 2.437 4.14 5.442s-1.853 5.442-4.14 5.442-4.141-2.436-4.141-5.442zm37.112 34.954a5.505 5.505 0 01-5.81-.541l-.045-.041a3.693 3.693 0 01-3.971 0 3.502 3.502 0 01-.422-.34 6.018 6.018 0 01-3.74 1.9 4.694 4.694 0 01-4.111-1.647c-1.136-1.465-.854-3.352-.351-5.006.5-1.63 1.532-2.933 3.346-3.02 1.969-.093 3.54 1.269 4.682 2.717a2.342 2.342 0 01.31-.295 4.965 4.965 0 011.689-.843 3.138 3.138 0 011.519-.145 2.6 2.6 0 01.948.384c.086.056.689.386.615.5a4.632 4.632 0 012.006-1.487 5.081 5.081 0 012.824-.424 4.01 4.01 0 013.46 3.588 5.128 5.128 0 01-2.95 4.7zm10.233-21.838a7.007 7.007 0 01-5.897 2.096.247.247 0 01-.203-.364 2.98 2.98 0 01-.362-.163 2.208 2.208 0 01-.44-.143c-.335-.1-.68-.207-1.017-.335a17.955 17.955 0 001.573 1.956 5.322 5.322 0 004.774 1.826c.513-.111.89.624.375.886a4.239 4.239 0 01-.927.348.56.56 0 01-.044.215 5.286 5.286 0 01-1.667 1.784 11.756 11.756 0 01-10.513 2.283.225.225 0 01-.041.1 5.79 5.79 0 01-5.3 2.016 6.517 6.517 0 01-4.283-2.488c-3.67 1.907-8 2.374-11.48.029a7.874 7.874 0 01-2.061-2.014.553.553 0 01-.366-.608 4.312 4.312 0 01-.485-1.58c-.063-.706.907-.829 1.242-.333.134.2.259.4.384.6l.12-.093q.715-.564 1.432-1.125c.6-.471 1.184-.96 1.77-1.445-.199.028-.394.072-.594.088a7.712 7.712 0 01-5.015-1.366 5.968 5.968 0 01-4.21-4.272c-.718-3.271 1.455-6.336 4.376-7.605a11.256 11.256 0 014.676-.868 14.8 14.8 0 015.706 1.2 8.836 8.836 0 011.543.824c.15.061.314.109.457.176.251.118.529.242.804.38a7.515 7.515 0 011.671-1.287 10.136 10.136 0 013.142-1.073 8.185 8.185 0 011.775-.234 9.076 9.076 0 011.804.241 5.484 5.484 0 011.558.666c.248.15.565.288.835.467a5.524 5.524 0 01.852.37 5.75 5.75 0 011.112-.439c1.215-.33 2.466-.449 3.7-.684a12.843 12.843 0 013.662-.087 6.15 6.15 0 013.105 1.053c.076.057.139.126.21.187a5.057 5.057 0 011.79.813 5.116 5.116 0 011.697 2.361 5.726 5.726 0 01-1.24 5.64zm5.343-7.673c-2.287 0-4.141-2.436-4.141-5.442a7.64 7.64 0 01.75-3.14c.102-.233.213-.463.33-.691a8.328 8.328 0 011.417-2.035 5.835 5.835 0 012.919-1.594c.185-.04.372-.07.559-.092.547-.064.626.788.127.933a5.216 5.216 0 00-2.1 1.177h.139c2.287 0 4.14 2.437 4.14 5.442s-1.853 5.442-4.14 5.442zm19.357-13.318a.5.5 0 01-.388.916 18.985 18.985 0 01-2.82-.907c-.933-.33-1.85-.7-2.777-1.053-.688-.259-.403-1.368.308-1.114.97.342 1.947.66 2.91 1.022a19.076 19.076 0 012.767 1.136zm-4.716-8.655c.175.4-.425.638-.712.724a11.325 11.325 0 00-2.182.849 5.531 5.531 0 00-1 .7l.167.045a17.973 17.973 0 011.815.535 8.983 8.983 0 013.146 1.8c.4.379-.107.957-.565.73a24.079 24.079 0 00-3.1-1.443 8.561 8.561 0 00-1.672-.407 4.037 4.037 0 01-1.585-.234.632.632 0 01-.154-.981.75.75 0 01.154-.261 7.138 7.138 0 013.05-1.981c-.517-.056-1.034-.131-1.541-.19-1-.113-2.008-.23-3.014-.337-1.994-.212-4.006-.44-5.985-.758-.818-.135-.635-1.554.202-1.463 1.994.209 4 .514 5.975.83q1.437.23 2.877.444a10.618 10.618 0 013.73 1.036.85.85 0 01.394.362z"
    fill="#bff3d6" />
  <path
    d="M196.635 259.796c.025.032.058.056.084.087l-.03-.12zm-85.639-94.412a45.998 45.998 0 013.36-3.938 88.113 88.113 0 00-3.401-2.563 61.502 61.502 0 01-5.726-4.7c-1.586-1.442-3.15-2.9-4.786-4.288a208.51 208.51 0 00.283 27.224q.157 1.965.344 3.929c.06.634.12 1.266.16 1.9.038.606.008 1.223.036 1.827a33.625 33.625 0 011.774-2.903 39.24 39.24 0 017.956-16.488zm-48.837 83.772c-2.727 5.318-6.15 15.638-8.787 24.213a270.968 270.968 0 019.07-24.149z"
    fill="#bff3d6" />
  <path
    d="M227.352 181.905a18.03 18.03 0 00-.537-2.689 38.043 38.043 0 00-4.737-9.978 47.924 47.924 0 014.098 8.731 48.745 48.745 0 011.176 3.936zm1.346 15.618l.278.563a121.55 121.55 0 00-.078-4.197c0 .754-.007 1.508-.043 2.261-.02.425-.1.902-.157 1.373zm-12.458-35.36c-.214-.206-.427-.416-.646-.617l.034.117c.208.162.407.335.613.5zm5.335 18.797q.457 1.092.847 2.21.3.75.606 1.5a41.02 41.02 0 00-1.567-4.014l.114.303zm-22.817-21.82c-.414-.18-.84-.338-1.258-.509.416.17.831.339 1.247.517zm-65.416-.638a36.277 36.277 0 00-3.795 2.764c.26-.133.53-.244.798-.362a42.027 42.027 0 019.977-5.81 37.627 37.627 0 00-6.98 3.408zm47.887-4.377q2.652.46 5.282 1.071a119.525 119.525 0 00-13.96-2.375 116.124 116.124 0 00-11.802-.785q1.893.06 3.772.192a165.767 165.767 0 0116.708 1.897zm-54.516-1.408c8.268-4.076 17.32-5.916 26.556-6.39-2.111.053-4.22.176-6.328.403-11.504 1.24-22.865 5.243-31.296 13.405l.14.118a46.563 46.563 0 0110.928-7.536zm77.725 2.242c.132-.098.262-.2.394-.299-.149-.063-.294-.135-.444-.197a56.906 56.906 0 00-7.3-2.39c.336.112.672.217 1.006.333a72.28 72.28 0 016.344 2.553zm5.507 2.866q1.48.87 2.903 1.834l-.07-.436a37.438 37.438 0 00-2.683-1.845l-.15.447zm-1.056-1.152c-.794-.453-1.6-.887-2.427-1.285l-.37.362q1.333.658 2.631 1.377c.053-.152.112-.303.166-.454zm-85.945 11.534c-.146.19-.291.382-.434.576.147-.19.302-.374.452-.561zm-8.717 26.456a5.172 5.172 0 00-.673-.162 8.548 8.548 0 013.8 4.45c-.07-.209-.133-.42-.207-.628-.31-.87-1.307-3.13-2.92-3.66zm-15.731 36.033a6.315 6.315 0 00.726.044 39.734 39.734 0 01-.965-1.987 59.436 59.436 0 01-1.729-4.243 21.686 21.686 0 01-1.515-8.298 1.397 1.397 0 012.732-.37c.68 2.107 1.003 4.302 1.65 6.425a39.876 39.876 0 002.432 6.105c.213.43.455.843.682 1.264a12.858 12.858 0 003.696-5.181 32.995 32.995 0 002.758-15.689.229.229 0 01.447-.06 26.746 26.746 0 01-3.27 19.388 11.273 11.273 0 01-2.724 3.168c.016.027.034.052.05.078a5.761 5.761 0 01.68-.062.519.519 0 01.51.486 27.354 27.354 0 004.957-6.501 24.748 24.748 0 003.289-14.426 16.436 16.436 0 00-2.53-7.987 10 10 0 00-.915-1.125 9.07 9.07 0 00-2.626-1.954 7.414 7.414 0 00-1.803-.587 5.077 5.077 0 00-1.707-.193 5.021 5.021 0 00.657.282q.335.155.655.34a7.604 7.604 0 011.17.832 6.722 6.722 0 011.722 2.282c.205.453-.433.85-.68.398a6.877 6.877 0 00-5.93-3.387 9.067 9.067 0 00-6.484 3.047c-3.644 3.882-4.065 9.55-3.914 14.61.136 4.599.91 10.019 5.35 12.466a7.008 7.008 0 002.629.835zm12.862-36.656h.033c.09-.384.185-.768.28-1.153-.104.384-.214.769-.313 1.152z"
    fill="#fff" />
  <path
    d="M96.038 199.539c.083-.13.485-.244.627-.306a17.771 17.771 0 015.065-.986c.815-.099 1.628-.23 2.45-.254a5.985 5.985 0 012.118.275 9.619 9.619 0 015.002 4.189c2.807 4.747 2.975 11.025 1.761 16.281a27.077 27.077 0 01-2.817 7.563 24.978 24.978 0 01-5.27 6.246.408.408 0 01-.666-.244c-.072.015-.143.018-.215.03a42.07 42.07 0 002.06 2.953 10.471 10.471 0 00.927-.517c4.49-2.842 6.243-8.328 7.071-13.29a41.425 41.425 0 00-.377-17.002c-1.168-4.516-4.154-9.313-9.21-9.928a7.748 7.748 0 00-6.03 1.93 14.313 14.313 0 00-2.496 3.06zm18.419-38.012l-.102-.081a45.998 45.998 0 00-3.36 3.938 46.08 46.08 0 013.462-3.857z"
    fill="#fff" />
  <path
    d="M111.132 232.514a13.344 13.344 0 01-4.273 3.668c.146.18.3.353.449.53.036 0 .072-.002.108 0a3.847 3.847 0 011.275.158 13.721 13.721 0 006.261-6.016 26.584 26.584 0 002.752-8.43 46.853 46.853 0 00.715-8.998 53.704 53.704 0 00-.877-9.077 4.772 4.772 0 00-.232-1.002q-.127-.522-.263-1.042c-.242-.933-.535-1.848-.757-2.785a6.959 6.959 0 00-.987-2.568 4.606 4.606 0 00-3.053-1.661 35.175 35.175 0 01-1.088-.26l-.05.222a.557.557 0 01-.546.468 11.603 11.603 0 012.01 2.396 20.831 20.831 0 012.662 7.774 47.155 47.155 0 01-.709 18.827 21.28 21.28 0 01-3.397 7.796z"
    fill="#fff" />
  <path
    d="M108.796 237.613c5.519-2.22 8.263-7.653 9.503-13.175a50.743 50.743 0 001.137-8.35 50.37 50.37 0 01-1.13 7.883 22.853 22.853 0 01-4.454 9.968 12.405 12.405 0 01-5.302 3.66.272.272 0 00.246.014zm-6.846-45.036a.497.497 0 00.184.38c.19-.113.375-.231.568-.339a30.572 30.572 0 01-.208-6.841c-.054.076-.1.157-.156.232a40.989 40.989 0 00-.388 6.568zm126.033 1.361a90.017 90.017 0 00-2.625-12.117 41.546 41.546 0 00-6.911-13.921l-.024-.029c-.094-.156-.187-.306-.273-.446a13.05 13.05 0 00-1.423-1.865l-.016-.018c-.227-.252-.467-.49-.714-.72a13.12 13.12 0 00-1.486-1.188c-.133-.092-.262-.19-.398-.277-.199-.129-.405-.246-.61-.365-.015-.058-.026-.116-.04-.173q-1.03-.862-2.116-1.65a2.37 2.37 0 00-.335-.485c-.047-.058-.1-.11-.15-.167-.072-.082-.142-.167-.219-.245a4.983 4.983 0 00-1.05-.848c-.048-.027-.1-.048-.149-.074a5.301 5.301 0 00-.854-.365c-.066-.021-.13-.051-.197-.07-.084-.022-.17-.035-.256-.053-.103-.022-.205-.049-.31-.065-.058-.01-.112-.008-.168-.013a45.4 45.4 0 00-1.12-.613 3.674 3.674 0 00-.947-.802l-.105-.073q-.296-.208-.606-.4c-.103-.063-.204-.13-.31-.185a9.518 9.518 0 00-1.042-.483c-.063-.023-.124-.055-.187-.075-.113-.037-.237-.078-.366-.118a2.528 2.528 0 00-.62-.12.968.968 0 00-.422.058l-.01.006a64.682 64.682 0 00-6.076-2.136 123.06 123.06 0 00-20.477-3.93 271.383 271.383 0 00-8.658-.917 103.42 103.42 0 00-21.304-.014 60.78 60.78 0 00-12.408 2.77 44.465 44.465 0 00-14.997 8.416c-.12.105-.23.218-.348.324a.573.573 0 00-.317.172 1.444 1.444 0 00-.218.27l-.021.025c-.079.066-.162.126-.24.19-.02.017-.04.03-.059.047a9.941 9.941 0 00-.636.674c-.06.067-.127.126-.184.195-.016.019-.023.04-.038.059a2.735 2.735 0 00-.196.304c-.016.026-.035.05-.05.077l-.013-.01-.055-.043a41.042 41.042 0 00-4.814 6.046c-.024.038-.05.074-.075.112-.128.192-.247.39-.372.584a46.829 46.829 0 00-3.834 7.653l-.01.018c-.05.115-.09.233-.136.35-.1.26-.212.517-.308.78l.006.002a22.046 22.046 0 00-.904 3.274l-.38.662a54.689 54.689 0 00-1.45 6.868q-.285 1.957-.434 3.923c-.006.077-.016.154-.021.231l.01.001.006.001.1.012 6.593.77.216.026-.197-.039a3.833 3.833 0 00.553-.398c.063-.235.13-.47.193-.705.79-2.903 1.694-5.81 2.741-8.666.093-.152.196-.299.276-.464.152-.314.297-.631.44-.95.193-.435.377-.873.54-1.32.092-.254.166-.514.252-.77.15-.444.307-.886.439-1.336a66.265 66.265 0 014.047-7.83q1.257-2.065 2.685-3.99l-.014-.012c.008-.009.018-.015.025-.024l.085-.094.356-.4c.026-.028.048-.06.073-.089.165-.188.318-.385.474-.579.095-.117.195-.23.287-.35.036-.047.078-.09.114-.139l.026-.034c.117-.154.24-.306.35-.464a1.337 1.337 0 00.115-.211 41.038 41.038 0 017.072-6.655c.528-.387 1.053-.776 1.604-1.138.1-.065.204-.119.304-.183a40.432 40.432 0 019.194-4.334c.007-.005.016-.008.024-.013l.02-.002a55.776 55.776 0 0112.586-2.514 94.58 94.58 0 0116.761.167 106.425 106.425 0 0117.231 2.869 67.972 67.972 0 0111.396 4.026c.014.018.023.038.038.055a2.383 2.383 0 00.805.545c.05.024.1.051.15.076.125.063.25.127.377.187l.057.029a4.063 4.063 0 00.662.218c.138.038.273.08.409.125l.044.013c.022.007.132.047.148.05.057.027.113.058.17.086l.121.063-.034.027a52.5 52.5 0 013.241 1.878.765.765 0 00.23.462q.24.223.482.444c.067.06.13.125.2.183.088.074.184.139.275.209l.672.509.54.405c.075.056.147.117.225.168.13.087.27.17.408.243a1.255 1.255 0 00.121.047 1.463 1.463 0 00.762.086q.813.641 1.598 1.32c.16.14.315.287.473.429q.532.481 1.049.97c.193.185.387.369.577.557.384.381.757.772 1.126 1.167l-.008-.029-.04-.143.564.691c.127.156.241.303.364.457.118.148.244.303.351.442a27.515 27.515 0 011.226 1.755l.613.965a3.992 3.992 0 00.785 1.032 1.639 1.639 0 00.141.116.918.918 0 00.169.077c.023.01.046.024.07.031.016.006.031.013.047.017.12.18.246.355.363.537.089.137.178.274.265.413.17.278.332.56.496.842a37.964 37.964 0 011.81 3.42l.045.072c-.003.007-.002.014-.005.02a34.994 34.994 0 011.659 4.347 31.328 31.328 0 011.303 6.874c.121.318.261.626.39.94.823 2 1.774 3.936 2.743 5.866l.123.248.16.322-.055-.395q-.187-1.325-.396-2.654zm41.414 76.869a24.734 24.734 0 011.908 2.968l5.833-1.384v-3.33l-7.732 1.72zm-87.614 19.448a21.617 21.617 0 011.326 4.455l52.75-12.52a47.034 47.034 0 00-10.131-1.696l-32.91 7.311-11.035 2.45zm-47.069 46.979l-1.774-3.38c-.3-.573-.694-1.181-1.007-1.81-2.323.846-4.655 1.67-6.985 2.497q1.48 2.58 2.939 5.171c1.12 1.995 2.154 4.025 3.241 6.037a.607.607 0 01.05.161q3.408-1.284 6.808-2.588a276.093 276.093 0 01-3.272-6.088zm-.264-3.959l1.682 3.283a264.496 264.496 0 013.133 6.272q2.247-.866 4.496-1.726c-.9-1.805-1.664-3.704-2.497-5.534l-2.684-5.9c-1.669.634-3.368 1.209-5.049 1.804l.079.16zm49.673-46.569c.673-4.838-1.882-9.673-5.482-12.975s-8.145-5.347-12.606-7.338l-8.533-3.808.57 1.03a.894.894 0 01.525.325.873.873 0 01.132.868l.112.202.982 1.78a5.608 5.608 0 01.918 1.988.624.624 0 01-.04.265c1.026.417 2.054.834 3.037 1.342 3.874 2 6.888 5.303 9.814 8.536a56.734 56.734 0 016.933 8.758c.14.236.266.483.398.726l3.352-.744v-1.294c-.041.112-.065.228-.112.34zm-29.525-20.685c.38-.383.822-.713 1.235-1.06l.659-.554-.589-1.066a.2.2 0 01-.176-.192l.003-.121-.379-.686a.82.82 0 01-.048-.739l-10.225-4.564a52.908 52.908 0 00-10.537-3.833l-.054-.012a34.013 34.013 0 00-2.257-.38 25.867 25.867 0 01-3.14-.151 31.93 31.93 0 01-1.672-.215c-.35-.055-.693-.126-1.038-.19a34.045 34.045 0 01-5.382-1.468c-.143-.052-.289-.097-.431-.151a40.61 40.61 0 01-1.371-.522q-.927-.365-1.84-.77-1.3-.578-2.58-1.217-1.193-.592-2.374-1.216-.815-.429-1.628-.862-1.507-.804-3.014-1.597l-.013-.007c-.356-.186-.71-.373-1.068-.555-.072-.037-.147-.072-.22-.109-.081-.041-.164-.08-.246-.121.11.12.221.238.333.356a.828.828 0 00.311.318q.094.097.19.193a73.909 73.909 0 00-13.121 2.713 66.863 66.863 0 00-11.814 5.136l15.382 3.446a52.998 52.998 0 0116.722-6 26.662 26.662 0 002.806 1.255l.111.04a54.597 54.597 0 00-17.454 5.194l52.768 11.82a101.47 101.47 0 002.151-2.113zm-42.44-16.52a8.757 8.757 0 01-2.638-.007.8.8 0 01-.406-.277c-.89.513-1.758-.982-.813-1.578.428-.27.852-.546 1.277-.82a27.184 27.184 0 004.007 2.687c-.476-.01-.951-.013-1.427-.005zm63.252 21.372c.71.449 1.413.913 2.1 1.398l-.754-.687zm-42.12 28.087a9.176 9.176 0 01-.505-1.765 13.994 13.994 0 01-.209-2.291q-.008-.44.002-.881.011-.468.036-.932c.009-.161.016-.323.026-.482a33.454 33.454 0 013.618-14.05 21.46 21.46 0 011.132-1.827c.332-.478.694-.939 1.074-1.386 3.265-3.847 8.19-6.426 13.167-5.843l-53.81-12.237a65.627 65.627 0 00-5.234 3.082c-.622.408-1.136-.55-.571-.975a52.966 52.966 0 013.83-2.556L80.47 253.32c-.365.216-.731.43-1.092.652a84.961 84.961 0 00-7.438 5.27c-.605.47-1.24-.43-.701-.93a56.32 56.32 0 017.172-5.46l-14.3-3.252q-2.863 6.666-5.364 13.479a267.1 267.1 0 00-13.61 54.708.739.739 0 01-.984.636l-.013.17c17.1-3.704 50.46-11.063 89.151-19.634zm20.595-30.517c1.245.212 2.966-.101 2.78-1.306a17.562 17.562 0 001.86.98c-.075-.148-.149-.296-.226-.436l-.903-1.636-.461.344c-.432.322-.854.676-1.314.958-.585.358-1.159.73-1.736 1.096zm-53.436-24.471q2.36-.515 4.757-.805-3.015-1.48-6.107-2.773c-1.179.11-2.354.251-3.52.465q-1.317.243-2.615.582-.648.169-1.291.36a3.9 3.9 0 01-1.382.294c-.545-.042-.974-.751-.488-1.173a6.58 6.58 0 012.63-.977q1.35-.355 2.723-.618c.305-.059.61-.106.915-.157a200.4 200.4 0 00-22.844-7.087c-.592-.152-1.184-.3-1.776-.45-1.325.597-2.652 1.315-4.028 1.78-.88.303-1.41-1.02-.625-1.47a19.96 19.96 0 011.995-.972q-3.597-.887-7.193-1.745l-11.262 16.036 12.425 2.783.163.037c.14-.322.27-.648.411-.969.441-1.003 1.906-.134 1.47.86-.07.16-.136.323-.206.484l15.348 3.438a56.352 56.352 0 014.947-2.645 66.466 66.466 0 0115.553-5.278zm-25.441-6.336a1.789 1.789 0 01-.257.258c-.085.076-.179.14-.261.218l-.5.471c-.106.1-.264-.058-.16-.16l.49-.481a1.11 1.11 0 00.111-.122 1.523 1.523 0 01.122-.137 1.747 1.747 0 01.26-.242c.114-.078.28.08.195.195zm84.906 35.747l-.816-1.17c-.152-.217-.3-.437-.45-.656a11.93 11.93 0 00-2.764 1.12 38.199 38.199 0 014.03.706z"
    fill="#fff" />
  <path
    d="M206.393 265.4c-.592.3-1.064.8-1.636 1.109a4.26 4.26 0 01.334.72c.017.048.032.1.047.146.259-.054.516-.13.77-.2a1.73 1.73 0 01.912-.1.253.253 0 01.11.419 1.6 1.6 0 01-.761.36c-.292.09-.6.165-.886.278a3.736 3.736 0 01-.007.662 7.223 7.223 0 001.014.419 5.318 5.318 0 011.119.24.231.231 0 010 .4 2.372 2.372 0 01-2.312-.221 3.752 3.752 0 01-.464.934 4.518 4.518 0 004.153.344h-.001a3.93 3.93 0 002.4-3.4 2.82 2.82 0 00-.086-.445 3.719 3.719 0 00-.98-1.485c-.038-.03-.075-.063-.116-.091-.032-.028-.069-.05-.103-.076a2.815 2.815 0 00-1.415-.45 3.9 3.9 0 00-2.092.438zm-2.478 2.969a4.338 4.338 0 00-.383-1.342 1.508 1.508 0 00-.945-.83 1.957 1.957 0 00-.757.056 4.478 4.478 0 00-1.23.409 1.981 1.981 0 00-1.04 1.612 2.191 2.191 0 002.036 2.337h.004l-.001-.001a2.235 2.235 0 002.314-2.112q.003-.064.002-.13zm-5.531 1.584a3.661 3.661 0 01-.213-.685 3.468 3.468 0 01-2.608.672c-.288-.061-.246-.46 0-.541a9.997 9.997 0 001.373-.445 8.805 8.805 0 00.949-.62 2.95 2.95 0 01-.967-.176 2.789 2.789 0 01-1.08-.555.225.225 0 01.159-.38c.369-.017.734.135 1.11.15s.772.047 1.159.048a3.325 3.325 0 01.238-.533.475.475 0 01-.111-.064c-1.205-.961-2.58-2.453-4.295-2.085a2.189 2.189 0 00-1.527 1.627 7.98 7.98 0 00-.485 2.512 2.853 2.853 0 002.635 2.83l-.001.002a4.676 4.676 0 003.664-1.757zm1.785-8.128a5.487 5.487 0 002.88-.39 5.037 5.037 0 00-3.105-2.071 2.634 2.634 0 01.668 1.106.3.3 0 11-.554.233 5.166 5.166 0 00-.871-1.1 2.898 2.898 0 00-.568-.373c-.1 0-.2 0-.3.008a2.96 2.96 0 01-.438.113c-.3.064-.594.176-.9.23a17.73 17.73 0 01-.292.181l.03.121a5.577 5.577 0 003.45 1.942zm1.513-15.761q-1.077-.069-2.157-.042a20.389 20.389 0 00-2.152.167c-.365.048-.732.1-1.094.171a1.773 1.773 0 00-.3.07c.008.01.014.021.022.03a2.392 2.392 0 01.26.19l.002.004c.172.105.355.192.528.295.107.063.218.12.325.182.122.011.243.013.366.035a4.519 4.519 0 012.166 1.055 6.986 6.986 0 013.3-1.809c-.06-.337-1.063-.334-1.266-.348z"
    fill="#ffc3c3" />
  <path
    d="M225.067 231.716h-.14a5.216 5.216 0 012.1-1.177c.5-.145.42-.997-.126-.933a5.921 5.921 0 00-.56.092 5.835 5.835 0 00-2.918 1.594 8.328 8.328 0 00-1.416 2.035 11.21 11.21 0 00-.33.69 7.64 7.64 0 00-.751 3.14c0 3.007 1.854 5.443 4.14 5.443s4.142-2.437 4.142-5.442-1.854-5.442-4.141-5.442zm.514 6.048a1.937 1.937 0 111.459-1.877 1.708 1.708 0 01-1.46 1.877zm1.223-3.895a.422.422 0 11.424-.422.423.423 0 01-.424.422zm-46.144 3.288c0-3.005-1.853-5.442-4.14-5.442h-.14a5.216 5.216 0 012.1-1.177c.5-.145.42-.997-.126-.933a6.758 6.758 0 00-4.947 3.69 8.2 8.2 0 00-1.028 3.862c0 3.006 1.854 5.442 4.14 5.442s4.142-2.437 4.142-5.442zm-2.401-4.132a.422.422 0 11-.424.422.423.423 0 01.424-.422zm-2.682 2.862a1.506 1.506 0 111.459 1.877 1.708 1.708 0 01-1.46-1.877z"
    fill="#008fc3" />
  <path
    d="M209.404 250.684a6.154 6.154 0 00-4.413-2.577 5.51 5.51 0 00-4.3 1.807 2.663 2.663 0 01.06.465c.045 1.087-1.715 1.355-1.93.26a1.834 1.834 0 00-.768-1.366 3 3 0 00-1.756-.446 4.544 4.544 0 00-2.056.657 12.823 12.823 0 01-3.346 2.61c-.114.065-.235.118-.351.18-1.05.875-2.092 1.76-3.203 2.544-.81.568-1.567 1.206-2.34 1.823-.346.277-.73.649-1.136.976.054.066.115.133.18.2a8.07 8.07 0 002.04 1.465 8.255 8.255 0 005.047.764c4.2-.662 7.36-3.6 10.374-6.35a.448.448 0 01.7.54 13.703 13.703 0 01-1.586 2.233l.024-.007a.609.609 0 01.42-.151.6.6 0 01.62.555 11.858 11.858 0 003.407 1.972 10.99 10.99 0 004.263.582 10.819 10.819 0 004.085-1.073 11.276 11.276 0 001.75-1.028c.357-.26.675-.585 1.012-.88a4.328 4.328 0 01-.387-.076 6.923 6.923 0 01-2.49-1.242 24.93 24.93 0 01-3.92-4.437zm16.176-16.674a1.937 1.937 0 101.46 1.877 1.708 1.708 0 00-1.46-1.877z"
    fill="#fff" />
  <circle cx="226.804" cy="233.447" r=".424" fill="#fff" />
  <path d="M178.495 235.887a1.506 1.506 0 10-1.46 1.877 1.708 1.708 0 001.46-1.877z" fill="#fff" />
  <circle cx="178.259" cy="233.447" r=".424" fill="#fff" />
  <path
    d="M172.672 159.129a.545.545 0 00-.521-.568 33 33 0 00-18.113 3.26q.24-.715.54-1.4a17.189 17.189 0 01.91-1.77c.3-.514.684-.985.95-1.514a.946.946 0 00-.447-1.762 28.472 28.472 0 00-5.671.6 27.371 27.371 0 00-9.126 3.733 31.76 31.76 0 00-3.958 3.043 16.047 16.047 0 00-2.434 2.566c-.283.373-.554.754-.804 1.15a.6.6 0 00.938.728c1.502-1.381 2.866-2.882 4.49-4.135a28.823 28.823 0 015.052-3.033 28.392 28.392 0 019.883-2.677c-.119.193-.231.387-.342.575a17.036 17.036 0 00-.948 1.866 17.673 17.673 0 00-.75 2.069 4.083 4.083 0 00-.258 2.114c.154.568.923.419 1.36.35a2.749 2.749 0 00.8-.311q.549-.27 1.108-.521 1.124-.504 2.278-.934a42.342 42.342 0 014.74-1.445 52.56 52.56 0 014.875-.937 66.03 66.03 0 013.84-.43c.362-.031.724-.07 1.087-.096a.545.545 0 00.521-.521zm-87.189 50.973a5.8 5.8 0 00-1.781-1.944l-.194-.165c-.549-.473-1.095-.953-1.66-1.406a66.049 66.049 0 00-2.024-1.55 12.214 12.214 0 00-2.1-1.366c-.451-.205-1.045.24-.737.727a20.268 20.268 0 003.392 3.649c.619.583 1.262 1.142 1.9 1.7a6.328 6.328 0 002.069 1.486c.61.159 1.419-.452 1.135-1.131zm130.687-22.195a23.054 23.054 0 001.418 3.083c.447.813 1.052 2.07 1.968 2.413.372.139.659-.266.594-.592a3.534 3.534 0 00-.79-1.262 17.364 17.364 0 01-.882-1.306 11.373 11.373 0 01-1.18-2.748 16.779 16.779 0 01-.583-2.91c-.114-1.054-.023-2.09-.075-3.14-.03-.68-1.066-.875-1.23-.165a10.093 10.093 0 00-.02 3.394 14.585 14.585 0 00.78 3.233zm22.269 40.331c.927.353 1.844.723 2.778 1.053a18.985 18.985 0 002.819.907.5.5 0 00.388-.916 19.076 19.076 0 00-2.767-1.136c-.963-.361-1.94-.68-2.91-1.022-.711-.254-.996.855-.308 1.114zm-2.855-9.009q-1.439-.215-2.877-.443c-1.975-.317-3.981-.622-5.975-.831-.837-.091-1.02 1.328-.202 1.463 1.979.319 3.99.546 5.985.758 1.006.107 2.014.224 3.014.338.507.058 1.024.133 1.542.189a7.138 7.138 0 00-3.051 1.98.75.75 0 00-.154.262.632.632 0 00.154.98 4.037 4.037 0 001.585.235 8.561 8.561 0 011.672.407 24.079 24.079 0 013.1 1.443c.458.227.965-.351.565-.73a8.983 8.983 0 00-3.146-1.8 17.973 17.973 0 00-1.815-.535 7.068 7.068 0 01-.167-.045 5.531 5.531 0 011-.7 11.325 11.325 0 012.182-.85c.287-.085.887-.323.712-.723a.85.85 0 00-.393-.362 10.618 10.618 0 00-3.731-1.036z"
    fill="#008fc3" />
  <path
    d="M221.71 221.179a13.34 13.34 0 013.935-3.585 11.928 11.928 0 015.235-1.484.475.475 0 000-.95 12.122 12.122 0 00-5.98 1.147 11.3 11.3 0 00-4.79 3.94c-.691.969.915 1.9 1.6.932zm-67.15 6.418a6.853 6.853 0 00-5.554 3.966c-.314.686.7 1.288 1.024.597a5.916 5.916 0 014.7-3.317c.713-.117.53-1.288-.17-1.246zm2.609-5.429a3.692 3.692 0 00-1.953-.773 3.533 3.533 0 00-2.425.443c-.42.27-.307 1.102.28 1.033a7.164 7.164 0 011.855-.066h.012c-.085.036-.17.069-.255.1l-2.234.82a49.722 49.722 0 00-4.416 1.85c-.517.247-.141 1.025.378.891a50.063 50.063 0 004.53-1.411l2.237-.807a9.08 9.08 0 002.156-.85c.443-.313.395-1.136-.165-1.23zm12.816-1.489c-1.518-.983-3.088-1.854-4.674-2.728q-1.211-.668-2.417-1.346a14.997 14.997 0 00-2.31-1.223c-.727-.252-1.1.48-.91 1.048a.561.561 0 00-.424.614 11.73 11.73 0 001.038 2.775l.207.482a11.974 11.974 0 00-1.18-.4 6.2 6.2 0 00-3.387-.18.534.534 0 00.138 1.04 17.451 17.451 0 012.9.389 7.745 7.745 0 012.526 1.45.61.61 0 00.627.082h.034a.66.66 0 00.64-.68 3.482 3.482 0 00-.538-1.443l-.686-1.354a21.175 21.175 0 00-1.058-2.02c.58.327 1.23.582 1.81.869q1.187.59 2.369 1.19c1.585.804 3.16 1.594 4.795 2.284a.493.493 0 00.5-.85zm-89.961 2.016a.934.934 0 001.725-.466 2.434 2.434 0 00-1.817-2.11 4.469 4.469 0 00-1.853-.307 10.628 10.628 0 00-2.752.8c-.952.339-1.903.66-2.827 1.072-.564.25-.138 1.054.398.946 1.489-.313 2.916-.905 4.416-1.152a3.335 3.335 0 011.854.062.968.968 0 01.104.068c.446.252.498.65.752 1.087zm28.276 24.944c-.944.596-.076 2.091.814 1.578a.8.8 0 00.406.277 8.757 8.757 0 002.638.007c.476-.008.951-.005 1.427.005a27.184 27.184 0 01-4.007-2.688c-.425.275-.85.55-1.277.821zm100.68 16.184a5.081 5.081 0 00-2.824.424 4.632 4.632 0 00-2.006 1.487c.074-.114-.53-.444-.615-.5a2.6 2.6 0 00-.948-.384 3.138 3.138 0 00-1.52.145 4.965 4.965 0 00-1.688.843 2.342 2.342 0 00-.31.295c-1.141-1.448-2.713-2.81-4.682-2.716-1.814.086-2.846 1.39-3.346 3.019-.503 1.654-.785 3.54.35 5.006a4.694 4.694 0 004.112 1.647 6.018 6.018 0 003.74-1.9 3.502 3.502 0 00.422.34 3.693 3.693 0 003.97 0c.016.014.03.027.047.04a5.505 5.505 0 005.809.542 5.128 5.128 0 002.95-4.7 4.01 4.01 0 00-3.461-3.588zm1.023 1.666c.04.028.078.06.116.091a2.876 2.876 0 011.066 1.93 3.93 3.93 0 01-2.4 3.4 4.518 4.518 0 01-4.152-.344 3.752 3.752 0 00.464-.934 2.372 2.372 0 002.312.222.231.231 0 000-.4 5.318 5.318 0 00-1.12-.241 7.223 7.223 0 01-1.013-.42 3.736 3.736 0 00.007-.661c.286-.113.594-.187.886-.278a1.6 1.6 0 00.762-.36.253.253 0 00-.111-.42 1.73 1.73 0 00-.911.1c-.255.072-.512.147-.771.2-.015-.045-.03-.097-.047-.145a4.26 4.26 0 00-.334-.72c.572-.308 1.044-.808 1.636-1.108a3.9 3.9 0 012.092-.437 2.815 2.815 0 011.415.449c.034.026.07.048.103.076zm-8.404 5.12v.002h-.003a2.191 2.191 0 01-2.035-2.337 1.981 1.981 0 011.04-1.612 4.478 4.478 0 011.229-.41 1.957 1.957 0 01.757-.054 1.508 1.508 0 01.945.829 4.338 4.338 0 01.383 1.342l-.002.13a2.235 2.235 0 01-2.314 2.111zm-9.513-1.731a7.98 7.98 0 01.485-2.512 2.189 2.189 0 011.527-1.627c1.715-.368 3.09 1.124 4.295 2.085a.475.475 0 00.11.064 3.325 3.325 0 00-.237.533c-.387-.001-.783-.031-1.16-.047s-.74-.168-1.11-.151a.225.225 0 00-.157.38 2.789 2.789 0 001.079.555 2.95 2.95 0 00.967.177 8.805 8.805 0 01-.95.619 9.997 9.997 0 01-1.372.445c-.246.082-.288.48 0 .54a3.468 3.468 0 002.608-.671 3.661 3.661 0 00.213.685 4.676 4.676 0 01-3.664 1.757v-.002a2.853 2.853 0 01-2.634-2.83z"
    fill="#008fc3" />
  <path
    d="M195.447 243.462c.053.103.085.211.128.317a8.35 8.35 0 012.147-1.789 10.136 10.136 0 013.142-1.072l.039-.008c-.12-.011-.24-.03-.361-.036a11.269 11.269 0 00-1.59-.065 8.72 8.72 0 00-4.307 1.814 2.304 2.304 0 01.802.839z"
    fill="#bff3d6" />
  <path
    d="M182.865 241.566a11.185 11.185 0 014.524-.864 13.955 13.955 0 00-2.26-.073 9.301 9.301 0 00-3.98.808c-2.462 1.153-4.356 3.914-3.494 6.697a4.201 4.201 0 001.034 1.708 5.25 5.25 0 01-.2-.672c-.718-3.27 1.455-6.335 4.376-7.604zm24.265.292c-.135.035-.27.078-.406.12a1.283 1.283 0 01.567.562.337.337 0 01.018.087 5.095 5.095 0 011.49-.638 29.628 29.628 0 012.997-.563 15.848 15.848 0 00-4.666.433z"
    fill="#bff2f5" />
  <path
    d="M190.245 250.982a11.63 11.63 0 003.397-2.634 5.42 5.42 0 00.333-.455 4.019 4.019 0 00.583-3.654 2.226 2.226 0 00-.715-.927 4.866 4.866 0 00-1.445-.729c-.14-.048-.279-.097-.421-.14-.633-.193-1.273-.345-1.793-.536a8.409 8.409 0 00-3.055-.278 9.301 9.301 0 00-3.98.808c-2.462 1.153-4.356 3.914-3.494 6.697a4.303 4.303 0 001.528 2.136 5.548 5.548 0 001.085.662 7.052 7.052 0 003.04.61c.207-.004.417-.003.619-.025a10.012 10.012 0 002.994-.872c.452-.203.897-.421 1.324-.663zm15.247-4.712l.016.032.088.166a.632.632 0 01.143-.135 6.98 6.98 0 011.021.255 6.844 6.844 0 01-.171-.406h.005a4.975 4.975 0 01-.316-1.227l-.001-.018a3.184 3.184 0 01-.008-.529c.003-.043.005-.087.01-.13a2.429 2.429 0 01.117-.544 2.074 2.074 0 01.539-.804 5.78 5.78 0 01-1.223-.451 1.73 1.73 0 00-.517.591c-.47.937.121 1.954.47 2.819a.288.288 0 01-.173.382zm8.335 5.599a8.081 8.081 0 001.865-.27 6.388 6.388 0 003.614-2.37 4.307 4.307 0 00.331-4.63 3.208 3.208 0 00-.613-.752 3.955 3.955 0 00-1.165-.746 6.092 6.092 0 00-.88-.296 11.57 11.57 0 00-1.777-.287 17.433 17.433 0 00-6.072.34 2.735 2.735 0 00-1.935 1.212 1.606 1.606 0 00-.12.332c-.01.036-.013.073-.02.109a1.737 1.737 0 00-.028.228c-.002.043-.001.085 0 .127a2.166 2.166 0 00.032.344c.013.073.03.146.048.22.01.039.018.079.03.119.023.08.05.16.078.24.01.031.02.063.032.094.04.106.082.212.125.316l.12.28c.06.14.12.277.173.41a.298.298 0 01.023.124 7.98 7.98 0 012.143 1.748 26.047 26.047 0 011.668 2.175l-.003.01.015.008.294.41c.337.128.682.235 1.018.335a2.208 2.208 0 00.439.143 2.98 2.98 0 00.362.163.243.243 0 01.084-.098.212.212 0 01.119-.038z"
    fill="#bff2f5" />
  <path
    d="M219.267 242.271a5.057 5.057 0 00-1.79-.813c-.071-.061-.135-.13-.21-.187a6.15 6.15 0 00-3.105-1.053 12.843 12.843 0 00-3.662.087c-1.234.235-2.485.354-3.7.684a5.75 5.75 0 00-1.112.439 5.524 5.524 0 00-.853-.37c-.269-.18-.586-.318-.834-.467a5.484 5.484 0 00-1.559-.666 9.076 9.076 0 00-1.803-.241 8.185 8.185 0 00-1.775.234 10.136 10.136 0 00-3.142 1.072 7.515 7.515 0 00-1.671 1.288c-.275-.138-.553-.262-.804-.38-.143-.067-.307-.115-.457-.176a8.836 8.836 0 00-1.543-.824 14.8 14.8 0 00-5.707-1.2 11.256 11.256 0 00-4.675.868c-2.921 1.27-5.094 4.333-4.375 7.604a5.968 5.968 0 004.21 4.273 7.712 7.712 0 005.014 1.366c.2-.016.395-.06.593-.088-.585.485-1.168.974-1.77 1.445q-.716.561-1.431 1.125l-.12.093c-.125-.2-.25-.4-.384-.6-.335-.496-1.305-.373-1.242.334a4.312 4.312 0 00.485 1.579.553.553 0 00.366.608 7.874 7.874 0 002.06 2.014c3.48 2.345 7.81 1.878 11.48-.03a6.517 6.517 0 004.284 2.489 5.79 5.79 0 005.3-2.016.225.225 0 00.04-.1 11.756 11.756 0 0010.514-2.283 5.286 5.286 0 001.667-1.784.56.56 0 00.044-.215 4.239 4.239 0 00.927-.348c.515-.262.138-.997-.375-.886a5.322 5.322 0 01-4.774-1.826 17.955 17.955 0 01-1.573-1.956l-.294-.41-.015-.008.003-.01a26.047 26.047 0 00-1.668-2.175 7.98 7.98 0 00-2.143-1.748.298.298 0 00-.023-.124c-.053-.133-.113-.27-.173-.41a23.47 23.47 0 01-.12-.28 8.32 8.32 0 01-.125-.316c-.012-.031-.021-.063-.032-.094a4.477 4.477 0 01-.078-.24c-.012-.04-.02-.08-.03-.12a2.996 2.996 0 01-.066-.348 2.166 2.166 0 01-.014-.342 1.737 1.737 0 01.028-.228c.007-.036.01-.073.02-.11a1.606 1.606 0 01.12-.33 2.735 2.735 0 011.935-1.213 17.433 17.433 0 016.072-.34 11.57 11.57 0 011.776.286 6.092 6.092 0 01.881.297 3.955 3.955 0 011.165.746 3.208 3.208 0 01.613.753 4.307 4.307 0 01-.331 4.629 6.388 6.388 0 01-3.614 2.37 8.081 8.081 0 01-1.865.27.212.212 0 00-.119.038.243.243 0 00-.084.098.247.247 0 00.203.364 7.007 7.007 0 005.897-2.096 5.726 5.726 0 001.24-5.641 5.116 5.116 0 00-1.697-2.36zm-14.072.8a1.73 1.73 0 01.517-.592 5.78 5.78 0 001.223.45 2.074 2.074 0 00-.539.805 2.429 2.429 0 00-.117.544c-.005.043-.007.087-.01.13a3.184 3.184 0 00.008.53l.001.017a4.975 4.975 0 00.316 1.227h-.005c.053.14.11.274.171.406a6.98 6.98 0 00-1.02-.255.632.632 0 00-.144.135c-.03-.056-.06-.11-.088-.166l-.132-.018a.418.418 0 00.116-.013.288.288 0 00.173-.382c-.349-.865-.94-1.882-.47-2.819zm10.619 13.292c.13.032.26.057.387.076-.337.295-.655.62-1.012.88a11.276 11.276 0 01-1.75 1.028 10.819 10.819 0 01-4.085 1.073 10.99 10.99 0 01-4.263-.582 11.858 11.858 0 01-3.406-1.972.6.6 0 00-.621-.555.609.609 0 00-.42.15l-.024.008a13.703 13.703 0 001.586-2.233.448.448 0 00-.7-.54c-3.013 2.75-6.174 5.688-10.374 6.35a8.255 8.255 0 01-5.046-.764 8.07 8.07 0 01-2.041-1.465 2.948 2.948 0 01-.18-.2c.407-.327.79-.7 1.136-.976.773-.617 1.53-1.255 2.34-1.823 1.11-.783 2.153-1.67 3.203-2.543.116-.063.237-.116.351-.18a12.823 12.823 0 003.346-2.61 4.544 4.544 0 012.056-.658 3 3 0 011.756.446 1.834 1.834 0 01.768 1.366c.215 1.095 1.975.827 1.93-.26a2.663 2.663 0 00-.06-.465 5.51 5.51 0 014.3-1.807 6.154 6.154 0 014.413 2.577 24.93 24.93 0 003.92 4.437 6.923 6.923 0 002.49 1.242zm-16.166-8.142a4.519 4.519 0 00-2.166-1.055c-.123-.022-.244-.024-.366-.035-.107-.062-.218-.119-.325-.182-.173-.103-.356-.19-.528-.295l-.002-.004a2.392 2.392 0 00-.26-.19l-.022-.03a1.773 1.773 0 01.3-.07 17.63 17.63 0 011.094-.171 20.389 20.389 0 012.152-.167q1.08-.027 2.157.042c.203.014 1.206.01 1.265.348a6.986 6.986 0 00-3.3 1.809zm2.894-6.347a9.334 9.334 0 011.576.228c.185.043.371.088.559.129a1.906 1.906 0 00-.28.503 4.427 4.427 0 00.647 3.417.276.276 0 00.148.108 6.978 6.978 0 00-1.029-.021 1.342 1.342 0 00-.51-.89 3.34 3.34 0 00-1.971-.513 25.684 25.684 0 00-4.785.137 3.09 3.09 0 00-1.027.143 4.573 4.573 0 00-.102-.733 8.998 8.998 0 015.184-2.573 11.269 11.269 0 011.59.065zm-3.59-1.065a11.269 11.269 0 011.59.065c.12.006.24.025.36.036l-.038.008a10.136 10.136 0 00-3.142 1.072 8.35 8.35 0 00-2.147 1.789c-.043-.106-.075-.214-.128-.317a2.304 2.304 0 00-.802-.84 8.72 8.72 0 014.307-1.813zm-21.297 7.325c-.862-2.783 1.032-5.544 3.494-6.697a9.301 9.301 0 013.98-.808 13.955 13.955 0 012.26.073 11.185 11.185 0 00-4.524.864c-2.921 1.269-5.094 4.333-4.375 7.604a5.25 5.25 0 00.2.672 4.201 4.201 0 01-1.035-1.708zm8.272 4.383c-.202.022-.412.02-.62.025a7.052 7.052 0 01-3.039-.61 5.548 5.548 0 01-1.085-.662 4.303 4.303 0 01-1.528-2.136c-.862-2.783 1.032-5.544 3.494-6.697a9.301 9.301 0 013.98-.808 8.409 8.409 0 013.055.278c.52.191 1.16.343 1.793.536.142.043.28.092.42.14a4.866 4.866 0 011.446.73 2.226 2.226 0 01.715.926 4.019 4.019 0 01-.583 3.654c-.104.158-.215.31-.333.455a11.63 11.63 0 01-3.397 2.634c-.427.242-.872.46-1.324.663a10.012 10.012 0 01-2.994.872zm10.708 7.279l.054-.034c.098-.06.195-.119.292-.18.306-.055.6-.167.9-.231a2.96 2.96 0 00.438-.113c.1-.008.2-.008.3-.008a2.898 2.898 0 01.568.373 5.166 5.166 0 01.87 1.1.3.3 0 10.555-.233 2.634 2.634 0 00-.668-1.106 5.037 5.037 0 013.106 2.07 5.487 5.487 0 01-2.881.39 5.577 5.577 0 01-3.45-1.941c-.026-.031-.059-.055-.084-.087zm12.165-17.807a5.095 5.095 0 00-1.491.638.337.337 0 00-.018-.087 1.283 1.283 0 00-.567-.562c.136-.042.271-.085.406-.12a15.848 15.848 0 014.666-.432 29.628 29.628 0 00-2.996.563z"
    fill="#008fc3" />
  <path
    d="M277.138 311.11v-6.602l-87.142 20.685a.992.992 0 01-.486-.006l-47.01-12.395 48.182 20.737zm-54.125-14.064l10.089-2.415-8.668-1.981-10.089 2.415 8.668 1.981zm-4.384 1.049l-8.668-1.981-10.089 2.415 8.668 1.98 10.089-2.414zm29.503-8.851a6.158 6.158 0 01-1.6-1.883l-3.241.776zm-68.596 14.643c.1-.177.18-.37.27-.556l-.09.021c-.084.146-.163.295-.252.438.023.033.048.064.072.097zm49.282-12.286l8.668 1.981 10.089-2.415-8.64-1.974.003-.014-10.12 2.422zm44.572-3.357l3.748.856v-2.952l-3.484.834q-.11.638-.264 1.262zm-90.787 15.16a11.695 11.695 0 01-2.222 3.845l9.305-2.227zm-26.284 2.037a6.707 6.707 0 01-2.869 2.14l4.43-1.06a33.86 33.86 0 01-1.561-1.08zm88.456-19.716a47.222 47.222 0 00-5.283-2.343l-56.124 13.322a17.823 17.823 0 01-.062 3.733zm28.561-6.835l3.802-.91v-3.534l-4.934 1.172a21.718 21.718 0 011.132 3.272zm-95.546 27.173l-.055-.076q-.365.379-.747.72a9.088 9.088 0 00.802-.644zm96.039-24.49l3.309.756v-2.293l-3.403.815c.034.239.068.478.094.722zm.071 3.293l2.62-.627-2.585-.59q0 .606-.035 1.217zm-69.744 16.693l-8.668-1.981-10.087 2.414 8.669 1.981 10.086-2.414zm-37.486 8.971a23.269 23.269 0 01-.922-.255 26.78 26.78 0 01-2.923-1.071q-1.115-.483-2.193-1.054c-.101-.054-.205-.102-.306-.157l-.566.136-3.305.79.633.145 4.899 1.12 3.137.716z"
    fill="#fff" />
  <path fill="#fff"
    d="M200.497 307.492l-2.317-.529-2.317-.53-1.781-.406-10.089 2.414 1.178.269 2.317.53 2.317.529 2.855.653 10.089-2.415-2.252-.515zm73.207-10.354l-5.734-1.31c-.098.336-1.977.73-2.591.843a9.36 9.36 0 01-4.588-.498l-5.844 1.399 8.454 1.931-.024.106zm-28.946 6.927l-8.668-1.98-10.089 2.414 8.369 1.913-.033.147 10.421-2.494zm-28.944 6.927l-8.668-1.98-10.089 2.414 8.283 1.893-.044.191 10.518-2.518zm43.417-10.391l-8.668-1.98-10.089 2.414 8.412 1.923-.029.126 10.374-2.483zm-28.946 6.928l-8.668-1.981-10.087 2.414 8.325 1.903-.039.17 10.469-2.506z" />
  <path
    d="M189.777 323.189l87.36-20.736v-4.08l-86.303 20.655-.268-1.123-.187.817-12.18-2.783-.21.05-.025-.104-26.022-5.946-.1-.022.223-.975-.207-.863a10.207 10.207 0 01-3.193.127 13.816 13.816 0 01-2.004-.396 23.88 23.88 0 01-3.862-1.476l-5.284 1.254-3.635.863.204.054 4.18 1.102z"
    fill="#fff" />
  <path
    d="M185.098 310.745l-4.893-1.119-.596-.136-.46.11-3.534.846c-.06.021-.12.045-.18.065a12.41 12.41 0 01-2.229.512l-3.685.882 8.666 1.98 10.09-2.414zm16.244 3.711l-8.669-1.981-10.089 2.415 8.24 1.883-.048.212 10.566-2.529zm29.828-13.496l-2.317-.529-2.317-.53-3.51-.802-10.089 2.415 2.907.664 2.317.53 2.317.529 1.126.257 10.089-2.414-.523-.12zm38.947-6.693l7.02 1.604v-3.61l-6.59 1.577a9.56 9.56 0 01-.43.43zm-54.285 9.959l-2.317-.529-2.317-.529-2.645-.605-10.087 2.414 2.043.467 2.317.53 2.316.529 1.991.455 10.087-2.414-1.388-.318zm56.507-13.056c-.034.07-.071.139-.106.208l2.88-.69-.247-.056-2.083-.476q-.203.52-.444 1.014zm-15.08 3.212a24.042 24.042 0 01-.957-.663c-.055-.04-.107-.082-.16-.122-.302-.221-.594-.45-.89-.676l-3.28-.75-10.09 2.415 4.637 1.06 2.317.53 1.714.39 7.385-1.766c-.227-.138-.455-.273-.676-.418zm-11.093 3.234l-1.975-.451-2.318-.53-4.375-1-10.088 2.415 3.772.862 2.317.53 2.317.529.261.06 4.383-1.049 5.706-1.366z"
    fill="#fff" />
  <path
    d="M247.5 284.305c.23.13.537.322.893.554.336.22.718.477 1.129.758.35.24.721.5 1.1.765a244.263 244.263 0 014.227 3.044c.516.38.89.66 1.043.779l.051.04c.307.244.624.496.95.749q.232.18.471.359a21.845 21.845 0 002.245 1.505 12.35 12.35 0 001.453.714c.262.107.526.207.794.289a7.514 7.514 0 001.32.283 6.154 6.154 0 001.825-.045c.044-.008.084-.02.128-.03-.024-.108-.056-.215-.082-.323-.05-.205-.1-.409-.16-.61l-.023-.07a13.48 13.48 0 00-.094-.284q-.16-.48-.357-.947a13.046 13.046 0 00-1.29-2.333 13.322 13.322 0 00-.653-.871 13.23 13.23 0 00-.766-.846c-.07-.07-.14-.14-.212-.209a12.217 12.217 0 00-4.338-2.757 10.948 10.948 0 00-1.244-.379.943.943 0 01-.449-.244.776.776 0 01-.05-.06.908.908 0 01-.142-.922 1.032 1.032 0 011.17-.695c.331.058.65.117.966.183a8.522 8.522 0 011.4.403c.146.057.286.127.43.188a14.886 14.886 0 011.41.69c.147.082.298.154.442.241a13.758 13.758 0 012.246 1.722 14.044 14.044 0 011.122 1.181c.097.115.202.224.296.342.134.17.25.351.376.526.12.163.24.325.354.493.087.129.176.257.259.388a15.203 15.203 0 011.234 2.414c.126.312.23.631.335.951.032.098.065.194.095.292.044.146.102.288.142.435a7.149 7.149 0 00.73-.643c.119-.12.24-.238.352-.364a9.147 9.147 0 00.903-1.216 10.895 10.895 0 00.637-1.186 12.308 12.308 0 00.624-1.626 1.235 1.235 0 01-.225-.212 1.033 1.033 0 01-.094-.144.943.943 0 01-.122-.251c-.047-.178-.11-.358-.173-.54a6.059 6.059 0 01-.164-.526c-.036-.146-.084-.289-.125-.434-.06-.213-.115-.429-.185-.64a12.874 12.874 0 00-.729-1.743 14.968 14.968 0 00-.599-1.065c-.044-.071-.09-.141-.135-.212-.061-.096-.12-.192-.183-.286-.136-.204-.28-.4-.426-.597q-.332-.444-.698-.861c-.07-.08-.135-.165-.208-.243a14.611 14.611 0 00-3.067-2.533 13.857 13.857 0 00-1.324-.714 13.494 13.494 0 00-1.602-.647 13.289 13.289 0 00-.885-.26c-1.436-.362-.823-2.518.609-2.207a15.469 15.469 0 014.12 1.554c.419.23.83.471 1.227.736q.549.366 1.067.775a16.32 16.32 0 011.712 1.561c.395.416.764.86 1.117 1.316q.332.428.636.876l.11.164q.237.36.455.73c.128.218.26.436.378.66-.025-.243-.08-.482-.115-.724q-.037-.261-.082-.52c-.027-.157-.044-.315-.075-.47-.065-.33-.15-.65-.232-.974-.106-.419-.204-.84-.338-1.25a19.837 19.837 0 00-.8-2.025 20.352 20.352 0 00-.452-.921q-.239-.461-.501-.909a21.705 21.705 0 00-2.104-2.988q-.413-.493-.853-.963-.353-.376-.724-.735a24.314 24.314 0 00-7.28-4.879 26 26 0 00-3.716 4.186 46.11 46.11 0 00-2.474 3.689c-.201.333-.396.67-.587 1.008q-.373.66-.72 1.332a34.081 34.081 0 00-1.823 4.165c-.133.37-.259.742-.376 1.116-.017.055-.038.11-.055.165-.093.304-.177.617-.249.935a9.01 9.01 0 00-.222 2.877z"
    fill="#bff3d6" />
  <path
    d="M255.61 260.184a50.356 50.356 0 00-3.37-.044 61.726 61.726 0 00-7.547.146l-.059.1-.03.052a43.9 43.9 0 01-.846 1.395q-.228.359-.467.712-.41.607-.858 1.184a10.951 10.951 0 01-5.52 4.074 7.043 7.043 0 01-1.584.258 6.95 6.95 0 01-2.544-.306l.423 1.834a.701.701 0 01-.406.812c-.234.505-.916.754-1.368 1.025q-.785.47-1.539.99a28.199 28.199 0 00-2.846 2.242 29.854 29.854 0 00-3.068 3.209c.735.016 1.467.062 2.2.111q.607.04 1.212.096c.846.077 1.69.171 2.53.291a50.29 50.29 0 013.007.528 50.494 50.494 0 017.608 2.185c.538.203 1.068.427 1.6.648a50.28 50.28 0 011.532.664c.632.288 1.263.574 1.883.888a11.026 11.026 0 01.115-1.362 16.05 16.05 0 01.503-2.175 27.051 27.051 0 011.706-4.172c.226-.454.456-.896.684-1.326.18-.34.36-.673.534-.994l.001-.002a34.57 34.57 0 016.74-9.141l-.005-.002.889-.71.628-.501a1.157 1.157 0 00.42-.645c.095.034.19.063.285.098l.247-.233c.114-.016.228-.038.342-.054a9.569 9.569 0 013.005-1.04.803.803 0 00.015-.09 45.053 45.053 0 00-6.052-.745zm-3.206 2.98c.092.001.183-.002.275 0 0 .02.004.04.004.061l-.28-.061z"
    fill="#fff" />
  <path
    d="M224.208 264.737a32.944 32.944 0 00-10.006 14.496c-.099.283-.195.567-.286.852-.112.348-.207.7-.308 1.052l7.268-1.615a.689.689 0 01.029-.073c.124-.191.26-.373.389-.561q.143-.21.29-.418c.175-.25.345-.501.528-.745a30.036 30.036 0 013.797-4.207 31.6 31.6 0 013.084-2.474q.783-.553 1.602-1.054a5.35 5.35 0 011.135-.626l-.54-2.343a8.321 8.321 0 01-1.894-1.602 9.003 9.003 0 01-1.323-1.962.774.774 0 011.336-.781 8.617 8.617 0 00.74 1.013 7.96 7.96 0 00.686.72 6.629 6.629 0 002.114 1.326 5.388 5.388 0 003.994-.036 7.46 7.46 0 001.297-.686 8.54 8.54 0 001.01-.768 11.23 11.23 0 001.345-1.42q.377-.472.72-.975c.28-.411.55-.83.805-1.257.12-.202.233-.405.349-.608.295-.517.582-1.036.859-1.542a.973.973 0 01.674-.52l-.09-.215-.04-.098-.032-.079a.447.447 0 01-.01-.045.6.6 0 01-.028-.123c-.765.063-1.528.112-2.29.183a24.5 24.5 0 00-2.257.298q-1.355.252-2.684.617-1.287.352-2.545.8a32.373 32.373 0 00-9.718 5.476zm-.897 15.633a1.304 1.304 0 01-.147-.035.203.203 0 01.002.048c.048-.006.097-.008.145-.014zm40.441-17.645a5.892 5.892 0 00-3.602.5c.12.056.243.104.363.162a24.568 24.568 0 017.442 5.667c.038.042.078.081.115.123.007-.05.009-.101.014-.152a5.748 5.748 0 00-4.332-6.3z"
    fill="#fff" />
  <path
    d="M165.971 277.589l-.057-.027c-.48-.22-.964-.43-1.451-.632q-.365-.152-.732-.3l-.367-.147c-.083-.034-1.758-.645-1.8-.663-.15-.062-.315-.103-.47-.155q-.51-.168-1.024-.324-1.49-.451-3.009-.794-.758-.171-1.522-.314-.382-.072-.765-.136-.191-.033-.383-.063l-.2-.031c-.025-.004-.151-.04-.169-.026-4.982 4.106-7.264 11.824-8.308 17.729q-.287 1.625-.448 3.268a34.97 34.97 0 012.668 1.328c.055.03.108.063.162.093.03.016.058.034.087.05.531.297 1.06.596 1.574.915a50.63 50.63 0 013.758 2.586c.589.445 1.186.903 1.79 1.364q.512.39 1.032.782t1.047.78a47.707 47.707 0 004.158 2.773q.644.376 1.3.718c.471.243.946.476 1.427.686a17.481 17.481 0 004.411 1.296 14.038 14.038 0 003.117.135c-.009-.013-.021-.02-.03-.033l-.016-.027c-.171-.29-.345-.566-.519-.844a20.636 20.636 0 00-1.319-1.877 15.445 15.445 0 00-.482-.585c-.079-.09-.157-.182-.239-.271q-.391-.425-.832-.83c-.04-.036-.071-.075-.111-.11a16.316 16.316 0 00-3.981-2.665c-.26-.122-.517-.251-.785-.356a1.252 1.252 0 01-.5-.367.77.77 0 01-.147-.993.999.999 0 011.184-.591c.164.06.32.133.481.196q.776.303 1.52.666c.454.22.898.457 1.332.712a17.3 17.3 0 012.407 1.689c.434.367.85.769 1.258 1.183.232.236.464.47.686.717a1.123 1.123 0 01.423-.173.989.989 0 01.547.089 1.05 1.05 0 01.601.661c.02.07.035.14.055.21.114.396.207.796.31 1.194.124.476.26.947.371 1.426a1.203 1.203 0 01-.032.635 9.363 9.363 0 002.863-1.33c.048-.033.098-.064.146-.098q.382-.342.747-.721c-.46-.6-.896-1.223-1.337-1.84-.21-.295-.43-.58-.637-.876-.206-.295-.413-.586-.618-.88-.532-.769-1.061-1.54-1.597-2.296-.214-.302-.423-.606-.636-.909q-.31-.44-.617-.881l-.617-.881q-1.49-2.133-2.984-4.264l-.071-.101a1.06 1.06 0 01.011-1.137 1.246 1.246 0 01.083-.13 1.18 1.18 0 01.107-.119 1.026 1.026 0 011.105-.245 1.215 1.215 0 01.126.065 1.274 1.274 0 01.157.08 1.498 1.498 0 01.367.342l.53.71 3.139 4.189.653.872c.217.292.437.581.654.873l.107.143c.746 1.007 1.515 2.01 2.278 3.02.218.289.429.582.645.873s.434.58.645.874c.077.108.16.213.236.32.09-.142.168-.29.252-.436.147-.255.287-.513.416-.775.045-.128.091-.256.133-.385l.044-.13a1.006 1.006 0 01-.625-.76l-.004-.014a32.887 32.887 0 00-.772-3.526c-.053-.173-.098-.347-.159-.519-.051-.146-.111-.288-.167-.432q-.182-.473-.392-.934a16.432 16.432 0 00-2.732-4.22c-.307-.353-.613-.71-.948-1.036-.035-.034-.073-.066-.109-.1-.025-.024-.053-.044-.079-.068-.174-.165-.365-.313-.547-.47a16.279 16.279 0 00-2.495-1.821.993.993 0 011.002-1.713 18.267 18.267 0 014.149 2.944c.169.159.339.317.502.482l.063.067.1.107q.484.502.928 1.04c.354.428.696.866 1.01 1.325a19.875 19.875 0 011.636 2.874l.013.027-.005-.029a18.202 18.202 0 00-.46-2.037 20.772 20.772 0 00-.886-2.45q-.247-.572-.527-1.128l-.063-.12c-.012-.023-.026-.045-.038-.069q-.138-.267-.283-.53a22.92 22.92 0 00-11.297-10.107c-.148-.06-.3-.109-.45-.165.108-.206.212-.406.31-.607q-.503-.25-1.013-.485z"
    fill="#bff3d6" />
  <path
    d="M252.404 263.164l.28.061c0-.02-.005-.04-.005-.061-.092-.002-.183.001-.275 0zM83.153 217.759c-.638-.309-1.3-.574-1.967-.828-.595-.227-1.194-.445-1.782-.675-1.226-.478-2.479-.854-3.706-1.321a.768.768 0 00-.937.532.781.781 0 00.532.937c.601.25 1.168.553 1.76.819.596.266 1.198.511 1.802.757.555.227 1.11.469 1.669.703.637.267 1.278.524 1.93.732.964.308 1.633-1.205.699-1.656zm.534-2.329a.935.935 0 00-.328-1.251c-.342-.249-.705-.47-1.07-.687-.222-.133-.445-.264-.665-.397a67.93 67.93 0 00-1.7-1.007c-1.166-.662-2.345-1.3-3.513-1.96a.688.688 0 00-.694 1.188c1.111.757 2.208 1.533 3.321 2.287.546.37 1.101.726 1.658 1.08.344.218.687.442 1.033.658.233.145.466.29.707.417a.934.934 0 001.251-.328z"
    fill="#008fc3" />
  <path
    d="M294.132 308.769V135.353a8.657 8.657 0 018.262-8.662c32.682-1.53 164.863-9.187 216.35-12.184l-6.505-1.089a30.333 30.333 0 00-5.011-.416q-.842 0-1.681.046c-32.24 1.794-124.47 6-179.576 8.514-17.41.794-31.526 1.438-39.606 1.815-3.586.168-7.227 5.176-7.227 8.654v183.338a6.6 6.6 0 004.455 6.127 114.251 114.251 0 0012.582 2.777 8.63 8.63 0 01-2.043-5.582z"
    fill="#fff" />
  <path
    d="M529.555 116.385a6.55 6.55 0 00-1.16-.285 6.69 6.69 0 00-1.002-.082q-.195 0-.39.011h-.01c-43.922 2.561-189.915 11.04-224.505 12.66a6.66 6.66 0 00-6.356 6.664v183.338a6.656 6.656 0 007.597 6.6c.159-.023.318-.042.476-.077l1.399-.303c10.306-2.237 27.266-5.97 47.434-10.43a67707.19 67707.19 0 0048.013-10.637l-2.048-22.27-.093-1.008-.093-1.01-.242-2.633-.092-1.008-.02-.206-.073-.803-.019-.202-.092-1.006-.503-5.47-.098-1.06-.097-1.06-2.273-24.722-.116-1.259-.116-1.258-2.647-28.791 37.2-3.382 1.626-.148 1.626-.148 37.282-3.389 25.533 79.793c14.987-3.337 26.76-5.96 33.133-7.38a6.626 6.626 0 005.209-6.51V122.692a6.655 6.655 0 00-4.483-6.306z"
    fill="#fff" />
  <path
    d="M533.317 116.376a8.726 8.726 0 00-2.15-1.492l.297-.276-1.913-.32a8.511 8.511 0 00-1.326-.222l-15.656-2.62a32.256 32.256 0 00-7.134-.394c-32.23 1.792-124.453 5.998-179.555 8.512-17.41.794-31.528 1.438-39.61 1.815-4.703.22-9.132 6.188-9.132 10.652v98.383a120.402 120.402 0 00-14.483 3.655l-.404-.215c-.218-.164-.43-.336-.652-.495-.49-.368-.97-.749-1.46-1.116.016.171.016.344.029.515-1.424-.75-2.838-1.514-4.193-2.374a78.017 78.017 0 01-7.997-5.728 55.882 55.882 0 01-12.294-14.651 11.542 11.542 0 00-.14-2.89 15.937 15.937 0 00-1.009-3.837 15.412 15.412 0 00-4.527-6.216c-.386-.316-.942.234-.552.552a14.68 14.68 0 014.402 6.047 14.507 14.507 0 01.893 3.561c.052.442.076.887.087 1.333-1.711-3.002-3.29-6.083-4.833-9.173a.355.355 0 00-.48-.184c-.18-.373-.366-.741-.55-1.112l-.277-.563c.057-.471.137-.948.157-1.372a46.11 46.11 0 00.043-2.261c0-.127.008-.253.007-.38a47.768 47.768 0 00-.295-4.87l-.046-.398a48.618 48.618 0 00-1.212-6.337 48.745 48.745 0 00-1.176-3.935 47.924 47.924 0 00-4.097-8.732c-.154-.258-.297-.523-.456-.778a18.975 18.975 0 01-1.296-2.1 4.386 4.386 0 00-1.02-1.52 45.019 45.019 0 00-3.066-2.676c-.206-.166-.405-.339-.613-.5l-.034-.117c-.042-.142-.08-.285-.123-.427-.913-3.027-1.878-6.01-2.524-9.1a16.446 16.446 0 00-.122-.673 4.385 4.385 0 00-.783-2.264.5.5 0 00-.38-.128.59.59 0 00-.523 0 .4.4 0 00-.292.243q-2.096 2.145-4.35 4.13a27.04 27.04 0 01-1.665 1.332l-.394.299a72.264 72.264 0 00-6.344-2.553c-.334-.116-.67-.22-1.005-.333a108.712 108.712 0 00-18.612-4.28q-1.488-.22-2.98-.41a125.31 125.31 0 00-22.229-1.055c-9.235.474-18.287 2.313-26.555 6.389a46.563 46.563 0 00-10.927 7.536l-.141-.117-1.218-1.018c-.96-.8-1.846-1.676-2.8-2.476a65.925 65.925 0 00-5.842-4.538 66.06 66.06 0 01-5.851-4.409.7.7 0 00-1.095.023c-1.053 1.42-2.156 2.801-3.14 4.26s-1.904 2.953-2.742 4.5a84.629 84.629 0 00-7.125 17.375 90.5 90.5 0 00-1.98 9.056q-.394 2.308-.672 4.631c-.143 1.195-.313 2.42-.376 3.635a17.163 17.163 0 01-.428-.262c-.443-.284-.898-.557-1.343-.84a8.052 8.052 0 01-1.4-.919 9.096 9.096 0 00-1.173-1.14.616.616 0 00-.9.664.77.77 0 00-.06.382 28.245 28.245 0 001.767 7.611 30.142 30.142 0 001.658 3.6 11.4 11.4 0 002.163 3.133.642.642 0 00.926-.141.446.446 0 00.026-.41 36.9 36.9 0 00-1.752-3.255 28.678 28.678 0 01-1.473-3.347 30.79 30.79 0 01-1.41-5.264 5.093 5.093 0 00.524.52 6.964 6.964 0 001.637 1.026 5.457 5.457 0 001.524.466.866.866 0 001.474-.394c.259-1.745.336-3.52.559-5.272a82.05 82.05 0 01.809-5.048 90.057 90.057 0 015.39-17.595c1.185-2.837 2.559-5.582 4.007-8.292 1.083-2.027 2.17-4.088 3.37-6.067a167.832 167.832 0 00-.235 6.73c-.065 4.74.002 9.491.329 14.221.162 2.346.314 4.693.523 7.036.103 1.151.223 2.302.35 3.451.069.617.169 1.23.269 1.843a14.793 14.793 0 00.36 1.617c.36 1.265 1.582 1.33 2.01.83.011-.017.021-.034.033-.05.055-.075.102-.156.156-.232a30.572 30.572 0 00.208 6.841c-.193.108-.378.226-.568.339-.227.135-.446.28-.667.423q-.083.05-.164.104c-11.787 7.69-16.036 25.261-8.675 37.359a13.546 13.546 0 005.508 5.464c1.146.537 2.484.918 3.714 1.391.093.036.189.068.28.105a1.431 1.431 0 00.096.276 1.583 1.583 0 00.2.251 1.833 1.833 0 00.442.375c.084.048.168.093.252.137l.029.053c.095.288.154.587.263.872a4.113 4.113 0 00.18.405c-.067-.022-.134-.043-.2-.066a38.475 38.475 0 01-1.194-1.815c-1.021-.18-2.036-.37-3.073-.493q-1.856-.22-3.717-.389l-.231-.019q-10.53-3.413-21.173-6.456c-.21-.06-.421-.115-.63-.174l1.064-.484 1.138-.518a.817.817 0 00.056-1.372c-.02-.015-.034-.037-.056-.05-.89-.41-1.803-.786-2.731-1.115.528-.154 1.054-.304 1.584-.454a17.611 17.611 0 002.616-.792c.172-.066.35-.118.52-.19a.522.522 0 00.246-.43.546.546 0 00-.508-.535 17.763 17.763 0 00-3.27.521c-1.117.207-2.234.39-3.344.64-1.062.238-.667 1.83.346 1.711.712.472 1.45.914 2.206 1.314q-1.185.528-2.365 1.064c-2.182-.61-4.362-1.225-6.55-1.81a4.866 4.866 0 00-3.273-.094 4.867 4.867 0 00-1.844 1.944l-10.31 16.03 13.26 3.016.284.064a270.938 270.938 0 00-9.07 24.149 263.446 263.446 0 00-2.985 10.029c-.312 1.125-.632 2.248-.93 3.377q-1.895 7.192-3.378 14.482-1.612 7.975-2.73 16.038a.95.95 0 00.274.814 1.113 1.113 0 00.528.314.739.739 0 00.984-.636 267.1 267.1 0 0113.61-54.708q2.491-6.814 5.365-13.48l14.299 3.253a56.32 56.32 0 00-7.172 5.46c-.54.5.096 1.4.7.93a84.961 84.961 0 017.439-5.27c.36-.223.727-.436 1.092-.652l15.377 3.497a52.966 52.966 0 00-3.83 2.556c-.565.425-.051 1.383.57.975a65.639 65.639 0 015.234-3.082l53.811 12.237c-4.976-.583-9.902 1.996-13.167 5.843-.38.447-.742.908-1.074 1.386a21.46 21.46 0 00-1.132 1.828 33.454 33.454 0 00-3.618 14.049c-.01.16-.017.32-.026.482q-.025.464-.036.932-.01.44-.002.881a13.994 13.994 0 00.21 2.291 9.176 9.176 0 00.504 1.764c-38.692 8.57-72.05 15.93-89.151 19.633l-.616.134c-6.928 1.499-11.042 2.365-11.55 2.422l.054.965-.436-.873-.505 1.237c.152.427.23.644.796.644.047 0 .103-.004.156-.007a34.845 34.845 0 003.831-.707c2.361-.496 5.82-1.239 10.217-2.193 8.79-1.907 21.34-4.659 36.392-7.976a49337.52 49337.52 0 0051.853-11.46 16.07 16.07 0 005.658 4.167l-10.455 2.482c-.009.002-.015.008-.023.01a.927.927 0 00-.227.096c-.026.014-.053.025-.077.042a.972.972 0 00-.156.14.701.701 0 00-.172.247.972.972 0 00-.067.163c-.006.022-.02.039-.025.061a.726.726 0 01-.022.201c0 .026.01.05.011.075a.967.967 0 00.025.16.97.97 0 00.49.646c.028.015.049.038.078.05l60.837 26.183a1.007 1.007 0 00.396.082.997.997 0 00.25-.033l86.286-22.374v2.186a8.58 8.58 0 005.822 8.03c4.083 1.361 13.399 2.974 17.488 3.647a8.58 8.58 0 001.928.311l.041.007.48.074.08-.074a8.733 8.733 0 001.651-.188c2.973-.643 6.6-1.434 10.758-2.345a.548.548 0 00-.006.064c.648 9.323-5.832 18.64-16.978 25q-1.136.65-2.335 1.246c-11.531 5.768-27.063 8.031-41.76 6.466a72.975 72.975 0 01-22.168-5.86q-.665-.299-1.328-.606c-6.47-2.99-12.808-6.405-21.085-7.224a28.342 28.342 0 00-11.63 1.036 23.84 23.84 0 00-7.654 4.467 83.83 83.83 0 00-2.015 1.721 42.415 42.415 0 01-4.69 3.721 28.921 28.921 0 01-9.212 3.77 40.4 40.4 0 01-21.56-.8 22.771 22.771 0 01-10.227-6.69 11.533 11.533 0 01-2.799-7.14c3.15-1.294 5.699-2.358 5.962-2.485a5.712 5.712 0 01-.52-1.028c-.807-1.903-1.776-3.759-2.653-5.624-.903-1.92-3.255-6.638-3.487-7.027a.694.694 0 00-.038-.233 15.78 15.78 0 00-12.598-10.033 15.581 15.581 0 00-14.928 6.987c-.408.63.582 1.193.998.584a14.744 14.744 0 0113.569-6.32 14.538 14.538 0 0111.513 9.18.784.784 0 00.156.25c-1.762.584-11.678 4.109-14.278 5.024a.872.872 0 00-.172 1.54q1.561 2.831 3.149 5.647c1.119 1.983 2.312 3.91 3.462 5.873q-.225.084-.449.17a.618.618 0 00-.113-.407c-1.18-1.665-2.62-3.18-3.932-4.744l-4.208-5.013-8.292-9.878c-.628-.748-1.693.329-1.071 1.072l8.151 9.747 3.952 4.726c1.388 1.66 2.703 3.459 4.222 5a.659.659 0 00.324.174c-.188.554.212 1.283.89 1.018a658.073 658.073 0 008.255-3.324 10.496 10.496 0 002.336 6.263 21.218 21.218 0 005.842 5.173c5.44 3.359 12.993 5.094 20.713 4.794 7.605-.296 14.859-2.4 19.77-5.978 1.666-1.213 3.177-2.62 4.77-3.989 2.983-2.562 6.261-4.987 11.432-5.736 9.158-1.326 17.503 2.517 24.292 5.736l.248.118a87.076 87.076 0 0010.832 4.493 77.455 77.455 0 0011.416 2.699c15.877 2.536 33.558.835 46.757-5.249a56.666 56.666 0 004.024-2.06c10.348-5.81 16.96-13.994 17.88-22.59a19.146 19.146 0 00.03-3.657.748.748 0 00-.427-.575c9.589-2.102 21.713-4.775 35.32-7.783 14.784-3.269 31.304-6.93 48.197-10.679l2.186 23.768-45.823 12.337 49.659 20.231 104.891-27.972-15.84-49.499c14.902-3.317 26.608-5.925 32.956-7.34a8.614 8.614 0 006.774-8.461V122.69a8.598 8.598 0 00-2.72-6.315zM138.58 329.67l2.684 5.9c.833 1.83 1.596 3.729 2.497 5.534l-4.496 1.726a264.496 264.496 0 00-3.133-6.272l-1.681-3.283-.841-1.642-.079-.159c1.68-.595 3.38-1.17 5.049-1.804zm-7.402 16.24a.607.607 0 00-.05-.161c-1.087-2.012-2.121-4.042-3.241-6.037q-1.456-2.593-2.939-5.171c2.33-.828 4.662-1.65 6.985-2.497.313.629.706 1.237 1.007 1.81l1.774 3.38a275.921 275.921 0 003.272 6.088q-3.398 1.31-6.808 2.588zm402.86-76.995a6.626 6.626 0 01-5.209 6.51c-6.372 1.42-18.146 4.042-33.133 7.378l-25.533-79.792-37.282 3.39-1.626.147-1.626.148-37.2 3.382 2.647 28.79.116 1.26.116 1.258 2.273 24.722.097 1.06.098 1.06.503 5.47.092 1.006.019.202.074.803.019.206.092 1.008.242 2.634.093 1.009.093 1.009 2.048 22.269a64594.501 64594.501 0 01-48.013 10.637c-20.168 4.46-37.128 8.193-47.434 10.43l-1.399.303c-.158.035-.317.054-.476.076a6.652 6.652 0 01-7.597-6.6V135.354a6.66 6.66 0 016.356-6.664c34.59-1.62 180.583-10.099 224.505-12.66h.01q.196-.01.39-.011a6.69 6.69 0 011.001.082 6.55 6.55 0 011.16.285 6.655 6.655 0 014.484 6.306zM408.21 359.863l-2.42-26.318-.223-2.432.087-.024.203-.054-.26-.965v-.001l-.192-.713-2.201-23.942-.093-1.003-.092-1.004-2.054-22.341-.093-1.009-.093-1.01-.183-1.987-.092-1.008-.075-.81-.018-.2-.074-.805-.093-1.005-.41-4.462-.097-1.06-.098-1.06-2.481-26.987-.116-1.258-.116-1.259-2.323-25.258 32.636-2.967 1.626-.148 1.626-.147 38.256-3.478 24.99 78.092.305.956.306.956 15.255 47.673zm-44.359-17.519l39.756-10.704 2.57 27.947zm-80.258-20.848a6.6 6.6 0 01-4.455-6.127V132.03c0-3.478 3.641-8.486 7.227-8.654 8.08-.377 22.197-1.021 39.606-1.815 55.106-2.514 147.336-6.72 179.576-8.514q.84-.047 1.681-.046a30.333 30.333 0 015.01.416l6.506 1.09c-51.487 2.996-183.668 10.654-216.35 12.183a8.657 8.657 0 00-8.262 8.662V318.69a8.63 8.63 0 002.043 5.582 114.251 114.251 0 01-12.582-2.777zM133.88 308.45l3.635-.863 5.284-1.254a23.88 23.88 0 003.862 1.476 13.816 13.816 0 002.004.396 10.207 10.207 0 003.193-.127l.207.863-.223.974.1.023 26.022 5.946.025.105.21-.05 12.18 2.782.186-.817.27 1.123 86.303-20.655v4.08l-87.36 20.736-51.515-13.582-4.179-1.102zm-34.211-72.665a7.665 7.665 0 01-2.865-2.122 7.916 7.916 0 01-1.067-1.737 8.413 8.413 0 003.581.778c.234-.003.467.002.702-.024.084-.01.16-.031.242-.046q.346.593.711 1.173c.423.843.863 1.674 1.333 2.477a6.909 6.909 0 01-1.308-.102 5.875 5.875 0 01-1.33-.397zm-9.152-18.391c-.15-5.06.27-10.728 3.914-14.61a9.067 9.067 0 016.484-3.047 6.877 6.877 0 015.93 3.387c.247.452.885.055.68-.398a6.722 6.722 0 00-1.723-2.282 7.604 7.604 0 00-1.17-.832q-.319-.185-.654-.34a5.021 5.021 0 01-.657-.282 5.077 5.077 0 011.707.193 7.414 7.414 0 011.803.587 9.07 9.07 0 012.626 1.954 10 10 0 01.915 1.125 16.436 16.436 0 012.53 7.987 24.748 24.748 0 01-3.29 14.426 27.354 27.354 0 01-4.957 6.501.519.519 0 00-.51-.486 5.761 5.761 0 00-.68.062c-.015-.026-.033-.051-.049-.078a11.273 11.273 0 002.725-3.169 26.746 26.746 0 003.269-19.387.229.229 0 00-.447.06 32.995 32.995 0 01-2.759 15.689 12.858 12.858 0 01-3.695 5.181c-.227-.421-.469-.834-.682-1.264a39.876 39.876 0 01-2.432-6.105c-.647-2.123-.97-4.318-1.65-6.425a1.397 1.397 0 00-2.732.37 21.686 21.686 0 001.515 8.298 59.417 59.417 0 001.73 4.243c.3.672.626 1.332.964 1.987a6.315 6.315 0 01-.726-.044 7.008 7.008 0 01-2.63-.835c-4.44-2.447-5.213-7.867-5.35-12.466zm24.72-11.504a20.831 20.831 0 00-2.662-7.774 11.603 11.603 0 00-2.01-2.396.557.557 0 00.546-.468l.051-.221a39.39 39.39 0 001.088.259 4.606 4.606 0 013.053 1.66 6.959 6.959 0 01.987 2.569c.222.937.515 1.852.757 2.785q.136.52.262 1.042a4.772 4.772 0 01.233 1.002 53.704 53.704 0 01.877 9.077 46.853 46.853 0 01-.715 8.999 26.584 26.584 0 01-2.752 8.43 13.721 13.721 0 01-6.26 6.015 3.847 3.847 0 00-1.276-.159c-.036 0-.072.002-.108.001-.15-.177-.303-.35-.45-.53a13.344 13.344 0 004.274-3.668 21.28 21.28 0 003.397-7.796 47.155 47.155 0 00.709-18.827zm42.159 60.154l.903 1.636c.077.14.151.288.227.436a17.562 17.562 0 01-1.86-.98c.185 1.205-1.536 1.518-2.781 1.306.577-.366 1.151-.738 1.736-1.096.46-.282.882-.636 1.314-.958l.46-.344zm1.251 5.512c.151.219.299.439.45.656q.41.585.817 1.17a38.199 38.199 0 00-4.03-.707 11.93 11.93 0 012.763-1.119zm23.937 43.333l10.089-2.415 8.669 1.981-10.566 2.53.048-.213zm-13.063-2.985l3.685-.882a12.41 12.41 0 002.228-.512c.06-.02.12-.044.18-.065l3.534-.845.461-.11.596.135 4.893 1.119 3.178.726-10.089 2.414zm-2.397-33.059a22.92 22.92 0 0111.297 10.106q.145.264.283.531c.012.023.026.046.037.07.021.04.044.079.064.119q.28.556.527 1.127a20.772 20.772 0 01.886 2.451 18.202 18.202 0 01.46 2.037l.005.03-.014-.028a19.875 19.875 0 00-1.635-2.875 18.505 18.505 0 00-1.01-1.325q-.445-.536-.927-1.04l-.101-.107c-.022-.021-.042-.045-.063-.066-.163-.166-.333-.324-.502-.482a18.267 18.267 0 00-4.15-2.945.993.993 0 00-1.001 1.714 16.279 16.279 0 012.495 1.82c.182.158.373.305.547.471.025.024.054.044.079.068.036.034.073.065.109.1.335.327.64.683.948 1.037a16.432 16.432 0 012.732 4.219q.21.46.392.934c.055.144.116.286.167.432.06.172.106.346.159.519a32.887 32.887 0 01.772 3.526l.004.014a1.006 1.006 0 00.625.76l-.045.13c-.04.129-.087.257-.132.385-.13.262-.27.52-.416.774l.09-.021c-.09.186-.17.379-.27.556-.023-.033-.049-.065-.072-.097-.077-.109-.16-.213-.237-.32-.21-.295-.429-.584-.645-.875s-.426-.585-.645-.874c-.763-1.009-1.531-2.012-2.277-3.02l-.107-.142c-.217-.292-.437-.582-.654-.873l-.653-.872-3.138-4.19-.531-.709a1.498 1.498 0 00-.367-.342 1.274 1.274 0 00-.157-.08 1.215 1.215 0 00-.126-.065 1.026 1.026 0 00-1.106.245 1.18 1.18 0 00-.106.118 1.246 1.246 0 00-.083.13 1.06 1.06 0 00-.011 1.138l.07.101q1.496 2.13 2.985 4.264l.617.88.617.882c.213.303.422.607.636.909.536.757 1.065 1.527 1.597 2.295.205.295.412.586.618.88.207.297.427.582.637.876.44.618.876 1.24 1.337 1.84l.055.077a9.088 9.088 0 01-.802.644c-.048.035-.098.066-.147.1a9.363 9.363 0 01-2.862 1.33 1.203 1.203 0 00.032-.636c-.111-.479-.248-.95-.37-1.426-.104-.398-.197-.799-.311-1.194-.02-.07-.034-.14-.055-.21a1.05 1.05 0 00-.601-.662.989.989 0 00-.547-.088 1.123 1.123 0 00-.423.173c-.222-.247-.454-.481-.686-.717a19.115 19.115 0 00-1.259-1.183 17.3 17.3 0 00-2.406-1.689 18.963 18.963 0 00-1.331-.712q-.746-.363-1.52-.666c-.162-.063-.319-.137-.482-.196a.999.999 0 00-1.185.591.77.77 0 00.147.993 1.252 1.252 0 00.5.367c.268.104.525.234.786.355a16.316 16.316 0 013.98 2.665c.04.036.073.075.112.111q.44.406.832.83c.082.088.16.18.24.27.167.191.325.388.481.585a20.636 20.636 0 011.32 1.878c.173.277.347.553.518.844l.016.026c.009.014.02.02.03.034a14.038 14.038 0 01-3.117-.135 17.481 17.481 0 01-4.41-1.296 23.99 23.99 0 01-1.428-.687q-.657-.34-1.3-.717a47.707 47.707 0 01-4.158-2.774q-.528-.387-1.047-.78t-1.032-.781c-.604-.461-1.201-.92-1.79-1.364a50.621 50.621 0 00-3.758-2.587 39.55 39.55 0 00-1.574-.914l-.087-.05c-.055-.03-.108-.063-.163-.093-.257-.142-.514-.28-.775-.416a30.68 30.68 0 00-1.893-.912q.164-1.642.45-3.268c1.043-5.905 3.325-13.623 8.307-17.73.018-.013.144.023.17.027l.199.03.383.063q.383.065.765.136.764.144 1.522.315 1.518.342 3.009.794.514.156 1.024.324c.155.051.32.092.47.155.042.017 1.716.629 1.8.662l.367.148q.366.148.732.3c.487.203.971.412 1.45.632l.058.027q.51.235 1.012.485c-.098.2-.201.4-.31.606.15.057.303.106.451.166zm110.014-6.455l-5.833 1.384a24.734 24.734 0 00-1.908-2.968l.01-.026 7.73-1.72zm0 5.589l-3.802.91a21.718 21.718 0 00-1.132-3.272l4.934-1.172zm0 4.35l-3.31-.757c-.025-.244-.059-.483-.093-.722l3.403-.814zm-80.081 29.096l10.089-2.414 8.668 1.98-10.518 2.518.044-.191zm-7.252-1.657l-2.317-.53-2.317-.529-1.178-.269 10.089-2.414 1.78.406 2.318.53 2.316.53 2.253.514-10.089 2.415zm-33.486-4.328c.502.371 1.027.73 1.561 1.08l-4.43 1.06a6.707 6.707 0 002.869-2.14zm69.409-24.947a47.034 47.034 0 0110.131 1.695l-52.75 12.521a21.617 21.617 0 00-1.326-4.455l11.035-2.45c11.023-2.448 22.064-4.9 32.91-7.311zm49.384 10.194l-2.88.69c.036-.07.073-.138.107-.208q.242-.495.444-1.014l2.083.476zm-69.97 15.815l-2.316-.53-2.317-.529-2.043-.467 10.087-2.414 2.645.605 2.317.53 2.317.529 1.388.317-10.087 2.414zm18.17-26.134c-.049.006-.098.008-.146.014a.203.203 0 00-.002-.048 1.304 1.304 0 00.147.034zm-39.944 16.335l56.124-13.322a47.222 47.222 0 015.283 2.343l-61.47 14.712a17.823 17.823 0 00.063-3.733zm64.604-16.21c.017-.056.038-.11.055-.166.117-.374.243-.746.375-1.116a34.081 34.081 0 011.823-4.165q.348-.673.72-1.331c.192-.34.387-.676.587-1.009a46.11 46.11 0 012.475-3.689 26 26 0 013.715-4.186 24.314 24.314 0 017.281 4.879q.37.36.724.735.44.47.853.963a21.705 21.705 0 012.104 2.989q.261.447.501.908c.158.303.31.61.452.92a19.837 19.837 0 01.8 2.027c.134.408.231.83.338 1.25.082.323.167.644.232.972.031.156.047.314.074.47q.045.26.083.521c.035.243.09.482.115.725-.118-.225-.25-.442-.378-.662q-.218-.37-.455-.728-.054-.083-.11-.165-.304-.448-.636-.876c-.353-.456-.722-.9-1.117-1.316a16.32 16.32 0 00-1.712-1.56q-.517-.41-1.067-.776a16.168 16.168 0 00-1.227-.735 15.469 15.469 0 00-4.12-1.555c-1.432-.311-2.045 1.845-.609 2.207.3.076.594.165.885.26a13.494 13.494 0 011.602.647 13.857 13.857 0 011.324.714 14.611 14.611 0 013.067 2.533c.072.079.138.163.208.243q.367.417.698.861c.146.196.29.394.426.597.063.094.122.19.182.286.046.07.092.14.136.213.212.346.415.7.6 1.064a12.874 12.874 0 01.728 1.744c.07.21.125.426.185.64.04.144.09.287.125.433.044.178.104.353.164.526.063.182.126.362.173.54a.943.943 0 00.122.252 1.033 1.033 0 00.094.143 1.235 1.235 0 00.225.212 12.308 12.308 0 01-.624 1.626 10.895 10.895 0 01-.637 1.187 9.147 9.147 0 01-.903 1.215c-.113.127-.233.245-.353.364a7.149 7.149 0 01-.73.644c-.039-.148-.097-.29-.141-.436-.03-.098-.064-.194-.095-.291-.104-.32-.21-.64-.335-.952a15.203 15.203 0 00-1.235-2.414c-.083-.131-.172-.259-.259-.388-.112-.168-.234-.33-.353-.493-.127-.175-.242-.357-.376-.526-.094-.118-.2-.227-.297-.342a14.044 14.044 0 00-1.121-1.181 13.758 13.758 0 00-2.247-1.721c-.143-.088-.295-.16-.441-.241a14.886 14.886 0 00-1.41-.69c-.144-.062-.284-.132-.43-.19a8.522 8.522 0 00-1.4-.402 29.487 29.487 0 00-.966-.183 1.032 1.032 0 00-1.17.695.908.908 0 00.141.922.776.776 0 00.05.06.943.943 0 00.45.244 10.948 10.948 0 011.244.38 12.217 12.217 0 014.338 2.756c.071.07.142.139.212.21.266.271.524.55.765.845.232.28.447.573.654.872a13.046 13.046 0 011.29 2.332q.198.467.357.947c.031.095.065.19.094.285l.023.069c.06.202.11.405.16.61.026.108.058.215.082.323-.044.01-.085.022-.128.03a6.154 6.154 0 01-1.825.045 7.514 7.514 0 01-1.32-.283 9.372 9.372 0 01-.795-.289 12.35 12.35 0 01-1.452-.714 21.845 21.845 0 01-2.245-1.505q-.238-.18-.471-.36a86.067 86.067 0 01-.95-.748l-.051-.04a74.367 74.367 0 00-1.044-.779 243.559 243.559 0 00-4.226-3.043c-.379-.267-.75-.525-1.1-.765a60.707 60.707 0 00-1.13-.759 17.946 17.946 0 00-.891-.554 9.01 9.01 0 01.222-2.876c.072-.32.156-.632.249-.936zm-27.494 22.743l-2.317-.53-2.317-.529-2.907-.664 10.089-2.415 3.51.802 2.317.53 2.317.53.523.119-10.089 2.415zm28.358-7.062l-2.317-.53-4.637-1.059 10.09-2.414 3.28.75c.296.225.588.454.89.675.053.04.105.082.16.122.311.227.631.448.957.663.22.145.449.28.676.418l-7.385 1.767zm-24.402-3.525l8.668 1.98-10.089 2.416-8.668-1.981zm23.698-3.406l-4.841-1.107 3.242-.776a6.158 6.158 0 001.6 1.883zm-.557 1.923l-10.09 2.415-8.667-1.981 10.12-2.422-.003.014zm-37.614 4.947l8.668 1.98-10.089 2.415-8.668-1.98zm25.854 3.857l-2.316-.53-2.317-.529-3.772-.862 10.088-2.414 4.375 1 2.317.529 1.976.451-5.706 1.366-4.383 1.049zm-40.327-.393l8.668 1.98-10.086 2.415-8.67-1.981zm78.412-14.711q.036-.612.035-1.218l2.585.59zm-5.816-15.842c-.005.05-.007.102-.014.153-.038-.043-.077-.082-.115-.124a24.568 24.568 0 00-7.442-5.667c-.12-.058-.243-.106-.363-.162a5.892 5.892 0 013.602-.5 5.748 5.748 0 014.332 6.3zm-85.48 34.379l7.082 1.618-9.305 2.227a11.695 11.695 0 002.222-3.845zm28.926 4.558l10.087-2.414 8.668 1.981-10.469 2.506.039-.17zM226 304.5l10.09-2.414 8.668 1.98-10.421 2.494.034-.147zm14.474-3.464l10.089-2.414 8.668 1.98-10.374 2.483.03-.126zm14.473-3.463l5.844-1.399a9.36 9.36 0 004.588.498c.614-.114 2.493-.507 2.591-.843l5.734 1.31-10.327 2.471.024-.106zm22.19-1.7l-7.02-1.605c.147-.14.293-.28.43-.43l6.59-1.576zm0-6.772l-3.747-.856q.155-.624.265-1.262l3.483-.834zm-15.49-28.08a9.569 9.569 0 00-3.005 1.039q-.271.146-.535.306l-.054-.019c-.094-.035-.19-.064-.284-.098a1.157 1.157 0 01-.421.645l-.628.501-.89.71.007.002a34.57 34.57 0 00-6.74 9.14l-.002.003c-.174.321-.354.655-.533.994-.23.43-.459.872-.685 1.326a27.051 27.051 0 00-1.705 4.172c-.11.365-.212.73-.296 1.098-.082.359-.156.718-.208 1.077a11.026 11.026 0 00-.115 1.362c-.62-.313-1.251-.6-1.883-.888a50.28 50.28 0 00-1.533-.664c-.531-.22-1.06-.445-1.599-.647a50.494 50.494 0 00-7.608-2.186 50.29 50.29 0 00-3.006-.528c-.84-.12-1.684-.214-2.53-.291q-.606-.055-1.213-.096a49.576 49.576 0 00-2.2-.111 29.854 29.854 0 013.068-3.21 28.199 28.199 0 012.846-2.241q.754-.519 1.54-.99c.45-.271 1.133-.52 1.368-1.025a.701.701 0 00.405-.812l-.423-1.834a6.95 6.95 0 002.544.306 7.043 7.043 0 001.584-.258 10.951 10.951 0 005.52-4.074q.448-.576.858-1.184.239-.353.467-.712c.292-.461.574-.928.846-1.394l.03-.052.06-.101a61.726 61.726 0 017.545-.146 50.356 50.356 0 013.371.044 45.053 45.053 0 016.052.744l.25.05c-.089.01-.177.028-.265.042zm-25.176-2.558q1.329-.363 2.684-.618a24.5 24.5 0 012.257-.298c.762-.07 1.525-.12 2.29-.183a.6.6 0 00.028.123.447.447 0 00.01.045l.032.08.041.097.09.215a.973.973 0 00-.675.52 99.708 99.708 0 01-.859 1.543c-.116.202-.229.405-.349.607-.254.427-.525.846-.805 1.257q-.343.502-.72.975a11.23 11.23 0 01-1.344 1.42 8.54 8.54 0 01-1.01.768 7.46 7.46 0 01-1.298.686 5.388 5.388 0 01-3.994.036 6.629 6.629 0 01-2.114-1.326 7.96 7.96 0 01-.686-.72 8.617 8.617 0 01-.74-1.013.774.774 0 00-1.336.78 9.003 9.003 0 001.323 1.963 8.321 8.321 0 001.893 1.602l.54 2.343a5.35 5.35 0 00-1.134.626q-.818.5-1.602 1.054a31.6 31.6 0 00-3.084 2.474 30.036 30.036 0 00-3.797 4.207c-.183.244-.353.496-.528.745q-.147.208-.29.418c-.128.188-.265.37-.389.56a.689.689 0 00-.03.074l-7.267 1.615c.1-.351.196-.704.308-1.052.091-.285.187-.569.286-.852a32.944 32.944 0 0110.006-14.496 32.373 32.373 0 019.718-5.476q1.256-.45 2.545-.8zm-90.727 45.117a12.547 12.547 0 01-.693-5.047l.005-.13.023-.572c.256.126.51.263.764.397a48.022 48.022 0 016.033 3.897q.53.392 1.041.78.525.397 1.029.784l.055.042c.156.12.317.24.476.36a7.453 7.453 0 01-4.152 2.218 4.657 4.657 0 01-1.478-.05l-.007-.006c-.383-.169-.78-.309-1.18-.44a4.118 4.118 0 01-.664-.475 4.379 4.379 0 01-.751-.85 4.915 4.915 0 01-.49-.876c-.005-.01-.006-.021-.01-.032zm11.344 5.485l-.633-.144 3.305-.791.566-.136c.1.055.205.103.306.157q1.076.57 2.193 1.054a26.78 26.78 0 002.923 1.071c.307.092.614.176.922.255l-1.546.37-3.137-.716zm120.05-57.056a57.107 57.107 0 00-9.887-1.508 56.493 56.493 0 00-7.96.011 58.31 58.31 0 00-1.723.156q1.559-.77 3.106-1.563c1.006-.518 2.019-1.03 3.019-1.554a20.695 20.695 0 002.493-1.427.528.528 0 00.4-.318c.225-.278-.017-.686-.342-.764a7.877 7.877 0 00-1.991-.941c-.323-.133-.69-.324-1.067-.491l.142-.058a.877.877 0 00.555.086 106.262 106.262 0 0110.623-1.378c.876-.071 1.754-.106 2.632-.156zm-28.743 3.218q1.985-.989 3.966-1.984c1.21-.206 2.412-.497 3.613-.682q2.167-.334 4.358-.484a55.26 55.26 0 0115.236 1.028c.527.116 1.046.265 1.57.394v13.513l-7.274 1.618a7.787 7.787 0 00-3.033-6.36 6.808 6.808 0 00-.497-.347.641.641 0 00.006-1.209 36.784 36.784 0 00-10.73-2.526 38.013 38.013 0 00-5.4-.057 27.352 27.352 0 00-4.021.363l-.75-1.678-.005-.007.003-.007a.897.897 0 00.078-.216c.647-.306 1.297-.608 1.944-.913.313-.147.626-.292.936-.446zm-58.885 69.961a.992.992 0 00.486.006l87.142-20.685v6.602l-86.456 22.419-48.182-20.737zm53.377-103.668a66.42 66.42 0 0011.396 9.17c3.166 2.063 6.275 4.228 9.6 6.037.01.005.02.006.03.011a.877.877 0 001.22-.473.864.864 0 00.056-.288l.01-.868c1.283-.41 2.57-.807 3.866-1.172q4-1.12 8.073-1.949v8.415q-4.222.193-8.426.723a.645.645 0 00-.023-.875 5.163 5.163 0 00-1.731-.741 17.444 17.444 0 01-1.722-.73 19.163 19.163 0 01-1.714-.946c-.296-.212-.613-.394-.922-.587-.214-.133-.417-.282-.637-.405a.6.6 0 00-.722.933 10.517 10.517 0 003.35 2.308c.508.259 1.03.494 1.558.708-.464.17-.924.359-1.381.543-1.077.433-2.154.863-3.23 1.3a.85.85 0 00-.387 1.23.631.631 0 00.175.467 6.3 6.3 0 002.316 1.08c.207.082.425.177.649.272-.446.204-.886.422-1.33.632-1.023.486-2.042.984-3.064 1.476-2.041.984-4.062 2.013-6.082 3.035s-4.06 2.013-6.09 3.022c-1.013.505-2.015 1.052-3.005 1.578-.08.043-.165.081-.247.123a28.988 28.988 0 00-11.4 2.185 34.363 34.363 0 00-21.12 23.772c-9.193 2.043-18.473 4.104-27.718 6.156l-3.352.744c-.132-.243-.258-.49-.398-.726a56.734 56.734 0 00-6.933-8.758c-2.926-3.233-5.94-6.536-9.814-8.537-.983-.507-2.01-.924-3.038-1.342a.624.624 0 00.04-.264 5.608 5.608 0 00-.917-1.988l-.982-1.78-.112-.202a.873.873 0 00-.132-.868.894.894 0 00-.526-.324l-.569-1.032 8.533 3.81c4.46 1.99 9.006 4.036 12.606 7.337s6.155 8.137 5.482 12.975c.047-.11.07-.227.112-.34 1.135-3.065.226-6.641-1.68-9.321a20.631 20.631 0 00-5.045-4.774c-.687-.485-1.39-.95-2.1-1.398-.204-.13-.408-.26-.613-.387-11.998-7.45-25.188-12.721-38.333-17.895l-.503-.198a15.508 15.508 0 001.976-.573 25.765 25.765 0 013.376 1.478c.328.148.653.275.977.385.043.014.087.037.13.05.09.03.182.046.272.069a5 5 0 00.522.107 6.305 6.305 0 006.82-4.891c.003-.024.009-.047.013-.07a4.982 4.982 0 00.06-.593c0-.019.004-.036.005-.055 0-.012-.002-.024-.001-.036a6.187 6.187 0 00-7.323-5.883 6.255 6.255 0 00-4.332 6.744l-.04.015a16.989 16.989 0 01-4.647 1.174 73.342 73.342 0 01-16.457-4.903c-.495-.306-.966-.644-1.446-.97a10.142 10.142 0 001.055-.892c.318-.376.029-1.064-.518-.888a10.433 10.433 0 00-1.744.952q-1.076-.788-2.098-1.64a14.515 14.515 0 003.247-3.366c.334-.492-.422-1.055-.816-.628a17.3 17.3 0 01-2.8 2.469.444.444 0 00-.263-.476 19.827 19.827 0 00-2.235-.653c-.517-.521-1.035-1.042-1.524-1.589.128-.038.253-.087.38-.13a12.405 12.405 0 005.302-3.661 22.853 22.853 0 004.455-9.968 50.37 50.37 0 001.13-7.884l.023-.413c.02-.424.033-.847.043-1.272q.025-1.106.004-2.212a50.103 50.103 0 00-1.057-9.828 17.496 17.496 0 00-1.095-3.41 8.548 8.548 0 00-3.8-4.45 4.765 4.765 0 00-2.164-.461l-.033-.002c.1-.383.209-.768.313-1.152 2.22-8.226 5.432-16.49 10.286-23.36.156-.21.309-.424.468-.632l.085-.113c.143-.193.288-.384.434-.575l.018.015c.04.032.077.065.117.096.21.16.44.299.652.46.394.299.773.625 1.167.925.412.316.827.628 1.239.944a89.645 89.645 0 002.48 1.847c.489.348 1.063-.426.634-.82-1.462-1.34-2.976-2.625-4.493-3.906.554-.614 1.006-1.36 1.554-1.95a17.607 17.607 0 012.369-2.16 24.09 24.09 0 015.794-2.945c.024-.009.048-.02.073-.028.478-.181.46-1.035-.131-.965a15.54 15.54 0 00-4.072 1.184c-.267.117-.537.229-.798.361a36.277 36.277 0 013.795-2.764 37.627 37.627 0 016.98-3.407 57.074 57.074 0 0120.427-3.058 116.124 116.124 0 0111.802.784 119.525 119.525 0 0113.96 2.376c1.103.26 2.205.523 3.293.825.098.027.197.052.294.08a76.67 76.67 0 012.797.84l.19.06a70.373 70.373 0 013.46 1.244c.32.124.637.257.955.386.419.17.844.329 1.258.508l-.011.008c-.3.212-.596.426-.896.637q-2.285 1.598-4.674 3.034-1.326.796-2.678 1.548-.677.376-1.36.743a3.003 3.003 0 00-.527.375c-.138.117-.233.277-.416.333-.273.083-.561-.094-.812-.18-.292-.095-.584-.2-.875-.3a35.112 35.112 0 00-1.76-.58 42.347 42.347 0 00-6.115-1.314 33.262 33.262 0 00-5.566-.3c-.89.028-1.782.07-2.672.106a14.275 14.275 0 00-1.474.109 12.618 12.618 0 01-1.3.216l-.013.002a.592.592 0 00-.5.672l.005.012a.59.59 0 00.668.487 16.116 16.116 0 011.76.03c.572-.014 1.14-.037 1.71-.037a25.12 25.12 0 013.389.226c2.253.303 4.515.574 6.743 1.04a51.354 51.354 0 016.58 1.845c2.14.757 4.18 1.722 6.292 2.546.723.282 1.005-.765.485-1.147a23.458 23.458 0 00-4.555-2.513c1.645-.861 3.245-1.805 4.845-2.761 2-1.196 3.935-2.496 5.813-3.875a49.668 49.668 0 015.958 3.389 56.034 56.034 0 00-1.256 7.18 33.738 33.738 0 00.01 6.564 25.056 25.056 0 00.51 3.144 18.927 18.927 0 00.5 1.869.585.585 0 00-.011.073.555.555 0 00.287.6 4.293 4.293 0 00.245.438c.278.43 1.103.306 1.049-.283a8.052 8.052 0 00-.11-.747 5.083 5.083 0 01.91-1.876 4.412 4.412 0 011-.885c.033.316.086.63.133.93a10.841 10.841 0 00.582 2.225 7.31 7.31 0 002.579 3.684.486.486 0 00.66-.66 20.707 20.707 0 01-2.152-3.422 8.79 8.79 0 01-.54-1.96c-.098-.677.005-1.358-.085-2.03-.04-.298-.45-.71-.768-.523a.723.723 0 00-.193.2c-.423.559-1.08.733-1.623 1.133a5.319 5.319 0 00-.56.474c-.073.07-.496.44-.473.534a10.646 10.646 0 01-.127-.591 30.46 30.46 0 01-.465-3.544 39.188 39.188 0 011.137-11.67 42.148 42.148 0 014.64 3.827 39.278 39.278 0 013.443 3.775c.096.296.181.596.279.892.51 1.543 1.005 3.111 1.628 4.611.66 1.58 1.344 3.15 2 4.728s1.303 3.158 1.988 4.724a48.027 48.027 0 002.2 4.341c.187.335.357.68.536 1.02.09.71.165 1.42.215 2.135.05-.526.061-1.05.081-1.573 1.283 2.498 2.421 5.072 3.906 7.464a.5.5 0 00.593.156l.003-.002a109.625 109.625 0 005.27 10.29c.005.054.005.107.012.16a.23.23 0 00.203.209 63.278 63.278 0 004.37 6.442 47.536 47.536 0 003.431 3.926l.048.047zm-19.86-36.85q-.306-.748-.605-1.5-.391-1.117-.847-2.21l-.114-.303a41.02 41.02 0 011.567 4.013zm5.247 11.996l-.123-.248c-.969-1.93-1.92-3.867-2.743-5.867-.129-.313-.269-.621-.39-.939a31.328 31.328 0 00-1.304-6.874 34.994 34.994 0 00-1.658-4.347l-.04-.092a37.964 37.964 0 00-1.81-3.42c-.164-.282-.326-.564-.497-.842-.086-.139-.176-.276-.264-.413-.117-.182-.243-.358-.363-.537-.016-.004-.031-.012-.047-.017-.024-.007-.047-.022-.07-.032a.918.918 0 01-.169-.076 1.639 1.639 0 01-.141-.116 3.992 3.992 0 01-.785-1.032q-.305-.484-.613-.965a27.522 27.522 0 00-1.226-1.755c-.107-.14-.233-.294-.351-.442-.123-.154-.237-.3-.364-.457l-.563-.69c.013.047.025.095.04.142l.007.029c-.37-.395-.743-.786-1.126-1.167-.19-.188-.384-.372-.577-.557q-.516-.49-1.049-.97c-.159-.142-.313-.29-.473-.429q-.783-.68-1.598-1.32a1.463 1.463 0 01-.762-.086 1.255 1.255 0 01-.121-.047 4.773 4.773 0 01-.408-.243c-.078-.051-.15-.113-.225-.168-.181-.135-.362-.27-.54-.406a106.56 106.56 0 01-.672-.508c-.091-.07-.187-.136-.275-.209-.07-.058-.133-.123-.2-.183q-.242-.22-.482-.444a.765.765 0 01-.23-.462 52.498 52.498 0 00-3.24-1.878l.033-.027-.122-.063c-.056-.029-.112-.059-.169-.087-.016-.002-.126-.042-.148-.05l-.045-.013a8.892 8.892 0 00-.408-.124 4.063 4.063 0 01-.662-.218l-.057-.029c-.127-.06-.252-.124-.378-.187-.05-.025-.098-.052-.149-.077a2.383 2.383 0 01-.805-.544c-.015-.018-.024-.037-.038-.055a67.972 67.972 0 00-11.396-4.027 106.425 106.425 0 00-17.23-2.868 94.58 94.58 0 00-16.762-.167 55.776 55.776 0 00-12.585 2.514l-.021.002c-.008.005-.017.008-.024.013a40.432 40.432 0 00-9.194 4.334c-.1.064-.205.118-.304.183-.55.361-1.076.75-1.604 1.138a41.038 41.038 0 00-7.072 6.655 1.337 1.337 0 01-.114.21c-.112.16-.234.31-.351.465l-.026.034c-.037.048-.078.092-.114.14-.093.12-.192.232-.287.35-.156.193-.309.39-.474.578-.025.029-.047.06-.073.09l-.356.398-.085.095-.025.024.014.011q-1.425 1.927-2.685 3.99a66.265 66.265 0 00-4.047 7.83c-.132.45-.289.893-.439 1.337-.086.256-.16.516-.252.77-.163.447-.348.885-.54 1.32-.143.318-.288.636-.44.95-.08.165-.183.312-.276.464a106.079 106.079 0 00-2.741 8.666c-.064.235-.13.47-.193.705-.04.155-.086.31-.127.464l-.23-.027-.216-.025-6.591-.771-.1-.012h-.006l-.011-.002c.005-.077.015-.154.02-.231q.146-1.965.434-3.923a54.689 54.689 0 011.45-6.868q.191-.33.38-.662a22.046 22.046 0 01.905-3.274l-.006-.002c.096-.263.207-.52.308-.78.046-.117.087-.235.135-.35l.01-.018a46.829 46.829 0 013.835-7.654c.125-.193.244-.391.372-.583.024-.038.05-.074.075-.112a41.042 41.042 0 014.814-6.046l.055.043.013.01c.015-.027.034-.051.05-.077a2.735 2.735 0 01.196-.304c.014-.019.022-.04.038-.06.057-.068.124-.127.184-.194.204-.232.41-.462.636-.674.018-.017.04-.03.059-.046.078-.065.161-.125.24-.19l.02-.027a1.444 1.444 0 01.22-.269.573.573 0 01.316-.172c.118-.106.229-.22.348-.324a44.465 44.465 0 0114.997-8.415 60.78 60.78 0 0112.408-2.771 103.42 103.42 0 0121.304.014c2.892.255 5.78.57 8.658.917a123.06 123.06 0 0120.477 3.93 64.682 64.682 0 016.076 2.136l.01-.006a.968.968 0 01.421-.058 2.528 2.528 0 01.621.12c.129.04.253.081.366.118.063.02.124.052.187.075a9.518 9.518 0 011.043.483c.106.056.206.122.309.185q.31.191.606.4l.105.073a3.674 3.674 0 01.948.802c.376.201.75.402 1.12.613.056.005.11.003.168.013.104.016.206.043.309.065.085.018.172.032.256.054.067.018.13.048.197.07a5.301 5.301 0 01.854.364c.05.026.101.047.149.074a4.983 4.983 0 011.05.848c.077.078.147.163.22.245.05.056.102.109.149.167a2.37 2.37 0 01.335.485q1.088.786 2.116 1.65c.014.058.025.116.04.173.205.119.411.236.61.365.136.088.265.185.398.277a13.12 13.12 0 011.486 1.188c.247.23.487.468.714.72l.016.018a13.05 13.05 0 011.423 1.865c.086.14.18.29.273.446l.024.029a41.546 41.546 0 016.911 13.92 90.017 90.017 0 012.625 12.119q.207 1.328.396 2.653l.055.395-.16-.322zm-21.812-41.277c.502-.494 1.004-.99 1.52-1.47a87.534 87.534 0 003.079-3.016c-.73 1.922-1.481 3.835-2.172 5.77-.054.152-.113.303-.166.455q-1.297-.721-2.63-1.377.185-.18.369-.362zm5.465-1.296a.597.597 0 00.04.107c.174 1.122.337 2.245.537 3.364.097.552.185 1.106.274 1.66l.07.436q-1.423-.962-2.903-1.834l.15-.447a151.093 151.093 0 011.566-4.324c.082.345.166.69.266 1.038zm-110.661 30.683c-.028-.604.002-1.221-.036-1.827-.04-.634-.1-1.266-.16-1.9q-.187-1.964-.344-3.929a208.51 208.51 0 01-.283-27.224c1.636 1.388 3.2 2.846 4.786 4.288a61.502 61.502 0 005.726 4.7 88.185 88.185 0 013.4 2.563l.102.08a46.08 46.08 0 00-3.461 3.858 39.24 39.24 0 00-7.956 16.488 33.625 33.625 0 00-1.774 2.903zm3.299 9.774c5.055.615 8.041 5.412 9.209 9.928a41.425 41.425 0 01.377 17.002c-.828 4.962-2.58 10.448-7.07 13.29a10.471 10.471 0 01-.928.517 42.081 42.081 0 01-2.06-2.954c.072-.011.143-.015.215-.03a.408.408 0 00.665.245 24.978 24.978 0 005.271-6.246 27.077 27.077 0 002.817-7.563c1.214-5.256 1.046-11.534-1.761-16.281a9.619 9.619 0 00-5.002-4.19 5.985 5.985 0 00-2.119-.274c-.82.023-1.634.155-2.45.254a17.771 17.771 0 00-5.064.986c-.142.062-.544.175-.627.306a14.313 14.313 0 012.496-3.06 7.748 7.748 0 016.03-1.93zM64.6 248.457c.07-.161.137-.324.207-.484.435-.994-1.03-1.863-1.47-.86-.142.321-.272.647-.412.969l-.163-.037-12.425-2.783L61.6 229.226q3.593.863 7.193 1.745a19.96 19.96 0 00-1.995.972c-.784.45-.255 1.773.625 1.47 1.376-.465 2.703-1.183 4.028-1.78.592.15 1.184.298 1.776.45a200.4 200.4 0 0122.844 7.087c-.305.051-.61.098-.915.157q-1.372.263-2.722.618a6.58 6.58 0 00-2.631.977c-.486.422-.057 1.13.488 1.173a3.9 3.9 0 001.382-.294q.643-.191 1.29-.36 1.299-.34 2.617-.582a40.135 40.135 0 013.519-.465q3.092 1.294 6.107 2.773-2.395.293-4.757.805a66.466 66.466 0 00-15.553 5.278 56.344 56.344 0 00-4.947 2.645q-7.674-1.72-15.349-3.438zm35.078 7.857a54.597 54.597 0 0117.454-5.194l-.11-.04a26.662 26.662 0 01-2.807-1.256 52.998 52.998 0 00-16.722 6l-15.382-3.445a66.863 66.863 0 0111.814-5.136 73.909 73.909 0 0113.12-2.713l-.189-.192a.828.828 0 01-.312-.319c-.111-.118-.223-.236-.332-.356.082.041.165.08.246.121.073.037.148.072.22.109.357.182.712.37 1.068.555l.013.007q1.509.79 3.014 1.597.813.434 1.628.862 1.182.622 2.374 1.216 1.28.636 2.58 1.217.913.405 1.84.77c.455.18.91.36 1.37.522.143.054.29.099.432.151a34.045 34.045 0 005.382 1.467c.345.065.687.136 1.038.191a32.65 32.65 0 001.672.215 25.867 25.867 0 003.14.15c.756.105 1.51.226 2.257.381l.054.013a52.908 52.908 0 0110.537 3.832l10.225 4.564a.82.82 0 00.048.739l.38.686-.004.122a.2.2 0 00.176.192l.589 1.065-.659.554c-.413.347-.855.677-1.235 1.06-.709.715-1.421 1.42-2.15 2.113l-52.769-11.82zm34.955 36.806c0-.155.005-.31.007-.466q.023-1.4.174-2.792a26.44 26.44 0 015.132-13.277c.022-.028.04-.057.062-.085l.068-.087q.333-.427.686-.839a26.385 26.385 0 012.73-2.746c1.47-.218 2.948-.393 4.425-.577a2.519 2.519 0 00.484.276.369.369 0 01.037-.07.377.377 0 01.14-.13c.048-.023.092-.052.137-.08.007-.004.016-.002.023-.006.01-.006.023-.01.033-.017a.367.367 0 01.074-.024c-.163.001-.326-.008-.49-.005a74.434 74.434 0 003.25-.47l2.873-.494a16.13 16.13 0 00-1.558 1.132c-.221.212-1.16 1.015-1.429 1.31a19.499 19.499 0 00-2.052 2.467 25.72 25.72 0 00-1.733 2.882 42.142 42.142 0 00-3.925 11.913 51.225 51.225 0 00-.489 3.29 28.33 28.33 0 00-.22 2.07l-.009.172c-.006.112-.01.222-.012.33l-.005.145c-.008.149-.007.297-.014.446l-.004.139-.002.058c-.017.425-.035.85-.039 1.275 0 .082-.007.164-.007.245 0 .07.006.142.007.213a14.028 14.028 0 00.762 4.735c.053.145.098.294.158.437-.032.04-.061.084-.096.121a59.61 59.61 0 01-1.01-.333c-.222-.074-.445-.141-.666-.22a24.94 24.94 0 01-4.59-1.586 4.493 4.493 0 01-1.536-1.508 5.445 5.445 0 01-.269-.499 7.11 7.11 0 01-.44-1.17l-.012-.04c-.014-.048-.03-.094-.042-.142a15.664 15.664 0 01-.306-1.551c-.019-.13-.03-.262-.047-.392l-.042-.35c-.025-.212-.055-.423-.076-.635a31.293 31.293 0 01-.112-1.673q-.03-.695-.03-1.392z"
    fill="#008fc3" />
  <path fill="#fff"
    d="M363.851 342.344l42.326 17.243-2.57-27.947-39.756 10.704zm130.191-58.148l-.306-.956-24.99-78.092-38.255 3.478-1.626.147-1.626.148-32.636 2.967 2.323 25.258.116 1.259.115 1.258 2.482 26.988.098 1.059.097 1.06.41 4.462.093 1.005.074.806.018.2.075.809.092 1.008.183 1.988.093 1.009.093 1.009 2.054 22.341.092 1.004.093 1.003 2.201 23.942.192.713v.001l.26.965-.203.054-.087.024.223 2.432 2.42 26.318 101.393-27.038-15.255-47.673-.306-.956z" />
  <path
    d="M294.132 308.769V135.353a8.657 8.657 0 018.262-8.662c32.682-1.53 164.863-9.187 216.35-12.184l-6.505-1.089a30.333 30.333 0 00-5.011-.416q-.842 0-1.681.046c-32.24 1.794-124.47 6-179.576 8.514-17.41.794-31.526 1.438-39.606 1.815-3.586.168-7.227 5.176-7.227 8.654v183.338a6.6 6.6 0 004.455 6.127 114.251 114.251 0 0012.582 2.777 8.63 8.63 0 01-2.043-5.582z"
    fill="#008fc3" opacity=".15" />
  <path
    d="M529.555 116.385a6.55 6.55 0 00-1.16-.285 6.69 6.69 0 00-1.002-.082q-.195 0-.39.011h-.01c-43.922 2.561-189.915 11.04-224.505 12.66a6.66 6.66 0 00-6.356 6.664v183.338a6.656 6.656 0 007.597 6.6c.159-.023.318-.042.476-.077l1.399-.303c10.306-2.237 27.266-5.97 47.434-10.43a67707.19 67707.19 0 0048.013-10.637l-2.048-22.27-.093-1.008-.093-1.01-.242-2.633-.092-1.008-.02-.206-.073-.803-.019-.202-.092-1.006-.503-5.47-.098-1.06-.097-1.06-2.273-24.722-.116-1.259-.116-1.258-2.647-28.791 37.2-3.382 1.626-.148 1.626-.148 37.282-3.389 25.533 79.793c14.987-3.337 26.76-5.96 33.133-7.38a6.626 6.626 0 005.209-6.51V122.692a6.655 6.655 0 00-4.483-6.306z"
    fill="#008fc3" opacity=".15" />
  <path fill="#008fc3" opacity=".15"
    d="M494.042 284.196l-.306-.956-24.99-78.092-38.255 3.478-1.626.147-1.626.148-32.636 2.967 2.323 25.258.116 1.259.115 1.258 2.482 26.988.098 1.059.097 1.06.41 4.462.093 1.005.074.806.018.2.075.809.092 1.008.183 1.988.093 1.009.093 1.009 2.054 22.341.092 1.004.093 1.003 2.201 23.942.192.713v.001l.26.965-.203.054-.087.024.223 2.432 2.42 26.318 101.393-27.038-15.255-47.673-.306-.956z" />
  <path
    d="M141.313 253.298a5.275 5.275 0 00.977.385c-.324-.11-.65-.237-.977-.385zm4.499.528a5.81 5.81 0 004.221-4.808 6.305 6.305 0 01-6.82 4.89 6.492 6.492 0 002.6-.082zm1.338-10.871a6.061 6.061 0 00-6.501.406 6.184 6.184 0 00-2.234 5.779l.041-.015a6.255 6.255 0 014.332-6.744 6.187 6.187 0 017.322 5.883 5.726 5.726 0 00-2.96-5.309zm2.956 5.4a4.982 4.982 0 01-.06.593c.012-.075.034-.147.043-.223.015-.124.01-.247.017-.37z"
    fill="#fff" />
  <path
    d="M74.813 237.441a1.747 1.747 0 00-.26.242 1.523 1.523 0 00-.122.137 1.11 1.11 0 01-.111.122l-.49.48c-.104.103.054.261.16.161l.5-.471c.082-.079.176-.142.26-.218a1.789 1.789 0 00.258-.258c.085-.114-.081-.273-.195-.195z"
    fill="#008fc3" />
  <path
    d="M146.996 305.337a4.118 4.118 0 00.664.475c.4.131.797.271 1.18.44l.007.006a4.657 4.657 0 001.478.05 7.453 7.453 0 004.152-2.218c-.159-.12-.32-.24-.476-.36l-.055-.042q-.503-.386-1.029-.784-.51-.387-1.041-.78a48.022 48.022 0 00-6.033-3.897c-.255-.134-.508-.271-.764-.397l-.023.571-.005.131a12.547 12.547 0 00.693 5.047c.005.01.006.022.01.032a4.915 4.915 0 00.49.877 4.379 4.379 0 00.752.85zm-11.036-52.944l.504.198a7.12 7.12 0 001.473-.771 15.508 15.508 0 01-1.976.573zm-34.987-18.585q-.364-.581-.711-1.173c-.081.015-.158.037-.242.046-.235.026-.468.02-.702.024a8.413 8.413 0 01-3.581-.778 7.916 7.916 0 001.067 1.737 7.665 7.665 0 002.865 2.122 5.875 5.875 0 001.329.397 6.909 6.909 0 001.308.102c-.47-.803-.91-1.634-1.333-2.477zm2.418 6.298l.2.066a4.113 4.113 0 01-.179-.405c-.108-.285-.168-.584-.263-.873l-.029-.052a7.544 7.544 0 01-.252-.138 1.833 1.833 0 01-.443-.374 1.583 1.583 0 01-.199-.251 1.431 1.431 0 01-.096-.277c-.091-.036-.187-.069-.28-.104.117.197.228.396.348.593.376.613.778 1.217 1.193 1.815z"
    fill="#fff" />
  <path
    d="M134.852 296.82l.042.35c.017.13.028.262.047.392a15.661 15.661 0 00.306 1.551c.013.048.028.094.042.142l.011.04a7.11 7.11 0 00.442 1.17 5.445 5.445 0 00.269.5 4.493 4.493 0 001.536 1.507 24.94 24.94 0 004.59 1.587c.22.078.443.145.665.219.336.112.672.226 1.01.333.035-.037.065-.08.097-.121-.061-.143-.105-.292-.159-.437a14.028 14.028 0 01-.762-4.735c0-.071-.007-.142-.007-.213 0-.082.007-.164.008-.245.003-.425.02-.85.039-1.275l.001-.058c.002-.047.002-.093.005-.14.007-.148.005-.296.013-.445l.005-.145.012-.33.01-.174a28.372 28.372 0 01.22-2.07c.13-1.102.288-2.2.489-3.288a42.142 42.142 0 013.923-11.913c.19-.358.378-.717.581-1.065.363-.623.744-1.232 1.153-1.817a19.499 19.499 0 012.052-2.466c.27-.296 1.208-1.099 1.43-1.311a16.13 16.13 0 011.558-1.132l-2.874.495a74.434 74.434 0 01-3.25.469c.164-.003.327.006.49.005a.367.367 0 00-.074.024c-.01.007-.022.01-.032.017-.008.004-.017.002-.024.007-.045.027-.09.056-.136.08a.377.377 0 00-.14.129.369.369 0 00-.038.07 2.519 2.519 0 01-.484-.276c-1.476.184-2.954.359-4.425.577a26.385 26.385 0 00-2.73 2.746q-.353.412-.686.839l-.068.087c-.021.028-.04.057-.062.085a26.44 26.44 0 00-5.132 13.277q-.151 1.391-.174 2.792c-.002.155-.006.31-.006.466q-.001.697.029 1.392c.024.56.058 1.117.113 1.673.02.212.05.423.075.634z"
    fill="#fff" />
</svg>