<?xml version="1.0" encoding="utf-8"?>
<!-- Generator: Adobe Illustrator 27.4.0, SVG Export Plug-In . SVG Version: 6.00 Build 0)  -->
<svg version="1.0" id="Layer_1" xmlns="http://www.w3.org/2000/svg" xmlns:xlink="http://www.w3.org/1999/xlink" x="0px"
	y="0px" viewBox="0 0 1000 500" style="enable-background:new 0 0 1000 500;" xml:space="preserve">
	<style type="text/css">
		.st0 {
			fill: none;
			stroke: #334A56;
			stroke-miterlimit: 10;
		}

		.st1 {
			fill: none;
			stroke: #334A56;
			stroke-miterlimit: 10;
			stroke-dasharray: 1.0062, 4.0246;
		}

		.st2 {
			font-family: 'Pragmatica-Bold';
		}

		.st3 {
			font-size: 12px;
		}

		.st4 {
			font-family: 'Pragmatica-Book';
		}

		.st5 {
			fill: none;
			stroke: #000000;
			stroke-miterlimit: 10;
		}

		.st6 {
			fill: none;
			stroke: #000000;
			stroke-miterlimit: 10;
			stroke-dasharray: 1.0062, 4.0246;
		}

		.st7 {
			fill: none;
			stroke: #000000;
			stroke-miterlimit: 10;
			stroke-dasharray: 1, 4;
		}

		.st8 {
			fill: #FFFFFF;
		}
	</style>
	<g>
		<g>
			<polyline className="st0" points="251.74,498.56 251.39,498.92 251.03,498.56 		" />
			<line className="st1" x1="248.19" y1="495.72" x2="4.16" y2="251.69" />
			<polyline className="st0" points="2.73,250.27 2.38,249.91 2.73,249.56 		" />
			<line className="st1" x1="5.58" y1="246.71" x2="249.61" y2="2.68" />
			<polyline className="st0" points="251.03,1.26 251.39,0.91 251.74,1.26 		" />
			<line className="st1" x1="254.59" y1="4.11" x2="498.62" y2="248.14" />
			<polyline className="st0" points="500.04,249.56 500.39,249.91 500.04,250.27 		" />
			<line className="st1" x1="497.19" y1="253.11" x2="253.16" y2="497.14" />
		</g>
	</g>
	<text transform="matrix(0.7071 -0.7071 0.7071 0.7071 103.5139 137.9672)" className="st2 st3">DISCOVER</text>
	<text transform="matrix(0.7071 -0.7071 0.7071 0.7071 125.1391 150.4028)" className="st4 st3">Diverging</text>
	<text transform="matrix(1 0 0 1 222.4179 453.4393)" className="st2 st3">Research</text>
	<text transform="matrix(1 0 0 1 38.224 286.0399)">
		<tspan x="0" y="0" className="st4 st3">Interviews,</tspan>
		<tspan x="0" y="14.4" className="st4 st3">User Analytics,</tspan>
		<tspan x="0" y="28.8" className="st4 st3">Competitor Analysis</tspan>
	</text>
	<text transform="matrix(1 0 0 1 200.224 286.0399)">
		<tspan x="0" y="0" className="st4 st3">Feature Mapping</tspan>
		<tspan x="0" y="14.4" className="st4 st3">Assumptions</tspan>
		<tspan x="0" y="28.8" className="st4 st3">Hypothesis</tspan>
	</text>
	<text transform="matrix(0.7071 0.7071 -0.7071 0.7071 370.5207 107.9851)" className="st2 st3">DEFINE</text>
	<text transform="matrix(0.7071 0.7071 -0.7071 0.7071 346.6156 120.08)" className="st4 st3">Converging</text>
	<g>
		<g>
			<polyline className="st5" points="749.84,498.56 749.49,498.92 749.14,498.56 		" />
			<line className="st6" x1="746.29" y1="495.72" x2="502.26" y2="251.69" />
			<polyline className="st5" points="500.84,250.27 500.48,249.91 500.84,249.56 		" />
			<line className="st6" x1="503.68" y1="246.71" x2="747.71" y2="2.68" />
			<polyline className="st5" points="749.14,1.26 749.49,0.91 749.84,1.26 		" />
			<line className="st6" x1="752.69" y1="4.11" x2="996.72" y2="248.14" />
			<polyline className="st5" points="998.14,249.56 998.49,249.91 998.14,250.27 		" />
			<line className="st6" x1="995.3" y1="253.11" x2="751.27" y2="497.14" />
		</g>
	</g>
	<text transform="matrix(0.7071 -0.7071 0.7071 0.7071 612.4579 129.9803)" className="st2 st3">IDEATE</text>
	<text transform="matrix(0.7071 -0.7071 0.7071 0.7071 623.4731 148.9652)" className="st4 st3">Diverging</text>
	<text transform="matrix(0.7071 0.7071 -0.7071 0.7071 858.7003 98.3523)" className="st2 st3">IMPLEMENT</text>
	<text transform="matrix(0.7071 0.7071 -0.7071 0.7071 844.5178 119.7241)" className="st4 st3">Converging</text>
	<text transform="matrix(1 0 0 1 728.6323 453.4393)" className="st2 st3">Create</text>
	<line className="st5" x1="929.5" y1="250" x2="108.5" y2="250" />
	<path className="st7" d="M563.5,284v-68c0-25.13,20.37-45.5,45.5-45.5h8c25.13,0,45.5,20.37,45.5,45.5v68c0,25.13-20.37,45.5-45.5,45.5
	h-8C583.87,329.5,563.5,309.13,563.5,284z" />
	<path d="M589.5,273h-46c-12.43,0-22.5-10.07-22.5-22.5v0c0-12.43,10.07-22.5,22.5-22.5h46c12.43,0,22.5,10.07,22.5,22.5v0
	C612,262.93,601.93,273,589.5,273z" />
	<path d="M685.5,273h-46c-12.43,0-22.5-10.07-22.5-22.5v0c0-12.43,10.07-22.5,22.5-22.5h46c12.43,0,22.5,10.07,22.5,22.5v0
	C708,262.93,697.93,273,685.5,273z" />
	<path className="st7" d="M662.5,272v-44c0-25.13,20.37-45.5,45.5-45.5h4c25.13,0,45.5,20.37,45.5,45.5v44c0,25.13-20.37,45.5-45.5,45.5
	h-4C682.87,317.5,662.5,297.13,662.5,272z" />
	<path className="st7" d="M761.5,259v-18c0-37.28,30.22-67.5,67.5-67.5h42c37.28,0,67.5,30.22,67.5,67.5v18c0,37.28-30.22,67.5-67.5,67.5
	h-42C791.72,326.5,761.5,296.28,761.5,259z" />
	<path d="M780.5,273h-46c-12.43,0-22.5-10.07-22.5-22.5v0c0-12.43,10.07-22.5,22.5-22.5h46c12.43,0,22.5,10.07,22.5,22.5v0
	C803,262.93,792.93,273,780.5,273z" />
	<path d="M874.5,273h-46c-12.43,0-22.5-10.07-22.5-22.5v0c0-12.43,10.07-22.5,22.5-22.5h46c12.43,0,22.5,10.07,22.5,22.5v0
	C897,262.93,886.93,273,874.5,273z" />
	<path d="M971.5,273h-46c-12.43,0-22.5-10.07-22.5-22.5v0c0-12.43,10.07-22.5,22.5-22.5h46c12.43,0,22.5,10.07,22.5,22.5v0
	C994,262.93,983.93,273,971.5,273z" />
	<g>
		<path d="M104.5,273h-75C17.07,273,7,262.93,7,250.5v0C7,238.07,17.07,228,29.5,228h75c12.43,0,22.5,10.07,22.5,22.5v0
		C127,262.93,116.93,273,104.5,273z" />
		<text transform="matrix(1 0 0 1 37.724 247.0399)">
			<tspan x="0" y="0" className="st8 st4 st3">Prioritized</tspan>
			<tspan x="0" y="14.4" className="st8 st4 st3">One Pager</tspan>
		</text>
	</g>
	<g>
		<path d="M280,273h-75c-12.43,0-22.5-10.07-22.5-22.5v0c0-12.43,10.07-22.5,22.5-22.5h75c12.43,0,22.5,10.07,22.5,22.5v0
		C302.5,262.93,292.43,273,280,273z" />
		<text transform="matrix(1 0 0 1 199.724 246.5399)">
			<tspan x="0" y="0" className="st8 st4 st3">Create Problem</tspan>
			<tspan x="0" y="14.4" className="st8 st4 st3">Statement</tspan>
		</text>
	</g>
	<g>
		<path d="M455.5,273h-75c-12.43,0-22.5-10.07-22.5-22.5v0c0-12.43,10.07-22.5,22.5-22.5h75c12.43,0,22.5,10.07,22.5,22.5v0
		C478,262.93,467.93,273,455.5,273z" />
		<text transform="matrix(1 0 0 1 386.9394 253.7399)" className="st8 st4 st3">User Stories</text>
	</g>
	<text transform="matrix(1 0 0 1 539.4125 253.7399)" className="st8 st4 st3">Workshop</text>
	<text transform="matrix(1 0 0 1 632.3862 253.7399)" className="st8 st4 st3">Wireframes</text>
	<text transform="matrix(1 0 0 1 738.2241 253.7399)" className="st8 st4 st3">Testing</text>
	<text transform="matrix(1 0 0 1 823.2241 246.5399)">
		<tspan x="0" y="0" className="st8 st4 st3">Functional </tspan>
		<tspan x="0" y="14.4" className="st8 st4 st3">Workshop</tspan>
	</text>
	<text transform="matrix(1 0 0 1 920.2514 253.7399)" className="st8 st4 st3">Implement</text>
	<text transform="matrix(1 0 0 1 593.0483 294.0399)" className="st4 st3">Design</text>
	<text transform="matrix(1 0 0 1 590.7084 214.0399)" className="st4 st3">Discuss</text>
	<text transform="matrix(1 0 0 1 683.4282 294.0399)" className="st4 st3">Validation</text>
	<text transform="matrix(1 0 0 1 683.3144 214.0399)" className="st4 st3">Prototype</text>
	<text transform="matrix(1 0 0 1 810.1205 304.0399)" className="st4 st3">Present to Devs</text>
	<text transform="matrix(1 0 0 1 787.3749 210.0399)" className="st4 st3">Present to Stakeholders</text>
</svg>