<svg xmlns="http://www.w3.org/2000/svg" fill="black" viewBox="0 0 420 70"><defs><clipPath clipPathUnits="userSpaceOnUse"><path d="M0 808.92h1977.082V0H0z"></path></clipPath></defs><g transform="matrix(1.33333 0 0 -1.33333 0 70)"><g transform="matrix(.30322 0 0 .30322 -142.525 -96.39)"><g clip-path="url(#clipPath18)"><g transform="translate(470.038 446.896)"><path fill-opacity="1" fill-rule="nonzero" stroke="none" d="M0 0h33.596v15.55c0 18.933 10.584 28.585 28.588 28.585h51.604V22.234H73.135c-4.271 0-6.125-2.228-6.125-6.129V0h46.219v-24.314H67.01v-95.41H33.596v95.41H0z"></path></g><g transform="translate(744.65 394.551)"><path fill-opacity="1" fill-rule="nonzero" stroke="none" d="M0 0v-1.114c0-41.763-23.389-67.195-79.075-67.195-55.685 0-79.259 25.432-79.259 67.195V0c0 41.764 23.574 67.195 79.259 67.195C-23.389 67.195 0 41.764 0 0m-33.411-.929v.744c0 27.841-14.107 37.493-45.664 37.493-31.556 0-45.663-9.652-45.663-37.493v-.744c0-27.841 14.107-37.496 45.663-37.496 31.557 0 45.664 9.655 45.664 37.496"></path></g><g transform="translate(866.797 369.678)"><path fill-opacity="1" fill-rule="nonzero" stroke="none" d="M0 0c0-21.905-13.364-43.436-53.458-43.436-38.24 0-60.885 18.378-60.885 53.832V91.14h33.41V14.478c0-17.449 10.955-28.956 39.91-28.956C-21.531-14.478 0-10.951 0 6.125V91.14h33.411V-42.507H0z"></path></g><g transform="translate(946.008 418.31)"><path fill-opacity="1" fill-rule="nonzero" stroke="none" d="M0 0c0 21.905 13.364 43.436 53.458 43.436 38.425 0 60.885-18.378 60.885-53.832v-80.743H80.929v76.661c0 17.45-10.95 28.956-39.906 28.956C21.161 14.478 0 10.396 0-6.125v-85.014h-33.411V42.507H0z"></path></g><g transform="translate(1194.17 490.743)"><path fill-opacity="1" fill-rule="nonzero" stroke="none" d="M0 0h33.226v-163.571H0v37.492C0-143.154-14.107-164.5-55.871-164.5c-49.376 0-69.423 26.916-69.423 67.38v.744c0 40.464 20.047 67.38 69.423 67.38C-14.107-28.996 0-50.342 0-67.421zm-45.291-57.026c-31.186 0-46.592-9.836-46.592-39.35v-.744c0-29.514 15.406-39.351 46.592-39.351 23.76 0 45.291 3.339 45.291 16.706v46.034c0 13.363-21.531 16.705-45.291 16.705"></path></g><g transform="translate(1324.799 461.746)"><path fill-opacity="1" fill-rule="nonzero" stroke="none" d="M0 0c4.641 0 6.868-.185 9.84-.929v-33.04c-22.649 5.199-61.259 4.085-61.259-17.076v-83.53H-84.83V-.929h33.411V-44.92C-51.419-21.905-38.052 0 0 0"></path></g><g transform="translate(1359.846 317.889)"><path fill-opacity="1" fill-rule="nonzero" stroke="none" d="M0 0v28.215h19.862c20.418 0 30.069 4.455 38.981 16.335H40.65l-62.181 98.378h38.052l51.418-82.231 43.062 82.231h36.198L93.552 44.55C74.249 8.353 59.398 0 0 0"></path></g></g></g></g></svg>