<svg xmlns="http://www.w3.org/2000/svg" enable-background="new 0 0 282.8 167.3" viewBox="0 0 282.8 167.3" width="100%"
    fill="url(#grad)">
    <defs>
        <linearGradient id="grad" x1="0%" y1="0%" x2="0%" y2="100%">
            <stop offset="0%" style="stop-color:#ec008c;stop-opacity:1" />
            <stop offset="100%" style="stop-color:#7732fc;stop-opacity:1" />
        </linearGradient>
    </defs>
    <path
        d="M97.1 45.1c1.9-1.6 3.8-3.2 5.6-4.9l5.1-4.5c.3-.2.8-.4 1.1-.3.2.1.4.7.4 1v35c0 .7.2 1.2.8 1.5 4.8 2.8 9.7 5.7 14.5 8.6.2.1.5.3.9.5v-1.2-55.2c0-.8.2-1.3.8-1.9C134 16 141.8 8.4 149.5.7c.4-.4.8-1 1.3-.6.3.4.4 1 .4 1.5v130c0 .5-.2 1-.3 1.4h-.9c-.1-.1-.2-.3-.3-.4l-13.8-12-32.1-27.9c-2.2-1.9-4.5-3.8-6.7-5.7V45.1zM159.1 133c-.1-.4-.3-.8-.3-1.3V27.1c0-.4.3-.8.4-1.2.4.1.9.2 1.2.5 8.3 6.9 16.5 13.8 24.7 20.7.4.3.6 1 .6 1.4V108.4c0 .7-.2 1.2-.7 1.7-8.1 7.4-16.3 14.8-24.4 22.2l-.6.6c-.3.1-.6.1-.9.1zM185.7 31.1v7.3c0 .4-.2.9-.4 1-.3.1-.8-.1-1.1-.3-8.2-6.8-16.5-13.7-24.7-20.5-.5-.4-.7-.8-.7-1.4V2.6c0-.4.2-1 .4-1 .3-.1.9.1 1.1.3 8.2 6.8 16.4 13.7 24.7 20.5.5.4.7.9.7 1.5v7.2z"
        class="st0"></path>
</svg>