<?xml version="1.0" encoding="utf-8"?>
<!-- Generator: Adobe Illustrator 24.0.3, SVG Export Plug-In . SVG Version: 6.00 Build 0)  -->
<svg version="1.1" id="Layer_1" xmlns="http://www.w3.org/2000/svg" xmlns:xlink="http://www.w3.org/1999/xlink" x="0px" y="0px"
	 viewBox="0 0 24 24" style="enable-background:new 0 0 24 24;" xml:space="preserve">
<g>
	<path d="M1,1.3h22v21.4H1V1.3z M0,23.7h24V0.3H0V23.7z M17,11.6c0.5,0,0.7,0,0.7,0c0-0.1,0-0.1,0-0.2c0-0.6-0.3-1.5-1.3-1.5
		c-1,0-1.4,0.8-1.5,1.7H17L17,11.6z M15,13c0,1.3,0.6,2.3,2.2,2.3c0.6,0,1.1-0.1,1.6-0.3c0.1,0,0.1,0,0.1,0.1v1.2
		c0,0.1,0,0.1-0.1,0.2c-0.5,0.3-1.2,0.4-2,0.4c-2.6,0-3.6-1.9-3.6-4.1c0-2.4,1.2-4.3,3.4-4.3c2.2,0,2.9,1.8,2.9,3.3
		c0,0.5,0,0.9-0.1,1.1c0,0.1,0,0.1-0.1,0.1c-0.2,0-0.8,0.1-1.7,0.1H15L15,13z M9.6,11.9c-0.3-1.1-1-3.5-1.2-4.7h0
		c-0.2,1.2-0.8,3.1-1.2,4.7H9.6z M6.8,13.6l-0.8,3c0,0.1,0,0.1-0.1,0.1H4.4c-0.1,0-0.1,0-0.1-0.1l2.8-9.9c0-0.2,0.1-0.3,0.1-0.8
		c0-0.1,0-0.1,0.1-0.1h2.1c0.1,0,0.1,0,0.1,0.1l3.2,10.8c0,0.1,0,0.1-0.1,0.1h-1.7c-0.1,0-0.1,0-0.1-0.1l-0.8-3H6.8L6.8,13.6z"/>
</g>
</svg>
