<?xml version="1.0" encoding="utf-8"?>
<!-- Generator: Adobe Illustrator 24.0.3, SVG Export Plug-In . SVG Version: 6.00 Build 0)  -->
<svg version="1.1" id="Layer_1" xmlns="http://www.w3.org/2000/svg" xmlns:xlink="http://www.w3.org/1999/xlink" x="0px" y="0px"
	 viewBox="0 0 24 24" style="enable-background:new 0 0 24 24;" xml:space="preserve">
<g>
	<path d="M24,24H0V0h24V24z M1.2,22.8h21.7V1.1H1.2V22.8z"/>
	<path d="M21.1,17.7v-7c0-2.1-3.2-3.5-7.2-1.9v8.9h2.4v-7.6c1.2-0.4,2.7-0.2,2.7,0.8v6.8C19,17.7,21.1,17.7,21.1,17.7z M9.1,4.8H6.6
		L3,17.6l2,0.1l1-3.6h3.8l1,3.6H13L9.1,4.8z M6.5,12.1l1.3-5.4l1.4,5.4H6.5z"/>
</g>
</svg>
