<?xml version="1.0" encoding="utf-8"?>
<!-- Generator: Adobe Illustrator 24.0.3, SVG Export Plug-In . SVG Version: 6.00 Build 0)  -->
<svg version="1.1" id="Layer_1" xmlns="http://www.w3.org/2000/svg" xmlns:xlink="http://www.w3.org/1999/xlink" x="0px" y="0px"
	 viewBox="0 0 24 24" style="enable-background:new 0 0 24 24;" xml:space="preserve">
<g>
	<path d="M14.6,10.2c0.4-0.3,0.6-0.7,0.6-1.3c0-0.3-0.1-0.6-0.2-0.8s-0.3-0.4-0.5-0.5c-0.2-0.1-0.4-0.2-0.7-0.3
		c-0.3,0-0.5-0.1-0.8-0.1h-3v3.4l0,0h3.2C13.8,10.6,14.2,10.5,14.6,10.2z"/>
	<path d="M13.4,12.8H10v4h3.4c0.3,0,0.6,0,0.9-0.1c0.3-0.1,0.5-0.2,0.7-0.3c0.2-0.1,0.4-0.3,0.5-0.6c0.1-0.2,0.2-0.6,0.2-0.9
		c0-0.7-0.2-1.3-0.6-1.6C14.7,13,14.1,12.8,13.4,12.8z"/>
	<path d="M20.9,0H3.1C1.4,0,0,1.4,0,3.1v17.8l0,0C0,22.6,1.4,24,3.1,24h17.8c1.7,0,3.1-1.4,3.1-3.1V3.1C24,1.4,22.6,0,20.9,0z
		 M18.5,16.9c-0.3,0.5-0.7,1-1.2,1.3c-0.5,0.3-1,0.6-1.7,0.7c-0.6,0.2-1.2,0.2-1.9,0.2h-7V4.7h6.8c0.7,0,1.3,0.1,1.9,0.2
		C16.1,5,16.6,5.2,17,5.5s0.7,0.6,0.9,1.1s0.3,1,0.3,1.7c0,0.7-0.2,1.3-0.5,1.8c-0.3,0.5-0.8,0.9-1.5,1.2c0.9,0.3,1.6,0.7,2,1.3
		c0.4,0.6,0.7,1.4,0.7,2.3C18.9,15.8,18.8,16.4,18.5,16.9z"/>
</g>
</svg>
