<?xml version="1.0" encoding="utf-8"?>
<!-- Generator: Adobe Illustrator 24.0.3, SVG Export Plug-In . SVG Version: 6.00 Build 0)  -->
<svg version="1.1" id="Layer_1" xmlns="http://www.w3.org/2000/svg" xmlns:xlink="http://www.w3.org/1999/xlink" x="0px" y="0px"
	 viewBox="0 0 24 24" style="enable-background:new 0 0 24 24;" xml:space="preserve">
<g>
	<path d="M3.6,4.7l1.6,17.4L12,24l7-1.9l1.6-17.4C20.6,4.7,3.6,4.7,3.6,4.7z M17,12.6l0,0.6l-0.5,5.6l0,0.4L12,20.3l0,0l0,0
		l-4.4-1.2l-0.3-3.3h2.1l0.1,1.7l2.4,0.6l0,0l0,0l2.4-0.6l0.2-2.8h-2.6l0,0H7.3l-0.2-2.1H12l0,0h2.8l0.2-2.2h-3l0,0H6.9L6.7,8.3H12
		l0,0h5.3L17,12.6z"/>
	<polygon points="10.1,2.2 8.6,2.2 8.6,1.1 10.1,1.1 10.1,0 7.6,0 7.6,3.2 10.1,3.2 	"/>
	<polygon points="16.3,1.1 14.8,1.1 14.8,0.9 16.3,0.9 16.3,0 13.8,0 13.8,2.1 15.2,2.1 15.2,2.3 13.8,2.3 13.8,3.3 16.3,3.3 	"/>
	<polygon points="12.1,2.3 10.7,2.3 10.7,3.3 13.2,3.3 13.2,1.1 11.7,1.1 11.7,0.9 13.2,0.9 13.2,0 10.7,0 10.7,0 10.7,2.1 
		12.1,2.1 	"/>
</g>
</svg>
