<?xml version="1.0" encoding="utf-8"?>
<!-- Generator: Adobe Illustrator 24.0.3, SVG Export Plug-In . SVG Version: 6.00 Build 0)  -->
<svg version="1.1" id="Layer_1" xmlns="http://www.w3.org/2000/svg" xmlns:xlink="http://www.w3.org/1999/xlink" x="0px" y="0px"
	 viewBox="0 0 24 24" style="enable-background:new 0 0 24 24;" xml:space="preserve">
<g>
	<g>
		<path d="M0,24c0-8,0-16,0-24c8,0,16,0,24,0c0,8,0,16,0,24C16,24,8,24,0,24z M22.9,1C22.3,0.8,1.4,0.9,1,1c0,0.1,0,0.3,0,0.5
			c0,6.9,0,13.9,0,20.8c0,0.2,0,0.4,0.1,0.5c0.6,0.1,21.5,0.1,21.9,0C23.1,22.4,23.1,1.5,22.9,1z"/>
		<path d="M3.4,16.4c0-3.5,0-7,0-10.5c0.3,0,0.7-0.1,1-0.1c1.1,0,2.2-0.1,3.2,0.2C9,6.3,9.9,7.2,10.3,8.5c0.5,1.5,0.5,3.1,0.1,4.6
			c-0.5,1.8-1.8,3-3.7,3.2C5.6,16.5,4.5,16.4,3.4,16.4z M4.8,15c0.4,0,0.7,0,1,0c1.7,0,2.7-0.9,3.1-2.5c0.2-1,0.2-2,0-3
			C8.7,8.2,7.7,7.4,6.5,7.2c-0.6,0-1.1-0.1-1.7,0.1C4.8,9.9,4.8,12.4,4.8,15z"/>
		<path d="M15.8,8.7c0.5,0,1,0,1.5,0c0.5,2,0.8,4.1,1.2,6.2c0.3-0.4,1.3-5.7,1.4-6.2c0.5,0,0.9,0,1.4,0c-0.6,2.6-1.3,5.2-2,7.8
			c-0.6,0-1.1,0-1.7,0c-0.4-1.9-0.8-3.8-1.2-5.8c0,0-0.1,0-0.1,0c-0.3,0.9-0.4,1.9-0.6,2.9c-0.2,1-0.5,1.9-0.7,2.9
			c-0.6,0-1.1,0-1.7,0c-0.6-2.6-1.2-5.2-1.8-7.8c0.5-0.1,1,0,1.5-0.1c0.5,2,0.9,4,1.3,6C15,12.7,15.3,10.7,15.8,8.7z"/>
	</g>
</g>
</svg>
