<?xml version="1.0" encoding="utf-8"?>
<!-- Generator: Adobe Illustrator 24.0.3, SVG Export Plug-In . SVG Version: 6.00 Build 0)  -->
<svg version="1.1" id="Layer_1" xmlns="http://www.w3.org/2000/svg" xmlns:xlink="http://www.w3.org/1999/xlink" x="0px" y="0px"
	 viewBox="0 0 24 24" style="enable-background:new 0 0 24 24;" xml:space="preserve">
<path d="M0.2,13.5v-2.7h3.3v-0.2H0.2V8.3h3.6V8.1H0v5.6h3.7v-0.2L0.2,13.5L0.2,13.5z M6.7,9.7l-1.4,1.8L4,9.7H3.8l1.5,1.9l-1.6,2.1
	h0.2l1.5-2l1.5,2h0.2l-1.6-2.1l1.5-1.9L6.7,9.7L6.7,9.7z M7.5,15v-2.5h0c0.1,0.4,0.3,0.6,0.6,0.9c0.3,0.2,0.6,0.3,1.1,0.3
	c0.3,0,0.5,0,0.7-0.2c0.2-0.1,0.4-0.3,0.5-0.5c0.1-0.2,0.3-0.4,0.3-0.7c0.1-0.3,0.1-0.5,0.1-0.8c0-0.3,0-0.6-0.1-0.8
	s-0.2-0.5-0.3-0.7c-0.1-0.2-0.3-0.3-0.5-0.4C9.7,9.6,9.5,9.6,9.2,9.6c-0.2,0-0.4,0-0.6,0.1c-0.2,0-0.3,0.1-0.5,0.3
	C8,10,7.9,10.2,7.8,10.3c-0.1,0.1-0.2,0.3-0.2,0.5h0V9.6H7.4V15H7.5L7.5,15z M9.2,13.6c-0.5,0-0.9-0.2-1.2-0.5s-0.5-0.8-0.5-1.4
	c0-0.3,0-0.5,0.1-0.7c0.1-0.2,0.2-0.4,0.3-0.6c0.1-0.2,0.3-0.3,0.5-0.4c0.2-0.1,0.4-0.2,0.7-0.2c0.3,0,0.5,0,0.7,0.2
	c0.2,0.1,0.4,0.2,0.5,0.4c0.1,0.2,0.2,0.4,0.3,0.6c0.1,0.2,0.1,0.5,0.1,0.7c0,0.2,0,0.5-0.1,0.7c0,0.2-0.1,0.4-0.3,0.6
	c-0.1,0.2-0.3,0.3-0.5,0.5C9.7,13.6,9.4,13.6,9.2,13.6L9.2,13.6z M11.7,13.7v-2.3c0-0.2,0-0.4,0.1-0.6c0.1-0.2,0.2-0.4,0.3-0.6
	s0.3-0.3,0.5-0.4c0.2-0.1,0.4-0.1,0.7-0.1V9.5c-0.2,0-0.5,0-0.6,0.1c-0.2,0-0.3,0.1-0.5,0.2c-0.1,0.1-0.2,0.2-0.3,0.3
	c-0.1,0.1-0.1,0.3-0.2,0.4h0v-1h-0.2v4.1H11.7L11.7,13.7z M13.5,11.7h3.4c0-0.3,0-0.6-0.1-0.8c-0.1-0.3-0.2-0.5-0.3-0.7
	c-0.1-0.2-0.3-0.4-0.6-0.5s-0.5-0.2-0.8-0.2c-0.2,0-0.4,0-0.6,0.1c-0.2,0.1-0.4,0.2-0.6,0.4c-0.2,0.2-0.3,0.4-0.4,0.7
	c-0.1,0.3-0.1,0.6-0.1,0.9c0,0.3,0,0.6,0.1,0.8c0.1,0.3,0.2,0.5,0.3,0.7c0.1,0.2,0.3,0.3,0.6,0.4c0.2,0.1,0.5,0.1,0.8,0.1
	c0.5,0,0.8-0.1,1.2-0.4c0.3-0.3,0.5-0.6,0.6-1.1h-0.2c-0.1,0.4-0.2,0.8-0.5,1c-0.3,0.2-0.6,0.3-1.1,0.3c-0.3,0-0.5,0-0.7-0.1
	c-0.2-0.1-0.4-0.2-0.5-0.4s-0.2-0.4-0.3-0.6C13.6,12.2,13.5,12,13.5,11.7L13.5,11.7z M16.7,11.5h-3.2c0-0.3,0.1-0.5,0.2-0.8
	c0.1-0.2,0.2-0.4,0.3-0.6c0.1-0.2,0.3-0.3,0.5-0.4c0.2-0.1,0.4-0.1,0.6-0.1c0.3,0,0.5,0,0.7,0.1c0.2,0.1,0.4,0.2,0.5,0.4
	c0.1,0.2,0.2,0.4,0.3,0.6C16.7,11.1,16.7,11.3,16.7,11.5L16.7,11.5z M20.1,10.8h0.2c0-0.5-0.1-0.8-0.4-1c-0.3-0.2-0.6-0.3-1.1-0.3
	c-0.2,0-0.5,0-0.6,0.1c-0.2,0.1-0.3,0.1-0.4,0.2c-0.1,0.1-0.2,0.2-0.2,0.3c0,0.1-0.1,0.2-0.1,0.3c0,0.2,0,0.4,0.1,0.5
	c0.1,0.1,0.2,0.2,0.4,0.3c0.1,0,0.2,0.1,0.4,0.1s0.3,0.1,0.5,0.1c0.2,0,0.3,0.1,0.5,0.1s0.3,0.1,0.4,0.2c0.1,0.1,0.2,0.2,0.3,0.3
	c0.1,0.1,0.1,0.3,0.1,0.4c0,0.2,0,0.3-0.1,0.4s-0.2,0.2-0.3,0.3c-0.1,0.1-0.3,0.1-0.4,0.2c-0.1,0-0.3,0-0.5,0
	c-0.5,0-0.8-0.1-1.1-0.3c-0.3-0.2-0.4-0.6-0.4-1h-0.2c0,0.5,0.1,0.9,0.4,1.1c0.3,0.2,0.7,0.4,1.2,0.4c0.2,0,0.3,0,0.5,0
	c0.2,0,0.3-0.1,0.5-0.2c0.1-0.1,0.2-0.2,0.3-0.3c0.1-0.1,0.1-0.3,0.1-0.5s0-0.4-0.1-0.5c-0.1-0.1-0.2-0.2-0.3-0.3
	c-0.1-0.1-0.3-0.1-0.4-0.2s-0.3-0.1-0.5-0.1c-0.2,0-0.4-0.1-0.6-0.1c-0.2,0-0.3-0.1-0.5-0.1c-0.1,0-0.2-0.1-0.3-0.2
	c-0.1-0.1-0.1-0.3-0.1-0.5c0,0,0-0.1,0-0.2c0-0.1,0.1-0.2,0.1-0.3c0.1-0.1,0.2-0.2,0.4-0.3c0.2-0.1,0.4-0.1,0.7-0.1
	c0.2,0,0.4,0,0.5,0.1c0.2,0,0.3,0.1,0.4,0.2c0.1,0.1,0.2,0.2,0.3,0.3C20.1,10.5,20.1,10.7,20.1,10.8L20.1,10.8z M23.7,10.8h0.2
	c0-0.5-0.1-0.8-0.4-1c-0.3-0.2-0.6-0.3-1.1-0.3c-0.2,0-0.5,0-0.6,0.1c-0.2,0.1-0.3,0.1-0.4,0.2c-0.1,0.1-0.2,0.2-0.2,0.3
	c0,0.1-0.1,0.2-0.1,0.3c0,0.2,0,0.4,0.1,0.5c0.1,0.1,0.2,0.2,0.4,0.3c0.1,0,0.2,0.1,0.4,0.1c0.1,0,0.3,0.1,0.5,0.1
	c0.2,0,0.3,0.1,0.5,0.1s0.3,0.1,0.4,0.2c0.1,0.1,0.2,0.2,0.3,0.3c0.1,0.1,0.1,0.3,0.1,0.4c0,0.2,0,0.3-0.1,0.4s-0.2,0.2-0.3,0.3
	c-0.1,0.1-0.3,0.1-0.4,0.2c-0.1,0-0.3,0-0.5,0c-0.5,0-0.8-0.1-1.1-0.3c-0.3-0.2-0.4-0.6-0.4-1h-0.2c0,0.5,0.1,0.9,0.4,1.1
	c0.3,0.2,0.7,0.4,1.2,0.4c0.2,0,0.3,0,0.5,0c0.2,0,0.3-0.1,0.5-0.2c0.1-0.1,0.2-0.2,0.3-0.3c0.1-0.1,0.1-0.3,0.1-0.5s0-0.4-0.1-0.5
	c-0.1-0.1-0.2-0.2-0.3-0.3c-0.1-0.1-0.3-0.1-0.4-0.2c-0.1,0-0.3-0.1-0.5-0.1c-0.2,0-0.4-0.1-0.6-0.1c-0.2,0-0.3-0.1-0.5-0.1
	c-0.1,0-0.2-0.1-0.3-0.2c-0.1-0.1-0.1-0.3-0.1-0.5c0,0,0-0.1,0-0.2c0-0.1,0.1-0.2,0.1-0.3c0.1-0.1,0.2-0.2,0.4-0.3
	c0.2-0.1,0.4-0.1,0.7-0.1c0.2,0,0.4,0,0.5,0.1c0.2,0,0.3,0.1,0.4,0.2c0.1,0.1,0.2,0.2,0.3,0.3C23.7,10.5,23.7,10.7,23.7,10.8
	L23.7,10.8z"/>
</svg>
