<?xml version="1.0" encoding="utf-8"?>
<!-- Generator: Adobe Illustrator 24.0.3, SVG Export Plug-In . SVG Version: 6.00 Build 0)  -->
<svg version="1.1" id="Layer_1" xmlns="http://www.w3.org/2000/svg" xmlns:xlink="http://www.w3.org/1999/xlink" x="0px" y="0px"
	 viewBox="0 0 24 24" style="enable-background:new 0 0 24 24;" xml:space="preserve">
<style type="text/css">
	.st0{fill:#FFFFFF;}
</style>
<g>
	<path d="M6,22.2v-2.1c0-0.1-0.1-0.2-0.2-0.2c-0.3,0-0.6,0.1-0.9,0.2v2.1H4.3v-3.9h0.6v1.3c0.3-0.1,0.6-0.2,0.9-0.2
		c0.5,0,0.7,0.3,0.7,0.8v2L6,22.2L6,22.2z M7.7,20.9c0,0.7,0.2,0.8,0.6,0.8c0.3,0,0.7-0.1,1-0.2l0.1,0.4c-0.3,0.1-0.7,0.3-1.2,0.3
		c-1,0-1.1-0.5-1.1-1.4c0-0.5,0-0.9,0.1-1.3c0.3-0.1,0.7-0.2,1.2-0.2c0.8,0,1,0.4,1,1.2v0.3L7.7,20.9L7.7,20.9z M8.4,19.9
		c-0.2,0-0.5,0-0.7,0c0,0.1-0.1,0.3-0.1,0.6h1.2C8.9,20.1,8.8,19.9,8.4,19.9L8.4,19.9z M10.6,20v2.1H10v-2.4c0.5-0.3,1-0.4,1.4-0.4
		v0.5C11.1,19.9,10.8,19.9,10.6,20L10.6,20z M12.9,22.2c-0.9,0-1.3-0.4-1.3-1.4c0-1,0.5-1.4,1.3-1.4c0.9,0,1.3,0.4,1.3,1.4
		C14.2,21.8,13.7,22.2,12.9,22.2L12.9,22.2z M12.9,19.9c-0.5,0-0.7,0.3-0.7,1c0,0.8,0.2,0.9,0.7,0.9c0.5,0,0.7-0.3,0.7-0.9
		C13.6,20,13.4,19.9,12.9,19.9L12.9,19.9z M17,22.2h-0.7c-0.2-0.4-0.4-0.9-0.7-1.3h-0.3v1.3h-0.6v-3.9h0.6v2.2h0.3
		c0.3-0.3,0.5-0.7,0.7-1.1h0.7c-0.2,0.5-0.5,0.9-0.8,1.2C16.5,21.1,16.8,21.6,17,22.2L17,22.2z M18.1,22.2c-0.5,0-0.7-0.3-0.7-0.8
		v-2H18v2.1c0,0.1,0.1,0.2,0.2,0.2c0.3,0,0.6-0.1,0.9-0.2v-2.1h0.6v2.4C19,22.2,18.5,22.2,18.1,22.2z M17.9,17.3H6.1
		c-1,0-1.8-0.8-1.8-1.8V0c0-1,0.8-1.8,1.8-1.8h11.7c1,0,1.8,0.8,1.8,1.8v15.4C19.7,16.5,18.9,17.3,17.9,17.3L17.9,17.3z"/>
	<path class="st0" d="M13.9,14.7V7.1c0,0,0.5-1.8-6.1,0.7c0,0,0-7,0-7l2.1,0v4.5c0,0,6-2.4,6,1.8v7.5H13.9L13.9,14.7z M15.2,3.5
		h-2.3c0.8-1,1.6-2.7,1.6-2.7h2.3C16.8,0.8,16.4,1.9,15.2,3.5L15.2,3.5z M7.9,14.6v-4.3l2.2,2.2L7.9,14.6L7.9,14.6z"/>
</g>
</svg>
