<?xml version="1.0" encoding="utf-8"?>
<!-- Generator: Adobe Illustrator 24.0.3, SVG Export Plug-In . SVG Version: 6.00 Build 0)  -->
<svg version="1.1" id="Layer_1" xmlns="http://www.w3.org/2000/svg" xmlns:xlink="http://www.w3.org/1999/xlink" x="0px" y="0px"
	 viewBox="0 0 24 24" style="enable-background:new 0 0 24 24;" xml:space="preserve">
<g>
	<path d="M3.6,4.7l1.5,17.4l6.9,1.9l7-1.9l1.6-17.4H3.6z M17.4,8.8l-0.1,1.1l0,0.5h-5.1l0,0h-3l0.2,2.2h2.8l0,0h4.9l0,0.6l-0.5,5.6
		l0,0.4l-4.4,1.2l0,0l0,0l-4.4-1.2l-0.3-3.3h2.1l0.1,1.7l2.4,0.6l0,0l0,0l2.4-0.6l0.2-2.8h-2.6l0,0H7.4L6.8,8.9l0-0.6h5.3l0,0h5.3
		L17.4,8.8z"/>
	<polygon points="19.1,2.2 17.6,2.2 17.6,0 16.5,0 16.5,0 16.5,3.2 19.1,3.2 	"/>
	<polygon points="13.4,1.6 14.1,2.8 14.1,2.8 14.9,1.6 14.9,3.2 16,3.2 16,0 14.8,0 14.1,1.1 13.4,0 12.3,0 12.3,3.2 13.4,3.2 	"/>
	<polygon points="9.8,1.1 9.8,1.1 9.8,3.2 10.9,3.2 10.9,1.1 11.8,1.1 11.8,0 8.9,0 8.9,1.1 	"/>
	<polygon points="6.3,3.2 6.3,2.2 7.3,2.2 7.3,3.2 8.4,3.2 8.4,0 7.3,0 7.3,1.1 6.3,1.1 6.3,0 5.2,0 5.2,3.2 	"/>
</g>
</svg>
