<?xml version="1.0" encoding="utf-8"?>
<!-- Generator: Adobe Illustrator 24.0.3, SVG Export Plug-In . SVG Version: 6.00 Build 0)  -->
<svg version="1.1" id="Layer_1" xmlns="http://www.w3.org/2000/svg" xmlns:xlink="http://www.w3.org/1999/xlink" x="0px" y="0px"
	 viewBox="0 0 24 24" style="enable-background:new 0 0 24 24;" xml:space="preserve">
<g>
	<path d="M1,1.2h22v21.4H1V1.2z M0,23.6h24V0.2H0C0,0.2,0,23.6,0,23.6z M15.7,8.6c0-0.1,0-0.1,0.1-0.1h1.6c0.1,0,0.1,0,0.1,0.1v7.9
		c0,0.1,0,0.1-0.1,0.1h-1.5c-0.1,0-0.1,0-0.1-0.1L15.7,8.6L15.7,8.6L15.7,8.6z M15.6,6.3c0-0.6,0.5-1,1-1c0.6,0,1,0.4,1,1
		c0,0.6-0.4,1-1,1C16,7.3,15.6,7,15.6,6.3z M11.1,11.9c-0.3-1.1-0.9-3.5-1.2-4.7h0c-0.2,1.2-0.7,3.1-1.2,4.7H11.1z M8.3,13.5l-0.8,3
		c0,0.1,0,0.1-0.1,0.1H5.9c-0.1,0-0.1,0-0.1-0.1l2.8-9.9c0-0.2,0.1-0.3,0.1-0.8c0-0.1,0-0.1,0.1-0.1h2.1c0.1,0,0.1,0,0.1,0.1
		l3.2,10.8c0,0.1,0,0.1-0.1,0.1h-1.7c-0.1,0-0.1,0-0.1-0.1l-0.8-3H8.3L8.3,13.5z"/>
</g>
</svg>
