<?xml version="1.0" encoding="utf-8"?>
<!-- Generator: Adobe Illustrator 24.0.3, SVG Export Plug-In . SVG Version: 6.00 Build 0)  -->
<svg version="1.1" id="Layer_1" xmlns="http://www.w3.org/2000/svg" xmlns:xlink="http://www.w3.org/1999/xlink" x="0px" y="0px"
	 viewBox="0 0 24 24" style="enable-background:new 0 0 24 24;" xml:space="preserve">
<g>
	<path d="M1,1.2h22v21.4H1V1.2z M0,23.6h24V0.2H0V23.6z M15.2,10c-0.1-0.1-0.4-0.1-0.6-0.1c-1.3,0-2.2,1-2.2,2.6
		c0,1.9,0.9,2.6,2.1,2.6c0.2,0,0.5,0,0.7-0.1V10z M14.7,8.3c0.2,0,0.3,0,0.5,0V5.7c0-0.1,0-0.1,0.1-0.1h1.6c0.1,0,0.1,0,0.1,0.1V15
		c0,0.3,0,0.6,0,1c0,0.1,0,0.1-0.1,0.1c-0.9,0.4-1.8,0.6-2.6,0.6c-2.2,0-3.8-1.4-3.8-4.2C10.6,10.2,12.1,8.3,14.7,8.3L14.7,8.3z
		 M8.8,16.5c0,0.1,0,0.1-0.1,0.1H7.2c-0.1,0-0.1,0-0.1-0.1V5.7c0-0.1,0-0.1,0.1-0.1h1.6c0.1,0,0.1,0,0.1,0.1L8.8,16.5L8.8,16.5z"/>
</g>
</svg>
