<?xml version="1.0" encoding="utf-8"?>
<!-- Generator: Adobe Illustrator 24.0.3, SVG Export Plug-In . SVG Version: 6.00 Build 0)  -->
<svg version="1.1" id="Layer_1" xmlns="http://www.w3.org/2000/svg" xmlns:xlink="http://www.w3.org/1999/xlink" x="0px" y="0px"
	 viewBox="0 0 24 24" style="enable-background:new 0 0 24 24;" xml:space="preserve">
<g>
	<path d="M0,0v24h24V0H0z M13.1,18.7c0,2.3-1.4,3.4-3.4,3.4c-1.8,0-2.9-0.9-3.4-2.1l0,0l0,0l0,0L8.2,19c0.4,0.6,0.7,1.2,1.4,1.2
		c0.7,0,1.2-0.3,1.2-1.4V11h2.3V18.7z M18.4,22.1c-2.1,0-3.5-1-4.1-2.3l0,0l1.8-1.1c0.5,0.8,1.1,1.4,2.2,1.4c0.9,0,1.5-0.5,1.5-1.1
		c0-0.8-0.6-1.1-1.6-1.5l-0.6-0.2c-1.6-0.7-2.7-1.6-2.7-3.4c0-1.7,1.3-3,3.3-3c1.4,0,2.5,0.5,3.2,1.8l-1.8,1.1c-0.4-0.7-0.8-1-1.4-1
		c-0.7,0-1.1,0.4-1.1,1c0,0.7,0.4,1,1.4,1.4l0.6,0.2c1.9,0.8,3,1.7,3,3.6C22.1,21,20.5,22.1,18.4,22.1z"/>
	<path d="M6.3,20.1L6.3,20.1L6.3,20.1z"/>
</g>
</svg>
