<?xml version="1.0" encoding="utf-8"?>
<!-- Generator: Adobe Illustrator 24.0.3, SVG Export Plug-In . SVG Version: 6.00 Build 0)  -->
<svg version="1.1" id="Layer_1" xmlns="http://www.w3.org/2000/svg" xmlns:xlink="http://www.w3.org/1999/xlink" x="0px" y="0px"
	 viewBox="0 0 24 24" style="enable-background:new 0 0 24 24;" xml:space="preserve">
<g>
	<g>
		<path d="M23,9.7h1c0,0-1.9,2.5-2,2.7c0,0.1-0.1,0.1-0.2,0.2c-0.1,0.2-0.2,0.7-0.2,0.7h-0.9c0,0,0.1-0.5,0.1-0.8
			c0-0.2-0.1-0.5-0.2-0.7s-0.2-0.7-0.2-0.7h0.9l0.1,0.5L23,9.7"/>
		<path d="M21.1,10.2c0.2,0.1,0.3,0.7,0.3,0.7s-1,0-1.5,0h-0.5l-0.6,2.4H18c0,0,0.5-2.6,0.6-3.1c0-0.1,0.3-0.1,0.7-0.1H20
			C20.4,10.2,20.9,10.1,21.1,10.2 M17.1,11.4c0,0,0-0.1-0.1-0.3c-0.1-0.1-0.2-0.2-0.5-0.2c-0.7,0-0.7,0.5-0.7,0.5H17.1z M17.9,10.8
			c0.1,0.4-0.1,1.3-0.1,1.3s-1.1,0-1.7,0c-0.2,0-0.4,0-0.5,0.1c-0.1,0.1,0,0.3,0.1,0.4c0.1,0.1,0.3,0.1,0.4,0.1c0.5,0.1,1.5,0,1.5,0
			l-0.2,0.8c0,0-1.4,0.1-2.1-0.1c-0.1,0-0.3-0.1-0.4-0.2c0,0,0-0.1-0.1-0.1c0,0-0.1-0.1-0.1-0.2c-0.2-0.4,0-1.2,0.2-1.7
			c0,0,0-0.1,0.1-0.2c0-0.1,0.1-0.1,0.1-0.2c0,0,0,0,0-0.1c0,0,0-0.1,0.1-0.1c0.1-0.1,0.1-0.1,0.2-0.2c0.3-0.2,0.8-0.4,1.5-0.3
			c0.2,0,0.6,0.1,0.8,0.4C17.9,10.5,17.9,10.7,17.9,10.8L17.9,10.8z M14,10.1h0.8c0,0-0.5,2.2-0.7,3.2h-0.9c-0.7,0-1.2,0.1-1.5-0.4
			c-0.2-0.5,0-1.2,0.1-1.7c0.1-0.4,0.2-1.1,0.2-1.1h0.9c0,0-0.2,1.2-0.3,1.7c0,0.2-0.1,0.4,0,0.6c0.1,0.1,0.2,0.2,0.5,0.2
			c0.1,0,0.4,0,0.4,0L14,10.1 M10.2,11.7c0.1-0.3,0.2-0.6,0.2-0.9c0-0.3-0.3-0.6-0.4-0.6C9.5,10,9,10.2,8.8,10.4
			c-0.2,0.2-0.3,0.6-0.4,0.9c-0.1,0.3-0.1,0.6,0,0.8c0.2,0.4,0.8,0.3,1.5,0.3C10,12.3,10.1,12,10.2,11.7L10.2,11.7z M11.3,10.5
			c0.1,0.7-0.3,1.4-0.5,2.1c0.3,0,0.5,0,0.5,0c0,0-0.2,0.8-0.2,0.8c-0.2,0-0.9,0-1.2,0c-0.9,0-1.8,0-2.2-0.4
			c-0.2-0.2-0.3-0.5-0.3-0.7c0-0.4,0-0.8,0.1-1.1c0.1-0.3,0.2-0.6,0.3-0.8C8.2,9.7,8.9,9.2,10,9.3c0.2,0,0.5,0.1,0.7,0.2
			c0,0,0.1,0,0.1,0C11,9.7,11.3,10.1,11.3,10.5L11.3,10.5z M7.3,10.2c0,0.2-0.1,0.5-0.2,0.8H6.2c0.1-0.3,0.1-0.6,0.2-0.8
			C6.7,10.1,7,10.2,7.3,10.2 M6.2,11.2h0.9c-0.1,0.6-0.3,1.7-0.5,2.4c-0.1,0.5-0.2,0.8-0.5,1c0,0,0,0-0.1,0c0,0-0.3,0.1-0.5,0.1
			c-0.2,0-0.5,0-0.8,0c0.1-0.3,0.2-0.6,0.2-0.8c0.7,0.1,0.7-0.6,0.8-1.2C5.9,12.3,6.1,11.3,6.2,11.2"/>
		<g>
			<path d="M4.1,12.8L4.1,12.8c-0.3,0.7-0.9,1.1-1.7,1.1c-0.4,0-0.7-0.1-1-0.2c-0.5-0.2-0.9-0.6-1.2-1.1C-0.1,12-0.2,11,0.6,10.4
				c0,0-0.1,0.1-0.1,0.1l0,0C0,12.1,1.5,13.5,3,13.3C3.4,13.3,3.8,13.1,4.1,12.8"/>
			<path d="M3.2,12.2c0.4,0,0.8-0.2,1-0.4c-0.2,0.5-0.8,0.9-1.6,0.7c-0.7-0.1-1.3-0.8-1.4-1.4c0-0.5,0.1-0.8,0.4-1.2
				c-0.1,0.2-0.1,0.3-0.1,0.4C1.4,11.4,2.4,12.2,3.2,12.2"/>
			<path d="M4.2,10.8c0,0.1-0.4,0.4-0.6,0.4c-0.6,0.1-1-0.1-1.2-0.5c0,0-0.1-0.2-0.1-0.2c-0.1-0.3,0-0.7,0.2-0.9
				c-0.1,0.2-0.1,0.4,0,0.6c0,0.1,0.1,0.2,0.2,0.3c0.1,0.2,0.2,0.2,0.4,0.3C3.1,11,3.2,11,3.2,11C3.4,11.1,3.7,11.2,4.2,10.8"/>
		</g>
	</g>
</g>
</svg>
