<?xml version="1.0" encoding="utf-8"?>
<!-- Generator: Adobe Illustrator 24.0.3, SVG Export Plug-In . SVG Version: 6.00 Build 0)  -->
<svg version="1.1" id="Layer_1" xmlns="http://www.w3.org/2000/svg" xmlns:xlink="http://www.w3.org/1999/xlink" x="0px" y="0px"
	 viewBox="0 0 24 24" style="enable-background:new 0 0 24 24;" xml:space="preserve">
<g>
	<path d="M23.3,12.5C23.3,12.5,23.3,12.5,23.3,12.5c0.3-0.1,0.5-0.3,0.5-0.6c0-0.6-0.5-0.7-0.9-0.7c-0.3,0-0.6,0-0.9,0
		c-0.3,0-0.5,0-0.5,0l0,0c0,0-0.1,0.2-0.1,0.2c0.1,0,0.2,0,0.3,0c0.1,0,0.1,0.1,0.1,0.2c0,0.2,0,0.5,0,1.1c0,0.4,0,0.9,0,1.1
		c0,0.2,0,0.2-0.1,0.2c-0.1,0-0.1,0-0.2,0c0,0-0.1,0.2-0.1,0.2c0.3,0,0.9,0,1.2,0c0.3,0,0.6,0,0.8-0.1c0.4-0.2,0.6-0.4,0.6-0.8
		C24,12.8,23.7,12.6,23.3,12.5z M22.3,11.5C22.3,11.5,22.3,11.4,22.3,11.5c0.1-0.1,0.2-0.1,0.2-0.1c0.4,0,0.7,0.2,0.7,0.6
		c0,0.2-0.1,0.4-0.2,0.4c-0.1,0-0.2,0-0.4,0c-0.1,0-0.3,0-0.4,0c0,0,0,0,0,0C22.3,12.1,22.3,11.7,22.3,11.5z M22.8,14
		c-0.1,0-0.3,0-0.4,0c-0.1,0-0.1-0.1-0.1-0.2c0-0.2,0-0.7,0-1c0,0,0,0,0,0c0,0,0.2,0,0.2,0c0.6,0,0.9,0.2,0.9,0.7
		C23.5,13.8,23.2,14,22.8,14z"/>
	<path d="M20.6,11.5c-0.3-0.2-0.6-0.3-1.1-0.3c-0.5,0-0.7,0-1,0c-0.1,0-0.5,0-0.6,0l0,0c0,0-0.1,0.2-0.1,0.2c0.1,0,0.2,0,0.3,0
		c0.1,0,0.2,0.1,0.2,0.2c0,0.2,0,0.7,0,1c0,0.4,0,0.8,0,1.1c0,0.2,0,0.2-0.1,0.2c0,0-0.1,0-0.2,0c0,0-0.1,0.1-0.1,0.2l0,0
		c0.4,0,0.9,0,1.2,0c0.6,0,0.9-0.1,1.2-0.4c0.3-0.2,0.6-0.6,0.6-1.2C21.1,12.2,20.9,11.8,20.6,11.5z M20.2,13.7
		c-0.2,0.2-0.5,0.2-0.7,0.2c-0.2,0-0.4,0-0.5-0.1l0,0c-0.1,0-0.1-0.1-0.1-0.2s0-0.6,0-1c0-0.4,0-1.1,0-1.2c0,0,0-0.1,0-0.1
		c0,0,0.1,0,0.2,0c0.3,0,0.6,0,0.8,0.2c0.4,0.2,0.6,0.6,0.6,1.1C20.6,13.2,20.4,13.5,20.2,13.7z"/>
	<path d="M9,12.2c-0.2,0-0.5,0.1-0.7,0.2c-0.3,0.2-0.4,0.5-0.4,0.8c0,0.5,0.3,1.1,1,1.1c0.2,0,0.5-0.1,0.6-0.2
		c0.3-0.2,0.5-0.5,0.5-0.9C9.9,12.6,9.5,12.2,9,12.2z M9.3,13.9C9.2,14,9.1,14,9,14c-0.4,0-0.7-0.4-0.7-1c0-0.3,0.1-0.5,0.3-0.6
		c0.1,0,0.1-0.1,0.2-0.1c0.4,0,0.7,0.4,0.7,0.9C9.5,13.6,9.4,13.8,9.3,13.9z"/>
	<path d="M7.6,14.1c-0.1,0-0.2,0-0.2-0.1c0,0-0.1-0.1-0.1-0.1c0-0.1,0-0.2,0-0.4c0-0.2,0-0.4,0-0.5c0-0.5-0.2-0.8-0.6-0.8
		c-0.2,0-0.4,0.1-0.7,0.3l0,0c0,0,0,0,0,0c-0.1-0.2-0.3-0.3-0.5-0.3c-0.1,0-0.4,0.1-0.6,0.3h0c0,0,0,0,0,0c0,0,0-0.1,0-0.2v0
		c0,0,0-0.1,0-0.1c-0.1,0.1-0.5,0.1-0.7,0.2c0,0-0.1,0-0.1,0.1c0,0,0,0,0.1,0.1c0.1,0,0.2,0.1,0.3,0.1c0,0,0,0.1,0,0.1l0,0
		c0,0.3,0,0.8,0,1.1c0,0.1,0,0.1-0.1,0.2c0,0-0.1,0-0.2,0c0,0,0,0,0,0.1s0,0.1,0,0.1l0,0c0,0,0.1,0,0.2,0c0.1,0,0.2,0,0.3,0
		c0.1,0,0.2,0,0.3,0c0.1,0,0.1,0,0.1,0c0,0,0-0.1,0-0.2l-0.1,0c0,0-0.1,0-0.1,0c-0.1,0-0.1-0.1-0.1-0.1c0-0.2,0-0.6,0-0.9v-0.3
		c0,0,0-0.1,0-0.1c0.1-0.1,0.3-0.2,0.4-0.2c0.2,0,0.4,0.1,0.4,0.4c0,0.1,0,0.8,0,1c0,0.1,0,0.1-0.1,0.1c0,0-0.1,0-0.1,0
		c0,0,0,0-0.1,0c0,0,0,0,0,0.1c0,0,0,0.1,0,0.1c0,0,0.1,0,0.2,0c0.1,0,0.2,0,0.3,0c0.2,0,0.4,0,0.5,0c0,0,0,0,0,0c0,0,0-0.1,0-0.1
		c-0.1,0-0.1,0-0.1,0c0,0,0,0-0.1,0c0,0-0.1,0-0.1-0.1c0-0.1,0-0.3,0-0.5V13c0-0.2,0-0.3,0-0.4l0,0c0,0,0,0,0,0
		c0.2-0.1,0.3-0.2,0.4-0.2c0.3,0,0.4,0.2,0.4,0.4c0,0.2,0,0.9,0,1c0,0.1,0,0.1-0.1,0.2c0,0-0.1,0-0.2,0c0,0,0,0.1,0,0.2
		c0.1,0,0.3,0,0.6,0C7.2,14.1,7.3,14.1,7.6,14.1C7.5,14.1,7.5,14.1,7.6,14.1C7.5,14.2,7.6,14.1,7.6,14.1L7.6,14.1z"/>
	<path d="M14.9,12.6L14.9,12.6c0.1,0,0.2,0,0.2-0.1c0-0.1,0.1-0.1,0-0.2c0,0,0-0.1,0-0.1c-0.1,0.1-0.1,0.1-0.3,0.1
		c-0.1,0-0.2,0-0.3,0c-0.2,0-0.3-0.1-0.5-0.1h0c-0.2,0-0.5,0.1-0.6,0.2c-0.1,0.1-0.2,0.3-0.2,0.5c0,0.3,0.1,0.6,0.5,0.7l0,0v0
		c0,0-0.1,0.1-0.2,0.1c0,0-0.1,0-0.1,0.1c0,0,0,0,0,0.1l0,0c0,0.1,0.1,0.2,0.3,0.3l0,0c0,0,0,0,0,0c-0.2,0.2-0.4,0.3-0.4,0.3
		c-0.1,0.1-0.1,0.2-0.1,0.2c0,0.1,0.1,0.3,0.2,0.4c0.2,0.1,0.4,0.2,0.6,0.2c0.2,0,0.4,0,0.6-0.1c0.4-0.2,0.6-0.5,0.6-0.8
		c0-0.2-0.1-0.4-0.3-0.5c-0.1,0-0.5-0.1-0.7-0.1c0,0-0.1,0-0.1,0c-0.2,0-0.2-0.1-0.2-0.1c0-0.1,0.1-0.1,0.1-0.1l0,0c0,0,0,0,0,0
		c0,0,0,0,0.1,0c0.2,0,0.4-0.1,0.5-0.2c0.1-0.1,0.3-0.3,0.3-0.6c0,0,0-0.1,0-0.2l0,0c0,0,0,0,0,0L14.9,12.6
		C14.8,12.6,14.9,12.6,14.9,12.6z M13.9,14.3L13.9,14.3c0.3,0,0.5,0,0.6,0.1c0.2,0.1,0.2,0.2,0.2,0.3c0,0.2-0.2,0.5-0.6,0.5
		c-0.2,0-0.4,0-0.5-0.2c-0.1-0.1-0.1-0.2-0.1-0.3c0-0.1,0.1-0.2,0.3-0.4C13.8,14.3,13.8,14.3,13.9,14.3z M14.3,13.3
		c0,0.1-0.2,0.1-0.2,0.1c-0.4,0-0.5-0.3-0.5-0.6c0-0.3,0.1-0.5,0.4-0.5l0,0c0.3,0,0.5,0.2,0.5,0.6C14.4,13.1,14.4,13.3,14.3,13.3z"
		/>
	<path d="M12.5,14C12.5,14,12.5,13.9,12.5,14c0-0.2,0-0.6,0-0.9c0-0.2,0-0.4-0.1-0.6c-0.1-0.2-0.3-0.3-0.5-0.3
		c-0.2,0-0.5,0.1-0.6,0.3c0,0,0,0,0,0c0,0,0-0.1,0-0.2c0-0.1,0-0.1,0-0.1c-0.1,0.1-0.5,0.2-0.7,0.2c-0.1,0-0.1,0.1,0,0.1l0,0
		c0.1,0,0.2,0.1,0.3,0.1c0,0,0,0.1,0,0.1c0,0.3,0,0.8,0,1.1c0,0.1,0,0.1-0.1,0.2l0,0c-0.1,0-0.1,0-0.2,0c0,0,0,0.2,0,0.2
		c0,0,0.3,0,0.5,0c0.3,0,0.4,0,0.5,0c0,0,0-0.2,0-0.2c-0.1,0-0.1,0-0.2,0c-0.1,0-0.1,0-0.1-0.1c0-0.2,0-0.7,0-1c0-0.1,0-0.1,0-0.2
		c0.1-0.1,0.3-0.1,0.4-0.1s0.2,0,0.3,0.1c0.1,0.1,0.1,0.2,0.1,0.3c0,0.2,0,0.6,0,0.9c0,0.2,0,0.2-0.1,0.2c0,0-0.1,0-0.2,0
		c0,0,0,0.2,0,0.2c0.1,0,0.3,0,0.5,0c0.3,0,0.4,0,0.5,0c0,0,0-0.1,0-0.2C12.6,14,12.6,14,12.5,14z"/>
	<path d="M16.6,12.2c-0.2,0-0.5,0.1-0.7,0.2c-0.3,0.2-0.4,0.5-0.4,0.8c0,0.5,0.3,1.1,1,1.1c0.2,0,0.5-0.1,0.6-0.2
		c0.3-0.2,0.5-0.5,0.5-0.9C17.6,12.6,17.2,12.2,16.6,12.2z M16.9,13.9C16.9,14,16.8,14,16.7,14c-0.4,0-0.7-0.4-0.7-1
		c0-0.3,0.1-0.5,0.3-0.6c0.1,0,0.1-0.1,0.2-0.1l0,0c0.4,0,0.7,0.4,0.7,0.9C17.1,13.6,17.1,13.8,16.9,13.9z"/>
	<path d="M1.7,9C1.6,8.8,1.5,8.6,1.5,8.6l0,0c0,0,0,0,0,0c0,0.1,0,0.2-0.1,0.3c-0.2,0.2-1.2,1-1.3,2.8c-0.1,1.6,1.2,2.6,1.3,2.7
		c0.1,0.3,0.1,0.8,0.1,0.8l0.2,0.1c0,0,0-0.5,0-0.7c0-0.1,0-0.1,0.1-0.2c0,0,0.1-0.1,0.2-0.2l0,0l0,0c0.4-0.4,1.2-1.4,1-3
		C2.6,9.7,1.8,9.2,1.7,9z"/>
</g>
</svg>
