<?xml version="1.0" encoding="utf-8"?>
<!-- Generator: Adobe Illustrator 24.0.3, SVG Export Plug-In . SVG Version: 6.00 Build 0)  -->
<svg version="1.1" id="Layer_1" xmlns="http://www.w3.org/2000/svg" xmlns:xlink="http://www.w3.org/1999/xlink" x="0px" y="0px"
	 viewBox="0 0 24 24" style="enable-background:new 0 0 24 24;" xml:space="preserve">
<g>
	<g>
		<path d="M0,17.1h0.8V14L2,16.7c0.1,0.3,0.3,0.5,0.7,0.5s0.6-0.1,0.7-0.5L4.7,14v3.1h0.8V14c0-0.3-0.1-0.5-0.4-0.5
			c-0.6-0.2-1,0-1.2,0.4l-1.2,2.7l-1.2-2.7c-0.2-0.4-0.6-0.6-1.2-0.4C0.1,13.5,0,13.7,0,14V17.1L0,17.1L0,17.1z M6.2,14.6H7v1.7
			c0,0.1,0,0.3,0.5,0.3c0.2,0,1.7,0,1.7,0v-2.1h0.8v2.8c0,0.7-0.9,0.8-1.3,0.9H6.2v-0.5h2.5c0.5,0,0.5-0.3,0.5-0.4v-0.2H7.5
			c-0.8,0-1.3-0.4-1.3-0.7C6.2,16.3,6.2,14.6,6.2,14.6L6.2,14.6z M23.3,12.6c-0.5,0-0.9,0-1.2,0.2c-0.1,0-0.2,0-0.2,0.1
			c0,0,0,0.1,0.1,0.2c0.1,0.1,0.2,0.3,0.3,0.4c0.1,0.1,0.3,0.2,0.4,0.3c0.2,0.1,0.5,0.2,0.7,0.4c0.1,0.1,0.3,0.2,0.4,0.3
			c0.1,0,0.1,0.1,0.2,0.2v0c0,0,0-0.1-0.1-0.2c-0.1-0.1-0.1-0.1-0.2-0.2c-0.2-0.2-0.4-0.5-0.6-0.6c-0.2-0.1-0.6-0.3-0.7-0.6l0,0
			c0.1,0,0.3-0.1,0.4-0.1c0.2,0,0.4,0,0.6-0.1c0.1,0,0.2,0,0.3-0.1v0c-0.1-0.1-0.2-0.3-0.3-0.4c-0.3-0.3-0.6-0.5-1-0.7
			c-0.2-0.1-0.4-0.2-0.6-0.3c-0.1,0-0.2,0-0.2-0.1c-0.1-0.1-0.2-0.3-0.2-0.5c-0.2-0.3-0.3-0.7-0.5-1.1c-0.1-0.2-0.2-0.5-0.3-0.7
			c-0.6-1-1.3-1.7-2.4-2.3c-0.2-0.1-0.5-0.2-0.8-0.2c-0.1,0-0.3,0-0.5,0c-0.1,0-0.2-0.2-0.3-0.2c-0.3-0.2-1.2-0.7-1.5-0.1
			c-0.2,0.4,0.2,0.8,0.4,1c0.1,0.1,0.2,0.3,0.3,0.5c0,0.1,0,0.2,0.1,0.3c0.1,0.3,0.2,0.6,0.3,0.8c0.1,0.1,0.1,0.3,0.2,0.4
			c0,0.1,0.1,0.1,0.1,0.2c-0.1,0.1-0.1,0.3-0.1,0.5c-0.2,0.7-0.1,1.5,0.2,2c0.1,0.1,0.3,0.5,0.6,0.4c0.3-0.1,0.2-0.5,0.3-0.8
			c0-0.1,0-0.1,0-0.2v0c0.1,0.2,0.2,0.3,0.2,0.5c0.2,0.3,0.5,0.6,0.8,0.8c0.1,0.1,0.3,0.3,0.5,0.4v0h0c0,0-0.1-0.1-0.1-0.1
			c-0.1-0.1-0.2-0.2-0.3-0.4c-0.3-0.3-0.5-0.7-0.7-1.1c-0.1-0.2-0.2-0.4-0.3-0.6c0-0.1,0-0.2-0.1-0.2c-0.1,0.1-0.2,0.2-0.3,0.4
			c-0.1,0.3-0.1,0.6-0.2,0.9c0,0,0,0,0,0c-0.2,0-0.3-0.2-0.3-0.4c-0.2-0.4-0.2-1.1,0-1.6c0-0.1,0.2-0.5,0.1-0.6
			c0-0.1-0.2-0.2-0.2-0.3c-0.1-0.1-0.2-0.3-0.2-0.4c-0.1-0.3-0.2-0.7-0.4-1.1c-0.1-0.2-0.2-0.3-0.3-0.5s-0.2-0.3-0.3-0.5
			c0-0.1-0.1-0.2,0-0.2c0,0,0-0.1,0.1-0.1c0.1-0.1,0.3,0,0.4,0c0.2,0.1,0.4,0.2,0.6,0.3c0.1,0.1,0.2,0.2,0.3,0.2h0.1
			c0.2,0,0.4,0,0.6,0.1c0.3,0.1,0.6,0.3,0.9,0.4c0.8,0.5,1.5,1.2,1.9,2.1c0.1,0.1,0.1,0.3,0.2,0.4c0.1,0.3,0.3,0.6,0.4,0.9
			c0.1,0.3,0.2,0.6,0.4,0.8c0.1,0.1,0.5,0.2,0.6,0.3c0.1,0,0.3,0.1,0.4,0.2c0.2,0.1,0.4,0.3,0.6,0.4C23,12.3,23.3,12.5,23.3,12.6
			L23.3,12.6z"/>
		<path d="M17.1,7.3c-0.1,0-0.2,0-0.2,0v0h0c0,0.1,0.1,0.2,0.2,0.2c0,0.1,0.1,0.2,0.1,0.3l0,0c0.1-0.1,0.1-0.2,0.1-0.3
			c0,0,0-0.1-0.1-0.1C17.2,7.3,17.1,7.3,17.1,7.3L17.1,7.3z"/>
		<path d="M10.6,17.1h2.3c0.3,0,0.5,0,0.7-0.1c0.3-0.2,0.5-0.4,0.5-0.6v-0.6c0-0.2-0.2-0.4-0.6-0.6c-0.2-0.1-0.4-0.1-0.7-0.1h-1
			c-0.3,0-0.5-0.1-0.5-0.3c0,0,0,0,0-0.1v-0.4c0,0,0,0,0-0.1c0-0.2,0.1-0.2,0.4-0.2h2.4v-0.5h-2.2c-0.3,0-0.5,0-0.6,0.1
			c-0.5,0.1-0.7,0.4-0.7,0.8v0.5c0,0.4,0.4,0.7,1.1,0.7c0.1,0,0.1,0,0.2,0h0.9c0,0,0.1,0,0.1,0c0.2,0,0.4,0.1,0.4,0.2
			c0,0,0.1,0.1,0.1,0.1v0.5c0,0,0,0.1-0.1,0.2s-0.2,0.1-0.3,0.1c0,0,0,0-0.1,0h-2.2V17.1L10.6,17.1z M19.1,16.2
			c0,0.6,0.4,0.8,1.2,0.9c0.1,0,0.1,0,0.2,0h2.1v-0.5h-2.1c-0.5,0-0.6-0.1-0.6-0.4v-2.7h-0.8V16.2L19.1,16.2L19.1,16.2z M14.6,16.2
			v-1.9c0-0.5,0.3-0.8,1-0.9c0.1,0,0.1,0,0.2,0h1.5c0.1,0,0.1,0,0.2,0c0.7,0.1,1,0.4,1,0.9v1.9c0,0.4-0.1,0.6-0.5,0.7l0.8,0.7H18
			l-0.6-0.6l-0.6,0h-0.8c-0.1,0-0.3,0-0.5-0.1C14.9,16.9,14.6,16.7,14.6,16.2L14.6,16.2z M15.5,16.2C15.5,16.2,15.5,16.2,15.5,16.2
			c0.1,0.3,0.3,0.4,0.6,0.4h0.7L16.2,16H17l0.6,0.5c0.1-0.1,0.2-0.1,0.2-0.3c0,0,0,0,0-0.1v-1.8c0,0,0,0,0-0.1
			c0-0.2-0.2-0.3-0.6-0.3h-1.2c-0.4,0-0.6,0.1-0.6,0.4V16.2L15.5,16.2z M23,17.1h0.1v-0.5h0.1v-0.1h-0.4v0.1H23V17.1L23,17.1z
			 M23.8,17.1H24v-0.5h-0.2L23.6,17l-0.1-0.4h-0.2v0.5h0.1v-0.4l0,0l0.1,0.4h0.1l0.1-0.4L23.8,17.1L23.8,17.1L23.8,17.1z"/>
	</g>
</g>
</svg>
