<?xml version="1.0" encoding="utf-8"?>
<!-- Generator: Adobe Illustrator 24.0.3, SVG Export Plug-In . SVG Version: 6.00 Build 0)  -->
<svg version="1.1" id="Layer_1" xmlns="http://www.w3.org/2000/svg" xmlns:xlink="http://www.w3.org/1999/xlink" x="0px" y="0px"
	 viewBox="0 0 24 24" style="enable-background:new 0 0 24 24;" xml:space="preserve">
<g>
	<g>
		<path d="M22.1,11c0,0-0.1,0-0.2,0L20.3,12c-0.1,0-0.2,0.2-0.2,0.3v1.8c0,0.1,0.1,0.2,0.2,0.3l0.4,0.2c0.2,0.1,0.3,0.1,0.4,0.1
			c0.3,0,0.5-0.2,0.5-0.5v-1.8c0,0,0,0,0,0h-0.2c0,0,0,0,0,0v1.8c0,0.1-0.1,0.3-0.4,0.2l-0.4-0.3c0,0,0,0,0,0v-1.8c0,0,0,0,0,0
			l1.6-0.9c0,0,0,0,0,0l1.6,0.9c0,0,0,0,0,0v1.8c0,0,0,0,0,0L22.1,15c0,0,0,0,0,0l-0.4-0.2c0,0,0,0,0,0c-0.1,0.1-0.1,0.1-0.2,0.1
			c0,0-0.1,0,0,0.1l0.5,0.3c0,0,0.1,0,0.2,0c0,0,0.1,0,0.2,0l1.6-0.9c0.1,0,0.2-0.2,0.2-0.3v-1.8c0-0.1-0.1-0.2-0.2-0.3l-1.6-0.9
			C22.2,11,22.1,11,22.1,11L22.1,11z"/>
		<path d="M22.5,12.3c-0.5,0-0.7,0.2-0.7,0.5c0,0.3,0.3,0.4,0.7,0.5c0.5,0,0.6,0.1,0.6,0.2c0,0.2-0.1,0.3-0.5,0.3
			c-0.4,0-0.5-0.1-0.6-0.3c0,0,0,0,0,0h-0.2c0,0,0,0,0,0c0,0.3,0.1,0.6,0.8,0.6c0.5,0,0.8-0.2,0.8-0.6c0-0.3-0.2-0.4-0.7-0.5
			c-0.5-0.1-0.6-0.1-0.6-0.2c0-0.1,0-0.2,0.4-0.2c0.3,0,0.5,0.1,0.5,0.3c0,0,0,0,0,0h0.2c0,0,0,0,0,0l0,0
			C23.3,12.5,23,12.3,22.5,12.3L22.5,12.3z"/>
	</g>
	<path d="M12.7,8.6C12.7,8.6,12.7,8.6,12.7,8.6c-0.1,0-0.1,0.1-0.1,0.1v2.6c0,0,0,0,0,0.1c0,0,0,0-0.1,0l-0.4-0.2
		c-0.1,0-0.1,0-0.2,0l-1.7,1c-0.1,0-0.1,0.1-0.1,0.2v1.9c0,0.1,0,0.1,0.1,0.2l1.7,1c0.1,0,0.1,0,0.2,0l1.7-1c0.1,0,0.1-0.1,0.1-0.2
		V9.4c0-0.1,0-0.1-0.1-0.2L12.7,8.6C12.8,8.6,12.7,8.6,12.7,8.6L12.7,8.6z M1.9,11C1.8,11,1.8,11,1.9,11l-1.8,1c0,0-0.1,0.1-0.1,0.2
		v2.6c0,0,0,0.1,0,0.1s0.1,0,0.1,0l1-0.6c0.1,0,0.1-0.1,0.1-0.2V13c0-0.1,0-0.1,0.1-0.2l0.4-0.2c0,0,0.1,0,0.1,0c0,0,0.1,0,0.1,0
		l0.4,0.2c0.1,0,0.1,0.1,0.1,0.2v1.2c0,0.1,0,0.1,0.1,0.2l1,0.6c0,0,0.1,0,0.1,0c0,0,0,0,0-0.1v-2.6c0-0.1,0-0.1-0.1-0.2L1.9,11
		C2,11,1.9,11,1.9,11L1.9,11z M17,11.1C17,11.1,16.9,11.1,17,11.1l-1.8,1c-0.1,0-0.1,0.1-0.1,0.2v1.9c0,0.1,0,0.1,0.1,0.2l1.7,1
		c0.1,0,0.1,0,0.2,0l1-0.6c0,0,0,0,0-0.1s0-0.1,0-0.1l-1.7-1c0,0,0,0,0-0.1v-0.6c0,0,0-0.1,0-0.1l0.5-0.3c0,0,0.1,0,0.1,0l0.5,0.3
		c0,0,0,0,0,0.1v0.5c0,0,0,0.1,0,0.1s0.1,0,0.1,0l1-0.6c0.1,0,0.1-0.1,0.1-0.2v-0.5c0-0.1,0-0.1-0.1-0.2L17,11.1
		C17.1,11.1,17.1,11.1,17,11.1L17,11.1z M12,12.5L12,12.5l0.6,0.3c0,0,0,0,0,0v0.7c0,0,0,0,0,0L12,14c0,0,0,0,0,0l-0.6-0.3
		c0,0,0,0,0,0v-0.7c0,0,0,0,0,0L12,12.5L12,12.5L12,12.5L12,12.5z"/>
	<path d="M6.9,11.1C6.9,11.1,6.9,11.1,6.9,11.1l-1.8,1c-0.1,0-0.1,0.1-0.1,0.2v1.9c0,0.1,0,0.1,0.1,0.2l1.7,1c0.1,0,0.1,0,0.2,0
		l1.7-1c0.1,0,0.1-0.1,0.1-0.2v-1.9c0-0.1,0-0.1-0.1-0.2L6.9,11.1C7,11.1,7,11.1,6.9,11.1L6.9,11.1z M17,12.8L17,12.8L16.7,13
		c0,0,0,0,0,0v0.4c0,0,0,0,0,0l0.3,0.2c0,0,0,0,0,0l0.3-0.2c0,0,0,0,0,0V13c0,0,0,0,0,0L17,12.8C17,12.8,17,12.8,17,12.8L17,12.8z"
		/>
</g>
</svg>
