<?xml version="1.0" encoding="utf-8"?>
<!-- Generator: Adobe Illustrator 24.0.3, SVG Export Plug-In . SVG Version: 6.00 Build 0)  -->
<svg version="1.1" id="Layer_1" xmlns="http://www.w3.org/2000/svg" xmlns:xlink="http://www.w3.org/1999/xlink" x="0px" y="0px"
	 viewBox="0 0 24 24" style="enable-background:new 0 0 24 24;" xml:space="preserve">
<g>
	<path d="M0,7.3v8h6.7v1.3H12v-1.3h12v-8H0z M6.7,14H5.3v-4H4v4H1.3V8.7H4h2.7V14z M13.3,14h-2.6v1.3H8V8.7h5.3
		C13.3,8.7,13.3,14,13.3,14z M22.7,14h-1.3v-4H20v4h-1.3v-4h-1.3v4h-2.6V8.7h2.6h5.4C22.7,8.7,22.7,14,22.7,14z"/>
	<rect x="10.7" y="10" width="1.3" height="2.6"/>
</g>
</svg>
