<?xml version="1.0" encoding="utf-8"?>
<!-- Generator: Adobe Illustrator 24.0.3, SVG Export Plug-In . SVG Version: 6.00 Build 0)  -->
<svg version="1.1" id="Layer_1" xmlns="http://www.w3.org/2000/svg" xmlns:xlink="http://www.w3.org/1999/xlink" x="0px" y="0px"
	 viewBox="0 0 24 24" style="enable-background:new 0 0 24 24;" xml:space="preserve">
<g>
	<path d="M1,1.3h22v21.4H1V1.3z M0,23.7h24V0.3H0V23.7z M14.4,10.2c0-0.1,0-0.4,0-1c0-0.1,0-0.1,0.1-0.1c0.6-0.2,2-0.7,3.6-0.7
		c0.1,0,0.1,0,0.1,0.1v1.4c0,0.1,0,0.1-0.1,0.1c-0.6,0-1.5,0-1.9,0.2v6.3c0,0.1,0,0.1-0.1,0.1h-1.6c-0.1,0-0.1,0-0.1-0.1L14.4,10.2
		L14.4,10.2z M8,11.1c0.2,0,0.4,0,0.8,0c1.2,0,2.3-0.4,2.3-2c0-1.3-0.8-1.9-2.1-1.9c-0.4,0-0.8,0-1,0L8,11.1L8,11.1z M6.2,5.8
		c0-0.1,0-0.1,0.1-0.1c0.6,0,1.6,0,2.6,0c2.8,0,4,1.5,4,3.5c0,2.5-1.8,3.6-4.1,3.6c-0.4,0-0.5,0-0.8,0v3.8c0,0.1,0,0.1-0.1,0.1H6.3
		c-0.1,0-0.1,0-0.1-0.1L6.2,5.8L6.2,5.8L6.2,5.8z"/>
</g>
</svg>
