<?xml version="1.0" encoding="utf-8"?>
<!-- Generator: Adobe Illustrator 24.0.3, SVG Export Plug-In . SVG Version: 6.00 Build 0)  -->
<svg version="1.1" id="Layer_1" xmlns="http://www.w3.org/2000/svg" xmlns:xlink="http://www.w3.org/1999/xlink" x="0px" y="0px"
	 viewBox="0 0 24 24" style="enable-background:new 0 0 24 24;" xml:space="preserve">
<g>
	<path d="M0,0.5v23.4h24V0.5H0z M1,1.4h22v21.4H1V1.4z"/>
	<path d="M17.5,10.3c-0.1-0.1-0.3-0.1-0.6-0.1c-1.2,0-2.1,1-2.1,2.6c0,1.8,0.9,2.6,2,2.6c0.2,0,0.5,0,0.7-0.1L17.5,10.3L17.5,10.3z
		 M13,12.8c0-2.3,1.5-4.2,4-4.2c0.2,0,0.3,0,0.5,0V6.1c0,0,0-0.1,0.1-0.1h1.6c0.1,0,0.1,0,0.1,0.1v9.1c0,0.3,0,0.6,0,1
		c0,0.1,0,0.1,0,0.1c-0.8,0.4-1.7,0.6-2.6,0.6C14.5,16.9,13,15.6,13,12.8L13,12.8z M9.6,11.2l2.8,5.4c0,0.1,0,0.2,0,0.2h-1.8
		c-0.1,0-0.2,0-0.2-0.1c-0.6-1.3-1.3-2.7-1.9-4.1h0c-0.6,1.3-1.2,2.8-1.9,4.1c0,0.1-0.1,0.1-0.2,0.1H4.6c-0.1,0-0.1-0.1,0-0.1
		l2.7-5.3L4.7,6.1c0-0.1,0-0.1,0.1-0.1h1.7c0.1,0,0.1,0,0.2,0.1c0.6,1.3,1.3,2.6,1.9,4h0c0.6-1.3,1.2-2.6,1.8-4
		c0-0.1,0.1-0.1,0.2-0.1h1.6c0.1,0,0.1,0,0,0.1L9.6,11.2L9.6,11.2z"/>
</g>
</svg>
