<?xml version="1.0" encoding="utf-8"?>
<!-- Generator: Adobe Illustrator 24.0.3, SVG Export Plug-In . SVG Version: 6.00 Build 0)  -->
<svg version="1.1" id="Layer_1" xmlns="http://www.w3.org/2000/svg" xmlns:xlink="http://www.w3.org/1999/xlink" x="0px" y="0px"
	 viewBox="0 0 24 24" style="enable-background:new 0 0 24 24;" xml:space="preserve">
<g>
	<path d="M24,11.7C23.8,5.2,18.6,0,12,0C5.2,0-0.3,5.7,0,12.6C0.3,18.8,5.4,23.9,11.7,24C18.5,24.2,24.2,18.6,24,11.7z M20,16.3
		c-0.2,0.3-0.4,0.6-0.8,0.6c-0.7,0.1-1.2,0.4-1.8,0.8c-0.9,0.6-1.9,1.1-3,1.4c-0.1,0-0.1,0.1-0.2,0.1c-0.3,0.2-0.6,0.3-1,0.3
		c-1,0.1-2.1,0.2-3.1,0.3c-0.4,0-0.9,0-1.2-0.3c-0.1-0.1-0.2-0.2-0.3-0.2c-0.1,0-0.2,0.1-0.3,0.1c-0.7,0.1-1.3,0-1.9-0.3
		C6.2,19,6,18.7,6,18.3c0-0.1,0-0.2-0.1-0.3c-0.3-0.4-0.4-0.8-0.5-1.3c-0.1-0.9,0.2-1.7,0.8-2.3c0.1-0.1,0.1-0.1,0.1-0.2
		c0-0.9,0.2-1.8,0.6-2.6c0.3-0.4,0.6-0.8,1-1.2C8,10.3,8,10.2,8,10.2C7.8,9.9,7.7,9.6,7.6,9.3c0,0,0,0,0,0c0,0,0,0,0,0
		c0,0,0,0.1,0,0c0-0.1,0-0.1,0-0.2c0-0.3,0-0.5,0-0.8c0,0,0,0,0,0.1c0.1-0.3,0.2-0.6,0.3-0.9C8.1,7.3,8.3,7.1,8.6,7
		c0.2-0.1,0.4-0.2,0.5-0.3c0.6-0.6,1.2-0.9,2-1c0.1,0,0.2-0.1,0.2-0.2c0.1-0.3,0.3-0.6,0.5-0.8c0.3-0.3,0.6-0.6,1-0.5
		c0.3,0,0.5,0.1,0.7,0.4C13.7,4.7,13.8,5,14,5.3c0,0.1,0.1,0.1,0.2,0.1c0.4-0.1,0.7,0.1,0.9,0.5c0.2,0.5,0.3,0.9,0.4,1.4
		c0.1,1,0,2-0.3,3c-0.2,0.6-0.5,1.1-0.8,1.6c0,0.1-0.1,0.1,0,0.2c0.9,1,1.4,2.3,1.3,3.6v0.1c0.1,0,0.1,0,0.2-0.1
		c0.4-0.2,0.8-0.5,1.2-0.7c0.6-0.3,1.2-0.5,1.8-0.5C19.8,14.5,20.5,15.5,20,16.3z"/>
	<path d="M7.6,9C7.6,9,7.6,9,7.6,9C7.6,9,7.6,9,7.6,9l0-0.3c0,0,0,0,0,0c0,0,0,0,0,0c0,0,0-0.1,0-0.1c0,0,0,0,0,0c0,0,0,0,0,0
		c0,0,0,0,0-0.1c0,0,0,0,0,0c0,0,0,0,0-0.1c-0.1,0.2,0,0.5,0,0.8c0,0.1,0,0.2,0,0.2c0,0,0,0,0,0c0,0,0,0,0,0c0-0.1,0-0.1,0-0.2
		C7.5,9.1,7.6,9,7.6,9z"/>
	<path d="M18.8,15.2c-0.4,0-0.8,0.1-1.1,0.2c-0.5,0.2-0.9,0.5-1.3,0.7c-0.4,0.2-0.8,0.4-1.3,0.5c-0.2,0-0.2,0-0.2-0.2
		c0-0.2,0.1-0.5,0.1-0.7c-0.1-0.2,0-0.4,0-0.6c0,0,0-0.1,0-0.1c0,0,0,0,0,0c0,0,0-0.1,0-0.1c-0.2-1.1-0.6-2-1.4-2.7
		c-0.2-0.1-0.2-0.2,0-0.3c0.3-0.5,0.7-1,0.9-1.5c0.2-0.6,0.4-1.2,0.4-1.8v0c0,0,0-0.1,0-0.1V7.7c0,0,0-0.1,0-0.1c0,0,0,0,0,0
		c0-0.1,0-0.2,0-0.3c0-0.4-0.1-0.8-0.3-1.1c-0.1-0.1-0.1-0.1-0.2-0.1c-0.1,0.1-0.3,0.1-0.4,0.2c-0.1,0.1-0.1,0-0.2-0.1
		C13.5,5.8,13.3,5.4,13,5c-0.1-0.2-0.3-0.2-0.5-0.1c-0.1,0.1-0.2,0.2-0.3,0.3c-0.2,0.3-0.3,0.6-0.5,1c0,0.1-0.1,0.1-0.2,0.1
		c-0.8,0-1.5,0.2-2,0.8C9.4,7.3,9.1,7.5,8.8,7.6c-0.1,0-0.1,0.1-0.2,0.1C8.4,8.2,8.2,8.6,8.3,9.1c0.1,0.5,0.3,0.8,0.6,1.2
		c0.1,0.1,0,0.1,0,0.1c-0.1,0.1-0.2,0.2-0.3,0.2C7.5,11.6,7,12.8,7,14.2c0,0.2,0,0.4-0.2,0.6c-0.3,0.3-0.5,0.6-0.6,1.1
		c-0.1,0.5,0,1.1,0.2,1.5c0.1,0.2,0.2,0.4,0.6,0.3c-0.1,0.1-0.2,0.3-0.2,0.4c-0.1,0.2,0,0.4,0.2,0.5c0.3,0.2,0.7,0.2,1.1,0.2
		c0.4,0,0.6-0.2,0.8-0.6c0.1-0.1,0.1-0.2,0.1-0.4c0-0.2,0.1-0.4,0.1-0.6c0-0.1,0-0.1,0.1,0c0.1,0.1,0.2,0.3,0.4,0.4
		c-0.1,0-0.1,0.1-0.1,0.1C9.2,18,9,18.3,9.1,18.6c0.1,0.3,0.2,0.5,0.6,0.6c0.3,0,0.5,0,0.8,0c0.9-0.1,1.8-0.1,2.7-0.2
		c0.3,0,0.6-0.1,0.9-0.3c0,0,0.1,0,0.1,0c1-0.3,2-0.7,2.8-1.3c0.7-0.4,1.3-0.8,2.1-1c0.3-0.1,0.4-0.3,0.4-0.6
		C19.4,15.4,19.2,15.2,18.8,15.2z"/>
	<path d="M14.8,7.7v0.8c0,0,0,0.1,0,0.1c0,0,0,0,0,0C14.8,8.3,14.8,7.9,14.8,7.7C14.8,7.6,14.8,7.6,14.8,7.7
		C14.8,7.6,14.8,7.7,14.8,7.7z"/>
	<path d="M14.9,15.2c0,0.2,0,0.4,0,0.6c0-0.2,0-0.5,0-0.7c0,0,0,0,0,0C14.9,15.1,14.9,15.2,14.9,15.2z"/>
	<path d="M7.6,9.1c0,0,0-0.1,0-0.1c0,0,0,0,0,0C7.6,9,7.5,9.1,7.6,9.1z"/>
	<path d="M7.6,8.6C7.6,8.6,7.6,8.6,7.6,8.6c0-0.1,0-0.1,0-0.1c0,0,0,0,0,0C7.5,8.5,7.6,8.6,7.6,8.6z"/>
</g>
</svg>
