<?xml version="1.0" encoding="utf-8"?>
<!-- Generator: Adobe Illustrator 24.0.3, SVG Export Plug-In . SVG Version: 6.00 Build 0)  -->
<svg version="1.1" id="Layer_1" xmlns="http://www.w3.org/2000/svg" xmlns:xlink="http://www.w3.org/1999/xlink" x="0px" y="0px"
	 viewBox="0 0 24 24" enable-background="new 0 0 24 24" xml:space="preserve">
<title>Asset 1</title>
<g>
	<path d="M15.54958,4.23456L17.97183,0H6.0268l2.45979,4.23456H15.54958z M16.81633,11.44236l4.32708-7.12063l-2.90076-4.19839
		l-5.44909,9.58043C14.28096,9.8574,15.68524,10.46431,16.81633,11.44236z M11.99866,9.88207
		c-3.89856,0.00074-7.05837,3.16175-7.05763,7.06031S8.10278,24.00074,12.00134,24c3.89805-0.00074,7.05764-3.16095,7.05763-7.059
		c0.00017-3.89837-3.15996-7.05877-7.05833-7.05893C11.99998,9.88207,11.99932,9.88207,11.99866,9.88207z M11.99866,22.96914
		c-3.29927,0.00038-5.97416-2.6739-5.97454-5.97317c-0.00038-3.29927,2.6739-5.97416,5.97316-5.97454
		s5.97416,2.6739,5.97454,5.97316C17.97212,20.29383,15.29789,22.96867,11.99866,22.96914z M11.1877,9.65016L5.75742,0.12333
		L2.85659,4.32173l4.1997,7.24664C8.20191,10.5171,9.64533,9.84692,11.1877,9.65016z"/>
	<circle cx="11.99866" cy="16.941" r="4.96914"/>
</g>
</svg>
