<svg xmlns="http://www.w3.org/2000/svg" width="62" height="114" viewBox="0 0 62 114">
  <title>Asset 2</title>
  <g>
    <polygon points="62 114 31 96.257 0 114 0 0 62 0 62 114" fill="#231f20"/>
    <g>
      <path d="M29.93046,64.17133a4.7362,4.7362,0,0,0-2.80611-3.462,6.891,6.891,0,0,0-2.77274-.54148,6.02613,6.02613,0,0,0-4.79953,2.20282q-1.879,2.20258-1.87873,6.62421,0,4.45452,2.03431,6.30505a6.68785,6.68785,0,0,0,4.6275,1.85053,5.99968,5.99968,0,0,0,4.1678-1.459,6.29868,6.29868,0,0,0,2.00188-3.82421h-5.5953V67.83055H34.98427V80.80963H31.63668l-.50857-3.019A11.58413,11.58413,0,0,1,28.503,80.208a9.26644,9.26644,0,0,1-4.92268,1.22538,10.22917,10.22917,0,0,1-7.87591-3.32926q-3.20023-3.34477-3.2-9.14994A13.4213,13.4213,0,0,1,15.7368,59.542,11.01974,11.01974,0,0,1,24.2858,56,11.17443,11.17443,0,0,1,31.694,58.33819a8.69446,8.69446,0,0,1,3.208,5.83314Z" fill="#fff"/>
      <path d="M49.36594,62.506q.09025.00846.40235.02444v4.79131q-.44347-.049-.78778-.06557-.34477-.01621-.55793-.01645-2.82233,0-3.79036,1.83783a7.14912,7.14912,0,0,0-.54148,3.18308v8.549H39.38145V62.92432h4.463v3.11775a9.88249,9.88249,0,0,1,1.88719-2.44489,5.13755,5.13755,0,0,1,3.41292-1.09941Q49.2757,62.49777,49.36594,62.506Z" fill="#fff"/>
    </g>
  </g>
</svg>
