<?xml version="1.0" encoding="utf-8"?>
<!-- Generator: Adobe Illustrator 22.1.0, SVG Export Plug-In . SVG Version: 6.00 Build 0)  -->
<svg version="1.1" width="24px" xmlns="http://www.w3.org/2000/svg" xmlns:xlink="http://www.w3.org/1999/xlink" x="0px" y="0px"
	 viewBox="0 0 100 100" style="enable-background:new 0 0 100 100;" xml:space="preserve">
<style type="text/css">
	.st0{fill:#007BFF;}
	.st1{fill:#FFFFFF;}
	.st2{enable-background:new    ;}
	.st3{fill:none;}
</style>
<g id="Layer_2">
</g>
<g id="Layer_1">
	<g>
		<path class="st1" d="M4.2,5.4h91.7v89.2H4.2V5.4z M0,98.8h100V1.2H0V98.8z M67.4,41.2c-3.3,0-4.4,1.7-4.4,3c0,1.5,0.7,2.5,5.2,4.8
			c6.5,3.2,8.6,6.2,8.6,10.7c0,6.7-5.1,10.2-12,10.2c-3.6,0-6.8-0.8-8.5-1.8C56,68,56,67.8,56,67.4v-6.1c0-0.4,0.2-0.5,0.5-0.3
			c2.6,1.7,5.6,2.5,8.4,2.5c3.3,0,4.7-1.4,4.7-3.3c0-1.5-1-2.8-5.2-5c-5.9-2.8-8.4-5.7-8.4-10.5c0-5.4,4.2-9.8,11.5-9.8
			c3.6,0,6.1,0.5,7.5,1.2c0.3,0.2,0.4,0.5,0.4,0.8v5.7c0,0.3-0.2,0.5-0.6,0.4C72.8,42,70.1,41.2,67.4,41.2L67.4,41.2z M31.6,46.2
			c1,0.1,1.7,0.1,3.4,0.1c4.9,0,9.5-1.7,9.5-8.3c0-5.3-3.3-8-8.8-8c-1.7,0-3.3,0.1-4,0.1v16.1H31.6z M24.2,24.1
			c0-0.3,0.6-0.5,0.9-0.5c2.7-0.1,6.6-0.2,10.8-0.2c11.5,0,16,6.3,16,14.4c0,10.6-7.7,15.1-17.1,15.1c-1.6,0-2.1-0.1-3.3-0.1v16
			c0,0.3-0.1,0.5-0.5,0.5h-6.4c-0.3,0-0.5-0.1-0.5-0.5L24.2,24.1L24.2,24.1z"/>
	</g>
</g>
</svg>
