<svg xmlns="http://www.w3.org/2000/svg" width="24" height="24" viewBox="0 0 24 24">
  <title>UCLAExt-01</title>
  <g>
    <path d="M0,0H24V24H0ZM3.42223,6.92959c-.02768.29826-.055.58491-.08076.87171-.07047.78559-.15172,1.57048-.20426,2.35729a3.23542,3.23542,0,0,0,.05634.86222,1.68867,1.68867,0,0,0,1.09418,1.32513,2.23257,2.23257,0,0,0,1.98854-.18911,2.282,2.282,0,0,0,1.09607-1.83251c.10982-1.06259.19668-2.12755.29213-3.19161.00586-.06528.00076-.13155.00076-.20709H6.60435c-.0175.13439-.03851.26028-.04965.387-.0682.77582-.13221,1.552-.20194,2.32771A7.10691,7.10691,0,0,1,6.255,10.472a1.09656,1.09656,0,0,1-1.283.93572.74265.74265,0,0,1-.6967-.56532,2.60041,2.60041,0,0,1-.06153-.65033,5.63673,5.63673,0,0,1,.049-.56661c.05217-.56663.10512-1.1332.15573-1.7.02909-.3258.05423-.652.08262-.99587Zm17.57026,5.42024c-.0677-.194-.12333-.35394-.17938-.51379q-.86223-2.45894-1.72432-4.91791c-.03131-.08934-.03556-.19422-.16342-.2634-.97366,1.89869-1.942,3.78248-2.91565,5.69066h1.14771l.39661-.8228H19.5922l.263.82724ZM12.33854,7.22429c-.0607-.039-.10115-.068-.14428-.09225a2.69244,2.69244,0,0,0-1.76908-.28438A2.74044,2.74044,0,0,0,8.45347,8.073a3.34092,3.34092,0,0,0-.51988,2.40222,2.22813,2.22813,0,0,0,1.19486,1.73134,2.77871,2.77871,0,0,0,1.77778.24189,2.56124,2.56124,0,0,0,1.01275-.38421c.00868-.42008.096-.83486.08334-1.29469-.11634.09473-.19784.1659-.28418.23061a1.93156,1.93156,0,0,1-1.72653.34269,1.28568,1.28568,0,0,1-.93272-.92694,1.99791,1.99791,0,0,1-.05564-.83116,2.03789,2.03789,0,0,1,.42364-1.07145A1.7354,1.7354,0,0,1,10.8542,7.8797a1.55862,1.55862,0,0,1,1.25521.53164.61175.61175,0,0,0,.11514.0806Zm3.62414,4.10742H13.87237l.38316-4.41791c-.32768,0-.62561-.00093-.92352.00095a1.25911,1.25911,0,0,0-.15944.02292l-.47869,5.406h3.171ZM5.92113,16.31353H4.51336v-.69474H5.733V15.161l-1.24444-.01995a2.07734,2.07734,0,0,1,.04307-.56407c.46491-.00911.921.00488,1.37934-.00817v-.45608H3.96162a21.45711,21.45711,0,0,0,.01212,2.66652H5.92113Zm5.21609-.32142a1.15712,1.15712,0,0,0-.30621-.96086.95447.95447,0,0,0-1.39619.1694,1.1346,1.1346,0,0,0,.05961,1.33771,1.04623,1.04623,0,0,0,1.236.20113.71132.71132,0,0,0,.392-.52826h-.48469a.44785.44785,0,0,1-.54138.20471.41655.41655,0,0,1-.30294-.42383Zm1.99394.79362c0-.47089.01611-.91047-.00472-1.34829a.64434.64434,0,0,0-.72733-.62745.61187.61187,0,0,0-.42448.19439c-.01589.01635-.04752.01741-.07292.0259l-.03271-.163h-.50061c.01312.64989-.01856,1.28185.021,1.9078h.52251c0-.11966,0-.218,0-.31637,0-.24-.00368-.48.00212-.7198a.79545.79545,0,0,1,.04411-.263.33435.33435,0,0,1,.394-.19718.27474.27474,0,0,1,.24653.29286c.01093.32958.00292.65975.00606.98964.00072.07543.01473.15073.02245.22448Zm4.87577-.95413A.97081.97081,0,0,0,17.006,14.80712a1.02431,1.02431,0,0,0-.00639,2.04857A.98053.98053,0,0,0,18.00693,15.8316Zm.23912.94344h.5167c0-.12962-.0002-.23791,0-.34621.00057-.25934-.008-.51914.00474-.77789a.36119.36119,0,0,1,.37722-.37833c.20632.004.30591.11981.31215.38788.007.29909.00038.59848.00314.89771.00069.07527.01456.15042.02449.246.17647-.0269.33477.02792.49465-.04858,0-.44438.01311-.88341-.00364-1.32129a.65406.65406,0,0,0-.86738-.60254,1.99081,1.99081,0,0,0-.31492.16461l-.08771-.1285h-.45947Zm-4.92028-.61258a.62711.62711,0,0,0,.385.58692,1.16,1.16,0,0,0,.90458.03973.58491.58491,0,0,0,.42951-.58465.54692.54692,0,0,0-.44512-.53436c-.16141-.05043-.331-.074-.49481-.11763a2.7241,2.7241,0,0,1-.2577-.09512.22938.22938,0,0,1,.21512-.27212.40365.40365,0,0,1,.48275.25377h.44924a.66347.66347,0,0,0-.50259-.59363,1.13267,1.13267,0,0,0-.67986.008.56131.56131,0,0,0-.43948.57076c-.0006.28251.11689.43434.4326.53079.16183.04945.33.07861.49582.11442.11008.02377.21655.0493.24734.18291-.01646.1681-.14233.19528-.27646.215a.46919.46919,0,0,1-.505-.30485Zm-5.97772-.4.58824-.89876H7.39681l-.32845.52269-.33987-.52762a2.20351,2.20351,0,0,0-.58069.0164l.607.893L6.066,16.7856h.57061l.41194-.60446.36.60426h.61512Zm1.82129,1.036v-.35992l-.2806-.08258a2.9799,2.9799,0,0,1-.0006-1.13587l.27228-.037v-.31131l-.3016-.04862-.02311-.56055H8.33385v.54732l-.26431.0814v.29139l.26143.07265c0,.07309-.0001.132,0,.19083.00056.2894-.00563.579.0036.86815a.43946.43946,0,0,0,.48469.48327C8.92708,16.803,9.03537,16.79847,9.16934,16.79847Zm6.58928-.01132a11.53406,11.53406,0,0,0-.01978-1.91693h-.46111a10.99648,10.99648,0,0,0,.022,1.91693Zm-.48368-2.68031v.44906h.48457v-.44906Z" fill="#231f20"/>
    <path d="M18.80472,8.80352l.51079,1.75826c-.43547.00765-.85668.00154-1.30933.00457Z" fill="#231f20"/>
    <path d="M10.60145,15.58564H9.80426c.07126-.26412.18249-.36826.391-.37407C10.3995,15.20587,10.51366,15.30742,10.60145,15.58564Z" fill="#231f20"/>
    <path d="M17.49343,15.826a2.35694,2.35694,0,0,1-.092.36629.39817.39817,0,0,1-.40473.2485.41382.41382,0,0,1-.39757-.26157.88428.88428,0,0,1-.02049-.6664.448.448,0,0,1,.40063-.30929.4331.4331,0,0,1,.43789.295A2.42919,2.42919,0,0,1,17.49343,15.826Z" fill="#231f20"/>
  </g>
</svg>
