<?xml version="1.0" encoding="utf-8"?>
<!-- Generator: Adobe Illustrator 24.0.3, SVG Export Plug-In . SVG Version: 6.00 Build 0)  -->
<svg version="1.1" id="Layer_1" xmlns="http://www.w3.org/2000/svg" xmlns:xlink="http://www.w3.org/1999/xlink" x="0px" y="0px"
	 viewBox="0 0 24 24" enable-background="new 0 0 24 24" xml:space="preserve">
<g>
	<g>
		<path d="M5.31973,6.97659c0.48471-0.3776,0.95941-0.74561,1.43217-1.11611c0.75113-0.58864,1.49398-1.19092,2.3215-1.67063
			c0.61491-0.35647,1.2088-0.75468,1.88426-1.0004c0.91125-0.3315,1.84952-0.47597,2.81766-0.44093
			c0.80811,0.02924,1.59069,0.17822,2.33821,0.49104c0.17206,0.072,0.33663,0.16234,0.50291,0.24763
			c0.23462,0.12036,0.46451,0.23237,0.73909,0.26115c0.46219,0.04846,0.88749,0.24529,1.32323,0.39637
			c0.41968,0.14551,0.84611,0.2519,1.2958,0.22039c0.24315-0.01704,0.42705,0.14399,0.42786,0.39153
			c0.00033,0.10007-0.02141,0.20344-0.0515,0.29956c-0.03773,0.12051-0.09528,0.23474-0.14265,0.35233
			c-0.07435,0.18457-0.0464,0.34403,0.1125,0.47567c0.02961,0.02453,0.05116,0.06674,0.06189,0.10487
			c0.08885,0.31581,0.08364,0.6358,0.03035,0.95609c-0.01386,0.08333-0.00681,0.14598,0.05114,0.21957
			c0.24587,0.31225,0.26023,0.66913,0.15969,1.03588c-0.02554,0.09316-0.00992,0.14115,0.0646,0.20068
			c0.41789,0.33385,0.69947,0.77236,0.93119,1.24605c0.11769,0.24059,0.23473,0.48195,0.33929,0.72839
			c0.11207,0.26414,0.29753,0.45089,0.5505,0.5765c0.14204,0.07053,0.29367,0.12615,0.42495,0.21277
			c0.14835,0.09789,0.27947,0.22213,0.41612,0.33724c0.02041,0.01719,0.03824,0.04551,0.04334,0.07142
			c0.02323,0.11816,0.09931,0.19889,0.19772,0.24912c0.30374,0.15503,0.3726,0.41167,0.33155,0.72179
			c-0.00232,0.01753-0.00404,0.03515-0.00611,0.05272c-0.02127,0.18053-0.06422,0.35281,0.04208,0.53576
			c0.05364,0.09232,0.01581,0.23895,0.01463,0.36098c-0.00024,0.02527-0.01444,0.06009-0.03396,0.07385
			c-0.09933,0.07004-0.07335,0.14191-0.01937,0.22656c0.11462,0.17974,0.10702,0.44185-0.03269,0.60265
			c-0.1611,0.18542-0.3078,0.26167-0.55085,0.18499c-0.04363-0.01376-0.09115-0.03631-0.13292-0.02972
			c-0.05775,0.00911-0.14336,0.02731-0.16193,0.06724c-0.0834,0.17933-0.24231,0.17458-0.38827,0.16278
			c-0.57094-0.04614-0.86271-0.40278-0.81674-0.97423c0.00254-0.03157-0.02135-0.07501-0.04666-0.0975
			c-0.16356-0.1454-0.33067-0.28681-0.49712-0.42893c-0.15576-0.13298-0.31206-0.26534-0.46841-0.39764
			c-0.01867-0.0158-0.03739-0.03297-0.05898-0.04367c-0.61445-0.3045-1.06372-0.78644-1.4399-1.34509
			c-0.04454-0.06615-0.07654-0.08567-0.15836-0.05841c-0.70413,0.23461-1.38015,0.14393-2.02221-0.20796
			c-0.18065-0.09901-0.34999-0.22722-0.50325-0.36559c-0.21581-0.19484-0.44962-0.29816-0.74254-0.24943
			c-0.08319,0.01384-0.16837,0.01569-0.27252,0.02477c0,0.43535,0,0.8687,0,1.30166
			c0.11552,0.00924,0.23751,0.01776,0.35918,0.02958c0.031,0.00301,0.06893,0.00755,0.09019,0.02651
			c0.16635,0.14844,0.38018,0.12551,0.57648,0.16439c0.1996,0.03954,0.38799,0.10215,0.55192,0.24383
			c-0.10582,0.24377-0.31207,0.36422-0.54093,0.45885c0.00283,0.01113,0.00567,0.02225,0.0085,0.03338
			c0.07521-0.01554,0.15196-0.02594,0.2252-0.04801c0.07874-0.02373,0.15419-0.05841,0.24884-0.09521
			c-0.01362,0.32813-0.11625,0.57158-0.41846,0.69933c0.00503,0.00802,0.01005,0.01604,0.01508,0.02406
			c0.09918-0.01046,0.19835-0.02091,0.31456-0.03316c-0.01682,0.39383-0.26695,0.59711-0.5867,0.75878
			c0.06102-0.01527,0.12454-0.02431,0.18235-0.04757c0.05692-0.0229,0.10803-0.06021,0.16275-0.09181
			c0.06384,0.18878-0.05253,0.44907-0.21798,0.53077c-0.06618,0.03268-0.11762,0.09709-0.17201,0.15085
			c-0.0219,0.02164-0.03806,0.05179-0.04944,0.08095c-0.12621,0.32314-0.39165,0.40152-0.70132,0.39532
			c-0.06951-0.00139-0.0929,0.01379-0.09276,0.08562c0.00189,0.98738,0.0013,1.97477,0.00153,2.96216
			c0,0.01341,0.00271,0.02683,0.005,0.04804c0.3522,0,0.70104,0,1.05674,0c0,1.37565,0,2.74304,0,4.11656
			c-2.12476,0-4.25081,0-6.3871,0c0-1.34878,0-2.70169,0-4.05459c-0.00834-0.00287-0.01668-0.00573-0.02502-0.0086
			c-0.54001,0.93867-1.08002,1.87733-1.63082,2.83476c-0.90721-1.60241-1.80773-3.193-2.72042-4.8051c0,0.65043,0,1.27856,0,1.91784
			c0.34889,0,0.70076,0,1.05681,0c0,1.37614,0,2.74121,0,4.11404c-2.11569,0-4.23303,0-6.35415,0c0-1.37017,0-2.73824,0-4.11217
			c0.34108,0,0.67658,0,1.01986,0c0-2.54469,0-5.08352,0-7.63404c-0.336,0-0.67381,0-1.01847,0c0-1.42153,0-2.83139,0-4.25164
			c0.42596,0,0.84841,0,1.28551,0C1.76664,6.20905,1.622,6.03196,1.45555,5.87474C1.23188,5.66349,0.99924,5.4617,0.76975,5.25663
			C0.41934,4.94352,0.15297,4.57834,0.05341,4.10877c-0.16013-0.75523,0.03617-1.38798,0.63833-1.88716
			C1.31598,1.70412,2.0343,1.50539,2.83326,1.58245c0.63726,0.06146,1.23968,0.23273,1.77317,0.60221
			C4.77633,2.30233,4.93081,2.4335,5.01201,2.63374C5.16704,3.01606,4.9787,3.35568,4.57287,3.43753
			C4.38125,3.47617,4.20585,3.4417,4.04107,3.3542C3.84506,3.25012,3.65081,3.14046,3.46627,3.01752
			C3.04603,2.73755,2.10886,2.87549,1.8119,3.16955c-0.12961,0.12834-0.23221,0.26453-0.25886,0.4487
			c-0.01763,0.12183-0.00382,0.23371,0.1018,0.31508C1.99617,4.1963,2.32647,4.4755,2.68194,4.71775
			C3.32154,5.15364,3.87438,5.6699,4.28908,6.32668c0.05057,0.08009,0.10991,0.11281,0.20591,0.10625
			C4.62534,6.42403,4.75704,6.4359,4.8876,6.42865c0.07135-0.00396,0.10773,0.0241,0.14172,0.08111
			C5.11958,6.66113,5.21514,6.80932,5.31973,6.97659z M17.04857,5.64141l0.00073,0.0018
			c-0.00947-0.02576-0.0181-0.05187-0.02856-0.07722c-0.04319-0.10463-0.01153-0.15817,0.09846-0.15598
			c0.07033,0.0014,0.14358,0.00209,0.2101,0.02159c0.21887,0.06414,0.44033,0.12428,0.65097,0.21008
			c0.16113,0.06563,0.30581,0.17076,0.4608,0.25265c0.09613,0.0508,0.20022,0.08653,0.29645,0.13718
			c0.10484,0.05518,0.10332,0.13324-0.00199,0.19249c-0.05992,0.03371-0.1253,0.05774-0.19183,0.08776
			c0.11588,0.07003,0.22735,0.13739,0.34661,0.20947c-0.20655,0.19357-0.44162,0.0651-0.65616,0.11524
			c0.0174,0.02659,0.02659,0.04548,0.04022,0.06028c0.01892,0.02056,0.04045,0.03894,0.06212,0.05672
			c0.10293,0.08438,0.10422,0.10429,0.00172,0.17931c-0.18424,0.13486-0.38955,0.22545-0.61021,0.28137
			c-0.02395,0.00607-0.07013,0.00561-0.07361-0.0038c-0.01095-0.02958-0.01596-0.06827-0.00567-0.09716
			c0.01505-0.04222,0.04999-0.077,0.06802-0.11861c0.02292-0.05289,0.01134-0.09331-0.05474-0.10734
			c-0.13222-0.02807-0.26455-0.05639-0.39523-0.09071c-0.09311-0.02446-0.18217-0.07241-0.31322-0.02386
			c0.13804,0.1479,0.26406,0.28292,0.40522,0.43417c-0.05937,0.01346-0.08762,0.02832-0.11267,0.02413
			c-0.13495-0.02259-0.2689-0.05118-0.40373-0.07457c-0.0275-0.00477-0.05731,0.0038-0.08606,0.00623
			c0.01246,0.02611,0.01907,0.05811,0.0384,0.07731c0.08516,0.08455,0.17398,0.1654,0.27522,0.2605
			c-0.05324,0.04598-0.08619,0.09451-0.13032,0.10901c-0.17626,0.05792-0.35511,0.08401-0.53302-0.0023
			C16.188,7.50107,15.98041,7.3093,16.00374,7.01883c0.00735-0.09145,0.00379-0.18386,0.00269-0.2758
			c-0.00012-0.01-0.01714-0.01979-0.02631-0.02968c-0.0779-0.04633-0.15225-0.10064-0.23448-0.13726
			c-0.15092-0.06721-0.31072-0.11523-0.45915-0.18709c-0.24367-0.11796-0.39987-0.31302-0.43815-0.58463
			c-0.01611-0.1143-0.00268-0.23277-0.00268-0.34934c-0.0149,0.00005-0.0298,0.0001-0.0447,0.00015
			c0,0.16718-0.02154,0.33786,0.00488,0.50075c0.04315,0.26606-0.08131,0.44158-0.26859,0.59072
			c-0.11386,0.09067-0.28607,0.01824-0.31731-0.12186c-0.04506-0.20207-0.09182-0.40384-0.25169-0.56977
			c-0.03234,0.05144-0.06151,0.0945-0.08738,0.13947c-0.33443,0.58131-0.40781,1.20795-0.32596,1.86259
			c0.01208,0.0966,0.00838,0.19517,0.01198,0.29283c-0.04275-0.01789-0.10515-0.0237-0.12484-0.05575
			C13.35646,7.95484,13.25778,7.81582,13.21,7.66232c-0.22596-0.72594-0.13675-1.42729,0.19881-2.10333
			c0.0144-0.02901,0.00972-0.06749,0.01394-0.10156C13.39392,5.47246,13.355,5.48016,13.33792,5.5037
			c-0.11136,0.15351-0.23269,0.30257-0.32191,0.46858c-0.08418,0.15663-0.13104,0.33305-0.19795,0.4993
			c-0.04793,0.11911-0.06253,0.12222-0.17295,0.05886c-0.17488,0.15746-0.29494,0.35295-0.35152,0.57863
			c-0.06318,0.25205-0.10377,0.50975-0.15452,0.76492c-0.01261,0.0634,0.00285,0.14401-0.09602,0.16406
			c-0.08783-0.36126-0.13328-0.71905-0.09674-1.08668c0.08684-0.87371,0.47734-1.56419,1.21684-2.04927
			c0.04116-0.027,0.09169-0.05258,0.11435-0.09225c0.04743-0.08303,0.0828-0.17368,0.11617-0.26378
			c0.02505-0.06762,0.02671-0.14612,0.06057-0.20783c0.11055-0.2015,0.28851-0.32404,0.50389-0.39504
			c0.05527-0.01822,0.11177-0.0327,0.16823-0.04904c-0.09654-0.25805,0.13886-0.36631,0.23796-0.55718
			c-0.70523,0.16963-1.24861,0.5635-1.71267,1.07585c-0.45978,0.50762-0.84616,1.06369-1.05175,1.73089
			c-0.2296-0.87634,0.01912-1.66065,0.46417-2.42473c-0.15225,0.03766-0.28731,0.07584-0.42459,0.10268
			c-0.05487,0.01073-0.11463-0.00355-0.17217-0.00645c-0.00496-0.01334-0.00991-0.02668-0.01487-0.04002
			c0.10197-0.15268,0.20393-0.30536,0.32053-0.47994c-0.47133,0.14525-0.88441,0.34046-1.22446,0.66866
			c-0.24144,0.23303-0.35675,0.52266-0.44101,0.84771C9.9715,5.33625,9.91859,5.86608,9.89133,6.40251
			C9.88257,6.57492,9.86924,6.74735,9.84912,6.91872c-0.00391,0.03328-0.04905,0.06172-0.07517,0.0924
			C9.74775,6.98614,9.71454,6.96541,9.6964,6.93553C9.41065,6.46475,9.24698,5.95123,9.16989,5.40852
			C9.14627,5.24224,9.12962,5.07497,9.10978,4.90815C9.10196,4.90438,9.09413,4.9006,9.08631,4.89682
			C8.9162,5.12586,8.7461,5.35491,8.56799,5.59472c-0.02475-0.04827-0.0425-0.07196-0.04945-0.09847
			C8.49715,5.41459,8.48638,5.32961,8.45899,5.25023C8.43695,5.18635,8.39675,5.12873,8.36461,5.06834
			C8.29772,5.11955,8.22599,5.16577,8.16597,5.22405c-0.03059,0.0297-0.04124,0.08061-0.05902,0.12272
			C7.90361,5.82842,7.82561,6.33498,7.81111,6.85349C7.79124,7.56361,7.88027,8.26314,8.01674,8.9583
			c0.02199,0.11201,0.03475,0.228,0.03269,0.34181C8.04807,9.3755,7.9955,9.40136,7.94127,9.32965
			C7.90602,9.28304,7.87492,9.23053,7.85439,9.17598c-0.18362-0.48782-0.41687-0.948-0.73896-1.36079
			C7.06328,7.74836,7.00269,7.66798,6.92337,7.69738C6.86648,7.71847,6.83081,7.80962,6.79639,7.87515
			C6.75676,7.95058,6.72892,8.0322,6.68408,8.1396C6.62488,8.0169,6.58243,7.9286,6.5397,7.84043
			C6.41239,7.57774,6.26312,7.33114,6.02474,7.15181C5.85813,7.02648,5.65661,7.04092,5.49847,7.19079
			c0.63732,0.55014,1.05214,1.24926,1.33592,2.01907c0.05682-0.20875,0.10935-0.4202,0.17439-0.62773
			c0.01635-0.05216,0.08201-0.13455,0.109-0.12874c0.06841,0.01473,0.12986,0.06877,0.18954,0.1132
			C7.32756,8.58166,7.33437,8.61495,7.34695,8.6401c0.37847,0.75665,0.53298,1.57053,0.61179,2.40326
			c0.01931,0.20405,0.02875,0.40902,0.04537,0.61335c0.00158,0.01945,0.02203,0.03736,0.03372,0.05599
			c0.01602-0.01519,0.03527-0.02824,0.04714-0.04618c0.01131-0.01709,0.01512-0.0392,0.02191-0.05921
			c0.1715-0.50551,0.2607-1.02447,0.25878-1.55899C8.36548,9.99931,8.3858,9.95024,8.3966,9.90119
			c0.01122,0.00058,0.02244,0.00117,0.03366,0.00175c0.01381,0.02253,0.0305,0.04381,0.04093,0.06781
			c0.05608,0.12903,0.11188,0.25821,0.16541,0.38832c0.12847,0.31227,0.25488,0.62539,0.38479,0.93706
			c0.00957,0.02296,0.04047,0.03702,0.06146,0.05523c0.00459-0.02449,0.01759-0.05088,0.01256-0.07321
			c-0.18384-0.81572-0.4123-1.61682-0.78225-2.37131C8.29502,8.86984,8.28019,8.8272,8.27949,8.78692
			c-0.00059-0.03415,0.02153-0.0687,0.0336-0.10307c0.03052,0.01801,0.0669,0.03035,0.09065,0.0549
			c0.2431,0.25131,0.48378,0.50495,0.72632,0.75681c0.02517,0.02614,0.058,0.0449,0.09149,0.07027
			c0.00987-0.08371,0.01013-0.15512,0.02802-0.22179c0.02889-0.10761,0.12016-0.125,0.1939-0.04002
			c0.02231,0.02571,0.03555,0.06003,0.04997,0.09176c0.26926,0.59246,0.60837,1.1392,1.06434,1.60738
			c0.1315,0.13502,0.27539,0.25798,0.40305,0.37666c0.1196-0.32489,0.23464-0.63402,0.34592-0.9445
			c0.01202-0.03354,0.0022-0.07491,0.00252-0.11264c-0.03018,0.02324-0.07075,0.04033-0.08876,0.07076
			c-0.08487,0.14346-0.16355,0.29058-0.24632,0.43977c-0.0188-0.03165-0.04138-0.06671-0.06107-0.10332
			c-0.14689-0.27308-0.29823-0.54392-0.43876-0.82025C10.0802,9.13459,9.7595,8.33244,9.60483,7.47197
			C9.58841,7.38066,9.53971,7.28178,9.62614,7.18459c0.18748,0.11566,0.37331,0.2303,0.56468,0.34836
			c0.10651-0.34196,0.07261-0.7083,0.3759-0.97965c0,0.06207-0.00171,0.0929,0.00026,0.12349
			c0.02251,0.34896,0.03131,0.69956,0.07191,1.04643c0.05918,0.5057,0.229,0.97869,0.48745,1.41809
			c0.04061,0.06904,0.09552,0.12967,0.14591,0.19698c-0.00913-0.3118-0.01825-0.60847-0.02586-0.90519
			c-0.0008-0.03132,0.00182-0.06495,0.01275-0.09375c0.01176-0.03099,0.03519-0.05756,0.05353-0.08605
			c0.02662,0.01936,0.06105,0.03343,0.07842,0.05906c0.05527,0.08158,0.10565,0.16661,0.15508,0.25195
			c0.03837,0.06624,0.07251,0.13493,0.10206,0.1904c0.11606-0.16516,0.22655-0.328,0.34485-0.48495
			c0.01872-0.02484,0.07558-0.03664,0.10938-0.02934c0.02576,0.00556,0.0552,0.04818,0.06202,0.07897
			c0.06628,0.29906,0.11016,0.60444,0.19695,0.89719c0.06919,0.23341,0.14571,0.48746,0.29537,0.6696
			c0.34357,0.41816,0.56772,0.87604,0.66918,1.40465c0.04286,0.22327,0.02461,0.42645-0.09504,0.61709
			c-0.03208,0.05111-0.08613,0.08842-0.15165,0.15346c-0.04671-0.42359-0.1368-0.79324-0.35701-1.12493
			c-0.14719,0.07815-0.09533,0.30483-0.27341,0.35687c-0.0148-0.02087-0.02819-0.03718-0.03882-0.05513
			c-0.19664-0.33207-0.27344-0.69806-0.3104-1.0768c-0.01773-0.18166-0.04888-0.36202-0.07781-0.5708
			c-0.02411,0.0475-0.03493,0.06501-0.04228,0.08386c-0.2343,0.60084-0.31878,1.22618-0.30303,1.86749
			c0.00267,0.10867,0.08227,0.16921,0.19127,0.14804c0.28406-0.05517,0.54573-0.16317,0.78179-0.33232
			c0.02163-0.0155,0.05397-0.01606,0.08133-0.02356c0.00502,0.02773,0.02049,0.05852,0.01341,0.08271
			c-0.0631,0.21559-0.11848,0.43455-0.19952,0.64345c-0.07454,0.19213-0.17795,0.37307-0.26971,0.56114
			c0.30368,0.08755,0.59972,0.06506,0.89279-0.06159c0.16327,0.19693,0.05033,0.39818,0.01706,0.6038
			c0.35096-0.01149,0.68023-0.08377,0.98781-0.23571c0.07518,0.08831,0.0691,0.12059-0.02908,0.22685
			c-0.01912,0.02069-0.02897,0.04994-0.04309,0.07524c0.03058-0.00208,0.06613,0.00531,0.09094-0.00774
			c0.18214-0.09578,0.37339-0.15279,0.5798-0.12786c0.06789,0.0082,0.1323,0.04525,0.19831,0.06911
			c-0.04307,0.0548-0.07685,0.12209-0.13082,0.16223c-0.23065,0.17151-0.32865,0.56645-0.18268,0.80105
			c0.1365,0.21938,0.32266,0.36782,0.59354,0.39415c0.22041,0.02143,0.26966,0.00091,0.32932-0.2071
			c0.04732-0.16497,0.0984-0.32049,0.30137-0.35139c-0.02248-0.21783,0.07452-0.37539,0.22776-0.5088
			c-0.10836-0.13175-0.08288-0.26039-0.01492-0.39096c0.03245-0.06235,0.06104-0.12686,0.08866-0.19154
			c0.03895-0.09119,0.02526-0.17643-0.05119-0.23989c-0.07275-0.06039-0.08712-0.12886-0.06614-0.21667
			c0.01127-0.04718,0.0177-0.10194,0.00412-0.14652c-0.01024-0.03361-0.05407-0.07773-0.08583-0.0802
			c-0.098-0.00762-0.19844-0.00563-0.29602,0.00718c-0.33053,0.04338-0.62565,0.18422-0.91327,0.34375
			c-0.0865,0.04798-0.13968,0.02648-0.16064-0.06986c-0.01034-0.04752-0.00581-0.09848-0.00632-0.1479
			c-0.00081-0.07957-0.00022-0.15916-0.00022-0.23854c-0.15278-0.01559-0.27087,0.03685-0.38159,0.11003
			c-0.16769,0.11082-0.33274,0.22568-0.50149,0.33485c-0.0462,0.02988-0.09982,0.05675-0.15316,0.06512
			c-0.07729,0.01213-0.12576-0.05775-0.09229-0.12737c0.18575-0.38643,0.22041-0.79213,0.15079-1.209
			c-0.03538-0.21189-0.08045-0.42346-0.2183-0.59882c-0.53222-0.67707-0.85742-1.43695-0.91552-2.30166
			c-0.03776-0.56208,0.07346-1.09468,0.33923-1.59274c0.02063-0.03867,0.05907-0.06785,0.08923-0.10143
			c0.01042,0.00496,0.02084,0.00993,0.03126,0.01489c0.00564,0.16812,0.01142,0.33625,0.0169,0.50437
			c0.00957,0.29364,0.03705,0.58479,0.12685,0.8665c0.06354,0.19933,0.15376,0.38398,0.28579,0.52015
			c0.07223-0.08738,0.14136-0.17101,0.21048-0.25464c0.02066,0.026,0.05505,0.04972,0.05983,0.07837
			c0.04492,0.26906,0.11073,0.53141,0.23006,0.77818c0.13022,0.2693,0.30232,0.50675,0.53609,0.71272
			c0.22106-0.34697,0.26573-0.74342,0.37976-1.12714c0.05776,0.04924,0.1097,0.08261,0.14758,0.12777
			c0.14472,0.17255,0.28492,0.3489,0.42069,0.51629c0.03908-0.08926,0.08526-0.19475,0.13348-0.30488
			c0.20716,0.12551,0.31732,0.29779,0.41156,0.481c0.03744,0.0728,0.08611,0.11753,0.1617,0.15285
			c0.63977,0.29893,1.15616,0.74083,1.53767,1.33848c0.03123,0.04892,0.08872,0.09146,0.14345,0.11333
			c0.39834,0.15915,0.80463,0.16503,1.2147,0.04734c0.284-0.08151,0.41899-0.28833,0.48155-0.56939
			c-0.32296-0.11314-0.64936-0.15431-0.98311-0.15226c-0.33282,0.00205-0.65766,0.05931-0.97728,0.147
			c-0.08133-0.1311-0.15657-0.25457-0.23394-0.37671C17.03818,9.92816,16.8002,9.59376,16.48399,9.326
			c-0.0852-0.07215-0.12325-0.15391-0.09417-0.24852c0.03444-0.11208,0.09559-0.21627,0.14821-0.32237
			c0.05134-0.10351,0.10994-0.2036,0.1568-0.30899c0.00821-0.01847-0.0298-0.08183-0.03963-0.08031
			c-0.14305,0.02213-0.30148,0.00703-0.40422,0.14247c-0.07248,0.09555-0.14573,0.19064-0.2147,0.2887
			c-0.08634,0.12275-0.17062,0.13316-0.27722,0.02701c-0.02898-0.02886-0.05305-0.06264-0.09826-0.11679
			c-0.06933,0.13527-0.12583,0.24552-0.18478,0.36055c-0.01641-0.01418-0.02753-0.02205-0.03652-0.03188
			c-0.02387-0.02608-0.04795-0.0521-0.06996-0.07972c-0.22481-0.28215-0.3292-0.60719-0.36963-0.96338
			C14.9496,7.5497,15.1303,7.22034,15.47852,6.9776c0.09302-0.06484,0.21437-0.14727,0.35218-0.07867
			c-0.00691,0.04823-0.00285,0.10162-0.02269,0.14377c-0.07361,0.15642-0.12893,0.31508-0.08152,0.48913
			c0.09415,0.34561,0.35053,0.48913,0.72653,0.41793c0.28163-0.05333,0.53775-0.17082,0.77755-0.31897
			c0.23695-0.14639,0.46467-0.13828,0.70051-0.01345c0.13381,0.07083,0.26519,0.14665,0.40166,0.21187
			c0.06708,0.03205,0.12177,0.06581,0.13579,0.14343c-0.07127,0.08421-0.1537,0.04159-0.23376,0.01996
			c-0.16986-0.04589-0.33848-0.09697-0.50976-0.13665c-0.06209-0.01439-0.13031-0.00231-0.19573-0.00231
			c0.07049,0.03009,0.1435,0.04041,0.21289,0.06226c0.14661,0.04615,0.29276,0.09459,0.43619,0.14968
			c0.06606,0.02538,0.07944,0.08801,0.05594,0.15134c-0.02477,0.06678-0.08227,0.06931-0.14174,0.05757
			c-0.05188-0.01025-0.10344-0.02207-0.15506-0.0336c-0.0619-0.01383-0.12344-0.02938-0.18562-0.04179
			c-0.06032-0.01203-0.12125-0.02102-0.18191-0.03135c0.00017,0.00213,0.00034,0.00425,0.00051,0.00638
			c0.23233,0.06639,0.46465,0.13278,0.69551,0.19874c-0.00812,0.13802-0.06584,0.19656-0.21393,0.17847
			c0.05075,0.02286,0.07266,0.03203,0.09396,0.04246c0.0568,0.0278,0.10769,0.06205,0.09019,0.13658
			c-0.01732,0.07378-0.07212,0.08215-0.13899,0.07789c-0.16593-0.01057-0.33218-0.01624-0.49836-0.02257
			c-0.0264-0.001-0.05306,0.00484-0.0796,0.00751c0.0146,0.0277,0.02736,0.03456,0.04037,0.03507
			c0.19403,0.00766,0.38814,0.01357,0.58214,0.02189c0.08984,0.00385,0.18194,0.00478,0.25233,0.07848
			c-0.04109,0.05981-0.11413,0.11767-0.10916,0.16779c0.01624,0.1639,0.06211,0.32447,0.17463,0.4561
			c0.04577-0.11799,0.08066-0.22928,0.13233-0.33214c0.02583-0.05142,0.0823-0.08744,0.12491-0.13043
			c0.03855,0.04639,0.07707,0.09279,0.11568,0.13912c0.00391,0.00469,0.00836,0.00893,0.01415,0.01505
			c0.02451-0.05483,0.04852-0.10856,0.0879-0.19667c0.04828,0.08088,0.08134,0.13626,0.11666,0.19543
			c0.02975-0.05048,0.06213-0.10542,0.11047-0.18745c0.05158,0.07654,0.091,0.13504,0.13095,0.19432
			c0.02775-0.04085,0.05832-0.08585,0.10992-0.1618c0.04458,0.09392,0.07614,0.16041,0.10913,0.22991
			c0.04069-0.06908,0.0811-0.1377,0.12512-0.21244c-0.03113-0.00895-0.05401-0.0198-0.07759-0.02166
			c-0.28837-0.02275-0.57714-0.04111-0.86503-0.06868c-0.05432-0.0052-0.12782-0.03217-0.1524-0.07313
			c-0.03588-0.05979,0.03722-0.15984,0.11721-0.18109c0.06458-0.01716,0.13108-0.0271,0.19668-0.04047
			c0.15676-0.03195,0.32229-0.03594,0.46398-0.14059c-0.07608,0-0.14406,0-0.22183,0
			c0.02603-0.11028,0.04295-0.20788-0.06537-0.27425c0.00778,0.03313,0.01471,0.06267,0.02112,0.08996
			c-0.13792,0.09571-0.19947,0.10249-0.26561,0.02794c-0.10853-0.12234-0.13587-0.26269-0.09319-0.42267
			c0.03329,0.01828,0.05974,0.03279,0.09041,0.04964c0.00369-0.02694,0.0065-0.04746,0.00931-0.06797
			c0.18925-0.12049,0.40044-0.11039,0.61255-0.11117c0.11802-0.00043,0.23971-0.01479,0.35293-0.0469
			c0.13803-0.03915,0.16606-0.11115,0.12808-0.25288c-0.01977-0.07378-0.04322-0.14657-0.06667-0.2254
			c0.03844-0.00526,0.0645-0.00882,0.09055-0.01238c0.21127,0.14477,0.27461,0.35852,0.26734,0.59823
			c-0.00658,0.217-0.12085,0.39369-0.23727,0.56743c-0.04781,0.07136-0.09375,0.14398-0.14375,0.22096
			c0.10306,0.05763,0.18022,0.06426,0.25937-0.01757c0.1831-0.18931,0.30875-0.40799,0.37823-0.6626
			c0.06819-0.24989,0.06645-0.47898-0.13568-0.67459c-0.04945-0.04786-0.09508-0.11088-0.11476-0.17538
			c-0.02349-0.07699-0.04415-0.17261-0.01903-0.24352c0.09457-0.26696,0.08402-0.53255,0.02999-0.80226
			c0.00254-0.02327,0.01572-0.05332,0.00591-0.06873c-0.07451-0.11709-0.1528-0.23182-0.23173-0.34603
			c-0.01544-0.02234-0.05382-0.03762-0.05608-0.05888c-0.02091-0.19601-0.15586-0.33378-0.24241-0.49652
			c-0.05113-0.09615-0.07758-0.20543-0.11512-0.3088c0.11344,0.03274,0.19367-0.03343,0.27914-0.0901
			c0.08147-0.05402,0.16733-0.10142,0.25988-0.15689c0.0255,0.06948,0.05635,0.11093,0.05135,0.14747
			c-0.01885,0.13775-0.04935,0.2739-0.07549,0.41065c0.04484-0.12159,0.07843-0.24604,0.10047-0.3725
			c0.0231-0.13258-0.0338-0.21432-0.16535-0.24147c-0.06097-0.01258-0.12638-0.01571-0.18829-0.00915
			c-0.13263,0.01405-0.26431,0.03719-0.39637,0.0566c-0.03146-0.01337-0.06977-0.01938-0.09329-0.04127
			c-0.1723-0.16037-0.38035-0.16431-0.59633-0.1474c-0.11958,0.00936-0.24003,0.01179-0.36003,0.01076
			c-0.17354-0.00148-0.31283-0.07139-0.41258-0.21767C17.94271,4.1891,17.9089,4.1591,17.88194,4.15836
			c-0.33498-0.00922-0.67014-0.01862-1.00516-0.01607c-0.11701,0.00089-0.23377,0.03446-0.36598,0.05555
			c0.06699,0.11721,0.23606-0.01544,0.26077,0.14338c-0.16009,0.05181-0.32473,0.09285-0.4793,0.15782
			C16.02399,4.6118,15.757,4.72992,15.49911,4.86429c-0.15337,0.07991-0.22542,0.24718-0.19308,0.36501
			c0.01275-0.00636,0.02615-0.01026,0.03609-0.01841c0.29064-0.23827,0.63078-0.38209,0.97795-0.51213
			c0.14-0.05244,0.28367-0.07574,0.46496-0.04039c-0.04889,0.04559-0.07764,0.08224-0.11479,0.10541
			c-0.22726,0.14172-0.46708,0.266-0.68159,0.42464c-0.17086,0.12636-0.31369,0.2914-0.46351,0.44459
			c-0.02288,0.02339-0.01631,0.07558-0.02335,0.11445c0.03549,0.00131,0.07978,0.01698,0.105,0.00152
			c0.13674-0.08379,0.27972-0.16268,0.39978-0.26713c0.17077-0.14854,0.35421-0.26707,0.57015-0.33244
			c0.05004-0.01515,0.10554-0.01225,0.18625-0.02048c-0.04968,0.09913-0.08096,0.17295-0.12198,0.24089
			c-0.07465,0.12367-0.15742,0.24246-0.23144,0.36649c-0.0183,0.03065-0.01601,0.07359-0.02318,0.11088
			c-0.01069,0.0372-0.0236,0.07391-0.03168,0.11167c-0.03426,0.16022-0.00469,0.20847,0.15551,0.23926
			c0.03892,0.00748,0.08212-0.00553,0.12312-0.01088c0.19533-0.0255,0.38989-0.06119,0.58601-0.07516
			c0.2653-0.01889,0.52538,0.02038,0.79743,0.13498c-0.03819-0.05257-0.05907-0.08331-0.08196-0.11248
			c-0.13254-0.16886-0.31142-0.25215-0.51667-0.30415c-0.12228-0.03098-0.2344-0.10208-0.35109-0.15515
			C17.06088,5.66399,17.05473,5.6527,17.04857,5.64141z M20.48894,11.12204c-0.06899,0.03636-0.13799,0.07271-0.21002,0.11067
			c0.08707,0.01226,0.17764,0.02126,0.26664,0.03842c0.13691,0.02641,0.26642,0.06841,0.35145,0.19277
			c0.03756,0.05494,0.05981,0.11867,0.00578,0.16074c-0.03921,0.03053-0.10618,0.03603-0.16024,0.03445
			c-0.08637-0.00253-0.17315-0.03385-0.25824-0.02857c-0.1613,0.01001-0.23994,0.12742-0.19436,0.28156
			c0.04874,0.16482,0.17283,0.26278,0.3343,0.28719c0.14093,0.0213,0.28819,0.01475,0.43126,0.00327
			c0.10256-0.00823,0.16053,0.03113,0.17418,0.12165c0.01723,0.1143,0.02752,0.23188,0.02116,0.34696
			c-0.00827,0.14948,0.04336,0.26973,0.1409,0.37447c0.05526,0.05934,0.11509,0.11478,0.17597,0.16847
			c0.10863,0.09579,0.22429,0.18405,0.32842,0.28438c0.13162,0.12683,0.21728,0.28207,0.20362,0.47034
			c-0.00593,0.08167,0.02664,0.12093,0.09186,0.1411c0.05668,0.01754,0.11725,0.02251,0.16892,0.03175
			c-0.08591-0.21336-0.17692-0.41141-0.24547-0.61695c-0.07877-0.23617-0.03555-0.44684,0.18505-0.59632
			c0.0087-0.0059,0.01589-0.01402,0.02384-0.02103c0.11387-0.1005,0.11352-0.10746-0.00937-0.18807
			c0.01201-0.06581,0.00937-0.13926,0.03893-0.19591c0.07175-0.1375,0.08149-0.27496,0.00126-0.40234
			c-0.10855-0.17233-0.04774-0.4262,0.22069-0.46908c0.13728-0.02193,0.27807-0.02183,0.41728-0.03168
			c0.00323-0.00811,0.00646-0.01621,0.00969-0.02432c-0.06487-0.02376-0.12854-0.06347-0.19482-0.06843
			c-0.23975-0.01793-0.45177,0.06297-0.63468,0.21532c-0.07503,0.06249-0.13952,0.13765-0.20834,0.20659
			c-0.14774-0.06877-0.21617-0.18543-0.22258-0.33792c-0.00489-0.11643-0.00847-0.23417,0.00315-0.34973
			c0.01425-0.14165-0.05723-0.21946-0.17281-0.27012c-0.06072-0.02661-0.12591-0.04353-0.18986-0.06213
			c-0.12155-0.03535-0.24528-0.06409-0.36456-0.10575c-0.03667-0.01281-0.07399-0.05439-0.08707-0.09129
			c-0.00663-0.01868,0.03409-0.06983,0.06372-0.08288c0.1055-0.04644,0.21573-0.08204,0.3236-0.12324
			c0.0955-0.03647,0.19024-0.07492,0.28531-0.1125c-0.00161-0.01189-0.00322-0.02378-0.00483-0.03567
			c-0.02577-0.01377-0.05112-0.03861-0.07737-0.0396c-0.28513-0.01072-0.57044-0.02375-0.8556-0.02173
			c-0.07828,0.00056-0.14564-0.01164-0.15987-0.07905c-0.01016-0.04811,0.02384-0.12069,0.06146-0.16008
			c0.05208-0.05453,0.12607-0.08815,0.19477-0.13341c-0.03623-0.05069-0.07021-0.09824-0.10673-0.14934
			c0.20425-0.11102,0.40921-0.01226,0.615-0.01628c-0.07585-0.12036-0.13957-0.16688-0.26341-0.18649
			c-0.22628-0.03585-0.44905-0.05538-0.64461,0.10786c-0.05359,0.04473-0.12397,0.06843-0.19835,0.00968
			c0.03543-0.08164,0.08251-0.159,0.10214-0.24279c0.02841-0.12129,0.04819-0.24707,0.05007-0.37126
			c0.00127-0.0837-0.1064-0.13275-0.16157-0.08103c-0.02822,0.02645-0.03662,0.07966-0.04339,0.12246
			c-0.04116,0.26003-0.16631,0.4719-0.37348,0.67307c-0.0488-0.11194-0.08927-0.20475-0.13029-0.29886
			c-0.05273,0.03437-0.10171,0.06628-0.16277,0.10608c-0.03048-0.06807-0.05697-0.12723-0.08346-0.18639
			c-0.00965-0.00319-0.0193-0.00639-0.02895-0.00958c-0.05334,0.11934-0.11327,0.23643-0.1555,0.35958
			c-0.01096,0.03195,0.02618,0.09004,0.05663,0.12098c0.00988,0.01004,0.0741-0.02157,0.10408-0.04576
			c0.04916-0.03967,0.0876-0.09249,0.13615-0.13307c0.05897-0.04928,0.12159-0.04493,0.13127,0.03924
			c0.01754,0.15244,0.02756,0.30693,0.02381,0.46015c-0.00192,0.0786-0.05915,0.15674,0.03242,0.22327
			c0.01705,0.01239,0.02299,0.05414,0.0185,0.07959c-0.0174,0.0987,0.03548,0.13939,0.11917,0.16268
			c0.04741,0.01319,0.09451,0.0293,0.13941,0.04933c0.16947,0.07558,0.33867,0.15182,0.5065,0.23095
			C20.51325,11.00074,20.52754,11.05544,20.48894,11.12204z M2.13441,10.11554c0,2.90351,0,5.79638,0,8.69933
			c-0.33988,0-0.67425,0-1.00732,0c0,1.03372,0,2.05734,0,3.08c1.78012,0,3.55152,0,5.3242,0c0-1.03044,0-2.05418,0-3.0887
			c-0.36734,0-0.7264,0-1.07908,0c0-1.3979,0-2.78498,0-4.19599c1.08328,1.84653,2.15374,3.67122,3.23089,5.50731
			c1.08335-1.88123,2.15905-3.74918,3.23476-5.61713c0.00628,0.0027,0.01256,0.0054,0.01884,0.00811c0,1.43076,0,2.86151,0,4.30307
			c-0.34628,0-0.68765,0-1.03311,0c0,1.03472,0,2.05863,0,3.08368c1.76554,0,3.5231,0,5.28141,0c0-1.02999,0-2.05364,0-3.08797
			c-0.35291,0-0.6977,0-1.04881,0c0-0.04905,0-0.08746,0-0.12586c0-1.21035,0.00016-2.4207-0.00071-3.63105
			c-0.00003-0.04106,0.00366-0.09357-0.01863-0.1211c-0.07859-0.09702-0.16776-0.18546-0.26171-0.28662
			c0,1.48618,0,2.95528,0,4.43524c0.35348,0,0.69827,0,1.04235,0c0,0.84346,0,1.67601,0,2.50627c-1.57751,0-3.14703,0-4.71147,0
			c0-0.84088,0-1.67417,0-2.51553c0.36844,0,0.72859,0,1.09321,0c0-1.9413,0-3.87445,0-5.81886
			c-1.19872,2.07477-2.39144,4.13914-3.59314,6.21906c-1.18242-1.99484-2.35408-3.97154-3.53885-5.97035
			c0,1.87369,0,3.71852,0,5.57449c0.37162,0,0.73755,0,1.10723,0c0,0.84427,0,1.67738,0,2.51425c-1.58599,0-3.16633,0-4.74861,0
			c0-0.84003,0-1.67553,0-2.52024c0.33982,0,0.67134,0,1.00243,0c0-3.07962,0-6.14998,0-9.23343c-0.3362,0-0.66674,0-0.99859,0
			c0-0.84595,0-1.67879,0-2.51727c0.04269,0,0.07788,0,0.11306,0c0.94504,0,1.89008,0.0012,2.83511-0.00212
			c0.08155-0.00029,0.12317,0.0243,0.16327,0.095c1.34537,2.37194,2.69317,4.7425,4.04085,7.11313
			c0.01673,0.02943,0.03662,0.05707,0.05767,0.08963c0.0122-0.01455,0.01992-0.02126,0.02456-0.02965
			c0.49466-0.89512,0.98426-1.7931,1.4877-2.68326c0.09825-0.17373-0.0015-0.28315-0.04996-0.43738
			c-0.47154,0.87225-0.93168,1.72341-1.40195,2.5933c-0.04594-0.06657-0.07916-0.1076-0.1048-0.1529
			C7.30385,11.62087,6.01284,9.33955,4.7238,7.05711c-0.03795-0.0672-0.07939-0.09088-0.15674-0.09069
			C3.45567,6.96913,2.34427,6.96827,1.23288,6.96827c-0.03465,0-0.0693,0-0.10915,0c0,1.05226,0,2.09444,0,3.14726
			C1.46224,10.11554,1.79655,10.11554,2.13441,10.11554z M11.35311,16.42343c-0.3693,0.64255-0.72562,1.26252-1.08936,1.8954
			c0.19519,0,0.37117,0,0.54715,0c0.17927,0,0.35855,0,0.54221,0C11.35311,17.68965,11.35311,17.07025,11.35311,16.42343z
			 M14.22178,3.89736c0.29644,0.02467,0.53177,0.1556,0.75199,0.31773c0.05446,0.04009,0.09954,0.0451,0.16321,0.02486
			c0.25781-0.08194,0.51616-0.16309,0.77737-0.23313c0.21262-0.05701,0.42959-0.09777,0.64857-0.14661
			C16.00703,3.5188,14.8819,3.43784,14.22178,3.89736z M3.40955,2.38146C3.51653,2.25338,3.657,2.18561,3.81795,2.16001
			C3.9307,2.14208,4.00743,2.19333,4.01008,2.28368c0.00249,0.08506-0.12485,0.23907-0.19576,0.23675
			C3.6762,2.5159,3.55932,2.6164,3.53569,2.75848C3.69439,2.85051,3.85058,2.9458,4.01146,3.03239
			c0.07981,0.04296,0.16772,0.07125,0.25292,0.10367c0.05691,0.02166,0.11057,0.02242,0.14501-0.04103
			c0.03247-0.05981,0.06537-0.11641,0.00753-0.18309C4.36394,2.85087,4.35744,2.77837,4.39048,2.70339
			C4.42307,2.62943,4.46153,2.55716,4.48463,2.4803C4.49548,2.44418,4.49122,2.37632,4.4685,2.36142
			C4.17003,2.16574,3.85918,1.99399,3.50428,1.92164C3.4819,1.91708,3.44849,1.92497,3.43204,1.94
			C3.34334,2.02101,3.32826,2.27187,3.40955,2.38146z M14.36652,5.58831c-0.01122-0.11981-0.01702-0.22112-0.03096-0.32129
			c-0.01938-0.13923-0.06611-0.27814-0.06271-0.41625c0.00496-0.20174,0.11026-0.32867,0.33002-0.17938
			c0.12967,0.08808,0.13574,0.08333,0.20465-0.08769c-0.11243-0.0891-0.22049-0.20042-0.35028-0.27272
			c-0.3635-0.20248-0.63594-0.04468-0.65425,0.36613C13.78657,5.0455,14.01767,5.43267,14.36652,5.58831z M3.58063,5.96404
			C3.4999,5.88416,3.43367,5.79964,3.35004,5.73918C2.99831,5.48491,2.45205,5.5114,2.09393,5.71525
			C2.0656,5.73137,2.04227,5.77357,2.03562,5.80739C2.01199,5.9276,2.08375,6.04782,2.20736,6.0687
			c0.13397,0.02263,0.27398,0.03927,0.40803,0.02569C2.92984,6.06252,3.24231,6.01106,3.58063,5.96404z M0.3557,4.28998
			C0.42345,4.19686,0.47996,4.1264,0.52835,4.05073c0.05292-0.08276,0.09483-0.17258,0.14799-0.25517
			C0.72889,3.71392,0.80326,3.66163,0.9222,3.65466C0.89701,3.74791,0.87507,3.82911,0.84761,3.93077
			c0.23589-0.15636,0.37282-0.34605,0.3919-0.61583C0.9672,3.26491,0.70845,3.31028,0.43773,3.37082
			c0.00681-0.0523,0.0128-0.09833,0.01879-0.14436c-0.00753-0.0073-0.01506-0.0146-0.02259-0.0219
			c-0.0521,0.04832-0.13119,0.08726-0.15176,0.14652C0.17525,3.65916,0.1828,3.96506,0.3557,4.28998z M0.80534,2.45919
			c0.32157,0.08052,0.5325,0.30026,0.78383,0.49586c0.03677-0.21569,0.0709-0.41587,0.1077-0.63168
			c0.04695,0.03147,0.06856,0.04595,0.09638,0.06459C1.8229,2.23708,1.85078,2.09522,1.881,1.94145
			C1.45035,1.96912,1.1123,2.15622,0.80534,2.45919z M0.70311,4.80259C0.73545,4.8533,0.76822,4.92771,0.82344,4.97696
			c0.01615,0.0144,0.09658-0.04202,0.14669-0.06767c0.0154-0.00788,0.02781-0.02152,0.04177-0.0323
			C1.17634,4.74998,1.3361,4.62199,1.5625,4.6139c0.11621-0.00416,0.22158-0.19941,0.16153-0.28274
			c-0.05866-0.0814-0.13576-0.15174-0.21342-0.21656C1.44415,4.05913,1.3623,4.05487,1.28204,4.09405
			c-0.24712,0.12063-0.424,0.31038-0.54142,0.55652C0.72302,4.68746,0.72011,4.73136,0.70311,4.80259z M3.19447,1.83543
			c-0.13033-0.01565-0.22172-0.01309-0.30386-0.0394C2.7364,1.74662,2.64,1.82776,2.55489,1.92858
			C2.4344,2.0713,2.32384,2.22238,2.20769,2.36882c-0.01892,0.02385-0.04634,0.0615-0.06723,0.05986
			c-0.12694-0.01-0.11397,0.07243-0.11099,0.15266c0.00191,0.05151,0.00036,0.10314,0.00036,0.14052
			c0.15611-0.02664,0.31869-0.04957,0.47872-0.08424C2.56679,2.625,2.6561,2.59502,2.66763,2.55476
			c0.05657-0.19764,0.21361-0.31044,0.3395-0.45125C3.07279,2.03006,3.12146,1.94141,3.19447,1.83543z M1.49168,5.32939
			c0.02365,0.08396,0.04035,0.15705,0.06507,0.22732C1.58482,5.63649,1.64092,5.6713,1.72031,5.62379
			c0.11424-0.06836,0.23196-0.13368,0.33591-0.21583c0.16687-0.13187,0.31809-0.28164,0.40423-0.48234
			c0.0116-0.02704,0.01668-0.07258,0.00188-0.09277C2.33706,4.66189,2.0923,4.67021,1.97963,4.84866
			c-0.04878,0.07725-0.08845,0.16032-0.1312,0.24129C1.77743,5.22441,1.68362,5.32752,1.49168,5.32939z M15.09134,10.7049
			c-0.17784,0.07023-0.28524,0.17645-0.33342,0.33054c-0.08669,0.27728-0.02409,0.52878,0.15811,0.75184
			c0.01737,0.02127,0.04106,0.04029,0.06577,0.0521c0.07568,0.03619,0.10888,0.01407,0.10931-0.07112
			c0.00079-0.15912,0.00023-0.31824,0.00023-0.47736C15.09134,11.10424,15.09134,10.91759,15.09134,10.7049z M22.59781,12.52631
			c0.25675-0.03918,0.39751-0.23357,0.45498-0.43781c0.01407-0.05002-0.01096-0.12898-0.04612-0.17126
			c-0.07851-0.09441-0.28012-0.11102-0.38219-0.04183c-0.024,0.01627-0.05453,0.06284-0.04695,0.07965
			C22.66204,12.14254,22.6378,12.33326,22.59781,12.52631z M23.08002,12.90799c0.19208,0.11575,0.45665,0.06588,0.58016-0.10462
			c0.1053-0.14534,0.07018-0.34063-0.07599-0.42255c-0.12583-0.07052-0.22699-0.0174-0.21702,0.12449
			c0.01056,0.15028-0.06638,0.24533-0.17175,0.32902C23.16065,12.86194,23.12034,12.88256,23.08002,12.90799z M23.14621,14.17535
			c0.1554,0.21789,0.50308,0.2254,0.62882,0.03002c0.04604-0.07153,0.05294-0.14706,0.00035-0.2168
			c-0.05374-0.07128-0.12928-0.10302-0.21379-0.06475c-0.05206,0.02357-0.09445,0.06817-0.14192,0.1023
			c-0.05198,0.03737-0.10297,0.07669-0.15797,0.10907C23.23026,14.15371,23.19167,14.16011,23.14621,14.17535z M22.27468,14.40471
			c0.09372,0.11687,0.34673,0.22858,0.49026,0.19404c0.06235-0.015,0.1419-0.05947,0.1636-0.11145
			c0.01842-0.0441-0.02395-0.12599-0.05951-0.17721c-0.04947-0.07124-0.12917-0.05659-0.20231-0.03308
			C22.53755,14.31853,22.40867,14.361,22.27468,14.40471z M23.19164,13.53692c0.11331,0.07083,0.22251,0.08613,0.33585,0.06796
			c0.1167-0.01871,0.19828-0.08375,0.23559-0.1996c0.03583-0.11126-0.05969-0.15591-0.11338-0.21878
			c-0.04854-0.05684-0.0989-0.04978-0.12453,0.02606c-0.04598,0.13603-0.14239,0.22202-0.26866,0.28075
			C23.2379,13.50196,23.22192,13.5163,23.19164,13.53692z M16.27088,12.32885c-0.00636,0.14614,0.03602,0.26546,0.12217,0.34792
			c0.03188,0.03051,0.14283-0.00499,0.20949-0.03126c0.10113-0.03986,0.19507-0.09795,0.29206-0.14829
			c-0.00322-0.01504-0.00644-0.03008-0.00966-0.04511C16.68466,12.4119,16.48437,12.3717,16.27088,12.32885z M16.93824,13.04391
			c-0.09702,0.0107-0.19061,0.02945-0.28411,0.02902c-0.09746-0.00045-0.19482-0.01959-0.29228-0.03002
			c-0.0132-0.00141-0.0368-0.0035-0.03861,0.00122c-0.02504,0.06553-0.06864,0.13385-0.06369,0.19811
			c0.00471,0.06124,0.05761,0.12055,0.14592,0.09439c0.10718-0.03174,0.2179-0.05291,0.32275-0.09069
			C16.82524,13.21099,16.90392,13.14764,16.93824,13.04391z M16.70071,13.74547c-0.11267-0.02394-0.22671-0.04743-0.34034-0.07272
			c-0.04092-0.00911-0.08235-0.03503-0.12083-0.03045c-0.0366,0.00436-0.09509,0.03415-0.09957,0.06035
			c-0.01411,0.08236-0.00746,0.16829-0.00779,0.25285c-0.00001,0.00199,0.01246,0.00403,0.01912,0.00603
			C16.34313,14.01926,16.6039,13.90873,16.70071,13.74547z M14.31035,14.08461c-0.11552-0.11376-0.20993-0.20805-0.30627-0.30034
			c-0.01638-0.01569-0.04012-0.02993-0.06197-0.03267c-0.13203-0.01651-0.26442-0.03038-0.39692-0.04269
			c-0.0199-0.00185-0.04099,0.00912-0.06153,0.01415c0.01203,0.01845,0.01974,0.04437,0.03675,0.05422
			C13.75975,13.91586,13.9966,14.06179,14.31035,14.08461z M16.0904,14.85928c-0.10143-0.04951-0.1958-0.10447-0.29677-0.14137
			c-0.05675-0.02074-0.1529-0.03926-0.18112-0.01015c-0.05617,0.05793-0.07958,0.14871-0.11101,0.2281
			c-0.00377,0.00953,0.02577,0.04631,0.04134,0.0473C15.73846,14.99564,15.93178,14.99313,16.0904,14.85928z M16.53122,14.41342
			c-0.19127,0.04344-0.36318-0.01133-0.53049-0.0887c-0.10167-0.04702-0.1192,0.04095-0.15161,0.09549
			c-0.03945,0.06637,0.00819,0.10259,0.06433,0.11056c0.11413,0.0162,0.22962,0.02479,0.34484,0.03076
			C16.37607,14.56762,16.45782,14.50024,16.53122,14.41342z M17.77622,9.76569c0.07183-0.09763,0.14034-0.19077,0.22223-0.30207
			c-0.0451,0.01057-0.08495,0.01081-0.11437,0.02845c-0.09973,0.05981-0.1932,0.05069-0.28724-0.00998
			c-0.02352-0.01518-0.04819-0.03455-0.07432-0.03834c-0.04111-0.00597-0.08391-0.00036-0.12599,0.00035
			c0.00717,0.04288,0.0053,0.09042,0.02426,0.12722c0.01619,0.03141,0.05301,0.05714,0.08648,0.07375
			C17.59443,9.68833,17.68476,9.7252,17.77622,9.76569z M17.90292,10.22752c0.17154-0.01559,0.33235-0.0302,0.49291-0.04479
			c-0.0335-0.07837-0.06669-0.15601-0.1064-0.2489c-0.04826,0.10902-0.05717,0.22458-0.18326,0.26437
			c-0.03548-0.1392-0.06923-0.27159-0.10857-0.4259C17.89929,9.92735,17.8911,10.07156,17.90292,10.22752z M18.74474,10.19009
			c0.24144,0.04206,0.46576,0.08114,0.7071,0.12318c0.01435-0.11829,0.0285-0.23486,0.04265-0.35143
			c-0.00943-0.00097-0.01886-0.00194-0.02829-0.00291c-0.08965,0.10228-0.17929,0.20456-0.27974,0.31916
			c-0.02979-0.05614-0.04628-0.08299-0.05862-0.11163c-0.01312-0.03043-0.02232-0.06254-0.02799-0.07885
			c-0.04722,0.04035-0.09003,0.10265-0.14171,0.11115c-0.02955,0.00486-0.07351-0.07782-0.11613-0.12702
			C18.81559,10.10389,18.78137,10.14552,18.74474,10.19009z M23.36058,11.9369c0.02501,0.21581,0.22892,0.21286,0.34857,0.31954
			C23.70838,12.093,23.52939,11.92871,23.36058,11.9369z M19.7851,9.52052c0.00923,0.00071,0.01846,0.00142,0.02768,0.00213
			c0.03737-0.10748,0.07474-0.21496,0.11565-0.33259c-0.08097-0.02707-0.14778-0.04941-0.23652-0.07909
			C19.72672,9.26398,19.75591,9.39225,19.7851,9.52052z M17.8172,8.51665c0.00103-0.01045,0.00207-0.02091,0.0031-0.03136
			c-0.13304-0.01482-0.26609-0.02964-0.39913-0.04446c-0.00141,0.01411-0.00281,0.02822-0.00422,0.04233
			C17.55037,8.49433,17.68378,8.50549,17.8172,8.51665z M18.6523,10.18743c-0.02195-0.06024-0.04171-0.11446-0.06859-0.18822
			c-0.03893,0.07275-0.06685,0.12492-0.10073,0.18822C18.54765,10.18743,18.59501,10.18743,18.6523,10.18743z"/>
		<path d="M8.30583,5.40271C8.33192,5.47952,8.3633,5.55504,8.38262,5.63351c0.01928,0.07831,0.02287,0.16037,0.04,0.23934
			c0.01743,0.08038,0.07105,0.12111,0.15366,0.13947c0.03869,0.0086,0.08728,0.04727,0.10008,0.0834
			c0.03505,0.09895,0.05696,0.20308,0.07795,0.3064c0.12687,0.6246,0.37153,1.20861,0.61918,1.7911
			c0.17334,0.40769,0.35643,0.81124,0.53872,1.22469C9.78388,9.42769,9.68241,9.3739,9.59322,9.30232
			c-0.11557-0.09275-0.21792-0.20215-0.33481-0.293c-0.07635-0.05935-0.16767-0.09988-0.25395-0.1457
			C8.98382,8.85266,8.95261,8.8441,8.93287,8.85166c-0.17415,0.06672-0.23496-0.06596-0.3099-0.17279
			C8.34812,8.28702,8.20221,7.84653,8.12827,7.37767c-0.07772-0.49279-0.06443-0.98624-0.0173-1.47991
			c0.01067-0.1118,0.03271-0.22349,0.061-0.33225c0.01501-0.05774,0.05464-0.10908,0.08316-0.1633
			C8.27203,5.40237,8.28893,5.40254,8.30583,5.40271z"/>
		<path d="M11.16359,8.0278c-0.2344-0.49132-0.38438-0.98723-0.46415-1.50459c-0.06384-0.41408-0.08059-0.82937-0.02136-1.24553
			c0.07724-0.54279,0.26839-1.03357,0.67265-1.45077c0.01128,0.06382,0.02609,0.11196,0.02708,0.16038
			c0.00232,0.11296-0.00335,0.22606-0.00322,0.3391c0.0001,0.08993,0.03393,0.161,0.11037,0.21654
			c0.02504,0.01819,0.04294,0.07366,0.03513,0.10481c-0.03235,0.12899-0.05951,0.26329-0.11802,0.38101
			c-0.23937,0.48159-0.27876,0.99488-0.24525,1.51661c0.0187,0.29125,0.08017,0.5795,0.10938,0.8704
			C11.28652,7.61843,11.28646,7.82361,11.16359,8.0278z"/>
		<path d="M19.13442,5.9148c0.09542,0.02169,0.19337,0.03604,0.28533,0.06776c0.05677,0.01958,0.12357,0.05425,0.15201,0.10221
			c0.05257,0.08866,0.10552,0.07123,0.17268,0.0334c0.03356-0.0189,0.0671-0.03856,0.10259-0.05314
			c0.10024-0.04119,0.15904-0.01552,0.19642,0.08408c0.03195,0.08515,0.07313,0.16871,0.09048,0.25686
			c0.01344,0.0683-0.00362,0.1426-0.00712,0.21424c-0.03943,0.04567-0.07886,0.09134-0.12391,0.14353
			c-0.02368-0.05596-0.03851-0.09099-0.0439-0.10371c-0.05254,0.04194-0.09342,0.08591-0.14359,0.11199
			c-0.07663,0.03983-0.17291,0.05066-0.18946,0.1657c-0.11909-0.0487-0.1439-0.14902-0.15334-0.24906
			C19.4589,6.5433,19.41369,6.42215,19.3094,6.31198c-0.08536-0.09017-0.1378-0.21093-0.20897-0.31532
			C19.06534,5.94521,19.10596,5.93479,19.13442,5.9148z"/>
		<path d="M19.88843,5.94697c-0.03341-0.00638-0.07343-0.00321-0.09899-0.02092c-0.07767-0.05382-0.14816-0.1179-0.22465-0.17358
			c-0.04251-0.03094-0.09141-0.05309-0.14167-0.08161c0.01949,0.0585,0.05332,0.1079,0.04097,0.13894
			c-0.01047,0.02631-0.07657,0.04785-0.1141,0.04269c-0.1021-0.01403-0.2021-0.04333-0.30294-0.06658
			c-0.00001,0.00001,0.00085,0.00369,0.00084,0.0037c0.0015-0.00262,0.00479-0.00584,0.00416-0.00774
			c-0.00156-0.00468-0.00492-0.00876-0.00756-0.01308c-0.08176-0.07606-0.16582-0.14984-0.24413-0.22929
			c-0.03097-0.03142-0.05788-0.07267-0.07113-0.11437c-0.02102-0.06618-0.01554-0.11862,0.07825-0.13294
			c0.29333-0.04479,0.58227-0.00394,0.82377,0.14939c0.14196,0.09013,0.28318,0.24993,0.24372,0.46867
			C19.87296,5.92132,19.88365,5.93468,19.88843,5.94697z"/>
		<path d="M16.87486,5.27446c0.03954-0.04353,0.07119-0.10698,0.12027-0.12639c0.09886-0.0391,0.2072-0.07486,0.31165-0.07492
			c0.21491-0.00012,0.43141,0.01254,0.64431,0.04155c0.22202,0.03026,0.39252,0.14494,0.4807,0.36528
			c0.03365,0.08409-0.00072,0.12121-0.06979,0.14175c-0.11713,0.03483-0.23552,0.00507-0.31683-0.07037
			c-0.16886-0.15668-0.36926-0.1952-0.58436-0.20633c-0.18944-0.00981-0.37883-0.0207-0.56824-0.03112
			C16.88667,5.30076,16.88076,5.28761,16.87486,5.27446z"/>
		<path d="M18.70986,5.24244c-0.21008-0.10001-0.31392-0.28449-0.42222-0.45989c-0.0243-0.03935,0.00749-0.11334,0.0134-0.17072
			c0.51981,0.03264,1.01447,0.14622,1.20783,0.55857C19.362,5.14514,19.2343,5.12442,19.10709,5.101
			C18.95026,5.07214,18.80103,5.06275,18.70986,5.24244z"/>
		<path d="M18.10651,4.9677c-0.20307-0.01643-0.39937-0.05218-0.59336-0.04235c-0.19011,0.00963-0.37833,0.0635-0.56635,0.10285
			c-0.04562,0.00955-0.09608,0.03944-0.1121-0.02388c-0.00974-0.03851-0.00135-0.10178,0.02478-0.12605
			c0.25496-0.23673,0.54923-0.36222,0.9052-0.29773C17.91282,4.60737,18.12334,4.85191,18.10651,4.9677z"/>
		<path d="M17.82672,7.40832c0.29559,0.09133,0.59173,0.16386,0.91348,0.10448c0.01159,0.0248,0.02691,0.05133,0.03681,0.07976
			c0.06746,0.19374,0.01138,0.26021-0.1862,0.22548C18.2916,7.76543,18.03615,7.63229,17.82672,7.40832z"/>
		<path d="M15.03675,6.58445c-0.0088,0.07602,0.00291,0.1625-0.02971,0.22635c-0.21151,0.41399-0.20942,0.85713-0.19362,1.30301
			c0.00287,0.08093,0.02107,0.16141,0.02248,0.24227c0.00054,0.03076-0.01788,0.07775-0.04195,0.09061
			c-0.29384,0.157-0.41063,0.42389-0.46209,0.7318c-0.01391,0.08324-0.01887,0.16798-0.02852,0.25742
			c-0.0567,0.0167-0.09537,0.01443-0.12607-0.05653c-0.27345-0.63216-0.4375-1.28873-0.43615-1.97985
			c0.0007-0.3575,0.05228-0.70937,0.18538-1.06048c0.05075,0.06397,0.09001,0.12447,0.1401,0.17402
			c0.07497,0.07417,0.15091,0.15077,0.23838,0.20813c0.14875,0.09754,0.30284,0.1002,0.45409-0.00904
			c0.0755-0.05453,0.15914-0.09778,0.2391-0.14613C15.01103,6.57216,15.02389,6.57831,15.03675,6.58445z"/>
	</g>
</g>
</svg>
