<svg width="100%" viewBox="0 0 938 392" style="fill:none;stroke:none;fill-rule:evenodd;clip-rule:evenodd;stroke-linecap:round;stroke-linejoin:round;stroke-miterlimit:1.5;" version="1.1" xmlns="http://www.w3.org/2000/svg" xmlns:xlink="http://www.w3.org/1999/xlink"><g id="blend" style="mix-blend-mode:multiply"><g id="g-root-ro_1hfowtuxlnh1e-fill" data-item-order="-29232" data-item-id="ro_1hfowtuxlnh1e" data-item-class="Shape Stroke Fill" data-item-index="none" data-renderer-id="0" transform="matrix(1, 0, 0, 1, 375, 42)"><g id="ro_1hfowtuxlnh1e-fill" stroke="none" fill="#f0f0f0" transform="matrix(1, 0, 0, 1, -2, -2)"><g xmlns="http://www.w3.org/2000/svg" transform="translate(12, 12)"><path d="M24 0 h 120 s24 0 24 24 v 126 s0 24 -24 24 h -120 s -24 0 -24 -24 v -126 s0 -24 24 -24"></path></g></g></g><g id="g-root-ro_dgowmqxlt1xd-fill" data-item-order="-16848" data-item-id="ro_dgowmqxlt1xd" data-item-class="Shape Stroke Fill" data-item-index="none" data-renderer-id="0" transform="matrix(1, 0, 0, 1, 303, 291)"><g id="ro_dgowmqxlt1xd-fill" stroke="none" fill="#ffe7e6" transform="matrix(1, 0, 0, 1, -2, -2)"><g xmlns="http://www.w3.org/2000/svg" transform="translate(12, 12)"><path d="M12 0 h 288 s12 0 12 12 v 30 s0 12 -12 12 h -288 s -12 0 -12 -12 v -30 s0 -12 12 -12"></path></g></g></g><g id="g-root-ro_18nsr3mxlt1c6-fill" data-item-order="-14256" data-item-id="ro_18nsr3mxlt1c6" data-item-class="Shape Stroke Fill" data-item-index="none" data-renderer-id="0" transform="matrix(1, 0, 0, 1, 63, 141)"><g id="ro_18nsr3mxlt1c6-fill" stroke="none" fill="#fffce6" transform="matrix(1, 0, 0, 1, -2, -2)"><g xmlns="http://www.w3.org/2000/svg" transform="translate(12, 12)"><path d="M12 0 h 240 s12 0 12 12 v 30 s0 12 -12 12 h -240 s -12 0 -12 -12 v -30 s0 -12 12 -12"></path></g></g></g><g id="g-root-ro_18fokz6xlotfo-fill" data-item-order="-13608" data-item-id="ro_18fokz6xlotfo" data-item-class="Shape Stroke Fill" data-item-index="none" data-renderer-id="0" transform="matrix(1, 0, 0, 1, 591, 141)"><g id="ro_18fokz6xlotfo-fill" stroke="none" fill="#e6f9ff" transform="matrix(1, 0, 0, 1, -2, -2)"><g xmlns="http://www.w3.org/2000/svg" transform="translate(12, 12)"><path d="M12 0 h 228 s12 0 12 12 v 30 s0 12 -12 12 h -228 s -12 0 -12 -12 v -30 s0 -12 12 -12"></path></g></g></g><g id="g-root-ro_qv9sfmxlt1j4-fill" data-item-order="-8424" data-item-id="ro_qv9sfmxlt1j4" data-item-class="Shape Stroke Fill" data-item-index="none" data-renderer-id="0" transform="matrix(1, 0, 0, 1, 171, -9)"><g id="ro_qv9sfmxlt1j4-fill" stroke="none" fill="#e6efff" transform="matrix(1, 0, 0, 1, -2, -2)"><g xmlns="http://www.w3.org/2000/svg" transform="translate(12, 12)"><path d="M12 0 h 132 s12 0 12 12 v 30 s0 12 -12 12 h -132 s -12 0 -12 -12 v -30 s0 -12 12 -12"></path></g></g></g><g id="g-root-ro_m7c46qxlotn2-fill" data-item-order="-8424" data-item-id="ro_m7c46qxlotn2" data-item-class="Shape Stroke Fill" data-item-index="none" data-renderer-id="0" transform="matrix(1, 0, 0, 1, 591, -9)"><g id="ro_m7c46qxlotn2-fill" stroke="none" fill="#e9fbf3" transform="matrix(1, 0, 0, 1, -2, -2)"><g xmlns="http://www.w3.org/2000/svg" transform="translate(12, 12)"><path d="M12 0 h 132 s12 0 12 12 v 30 s0 12 -12 12 h -132 s -12 0 -12 -12 v -30 s0 -12 12 -12"></path></g></g></g><g id="g-root-tx_frontend_v2z4fmxlosuc-fill" data-item-order="0" data-item-id="tx_frontend_v2z4fmxlosuc" data-item-class="Label Stroke" data-item-index="none" data-renderer-id="0" transform="matrix(1, 0, 0, 1, 639, 6)"></g><g id="g-root-tx_mongodb_dgowmqxlt1xe-fill" data-item-order="0" data-item-id="tx_mongodb_dgowmqxlt1xe" data-item-class="Label Stroke" data-item-index="none" data-renderer-id="0" transform="matrix(1, 0, 0, 1, 171, 57)"></g><g id="g-root-3_1lvieyaxlng95-fill" data-item-order="0" data-item-id="3_1lvieyaxlng95" data-item-class="Icon Stroke" data-item-index="none" data-renderer-id="0" transform="matrix(1, 0, 0, 1, 435, 66)"></g><g id="g-root-tx_react_4l1wduxlt2q4-fill" data-item-order="0" data-item-id="tx_react_4l1wduxlt2q4" data-item-class="Label Stroke" data-item-index="none" data-renderer-id="0" transform="matrix(1, 0, 0, 1, 639, 57)"></g><g id="g-root-tx_expressj_4l1wduxlt2q3-fill" data-item-order="0" data-item-id="tx_expressj_4l1wduxlt2q3" data-item-class="Label Stroke" data-item-index="none" data-renderer-id="0" transform="matrix(1, 0, 0, 1, 171, 93)"></g><g id="g-root-tx_typescri_4l1wduxlt2q5-fill" data-item-order="0" data-item-id="tx_typescri_4l1wduxlt2q5" data-item-class="Label Stroke" data-item-index="none" data-renderer-id="0" transform="matrix(1, 0, 0, 1, 639, 93)"></g><g id="g-root-tx_tchattec_1ur5f76xlnfgg-fill" data-item-order="0" data-item-id="tx_tchattec_1ur5f76xlnfgg" data-item-class="Label Stroke" data-item-index="none" data-renderer-id="0" transform="matrix(1, 0, 0, 1, 399, 120)"></g><g id="g-root-2_v2z4fmxlosud-fill" data-item-order="0" data-item-id="2_v2z4fmxlosud" data-item-class="Icon Stroke" data-item-index="none" data-renderer-id="0" transform="matrix(1, 0, 0, 1, 603, 3)"></g><g id="g-root-tx_translat_1d3m982xlt0jw-fill" data-item-order="0" data-item-id="tx_translat_1d3m982xlt0jw" data-item-class="Label Stroke" data-item-index="none" data-renderer-id="0" transform="matrix(1, 0, 0, 1, 75, 156)"></g><g id="g-root-tran_1d3m982xlt0jx-fill" data-item-order="0" data-item-id="tran_1d3m982xlt0jx" data-item-class="Icon Stroke" data-item-index="none" data-renderer-id="0" transform="matrix(1, 0, 0, 1, 285, 153)"></g><g id="g-root-tran_1cvi33mxlosnf-fill" data-item-order="0" data-item-id="tran_1cvi33mxlosnf" data-item-class="Icon Stroke" data-item-index="none" data-renderer-id="0" transform="matrix(1, 0, 0, 1, 603, 153)"></g><g id="g-root-tx_language_1lqim9exlov0i-fill" data-item-order="0" data-item-id="tx_language_1lqim9exlov0i" data-item-class="Label Stroke" data-item-index="none" data-renderer-id="0" transform="matrix(1, 0, 0, 1, 639, 156)"></g><g id="g-root-1_mfgab6xlt1jj-fill" data-item-order="0" data-item-id="1_mfgab6xlt1jj" data-item-class="Icon Stroke" data-item-index="none" data-renderer-id="0" transform="matrix(1, 0, 0, 1, 285, 3)"></g><g id="g-root-tx_whispera_5uvcixlt0cm-fill" data-item-order="0" data-item-id="tx_whispera_5uvcixlt0cm" data-item-class="Label Stroke" data-item-index="none" data-renderer-id="0" transform="matrix(1, 0, 0, 1, 639, 207)"></g><g id="g-root-tx_metadata_1ur5f76xlt0xt-fill" data-item-order="0" data-item-id="tx_metadata_1ur5f76xlt0xt" data-item-class="Label Stroke" data-item-index="none" data-renderer-id="0" transform="matrix(1, 0, 0, 1, 3, 243)"></g><g id="g-root-tx_language_5uvcixlt0cn-fill" data-item-order="0" data-item-id="tx_language_5uvcixlt0cn" data-item-class="Label Stroke" data-item-index="none" data-renderer-id="0" transform="matrix(1, 0, 0, 1, 639, 243)"></g><g id="g-root-tx_socketio_1lvieyaxlt1qi-fill" data-item-order="0" data-item-id="tx_socketio_1lvieyaxlt1qi" data-item-class="Label Stroke" data-item-index="none" data-renderer-id="0" transform="matrix(1, 0, 0, 1, 351, 357)"></g><g id="g-root-chec_hwier6xlt154-fill" data-item-order="0" data-item-id="chec_hwier6xlt154" data-item-class="Icon Stroke" data-item-index="none" data-renderer-id="0" transform="matrix(1, 0, 0, 1, 315, 303)"></g><g id="g-root-tx_realtime_hwier6xlt153-fill" data-item-order="0" data-item-id="tx_realtime_hwier6xlt153" data-item-class="Label Stroke" data-item-index="none" data-renderer-id="0" transform="matrix(1, 0, 0, 1, 351, 306)"></g><g id="g-root-tx_backend_vb3ak2xlt0qu-fill" data-item-order="0" data-item-id="tx_backend_vb3ak2xlt0qu" data-item-class="Label Stroke" data-item-index="none" data-renderer-id="0" transform="matrix(1, 0, 0, 1, 183, 6)"></g><g id="g-root-tx_googlecl_1ur5f76xlt0xs-fill" data-item-order="0" data-item-id="tx_googlecl_1ur5f76xlt0xs" data-item-class="Label Stroke" data-item-index="none" data-renderer-id="0" transform="matrix(1, 0, 0, 1, -9, 207)"></g><g id="g-root-ro_1hfowtuxlnh1e-stroke" data-item-order="-29232" data-item-id="ro_1hfowtuxlnh1e" data-item-class="Shape Stroke Fill" data-item-index="none" data-renderer-id="0" transform="matrix(1, 0, 0, 1, 375, 42)"><g id="ro_1hfowtuxlnh1e-stroke" fill="none" stroke-linecap="round" stroke-linejoin="round" stroke-miterlimit="1.5" stroke="#484848" stroke-width="2" transform="matrix(1, 0, 0, 1, -2, -2)"><g xmlns="http://www.w3.org/2000/svg" transform="translate(12, 12)"><path d="M24 0 h 120 s24 0 24 24 v 126 s0 24 -24 24 h -120 s -24 0 -24 -24 v -126 s0 -24 24 -24"></path></g></g></g><g id="g-root-ro_dgowmqxlt1xd-stroke" data-item-order="-16848" data-item-id="ro_dgowmqxlt1xd" data-item-class="Shape Stroke Fill" data-item-index="none" data-renderer-id="0" transform="matrix(1, 0, 0, 1, 303, 291)"><g id="ro_dgowmqxlt1xd-stroke" fill="none" stroke-linecap="round" stroke-linejoin="round" stroke-miterlimit="1.5" stroke="#e15e5a" stroke-width="2" transform="matrix(1, 0, 0, 1, -2, -2)"><g xmlns="http://www.w3.org/2000/svg" transform="translate(12, 12)"><path d="M12 0 h 288 s12 0 12 12 v 30 s0 12 -12 12 h -288 s -12 0 -12 -12 v -30 s0 -12 12 -12"></path></g></g></g><g id="g-root-ro_18nsr3mxlt1c6-stroke" data-item-order="-14256" data-item-id="ro_18nsr3mxlt1c6" data-item-class="Shape Stroke Fill" data-item-index="none" data-renderer-id="0" transform="matrix(1, 0, 0, 1, 63, 141)"><g id="ro_18nsr3mxlt1c6-stroke" fill="none" stroke-linecap="round" stroke-linejoin="round" stroke-miterlimit="1.5" stroke="#e3cd09" stroke-width="2" transform="matrix(1, 0, 0, 1, -2, -2)"><g xmlns="http://www.w3.org/2000/svg" transform="translate(12, 12)"><path d="M12 0 h 240 s12 0 12 12 v 30 s0 12 -12 12 h -240 s -12 0 -12 -12 v -30 s0 -12 12 -12"></path></g></g></g><g id="g-root-ro_18fokz6xlotfo-stroke" data-item-order="-13608" data-item-id="ro_18fokz6xlotfo" data-item-class="Shape Stroke Fill" data-item-index="none" data-renderer-id="0" transform="matrix(1, 0, 0, 1, 591, 141)"><g id="ro_18fokz6xlotfo-stroke" fill="none" stroke-linecap="round" stroke-linejoin="round" stroke-miterlimit="1.5" stroke="#17b0e3" stroke-width="2" transform="matrix(1, 0, 0, 1, -2, -2)"><g xmlns="http://www.w3.org/2000/svg" transform="translate(12, 12)"><path d="M12 0 h 228 s12 0 12 12 v 30 s0 12 -12 12 h -228 s -12 0 -12 -12 v -30 s0 -12 12 -12"></path></g></g></g><g id="g-root-ro_qv9sfmxlt1j4-stroke" data-item-order="-8424" data-item-id="ro_qv9sfmxlt1j4" data-item-class="Shape Stroke Fill" data-item-index="none" data-renderer-id="0" transform="matrix(1, 0, 0, 1, 171, -9)"><g id="ro_qv9sfmxlt1j4-stroke" fill="none" stroke-linecap="round" stroke-linejoin="round" stroke-miterlimit="1.5" stroke="#4682e3" stroke-width="2" transform="matrix(1, 0, 0, 1, -2, -2)"><g xmlns="http://www.w3.org/2000/svg" transform="translate(12, 12)"><path d="M12 0 h 132 s12 0 12 12 v 30 s0 12 -12 12 h -132 s -12 0 -12 -12 v -30 s0 -12 12 -12"></path></g></g></g><g id="g-root-ro_m7c46qxlotn2-stroke" data-item-order="-8424" data-item-id="ro_m7c46qxlotn2" data-item-class="Shape Stroke Fill" data-item-index="none" data-renderer-id="0" transform="matrix(1, 0, 0, 1, 591, -9)"><g id="ro_m7c46qxlotn2-stroke" fill="none" stroke-linecap="round" stroke-linejoin="round" stroke-miterlimit="1.5" stroke="#3bc482" stroke-width="2" transform="matrix(1, 0, 0, 1, -2, -2)"><g xmlns="http://www.w3.org/2000/svg" transform="translate(12, 12)"><path d="M12 0 h 132 s12 0 12 12 v 30 s0 12 -12 12 h -132 s -12 0 -12 -12 v -30 s0 -12 12 -12"></path></g></g></g><g id="g-root-tx_frontend_v2z4fmxlosuc-stroke" data-item-order="0" data-item-id="tx_frontend_v2z4fmxlosuc" data-item-class="Label Stroke" data-item-index="none" data-renderer-id="0" transform="matrix(1, 0, 0, 1, 639, 6)"><g id="tx_frontend_v2z4fmxlosuc-stroke" fill="none" stroke-linecap="square" stroke-linejoin="miter" stroke-miterlimit="4" stroke="#3bc482" stroke-width="2" transform="matrix(1, 0, 0, 1, 6, 2)"><g xmlns="http://www.w3.org/2000/svg" transform="translate(50, 8)"><path d="M-29.7805 4.94531C-31.1805 4.94531 -36.24091 4.95044 -37.18882 4.95044V18.1241M-30.81304 11.2975H-36.75197 M-22.3002 8.60908C-23.68062 8.41894 -24.92901 9.31927 -25.57099 10.6193M-25.92562 8.77269V18.1226 M-10.998001 13.4569C-10.998001 16.5223 -12.868951 18.3403 -15.176891 18.3403C-17.484831 18.3403 -19.355791 16.5223 -19.355791 13.4569C-19.355791 10.3915 -17.484831 8.57349 -15.176891 8.57349C-12.868951 8.57349 -10.998001 10.3915 -10.998001 13.4569Z M-6.806091 8.77967L-6.805831 18.1279M0.028459 18.1279V12.0738C0.028459 11.3619 0.124189 8.79026 -2.258901 8.58694C-4.016941 8.43694 -5.705981 9.56164 -6.482321 10.9562 M7.774319 18.3258C6.364659 18.4655 5.506749 17.7322 5.506749 16.3869V6.08093M7.656659 8.642H5.893249M3.396557 8.642H5.130439 M18.33246 17.2181C17.35867 18.1548 16.33397 18.3386 15.14851 18.3386C13.07974 18.3386 11.2165 17.0276 11.2165 13.4561C11.2165 9.88449 13.02589 8.57349 15.09466 8.57349C17.16344 8.57349 18.76679 9.62966 18.76679 13.2012H11.54727 M22.813911 8.77967L22.814171 18.1279M29.648461 18.1279V12.0738C29.648461 11.3619 29.744191 8.79026 27.361101 8.58694C25.603061 8.43694 23.914021 9.56164 23.137681 10.9562 M41.424762 18.1243V4.12329M41.065012 16.7727C40.203012 17.8707 39.104702 18.3402 37.795142 18.3402C35.613812 18.3402 33.962482 17.0292 33.962482 13.4576C33.962482 9.88607 35.719472 8.57507 37.900792 8.57507C39.170402 8.57507 40.379962 9.11426 41.065012 10.1748"></path></g></g></g><path id="cu_zs5quqxlt2x2" d="M43 25 L 43 37 L 43 49 L 34 49 L 25 49" transform="translate(270, 30)" style="fill:none;stroke-linecap:round;stroke-linejoin:round;stroke-miterlimit:1.5;stroke:#bbbbbb;stroke-width:2.23;stroke-dasharray:5.6, 7.8"></path><path id="cu_147z8z6xlt24i" d="M25 107 L 28 107 L 28.1 107 A20.9 20.9 47.6 0 0 49 86.1 L 49 86 L 49 45.9 A20.9 20.9 -45 0 1 69.9 25 L 70 25 L 73 25" transform="translate(528, 3)" style="fill:none;stroke-linecap:round;stroke-linejoin:round;stroke-miterlimit:1.5;stroke:#bbbbbb;stroke-width:2.23;stroke-dasharray:5.6, 7.8"></path><g id="g-root-tx_mongodb_dgowmqxlt1xe-stroke" data-item-order="0" data-item-id="tx_mongodb_dgowmqxlt1xe" data-item-class="Label Stroke" data-item-index="none" data-renderer-id="0" transform="matrix(1, 0, 0, 1, 171, 57)"><g id="tx_mongodb_dgowmqxlt1xe-stroke" fill="none" stroke-linecap="square" stroke-linejoin="miter" stroke-miterlimit="4" stroke="#484848" stroke-width="2" transform="matrix(1, 0, 0, 1, 8, 2)"><g xmlns="http://www.w3.org/2000/svg" transform="translate(54, 8)"><path d="M-41.529042 18.1165L-41.520792 4.97778H-40.551942L-35.248652 18.1151H-34.933422L-29.614302 4.97778H-28.644402L-28.649802 18.1165 M-15.753002 13.4569C-15.753002 16.5223 -17.623952 18.3403 -19.931892 18.3403C-22.239832 18.3403 -24.110792 16.5223 -24.110792 13.4569C-24.110792 10.3915 -22.239832 8.57349 -19.931892 8.57349C-17.623952 8.57349 -15.753002 10.3915 -15.753002 13.4569Z M-11.561092 8.77967L-11.560832 18.1279M-4.726542 18.1279V12.0738C-4.726542 11.3619 -4.630812 8.79026 -7.013902 8.58694C-8.771942 8.43694 -10.460982 9.56164 -11.237322 10.9562 M7.059158 8.65246V18.6545C7.059158 23.3512 1.765738 23.0007 0.330848 21.4703M6.725478 16.5732C6.045338 17.6608 4.821068 18.2139 3.535188 18.2139C1.353868 18.2139 -0.403122 16.9029 -0.403122 13.3313C-0.403122 9.75974 1.248208 8.44873 3.429538 8.44873C4.697568 8.44873 6.002608 9.1294 6.725478 10.5024 M19.616999 13.4569C19.616999 16.5223 17.746049 18.3403 15.438109 18.3403C13.130169 18.3403 11.259209 16.5223 11.259209 13.4569C11.259209 10.3915 13.130169 8.57349 15.438109 8.57349C17.746049 8.57349 19.616999 10.3915 19.616999 13.4569Z M28.16682 18.1804L24.15754 18.1827V4.94829C25.10546 4.94829 26.384 4.94607 27.784 4.94607C29.23664 4.90961 33.0169 6.17329 33.0169 11.5108C33.0169 16.8483 29.49185 18.1804 28.16682 18.1804Z M37.943519 18.1797V4.94531M38.386559 11.1797H42.590689M38.386559 4.94531H42.537269C44.287269 4.94531 45.599799 5.60156 45.599799 8.00781C45.599799 9.93281 43.813309 10.9245 42.920079 11.1797C43.959149 11.2526 46.037299 12.0656 46.037299 14.7344C46.037299 17.4031 43.959149 18.1432 42.920079 18.1797H38.386559"></path></g></g></g><path id="cu_v2z4fmxluf41" d="M43 25 L 43 32.5 L 43 73 A12 12 61 0 1 31 85 L 30.9 85 L 25 85" transform="translate(270, 30)" style="fill:none;stroke-linecap:round;stroke-linejoin:round;stroke-miterlimit:1.5;stroke:#bbbbbb;stroke-width:2.23;stroke-dasharray:5.6, 7.8"></path><path id="cu_v2z4fmxluf43" d="M25 25 L 25 37 L 25 49 L 34 49 L 43 49" transform="translate(600, 30)" style="fill:none;stroke-linecap:round;stroke-linejoin:round;stroke-miterlimit:1.5;stroke:#bbbbbb;stroke-width:2.23;stroke-dasharray:5.6, 7.8"></path><path id="cu_v2z4fmxluf46" d="M25 25 L 25 32.5 L 25 73 A12 12 115.1 0 0 37 85 L 37.1 85 L 43 85" transform="translate(600, 30)" style="fill:none;stroke-linecap:round;stroke-linejoin:round;stroke-miterlimit:1.5;stroke:#bbbbbb;stroke-width:2.23;stroke-dasharray:5.6, 7.8"></path><g id="g-root-3_1lvieyaxlng95-stroke" data-item-order="0" data-item-id="3_1lvieyaxlng95" data-item-class="Icon Stroke" data-item-index="none" data-renderer-id="0" transform="matrix(1, 0, 0, 1, 435, 66)"><g id="3_1lvieyaxlng95-stroke" fill="none" stroke-linecap="round" stroke-linejoin="round" stroke-miterlimit="1.5" stroke="#484848" stroke-width="1" transform="matrix(2, 0, 0, 2, -14, -14)"><g xmlns="http://www.w3.org/2000/svg" transform="translate(12, 12)"><path d="M5.5,8.5a1,1,0,0,0,1,1h2l3,3v-3h8a1,1,0,0,0,1-1v-7a1,1,0,0,0-1-1H6.5a1,1,0,0,0-1,1ZM2.75 14.75a2.25 2.25 0 1 0 4.5 0a2.25 2.25 0 1 0 -4.5 0M8.17,19.27A4.63,4.63,0,0,0,.5,21.5M16.75 14.75a2.25 2.25 0 1 0 4.5 0a2.25 2.25 0 1 0 -4.5 0M15.83,19.27A4.63,4.63,0,0,1,23.5,21.5M9.75 16.75a2.25 2.25 0 1 0 4.5 0a2.25 2.25 0 1 0 -4.5 0M16.5,23.5a4.65,4.65,0,0,0-9,0M16 3L18 5L16 7M10 3L8 5L10 7M14 3L12 7"></path></g></g></g><g id="g-root-tx_react_4l1wduxlt2q4-stroke" data-item-order="0" data-item-id="tx_react_4l1wduxlt2q4" data-item-class="Label Stroke" data-item-index="none" data-renderer-id="0" transform="matrix(1, 0, 0, 1, 639, 57)"><g id="tx_react_4l1wduxlt2q4-stroke" fill="none" stroke-linecap="square" stroke-linejoin="miter" stroke-miterlimit="4" stroke="#484848" stroke-width="2" transform="matrix(1, 0, 0, 1, 4, 2)"><g xmlns="http://www.w3.org/2000/svg" transform="translate(34, 8)"><path d="M-21.94502 18.1329V4.94524L-17.14875 4.92993C-16.07902 4.96747 -13.7576 5.72941 -13.7576 8.47691C-13.7576 11.2244 -16.07901 12.0614 -17.14875 12.1365L-21.39556 12.15M-13.5313 18.2494L-16.64196 12.5145 M-2.72254 17.2181C-3.69633 18.1548 -4.72103 18.3386 -5.90649 18.3386C-7.97526 18.3386 -9.8385 17.0276 -9.8385 13.4561C-9.8385 9.88449 -8.02911 8.57349 -5.96034 8.57349C-3.89156 8.57349 -2.28821 9.62966 -2.28821 13.2012H-9.50773 M1.877629 10.2457C2.241989 9.28012 3.658339 8.56665 4.998359 8.56665C6.851599 8.56665 8.353949 9.8797 8.353949 11.4994L8.359699 12.957V15.5711C8.359699 16.614 8.335129 17.3527 8.636499 18.2784M7.980349 12.957H5.252379C2.748979 12.957 1.448729 14.3433 1.448729 15.8374C1.448729 17.3315 2.686839 18.3408 4.302509 18.3408C6.284739 18.3408 7.910579 16.8882 8.311149 15.7324 M20.001789 16.2538C19.629819 17.6492 18.062219 18.3386 16.593119 18.3386C14.455749 18.3386 12.689879 17.0276 12.689879 13.4561C12.689879 9.88449 14.559279 8.57349 16.696649 8.57349C18.203659 8.57349 19.853769 9.41043 20.087059 10.9154 M27.139319 18.3258C25.729659 18.4655 24.871749 17.7322 24.871749 16.3869V6.08093M27.021659 8.642H25.258249M22.761557 8.642H24.495439"></path></g></g></g><g id="g-root-tx_expressj_4l1wduxlt2q3-stroke" data-item-order="0" data-item-id="tx_expressj_4l1wduxlt2q3" data-item-class="Label Stroke" data-item-index="none" data-renderer-id="0" transform="matrix(1, 0, 0, 1, 171, 93)"><g id="tx_expressj_4l1wduxlt2q3-stroke" fill="none" stroke-linecap="square" stroke-linejoin="miter" stroke-miterlimit="4" stroke="#484848" stroke-width="2" transform="matrix(1, 0, 0, 1, 7, 2)"><g xmlns="http://www.w3.org/2000/svg" transform="translate(55, 8)"><path d="M-35.417502 18.1371L-42.980882 18.1423V4.94958C-42.032962 4.94958 -36.859202 4.95044 -35.459202 4.95044M-36.471442 11.2966H-42.516842 M-31.656841 8.61108L-28.666021 13.2428M-25.393901 18.3101L-28.491191 13.5135M-25.505371 8.61108L-31.768311 18.3101 M-20.952081 8.77398V22.3934M-20.586201 10.1239C-19.703191 9.02711 -18.521891 8.55811 -17.212991 8.55811C-15.031661 8.55811 -13.453011 9.90408 -13.453011 13.4756C-13.453011 17.0472 -15.137311 18.3232 -17.318641 18.3232C-18.589861 18.3232 -19.875661 17.7827 -20.586201 16.7195 M-5.5702 8.60908C-6.95062 8.41894 -8.19901 9.31927 -8.84099 10.6193M-9.19562 8.77269V18.1226 M4.58246 17.2181C3.60867 18.1548 2.58397 18.3386 1.39851 18.3386C-0.67026 18.3386 -2.5335 17.0276 -2.5335 13.4561C-2.5335 9.88449 -0.72411 8.57349 1.34466 8.57349C3.41344 8.57349 5.01679 9.62966 5.01679 13.2012H-2.20273 M15.222831 10.3814C14.927101 9.4042 13.772791 8.58374 12.162701 8.58374C10.274981 8.58374 9.055311 9.44691 8.963661 10.7511C8.858621 12.2457 10.092731 12.8218 12.023231 13.3386C13.716841 13.7969 15.660251 14.2772 15.505961 16.1222C15.406591 17.3105 14.429821 18.3458 12.073101 18.3458C10.167171 18.3458 9.089791 17.5302 8.755431 16.4244 M26.032833 10.3814C25.737103 9.4042 24.582793 8.58374 22.972703 8.58374C21.084983 8.58374 19.865313 9.44691 19.773663 10.7511C19.668623 12.2457 20.902733 12.8218 22.833233 13.3386C24.526843 13.7969 26.470253 14.2772 26.315963 16.1222C26.216593 17.3105 25.239823 18.3458 22.883103 18.3458C20.977173 18.3458 19.899793 17.5302 19.565433 16.4244 M30.94965 17.9874H30.97358 M36.293121 4.94873H36.320461M36.307591 8.78199V20.5428C36.307591 21.3511 35.685851 22.7396 34.039825 22.4548 M47.432834 10.3814C47.137104 9.4042 45.982794 8.58374 44.372704 8.58374C42.484984 8.58374 41.265314 9.44691 41.173664 10.7511C41.068624 12.2457 42.302734 12.8218 44.233234 13.3386C45.926844 13.7969 47.870254 14.2772 47.715964 16.1222C47.616594 17.3105 46.639824 18.3458 44.283104 18.3458C42.377174 18.3458 41.299794 17.5302 40.965434 16.4244"></path></g></g></g><g id="g-root-tx_typescri_4l1wduxlt2q5-stroke" data-item-order="0" data-item-id="tx_typescri_4l1wduxlt2q5" data-item-class="Label Stroke" data-item-index="none" data-renderer-id="0" transform="matrix(1, 0, 0, 1, 639, 93)"><g id="tx_typescri_4l1wduxlt2q5-stroke" fill="none" stroke-linecap="square" stroke-linejoin="miter" stroke-miterlimit="4" stroke="#484848" stroke-width="2" transform="matrix(1, 0, 0, 1, 3, 2)"><g xmlns="http://www.w3.org/2000/svg" transform="translate(59, 8)"><path d="M-36.691802 4.94531C-39.954742 4.94531 -43.217732 4.95044 -46.480722 4.95044M-41.595372 18.1241V5.45566 M-33.586282 22.4371C-32.032122 22.6829 -31.109582 21.2328 -30.752992 20.2858L-26.901912 8.69074M-33.762392 8.69055L-30.420922 18.0999 M-22.982081 8.77398V22.3934M-22.616201 10.1239C-21.733191 9.02711 -20.551891 8.55811 -19.242991 8.55811C-17.061661 8.55811 -15.483011 9.90408 -15.483011 13.4756C-15.483011 17.0472 -17.167311 18.3232 -19.348641 18.3232C-20.619861 18.3232 -21.905661 17.7827 -22.616201 16.7195 M-4.557543 17.2181C-5.531333 18.1548 -6.556033 18.3386 -7.741493 18.3386C-9.810263 18.3386 -11.673503 17.0276 -11.673503 13.4561C-11.673503 9.88449 -9.864113 8.57349 -7.795343 8.57349C-5.726563 8.57349 -4.123213 9.62966 -4.123213 13.2012H-11.342733 M8.141098 7.45723C7.709798 5.89331 6.090078 4.73169 4.001438 4.73169C1.552628 4.73169 -0.148462 5.93098 -0.148462 7.75431C-0.148462 9.72412 1.316208 10.6852 3.820498 11.406C6.017498 12.0451 8.254498 12.8125 8.254498 15.2879C8.254498 16.9509 6.942398 18.3458 3.885188 18.3458C1.412768 18.3458 -0.167562 17.1057 -0.532392 15.4828 M19.22679 16.2538C18.85482 17.6492 17.28722 18.3386 15.81812 18.3386C13.68075 18.3386 11.91488 17.0276 11.91488 13.4561C11.91488 9.88449 13.78428 8.57349 15.92165 8.57349C17.42866 8.57349 19.07877 9.41043 19.31206 10.9154 M26.999803 8.60908C25.619383 8.41894 24.370993 9.31927 23.729013 10.6193M23.374383 8.77269V18.1226 M30.683444 4.97076H30.707374M30.667214 8.80402V18.1446 M35.58792 8.77398V22.3934M35.9538 10.1239C36.83681 9.02711 38.01811 8.55811 39.32701 8.55811C41.50834 8.55811 43.08699 9.90408 43.08699 13.4756C43.08699 17.0472 41.40269 18.3232 39.22136 18.3232C37.95014 18.3232 36.66434 17.7827 35.9538 16.7195 M50.334324 18.3258C48.924664 18.4655 48.066754 17.7322 48.066754 16.3869V6.08093M50.216664 8.642H48.453254M45.956562 8.642H47.690444"></path></g></g></g><g id="g-root-tx_tchattec_1ur5f76xlnfgg-stroke" data-item-order="0" data-item-id="tx_tchattec_1ur5f76xlnfgg" data-item-class="Label Stroke" data-item-index="none" data-renderer-id="0" transform="matrix(1, 0, 0, 1, 399, 120)"><g id="tx_tchattec_1ur5f76xlnfgg-stroke" fill="none" stroke-linecap="square" stroke-linejoin="miter" stroke-miterlimit="4" stroke="#484848" stroke-width="2" transform="matrix(1, 0, 0, 1, 5, 2)"><g xmlns="http://www.w3.org/2000/svg" transform="translate(5, 8)"><path d="M40.203197 4.94531C36.940257 4.94531 33.677267 4.95044 30.414277 4.95044M35.299627 18.1241V5.45566 M42.841228 12.6503L46.095678 12.6503 M59.027199 15.1299C58.366399 17.0338 56.577579 18.3984 54.474599 18.3984C51.809649 18.3984 49.649279 16.2071 49.649279 13.5039V9.62109C49.649279 6.91792 51.809649 4.72656 54.474599 4.72656C56.577579 4.72656 58.366399 6.09117 59.027199 7.99505 M63.458066 4.08569V18.1284M70.322096 18.1284V12.0743C70.322096 11.3625 70.418246 8.79081 68.024776 8.58749C66.271346 8.43854 64.586256 9.54664 63.799356 10.9277 M75.157626 10.2457C75.521986 9.28012 76.938336 8.56665 78.278356 8.56665C80.131596 8.56665 81.633946 9.8797 81.633946 11.4994L81.639696 12.957V15.5711C81.639696 16.614 81.615126 17.3527 81.916496 18.2784M81.260346 12.957H78.532376C76.028976 12.957 74.728726 14.3433 74.728726 15.8374C74.728726 17.3315 75.966836 18.3408 77.582506 18.3408C79.564736 18.3408 81.190576 16.8882 81.591146 15.7324 M89.439316 18.3258C88.029656 18.4655 87.171746 17.7322 87.171746 16.3869V6.08093M89.321656 8.642H87.558246M85.061554 8.642H86.795436 M16.873199 28.94531C13.610259 28.94531 10.347269 28.95044 7.084279 28.95044M11.969629 42.1241V29.45566 M27.27746 41.2181C26.30367 42.1548 25.27897 42.3386 24.09351 42.3386C22.02474 42.3386 20.1615 41.0276 20.1615 37.4561C20.1615 33.88449 21.97089 32.57349 24.03966 32.57349C26.10844 32.57349 27.71179 33.62966 27.71179 37.2012H20.49227 M38.571789 40.2538C38.199819 41.6492 36.632219 42.3386 35.163119 42.3386C33.025749 42.3386 31.259879 41.0276 31.259879 37.4561C31.259879 33.88449 33.129279 32.57349 35.266649 32.57349C36.773659 32.57349 38.423769 33.41043 38.657059 34.9154 M42.728071 28.08569V42.1284M49.592101 42.1284V36.0743C49.592101 35.3625 49.688251 32.79081 47.294781 32.58749C45.541351 32.43854 43.856261 33.54664 43.069361 34.9277 M54.30891 32.77967L54.30917 42.1279M61.14346 42.1279V36.0738C61.14346 35.3619 61.23919 32.79026 58.8561 32.58694C57.09806 32.43694 55.40902 33.56164 54.63268 34.9562 M73.717001 37.4569C73.717001 40.5223 71.846051 42.3403 69.538111 42.3403C67.230171 42.3403 65.359211 40.5223 65.359211 37.4569C65.359211 34.3915 67.230171 32.57349 69.538111 32.57349C71.846051 32.57349 73.717001 34.3915 73.717001 37.4569Z M78.045619 28.125V42.1264 M90.757002 37.4569C90.757002 40.5223 88.886052 42.3403 86.578112 42.3403C84.270172 42.3403 82.399212 40.5223 82.399212 37.4569C82.399212 34.3915 84.270172 32.57349 86.578112 32.57349C88.886052 32.57349 90.757002 34.3915 90.757002 37.4569Z M101.95916 32.65246V42.6545C101.95916 47.3512 96.66574 47.0007 95.23085 45.4703M101.62548 40.5732C100.94534 41.6608 99.72107 42.2139 98.43519 42.2139C96.25387 42.2139 94.49688 40.9029 94.49688 37.3313C94.49688 33.75974 96.14821 32.44873 98.32954 32.44873C99.59757 32.44873 100.90261 33.1294 101.62548 34.5024 M106.068716 46.4371C107.622876 46.6829 108.545416 45.2328 108.902006 44.2858L112.753086 32.69074M105.892606 32.69055L109.234076 42.0999 M44.376099 55.45723C43.944799 53.89331 42.325079 52.73169 40.236439 52.73169C37.787629 52.73169 36.086539 53.93098 36.086539 55.75431C36.086539 57.72412 37.551209 58.6852 40.055499 59.406C42.252499 60.0451 44.489499 60.8125 44.489499 63.2879C44.489499 64.9509 43.177399 66.3458 40.120189 66.3458C37.647769 66.3458 36.067439 65.1057 35.702609 63.4828 M51.619317 66.3258C50.209657 66.4655 49.351747 65.7322 49.351747 64.3869V54.08093M51.501657 56.642H49.738247M47.241555 56.642H48.975437 M55.647628 58.2457C56.011988 57.28012 57.428338 56.56665 58.768358 56.56665C60.621598 56.56665 62.123948 57.8797 62.123948 59.4994L62.129698 60.957V63.5711C62.129698 64.614 62.105128 65.3527 62.406498 66.2784M61.750348 60.957H59.022378C56.518978 60.957 55.218728 62.3433 55.218728 63.8374C55.218728 65.3315 56.456838 66.3408 58.072508 66.3408C60.054738 66.3408 61.680578 64.8882 62.081148 63.7324 M73.771792 64.2538C73.399822 65.6492 71.832222 66.3386 70.363122 66.3386C68.225752 66.3386 66.459882 65.0276 66.459882 61.4561C66.459882 57.88449 68.329282 56.57349 70.466652 56.57349C71.973662 56.57349 73.623772 57.41043 73.857062 58.9154 M77.935488 52.125V66.1264M83.857658 56.61034L78.322068 62.4619M84.518988 66.2842L80.402368 60.7849"></path></g></g></g><path id="cu_18nsr3mxlt1c7" d="M73 107 L 70 107 L 69.9 107 A20.9 20.9 60.5 0 1 49 86.1 L 49 86 L 49 45.9 A20.9 20.9 45 0 0 28.1 25 L 28 25 L 25 25" transform="translate(312, 3)" style="fill:none;stroke-linecap:round;stroke-linejoin:round;stroke-miterlimit:1.5;stroke:#bbbbbb;stroke-width:2.23;stroke-dasharray:5.6, 7.8"></path><g id="g-root-2_v2z4fmxlosud-stroke" data-item-order="0" data-item-id="2_v2z4fmxlosud" data-item-class="Icon Stroke" data-item-index="none" data-renderer-id="0" transform="matrix(1, 0, 0, 1, 603, 3)"><g id="2_v2z4fmxlosud-stroke" fill="none" stroke-linecap="round" stroke-linejoin="round" stroke-miterlimit="1.5" stroke="#3bc482" stroke-width="0.933" transform="matrix(2.142857074737549, 0, 0, 2.142857074737549, -15.714284896850586, -11.428570747375488)"><g xmlns="http://www.w3.org/2000/svg" transform="translate(12, 10)"><path d="M1 2h12s0.5 0 0.5 0.5v8s0 0.5 -0.5 0.5 h-12s-0.5 0 -0.5 -0.5v-8s0 -0.5 0.5 -0.5M6 11L5 13.5M8 11L9 13.5M4 13.5L10 13.5M7.5 2L7.5 11M3 5L5 5M3 8L4 8M7.5,7,8.71,6a2,2,0,0,1,2.55,0L13.5,8"></path></g></g></g><g id="g-root-tx_translat_1d3m982xlt0jw-stroke" data-item-order="0" data-item-id="tx_translat_1d3m982xlt0jw" data-item-class="Label Stroke" data-item-index="none" data-renderer-id="0" transform="matrix(1, 0, 0, 1, 75, 156)"><g id="tx_translat_1d3m982xlt0jw-stroke" fill="none" stroke-linecap="square" stroke-linejoin="miter" stroke-miterlimit="4" stroke="#e3cd09" stroke-width="2" transform="matrix(1, 0, 0, 1, 6, 2)"><g xmlns="http://www.w3.org/2000/svg" transform="translate(104, 8)"><path d="M-82.051798 4.94531C-85.314738 4.94531 -88.577728 4.95044 -91.840718 4.95044M-86.955368 18.1241V5.45566 M-74.690195 8.60908C-76.070615 8.41894 -77.319005 9.31927 -77.960985 10.6193M-78.315615 8.77269V18.1226 M-71.067372 10.2457C-70.703012 9.28012 -69.286662 8.56665 -67.946642 8.56665C-66.093402 8.56665 -64.591052 9.8797 -64.591052 11.4994L-64.585302 12.957V15.5711C-64.585302 16.614 -64.609872 17.3527 -64.308502 18.2784M-64.964652 12.957H-67.692622C-70.196022 12.957 -71.496272 14.3433 -71.496272 15.8374C-71.496272 17.3315 -70.258162 18.3408 -68.642492 18.3408C-66.660262 18.3408 -65.034422 16.8882 -64.633852 15.7324 M-59.756088 8.77967L-59.755828 18.1279M-52.921538 18.1279V12.0738C-52.921538 11.3619 -52.825808 8.79026 -55.208898 8.58694C-56.966938 8.43694 -58.655978 9.56164 -59.432318 10.9562 M-41.987168 10.3814C-42.282898 9.4042 -43.437208 8.58374 -45.047298 8.58374C-46.935018 8.58374 -48.154688 9.44691 -48.246338 10.7511C-48.351378 12.2457 -47.117268 12.8218 -45.186768 13.3386C-43.493158 13.7969 -41.549748 14.2772 -41.704038 16.1222C-41.803408 17.3105 -42.780178 18.3458 -45.136898 18.3458C-47.042828 18.3458 -48.120208 17.5302 -48.454568 16.4244 M-37.199376 4.125V18.1264 M-32.167367 10.2457C-31.803007 9.28012 -30.386657 8.56665 -29.046637 8.56665C-27.193397 8.56665 -25.691047 9.8797 -25.691047 11.4994L-25.685297 12.957V15.5711C-25.685297 16.614 -25.709867 17.3527 -25.408497 18.2784M-26.064647 12.957H-28.792617C-31.296017 12.957 -32.596267 14.3433 -32.596267 15.8374C-32.596267 17.3315 -31.358157 18.3408 -29.742487 18.3408C-27.760257 18.3408 -26.134417 16.8882 -25.733847 15.7324 M-17.885673 18.3258C-19.295333 18.4655 -20.153243 17.7322 -20.153243 16.3869V6.08093M-18.003333 8.642H-19.766743M-22.263435 8.642H-20.529553 M-13.796556 4.97076H-13.772626M-13.812786 8.80402V18.1446 M-1.087992 13.4569C-1.087992 16.5223 -2.958942 18.3403 -5.266882 18.3403C-7.574822 18.3403 -9.445782 16.5223 -9.445782 13.4569C-9.445782 10.3915 -7.574822 8.57349 -5.266882 8.57349C-2.958942 8.57349 -1.087992 10.3915 -1.087992 13.4569Z M3.103916 8.77967L3.104176 18.1279M9.938466 18.1279V12.0738C9.938466 11.3619 10.034196 8.79026 7.651106 8.58694C5.893066 8.43694 4.204026 9.56164 3.427686 10.9562 M28.931107 7.45723C28.499807 5.89331 26.880087 4.73169 24.791447 4.73169C22.342637 4.73169 20.641547 5.93098 20.641547 7.75431C20.641547 9.72412 22.106217 10.6852 24.610507 11.406C26.807507 12.0451 29.044507 12.8125 29.044507 15.2879C29.044507 16.9509 27.732407 18.3458 24.675197 18.3458C22.202777 18.3458 20.622447 17.1057 20.257617 15.4828 M39.852465 17.2181C38.878675 18.1548 37.853975 18.3386 36.668515 18.3386C34.599745 18.3386 32.736505 17.0276 32.736505 13.4561C32.736505 9.88449 34.545895 8.57349 36.614665 8.57349C38.683445 8.57349 40.286795 9.62966 40.286795 13.2012H33.067275 M47.939809 8.60908C46.559389 8.41894 45.310999 9.31927 44.669019 10.6193M44.314389 8.77269V18.1226 M57.59777 8.69055L54.22831 18.119L54.02707 18.1189L50.62275 8.69055 M61.773444 4.97076H61.797374M61.757214 8.80402V18.1446 M73.49679 16.2538C73.12482 17.6492 71.55722 18.3386 70.08812 18.3386C67.95075 18.3386 66.18488 17.0276 66.18488 13.4561C66.18488 9.88449 68.05428 8.57349 70.19165 8.57349C71.69866 8.57349 73.34877 9.41043 73.58206 10.9154 M84.312456 17.2181C83.338666 18.1548 82.313966 18.3386 81.128506 18.3386C79.059736 18.3386 77.196496 17.0276 77.196496 13.4561C77.196496 9.88449 79.005886 8.57349 81.074656 8.57349C83.143436 8.57349 84.746786 9.62966 84.746786 13.2012H77.527266 M94.952831 10.3814C94.657101 9.4042 93.502791 8.58374 91.892701 8.58374C90.004981 8.58374 88.785311 9.44691 88.693661 10.7511C88.588621 12.2457 89.822731 12.8218 91.753231 13.3386C93.446841 13.7969 95.390251 14.2772 95.235961 16.1222C95.136591 17.3105 94.159821 18.3458 91.803101 18.3458C89.897171 18.3458 88.819791 17.5302 88.485431 16.4244"></path></g></g></g><g id="g-root-tran_1d3m982xlt0jx-stroke" data-item-order="0" data-item-id="tran_1d3m982xlt0jx" data-item-class="Icon Stroke" data-item-index="none" data-renderer-id="0" transform="matrix(1, 0, 0, 1, 285, 153)"><g id="tran_1d3m982xlt0jx-stroke" fill="none" stroke-linecap="round" stroke-linejoin="round" stroke-miterlimit="1.5" stroke="#e3cd09" stroke-width="1.6" transform="matrix(1.25, 0, 0, 1.25, -5, -5)"><g xmlns="http://www.w3.org/2000/svg" transform="translate(12, 12)"><path d="M6.5 0.5L6.5 6.5M5.5 6.5L7.5 6.5M5.5 0.5L7.5 0.5M20.5,23.5V19a1.5,1.5,0,0,1,3,0v4.5M20.5 20.5L23.5 20.5M13.5,22a1.5,1.5,0,0,1-3,0V19a1.5,1.5,0,0,1,3,0ZM15.5,17.5v5a1,1,0,0,0,1,1h2M3.5 0.5L3.5 6.5M0.5 6.5L0.5 0.5M0.5 3.5L3.5 3.5M8.5 17.5L8.5 23.5M5.5 23.5L5.5 17.5M5.5 20.5L8.5 20.5M18.5 9.5L20.5 11.5 22.5 9.5M4.5 13.5L2.5 11.5 0.5 13.5M3.711,16.012A8.956,8.956,0,0,1,2.5,11.5M11.5,2.5a9,9,0,0,1,9,9"></path></g></g></g><path id="cu_147z8z6xlt24o" d="M73 25 L 70 25 L 69.9 25 A22.1 49.3 59.1 0 0 59.2 26.3 A3.1 23.1 62.1 0 0 49 30 A3.1 23.1 62.1 0 1 38.8 33.7 A22.1 49.3 59.1 0 1 28.1 35 L 28 35 L 25 35" transform="translate(312, 143)" style="fill:none;stroke-linecap:round;stroke-linejoin:round;stroke-miterlimit:1.5;stroke:#bbbbbb;stroke-width:2.23;stroke-dasharray:5.6, 7.8"></path><path id="cu_147z8z6xlt24l" d="M25 25 L 28 25 L 28.1 25 A22.1 49.3 120.9 0 1 38.8 26.3 A3.1 23.1 117.9 0 1 49 30 A3.1 23.1 117.9 0 0 59.2 33.7 A22.1 49.3 120.9 0 0 69.9 35 L 70 35 L 73 35" transform="translate(528, 143)" style="fill:none;stroke-linecap:round;stroke-linejoin:round;stroke-miterlimit:1.5;stroke:#bbbbbb;stroke-width:2.23;stroke-dasharray:5.6, 7.8"></path><g id="g-root-tran_1cvi33mxlosnf-stroke" data-item-order="0" data-item-id="tran_1cvi33mxlosnf" data-item-class="Icon Stroke" data-item-index="none" data-renderer-id="0" transform="matrix(1, 0, 0, 1, 603, 153)"><g id="tran_1cvi33mxlosnf-stroke" fill="none" stroke-linecap="round" stroke-linejoin="round" stroke-miterlimit="1.5" stroke="#17b0e3" stroke-width="1.6" transform="matrix(1.25, 0, 0, 1.25, -5, -5)"><g xmlns="http://www.w3.org/2000/svg" transform="translate(12, 12)"><path d="M20 8.5L20 7M16.5 8.5L23.5 8.5M18,8.5a6.42,6.42,0,0,0,5,6M22,8.5a6.42,6.42,0,0,1-5,6M5.5,4.5v-2a2,2,0,0,1,2-2h9a2,2,0,0,1,2,2v2M18.5,17v4.5a2,2,0,0,1-2,2h-9a2,2,0,0,1-2-2V17M18.5 19.5L5.5 19.5M12,21.25h0a.25.25,0,0,1,.25.25h0a.25.25,0,0,1-.25.25h0a.25.25,0,0,1-.25-.25h0a.25.25,0,0,1,.25-.25M.5,14.5v-5a2.5,2.5,0,0,1,5,0v5M0.5 11L5.5 11M11.5,6.5a5,5,0,0,1,0,8M9.5,8.77a2,2,0,0,1,0,3.46"></path></g></g></g><g id="g-root-tx_language_1lqim9exlov0i-stroke" data-item-order="0" data-item-id="tx_language_1lqim9exlov0i" data-item-class="Label Stroke" data-item-index="none" data-renderer-id="0" transform="matrix(1, 0, 0, 1, 639, 156)"><g id="tx_language_1lqim9exlov0i-stroke" fill="none" stroke-linecap="square" stroke-linejoin="miter" stroke-miterlimit="4" stroke="#17b0e3" stroke-width="2" transform="matrix(1, 0, 0, 1, 2, 2)"><g xmlns="http://www.w3.org/2000/svg" transform="translate(102, 8)"><path d="M-81.858277 18.1451L-89.006877 18.1452L-89.048577 11.2996V4.93762 M-77.957379 10.2457C-77.593019 9.28012 -76.176669 8.56665 -74.836649 8.56665C-72.983409 8.56665 -71.481059 9.8797 -71.481059 11.4994L-71.475309 12.957V15.5711C-71.475309 16.614 -71.499879 17.3527 -71.198509 18.2784M-71.854659 12.957H-74.582629C-77.086029 12.957 -78.386279 14.3433 -78.386279 15.8374C-78.386279 17.3315 -77.148169 18.3408 -75.532499 18.3408C-73.550269 18.3408 -71.924429 16.8882 -71.523859 15.7324 M-66.646099 8.77967L-66.645839 18.1279M-59.811549 18.1279V12.0738C-59.811549 11.3619 -59.715819 8.79026 -62.098909 8.58694C-63.856949 8.43694 -65.545989 9.56164 -66.322329 10.9562 M-48.025845 8.65246V18.6545C-48.025845 23.3512 -53.319265 23.0007 -54.754155 21.4703M-48.359525 16.5732C-49.039665 17.6608 -50.263935 18.2139 -51.549815 18.2139C-53.731135 18.2139 -55.488125 16.9029 -55.488125 13.3313C-55.488125 9.75974 -53.836795 8.44873 -51.655465 8.44873C-50.387435 8.44873 -49.082395 9.1294 -48.359525 10.5024 M-36.458374 18.1148L-36.458634 8.7666M-43.292924 8.7666L-43.292924 14.8207C-43.292924 15.5325 -43.387924 18.0958 -41.005564 18.3075C-38.915334 18.4933 -37.641904 17.6528 -36.939534 16.4701 M-31.537374 10.2457C-31.173014 9.28012 -29.756664 8.56665 -28.416644 8.56665C-26.563404 8.56665 -25.061054 9.8797 -25.061054 11.4994L-25.055304 12.957V15.5711C-25.055304 16.614 -25.079874 17.3527 -24.778504 18.2784M-25.434654 12.957H-28.162624C-30.666024 12.957 -31.966274 14.3433 -31.966274 15.8374C-31.966274 17.3315 -30.728164 18.3408 -29.112494 18.3408C-27.130264 18.3408 -25.504424 16.8882 -25.103854 15.7324 M-13.215843 8.65246V18.6545C-13.215843 23.3512 -18.509263 23.0007 -19.944153 21.4703M-13.549523 16.5732C-14.229663 17.6608 -15.453933 18.2139 -16.739813 18.2139C-18.921133 18.2139 -20.678123 16.9029 -20.678123 13.3313C-20.678123 9.75974 -19.026793 8.44873 -16.845463 8.44873C-15.577433 8.44873 -14.272393 9.1294 -13.549523 10.5024 M-1.807539 17.2181C-2.781329 18.1548 -3.806029 18.3386 -4.991489 18.3386C-7.060259 18.3386 -8.923499 17.0276 -8.923499 13.4561C-8.923499 9.88449 -7.114109 8.57349 -5.045339 8.57349C-2.976559 8.57349 -1.373209 9.62966 -1.373209 13.2012H-8.592729 M13.031818 18.1804L9.022538 18.1827V4.94829C9.970458 4.94829 11.248998 4.94607 12.648998 4.94607C14.101638 4.90961 17.881898 6.17329 17.881898 11.5108C17.881898 16.8483 14.356848 18.1804 13.031818 18.1804Z M29.102457 17.2181C28.128667 18.1548 27.103967 18.3386 25.918507 18.3386C23.849737 18.3386 21.986497 17.0276 21.986497 13.4561C21.986497 9.88449 23.795887 8.57349 25.864657 8.57349C27.933437 8.57349 29.536787 9.62966 29.536787 13.2012H22.317267 M36.554314 18.3258C35.144654 18.4655 34.286744 17.7322 34.286744 16.3869V6.08093M36.436654 8.642H34.673244M32.176552 8.642H33.910434 M47.112459 17.2181C46.138669 18.1548 45.113969 18.3386 43.928509 18.3386C41.859739 18.3386 39.996499 17.0276 39.996499 13.4561C39.996499 9.88449 41.805889 8.57349 43.874659 8.57349C45.943439 8.57349 47.546789 9.62966 47.546789 13.2012H40.327269 M58.406794 16.2538C58.034824 17.6492 56.467224 18.3386 54.998124 18.3386C52.860754 18.3386 51.094884 17.0276 51.094884 13.4561C51.094884 9.88449 52.964284 8.57349 55.101654 8.57349C56.608664 8.57349 58.258774 9.41043 58.492064 10.9154 M65.54432 18.3258C64.13466 18.4655 63.27675 17.7322 63.27675 16.3869V6.08093M65.42666 8.642H63.66325M61.166558 8.642H62.90044 M69.633445 4.97076H69.657375M69.617215 8.80402V18.1446 M82.342001 13.4569C82.342001 16.5223 80.471051 18.3403 78.163111 18.3403C75.855171 18.3403 73.984211 16.5223 73.984211 13.4569C73.984211 10.3915 75.855171 8.57349 78.163111 8.57349C80.471051 8.57349 82.342001 10.3915 82.342001 13.4569Z M86.533916 8.77967L86.534176 18.1279M93.368466 18.1279V12.0738C93.368466 11.3619 93.464196 8.79026 91.081106 8.58694C89.323066 8.43694 87.634026 9.56164 86.857686 10.9562"></path></g></g></g><g id="g-root-1_mfgab6xlt1jj-stroke" data-item-order="0" data-item-id="1_mfgab6xlt1jj" data-item-class="Icon Stroke" data-item-index="none" data-renderer-id="0" transform="matrix(1, 0, 0, 1, 285, 3)"><g id="1_mfgab6xlt1jj-stroke" fill="none" stroke-linecap="round" stroke-linejoin="round" stroke-miterlimit="1.5" stroke="#4682e3" stroke-width="0.933" transform="matrix(2.142857074737549, 0, 0, 2.142857074737549, -15.714284896850586, -13.571428298950195)"><g xmlns="http://www.w3.org/2000/svg" transform="translate(12, 11)"><path d="M1.5 1h11s1 0 1 1v4s0 1 -1 1 h-11s-1 0 -1 -1v-4s0 -1 1 -1M3 4a0.5 0.5 0 1 0 1 0a0.5 0.5 0 1 0 -1 0M7.5 4L11 4M1.5,7a1,1,0,0,0-1,1v4a1,1,0,0,0,1,1h11a1,1,0,0,0,1-1V8a1,1,0,0,0-1-1M3 10a0.5 0.5 0 1 0 1 0a0.5 0.5 0 1 0 -1 0M7.5 10L11 10"></path></g></g></g><path id="cu_qn5mb6xlufwl" d="M43 25 L 43 37 L 43 49 L 34 49 L 25 49" transform="translate(270, 180)" style="fill:none;stroke-linecap:round;stroke-linejoin:round;stroke-miterlimit:1.5;stroke:#bbbbbb;stroke-width:2.23;stroke-dasharray:5.6, 7.8"></path><path id="cu_qn5mb6xlufwo" d="M43 25 L 43 32.5 L 43 73 A12 12 61 0 1 31 85 L 30.9 85 L 25 85" transform="translate(270, 180)" style="fill:none;stroke-linecap:round;stroke-linejoin:round;stroke-miterlimit:1.5;stroke:#bbbbbb;stroke-width:2.23;stroke-dasharray:5.6, 7.8"></path><path id="cu_v2z4fmxluf48" d="M25 25 L 25 37 L 25 49 L 34 49 L 43 49" transform="translate(600, 180)" style="fill:none;stroke-linecap:round;stroke-linejoin:round;stroke-miterlimit:1.5;stroke:#bbbbbb;stroke-width:2.23;stroke-dasharray:5.6, 7.8"></path><path id="cu_qn5mb6xlufwj" d="M25 25 L 25 32.5 L 25 73 A12 12 115.1 0 0 37 85 L 37.1 85 L 43 85" transform="translate(600, 180)" style="fill:none;stroke-linecap:round;stroke-linejoin:round;stroke-miterlimit:1.5;stroke:#bbbbbb;stroke-width:2.23;stroke-dasharray:5.6, 7.8"></path><path id="cu_zs5quqxlt2wz" d="M25 25 L 25 62.5 L 25 100" transform="translate(444, 201)" style="fill:none;stroke-linecap:round;stroke-linejoin:round;stroke-miterlimit:1.5;stroke:#bbbbbb;stroke-width:2.23;stroke-dasharray:5.6, 7.8"></path><g id="g-root-tx_whispera_5uvcixlt0cm-stroke" data-item-order="0" data-item-id="tx_whispera_5uvcixlt0cm" data-item-class="Label Stroke" data-item-index="none" data-renderer-id="0" transform="matrix(1, 0, 0, 1, 639, 207)"><g id="tx_whispera_5uvcixlt0cm-stroke" fill="none" stroke-linecap="square" stroke-linejoin="miter" stroke-miterlimit="4" stroke="#484848" stroke-width="2" transform="matrix(1, 0, 0, 1, 2, 2)"><g xmlns="http://www.w3.org/2000/svg" transform="translate(66, 8)"><path d="M-53.562838 4.92993L-50.509368 18.1042L-49.930678 18.1042L-46.255338 4.93164H-45.709078L-42.051598 18.1042L-41.455098 18.1042L-38.401598 4.92993 M-34.38193 4.08569V18.1284M-27.5179 18.1284V12.0743C-27.5179 11.3625 -27.42175 8.79081 -29.81522 8.58749C-31.56865 8.43854 -33.25374 9.54664 -34.04064 10.9277 M-22.621558 4.97076H-22.597628M-22.637788 8.80402V18.1446 M-11.55217 10.3814C-11.8479 9.4042 -13.00221 8.58374 -14.6123 8.58374C-16.50002 8.58374 -17.71969 9.44691 -17.81134 10.7511C-17.91638 12.2457 -16.68227 12.8218 -14.75177 13.3386C-13.05816 13.7969 -11.11475 14.2772 -11.26904 16.1222C-11.36841 17.3105 -12.34518 18.3458 -14.7019 18.3458C-16.60783 18.3458 -17.68521 17.5302 -18.01957 16.4244 M-6.907079 8.77398V22.3934M-6.541199 10.1239C-5.658189 9.02711 -4.476889 8.55811 -3.167989 8.55811C-0.986659 8.55811 0.591991 9.90408 0.591991 13.4756C0.591991 17.0472 -1.092309 18.3232 -3.273639 18.3232C-4.544859 18.3232 -5.830659 17.7827 -6.541199 16.7195 M11.517462 17.2181C10.543672 18.1548 9.518972 18.3386 8.333512 18.3386C6.264742 18.3386 4.401502 17.0276 4.401502 13.4561C4.401502 9.88449 6.210892 8.57349 8.279662 8.57349C10.348442 8.57349 11.951792 9.62966 11.951792 13.2012H4.732272 M19.604799 8.60908C18.224379 8.41894 16.975989 9.31927 16.334009 10.6193M15.979379 8.77269V18.1226 M28.35354 18.1453L33.30221 4.97268L33.89008 4.97266L38.8537 18.1453M30.17096 14.2942H37.0296 M43.191211 18.1308V4.94395L48.469621 4.92822C49.568451 4.96678 51.953001 5.74944 51.953001 8.57165C51.953001 11.3939 49.568451 12.2536 48.469621 12.3307L43.719091 12.3449 M56.555109 4.93762V18.1269"></path></g></g></g><g id="g-root-tx_metadata_1ur5f76xlt0xt-stroke" data-item-order="0" data-item-id="tx_metadata_1ur5f76xlt0xt" data-item-class="Label Stroke" data-item-index="none" data-renderer-id="0" transform="matrix(1, 0, 0, 1, 3, 243)"><g id="tx_metadata_1ur5f76xlt0xt-stroke" fill="none" stroke-linecap="square" stroke-linejoin="miter" stroke-miterlimit="4" stroke="#484848" stroke-width="2" transform="matrix(1, 0, 0, 1, 6, 2)"><g xmlns="http://www.w3.org/2000/svg" transform="translate(140, 8)"><path d="M-127.76904 18.1165L-127.76079 4.97778H-126.79194L-121.48865 18.1151H-121.17342L-115.8543 4.97778H-114.8844L-114.8898 18.1165 M-103.142538 17.2181C-104.116328 18.1548 -105.141028 18.3386 -106.326488 18.3386C-108.395258 18.3386 -110.258498 17.0276 -110.258498 13.4561C-110.258498 9.88449 -108.449108 8.57349 -106.380338 8.57349C-104.311558 8.57349 -102.708208 9.62966 -102.708208 13.2012H-109.927728 M-95.690681 18.3258C-97.100341 18.4655 -97.958251 17.7322 -97.958251 16.3869V6.08093M-95.808341 8.642H-97.571751M-100.068443 8.642H-98.334561 M-91.662374 10.2457C-91.298014 9.28012 -89.881664 8.56665 -88.541644 8.56665C-86.688404 8.56665 -85.186054 9.8797 -85.186054 11.4994L-85.180304 12.957V15.5711C-85.180304 16.614 -85.204874 17.3527 -84.903504 18.2784M-85.559654 12.957H-88.287624C-90.791024 12.957 -92.091274 14.3433 -92.091274 15.8374C-92.091274 17.3315 -90.853164 18.3408 -89.237494 18.3408C-87.255264 18.3408 -85.629424 16.8882 -85.228854 15.7324 M-73.350236 18.1243V4.12329M-73.709986 16.7727C-74.571986 17.8707 -75.670296 18.3402 -76.979856 18.3402C-79.161186 18.3402 -80.812516 17.0292 -80.812516 13.4576C-80.812516 9.88607 -79.055526 8.57507 -76.874206 8.57507C-75.604596 8.57507 -74.395036 9.11426 -73.709986 10.1748 M-68.382367 10.2457C-68.018007 9.28012 -66.601657 8.56665 -65.261637 8.56665C-63.408397 8.56665 -61.906047 9.8797 -61.906047 11.4994L-61.900297 12.957V15.5711C-61.900297 16.614 -61.924867 17.3527 -61.623497 18.2784M-62.279647 12.957H-65.007617C-67.511017 12.957 -68.811267 14.3433 -68.811267 15.8374C-68.811267 17.3315 -67.573157 18.3408 -65.957487 18.3408C-63.975257 18.3408 -62.349417 16.8882 -61.948847 15.7324 M-54.100677 18.3258C-55.510337 18.4655 -56.368247 17.7322 -56.368247 16.3869V6.08093M-54.218337 8.642H-55.981747M-58.478439 8.642H-56.744557 M-50.07237 10.2457C-49.70801 9.28012 -48.29166 8.56665 -46.95164 8.56665C-45.0984 8.56665 -43.59605 9.8797 -43.59605 11.4994L-43.5903 12.957V15.5711C-43.5903 16.614 -43.61487 17.3527 -43.3135 18.2784M-43.96965 12.957H-46.69762C-49.20102 12.957 -50.50127 14.3433 -50.50127 15.8374C-50.50127 17.3315 -49.26316 18.3408 -47.64749 18.3408C-45.66526 18.3408 -44.03942 16.8882 -43.63885 15.7324 M-32.415019 18.1329V4.94524L-27.618749 4.92993C-26.549019 4.96747 -24.227599 5.72941 -24.227599 8.47691C-24.227599 11.2244 -26.549009 12.0614 -27.618749 12.1365L-31.865559 12.15M-24.001299 18.2494L-27.111959 12.5145 M-13.192541 17.2181C-14.166331 18.1548 -15.191031 18.3386 -16.376491 18.3386C-18.445261 18.3386 -20.308501 17.0276 -20.308501 13.4561C-20.308501 9.88449 -18.499111 8.57349 -16.430341 8.57349C-14.361561 8.57349 -12.758211 9.62966 -12.758211 13.2012H-19.977731 M-5.740684 18.3258C-7.150344 18.4655 -8.008254 17.7322 -8.008254 16.3869V6.08093M-5.858344 8.642H-7.621754M-10.118446 8.642H-8.384564 M1.774793 8.60908C0.394373 8.41894 -0.854017 9.31927 -1.495997 10.6193M-1.850627 8.77269V18.1226 M5.458434 4.97076H5.482364M5.442204 8.80402V18.1446 M17.01745 17.2181C16.04366 18.1548 15.01896 18.3386 13.8335 18.3386C11.76473 18.3386 9.90149 17.0276 9.90149 13.4561C9.90149 9.88449 11.71088 8.57349 13.77965 8.57349C15.84843 8.57349 17.45178 9.62966 17.45178 13.2012H10.23226 M27.652755 8.69055L24.283295 18.119L24.082055 18.1189L20.677735 8.69055 M31.767619 10.2457C32.131979 9.28012 33.548329 8.56665 34.888349 8.56665C36.741589 8.56665 38.243939 9.8797 38.243939 11.4994L38.249689 12.957V15.5711C38.249689 16.614 38.225119 17.3527 38.526489 18.2784M37.870339 12.957H35.142369C32.638969 12.957 31.338719 14.3433 31.338719 15.8374C31.338719 17.3315 32.576829 18.3408 34.192499 18.3408C36.174729 18.3408 37.800569 16.8882 38.201139 15.7324 M43.215602 4.125V18.1264 M62.037485 18.1371L54.474105 18.1423V4.94958C55.422025 4.94958 60.595785 4.95044 61.995785 4.95044M60.983545 11.2966H54.938145 M66.078892 8.77967L66.079152 18.1279M72.913442 18.1279V12.0738C72.913442 11.3619 73.009172 8.79026 70.626082 8.58694C68.868042 8.43694 67.179002 9.56164 66.402662 10.9562 M84.689742 18.1243V4.12329M84.329992 16.7727C83.467992 17.8707 82.369682 18.3402 81.060122 18.3402C78.878792 18.3402 77.227462 17.0292 77.227462 13.4576C77.227462 9.88607 78.984452 8.57507 81.165772 8.57507C82.435382 8.57507 83.644942 9.11426 84.329992 10.1748 M89.532908 8.77398V22.3934M89.898788 10.1239C90.781798 9.02711 91.963098 8.55811 93.271998 8.55811C95.453328 8.55811 97.031978 9.90408 97.031978 13.4756C97.031978 17.0472 95.347678 18.3232 93.166348 18.3232C91.895128 18.3232 90.609328 17.7827 89.898788 16.7195 M109.106993 13.4569C109.106993 16.5223 107.236043 18.3403 104.928103 18.3403C102.620163 18.3403 100.749203 16.5223 100.749203 13.4569C100.749203 10.3915 102.620163 8.57349 104.928103 8.57349C107.236043 8.57349 109.106993 10.3915 109.106993 13.4569Z M113.478438 4.97076H113.502368M113.462208 8.80402V18.1446 M118.388905 8.77967L118.389165 18.1279M125.223455 18.1279V12.0738C125.223455 11.3619 125.319185 8.79026 122.936095 8.58694C121.178055 8.43694 119.489015 9.56164 118.712675 10.9562 M132.969315 18.3258C131.559655 18.4655 130.701745 17.7322 130.701745 16.3869V6.08093M132.851655 8.642H131.088245M128.591553 8.642H130.325435"></path></g></g></g><g id="g-root-tx_language_5uvcixlt0cn-stroke" data-item-order="0" data-item-id="tx_language_5uvcixlt0cn" data-item-class="Label Stroke" data-item-index="none" data-renderer-id="0" transform="matrix(1, 0, 0, 1, 639, 243)"><g id="tx_language_5uvcixlt0cn-stroke" fill="none" stroke-linecap="square" stroke-linejoin="miter" stroke-miterlimit="4" stroke="#484848" stroke-width="2" transform="matrix(1, 0, 0, 1, 6, 2)"><g xmlns="http://www.w3.org/2000/svg" transform="translate(146, 8)"><path d="M-126.233285 18.1451L-133.381885 18.1452L-133.423585 11.2996V4.93762 M-122.332387 10.2457C-121.968027 9.28012 -120.551677 8.56665 -119.211657 8.56665C-117.358417 8.56665 -115.856067 9.8797 -115.856067 11.4994L-115.850317 12.957V15.5711C-115.850317 16.614 -115.874887 17.3527 -115.573517 18.2784M-116.229667 12.957H-118.957637C-121.461037 12.957 -122.761287 14.3433 -122.761287 15.8374C-122.761287 17.3315 -121.523177 18.3408 -119.907507 18.3408C-117.925277 18.3408 -116.299437 16.8882 -115.898867 15.7324 M-111.021099 8.77967L-111.020839 18.1279M-104.186549 18.1279V12.0738C-104.186549 11.3619 -104.090819 8.79026 -106.473909 8.58694C-108.231949 8.43694 -109.920989 9.56164 -110.697329 10.9562 M-92.400849 8.65246V18.6545C-92.400849 23.3512 -97.694269 23.0007 -99.129159 21.4703M-92.734529 16.5732C-93.414669 17.6608 -94.638939 18.2139 -95.924819 18.2139C-98.106139 18.2139 -99.863129 16.9029 -99.863129 13.3313C-99.863129 9.75974 -98.211799 8.44873 -96.030469 8.44873C-94.762439 8.44873 -93.457399 9.1294 -92.734529 10.5024 M-80.833382 18.1148L-80.833642 8.7666M-87.667932 8.7666L-87.667932 14.8207C-87.667932 15.5325 -87.762932 18.0958 -85.380572 18.3075C-83.290342 18.4933 -82.016912 17.6528 -81.314542 16.4701 M-75.912381 10.2457C-75.548021 9.28012 -74.131671 8.56665 -72.791651 8.56665C-70.938411 8.56665 -69.436061 9.8797 -69.436061 11.4994L-69.430311 12.957V15.5711C-69.430311 16.614 -69.454881 17.3527 -69.153511 18.2784M-69.809661 12.957H-72.537631C-75.041031 12.957 -76.341281 14.3433 -76.341281 15.8374C-76.341281 17.3315 -75.103171 18.3408 -73.487501 18.3408C-71.505271 18.3408 -69.879431 16.8882 -69.478861 15.7324 M-57.590851 8.65246V18.6545C-57.590851 23.3512 -62.884271 23.0007 -64.319161 21.4703M-57.924531 16.5732C-58.604671 17.6608 -59.828941 18.2139 -61.114821 18.2139C-63.296141 18.2139 -65.053131 16.9029 -65.053131 13.3313C-65.053131 9.75974 -63.401801 8.44873 -61.220471 8.44873C-59.952441 8.44873 -58.647401 9.1294 -57.924531 10.5024 M-46.182547 17.2181C-47.156337 18.1548 -48.181037 18.3386 -49.366497 18.3386C-51.435267 18.3386 -53.298507 17.0276 -53.298507 13.4561C-53.298507 9.88449 -51.489117 8.57349 -49.420347 8.57349C-47.351567 8.57349 -45.748217 9.62966 -45.748217 13.2012H-52.967737 M-31.343189 18.1804L-35.352469 18.1827V4.94829C-34.404549 4.94829 -33.126009 4.94607 -31.726009 4.94607C-30.273369 4.90961 -26.493109 6.17329 -26.493109 11.5108C-26.493109 16.8483 -30.018159 18.1804 -31.343189 18.1804Z M-15.272551 17.2181C-16.246341 18.1548 -17.271041 18.3386 -18.456501 18.3386C-20.525271 18.3386 -22.388511 17.0276 -22.388511 13.4561C-22.388511 9.88449 -20.579121 8.57349 -18.510351 8.57349C-16.441571 8.57349 -14.838221 9.62966 -14.838221 13.2012H-22.057741 M-7.820693 18.3258C-9.230353 18.4655 -10.088263 17.7322 -10.088263 16.3869V6.08093M-7.938353 8.642H-9.701763M-12.198455 8.642H-10.464573 M2.737451 17.2181C1.763661 18.1548 0.738961 18.3386 -0.446499 18.3386C-2.515269 18.3386 -4.378509 17.0276 -4.378509 13.4561C-4.378509 9.88449 -2.569119 8.57349 -0.500349 8.57349C1.568431 8.57349 3.171781 9.62966 3.171781 13.2012H-4.047739 M14.031786 16.2538C13.659816 17.6492 12.092216 18.3386 10.623116 18.3386C8.485746 18.3386 6.719876 17.0276 6.719876 13.4561C6.719876 9.88449 8.589276 8.57349 10.726646 8.57349C12.233656 8.57349 13.883766 9.41043 14.117056 10.9154 M21.169312 18.3258C19.759652 18.4655 18.901742 17.7322 18.901742 16.3869V6.08093M21.051652 8.642H19.288242M16.79155 8.642H18.525432 M25.258437 4.97076H25.282367M25.242207 8.80402V18.1446 M37.966993 13.4569C37.966993 16.5223 36.096043 18.3403 33.788103 18.3403C31.480163 18.3403 29.609203 16.5223 29.609203 13.4569C29.609203 10.3915 31.480163 8.57349 33.788103 8.57349C36.096043 8.57349 37.966993 10.3915 37.966993 13.4569Z M42.158909 8.77967L42.159169 18.1279M48.993459 18.1279V12.0738C48.993459 11.3619 49.089189 8.79026 46.706099 8.58694C44.948059 8.43694 43.259019 9.56164 42.482679 10.9562 M67.677499 18.1371L60.114119 18.1423V4.94958C61.062039 4.94958 66.235799 4.95044 67.635799 4.95044M66.623559 11.2966H60.578159 M71.718906 8.77967L71.719166 18.1279M78.553456 18.1279V12.0738C78.553456 11.3619 78.649186 8.79026 76.266096 8.58694C74.508056 8.43694 72.819016 9.56164 72.042676 10.9562 M90.329757 18.1243V4.12329M89.970007 16.7727C89.108007 17.8707 88.009697 18.3402 86.700137 18.3402C84.518807 18.3402 82.867477 17.0292 82.867477 13.4576C82.867477 9.88607 84.624467 8.57507 86.805787 8.57507C88.075397 8.57507 89.284957 9.11426 89.970007 10.1748 M95.172923 8.77398V22.3934M95.538803 10.1239C96.421813 9.02711 97.603113 8.55811 98.912013 8.55811C101.093343 8.55811 102.671993 9.90408 102.671993 13.4756C102.671993 17.0472 100.987693 18.3232 98.806363 18.3232C97.535143 18.3232 96.249343 17.7827 95.538803 16.7195 M114.747007 13.4569C114.747007 16.5223 112.876057 18.3403 110.568117 18.3403C108.260177 18.3403 106.389217 16.5223 106.389217 13.4569C106.389217 10.3915 108.260177 8.57349 110.568117 8.57349C112.876057 8.57349 114.747007 10.3915 114.747007 13.4569Z M119.118453 4.97076H119.142383M119.102223 8.80402V18.1446 M124.028934 8.77967L124.029194 18.1279M130.863484 18.1279V12.0738C130.863484 11.3619 130.959214 8.79026 128.576124 8.58694C126.818084 8.43694 125.129044 9.56164 124.352704 10.9562 M138.60933 18.3258C137.19967 18.4655 136.34176 17.7322 136.34176 16.3869V6.08093M138.49167 8.642H136.72826M134.231568 8.642H135.96545"></path></g></g></g><g id="g-root-tx_socketio_1lvieyaxlt1qi-stroke" data-item-order="0" data-item-id="tx_socketio_1lvieyaxlt1qi" data-item-class="Label Stroke" data-item-index="none" data-renderer-id="0" transform="matrix(1, 0, 0, 1, 351, 357)"><g id="tx_socketio_1lvieyaxlt1qi-stroke" fill="none" stroke-linecap="square" stroke-linejoin="miter" stroke-miterlimit="4" stroke="#484848" stroke-width="2" transform="matrix(1, 0, 0, 1, 4, 2)"><g xmlns="http://www.w3.org/2000/svg" transform="translate(52, 8)"><path d="M-30.778896 7.45723C-31.210196 5.89331 -32.829916 4.73169 -34.918556 4.73169C-37.367366 4.73169 -39.068456 5.93098 -39.068456 7.75431C-39.068456 9.72412 -37.603786 10.6852 -35.099496 11.406C-32.902496 12.0451 -30.665496 12.8125 -30.665496 15.2879C-30.665496 16.9509 -31.977596 18.3458 -35.034806 18.3458C-37.507226 18.3458 -39.087556 17.1057 -39.452386 15.4828 M-18.707996 13.4569C-18.707996 16.5223 -20.578946 18.3403 -22.886886 18.3403C-25.194826 18.3403 -27.065786 16.5223 -27.065786 13.4569C-27.065786 10.3915 -25.194826 8.57349 -22.886886 8.57349C-20.578946 8.57349 -18.707996 10.3915 -18.707996 13.4569Z M-7.703207 16.2538C-8.075177 17.6492 -9.642777 18.3386 -11.111877 18.3386C-13.249247 18.3386 -15.015117 17.0276 -15.015117 13.4561C-15.015117 9.88449 -13.145717 8.57349 -11.008347 8.57349C-9.501337 8.57349 -7.851227 9.41043 -7.617937 10.9154 M-3.539507 4.125V18.1264M2.382663 8.61034L-3.152927 14.4619M3.043993 18.2842L-1.072627 12.7849 M13.772463 17.2181C12.798673 18.1548 11.773973 18.3386 10.588513 18.3386C8.519743 18.3386 6.656503 17.0276 6.656503 13.4561C6.656503 9.88449 8.465893 8.57349 10.534663 8.57349C12.603443 8.57349 14.206793 9.62966 14.206793 13.2012H6.987273 M21.224324 18.3258C19.814664 18.4655 18.956754 17.7322 18.956754 16.3869V6.08093M21.106664 8.642H19.343254M16.846562 8.642H18.580444 M25.399651 17.9874H25.423581 M30.853442 4.97076H30.877372M30.837212 8.80402V18.1446 M43.561998 13.4569C43.561998 16.5223 41.691048 18.3403 39.383108 18.3403C37.075168 18.3403 35.204208 16.5223 35.204208 13.4569C35.204208 10.3915 37.075168 8.57349 39.383108 8.57349C41.691048 8.57349 43.561998 10.3915 43.561998 13.4569Z"></path></g></g></g><g id="g-root-chec_hwier6xlt154-stroke" data-item-order="0" data-item-id="chec_hwier6xlt154" data-item-class="Icon Stroke" data-item-index="none" data-renderer-id="0" transform="matrix(1, 0, 0, 1, 315, 303)"><g id="chec_hwier6xlt154-stroke" fill="none" stroke-linecap="round" stroke-linejoin="round" stroke-miterlimit="1.5" stroke="#e15e5a" stroke-width="1.6" transform="matrix(1.25, 0, 0, 1.25, -5, -5)"><g xmlns="http://www.w3.org/2000/svg" transform="translate(12, 12)"><path d="M8.5,12a1,1,0,0,0,1,1h2v3.5L15,13h7.5a1,1,0,0,0,1-1V1.5a1,1,0,0,0-1-1H9.5a1,1,0,0,0-1,1ZM1.25 10.25a2.25 2.25 0 1 0 4.5 0a2.25 2.25 0 1 0 -4.5 0M3.5,13.5a3,3,0,0,0-3,3v2H2l.5,5h2l.5-5H6.5v-2A3,3,0,0,0,3.5,13.5ZM18.58,4.5,15.73,8.3a.78.78,0,0,1-.54.3.76.76,0,0,1-.57-.22L13.14,6.91"></path></g></g></g><g id="g-root-tx_realtime_hwier6xlt153-stroke" data-item-order="0" data-item-id="tx_realtime_hwier6xlt153" data-item-class="Label Stroke" data-item-index="none" data-renderer-id="0" transform="matrix(1, 0, 0, 1, 351, 306)"><g id="tx_realtime_hwier6xlt153-stroke" fill="none" stroke-linecap="square" stroke-linejoin="miter" stroke-miterlimit="4" stroke="#e15e5a" stroke-width="2" transform="matrix(1, 0, 0, 1, 5, 2)"><g xmlns="http://www.w3.org/2000/svg" transform="translate(129, 8)"><path d="M-116.690013 18.1329V4.94524L-111.893743 4.92993C-110.824013 4.96747 -108.502593 5.72941 -108.502593 8.47691C-108.502593 11.2244 -110.824003 12.0614 -111.893743 12.1365L-116.140553 12.15M-108.276293 18.2494L-111.386953 12.5145 M-97.467535 17.2181C-98.441325 18.1548 -99.466025 18.3386 -100.651485 18.3386C-102.720255 18.3386 -104.583495 17.0276 -104.583495 13.4561C-104.583495 9.88449 -102.774105 8.57349 -100.705335 8.57349C-98.636555 8.57349 -97.033205 9.62966 -97.033205 13.2012H-104.252725 M-92.86736 10.2457C-92.503 9.28012 -91.08665 8.56665 -89.74663 8.56665C-87.89339 8.56665 -86.39104 9.8797 -86.39104 11.4994L-86.38529 12.957V15.5711C-86.38529 16.614 -86.40986 17.3527 -86.10849 18.2784M-86.76464 12.957H-89.49261C-91.99601 12.957 -93.29626 14.3433 -93.29626 15.8374C-93.29626 17.3315 -92.05815 18.3408 -90.44248 18.3408C-88.46025 18.3408 -86.83441 16.8882 -86.43384 15.7324 M-81.419378 4.125V18.1264 M-77.623765 12.6503L-74.369315 12.6503 M-67.725677 18.3258C-69.135337 18.4655 -69.993247 17.7322 -69.993247 16.3869V6.08093M-67.843337 8.642H-69.606747M-72.103439 8.642H-70.369557 M-63.636552 4.97076H-63.612622M-63.652782 8.80402V18.1446 M-58.705302 8.81417L-58.705032 18.1624M-51.870752 18.1624L-51.881622 11.4697C-51.946072 10.5262 -52.313002 9.07848 -54.187222 8.64916C-56.126912 8.20484 -57.606712 9.24827 -58.343122 10.5949M-45.035692 18.1624V12.1083C-45.035692 11.3964 -44.921092 9.20604 -47.352092 8.64916C-49.381192 8.18437 -50.915492 9.34748 -51.615882 10.7827 M-33.607535 17.2181C-34.581325 18.1548 -35.606025 18.3386 -36.791485 18.3386C-38.860255 18.3386 -40.723495 17.0276 -40.723495 13.4561C-40.723495 9.88449 -38.914105 8.57349 -36.845335 8.57349C-34.776555 8.57349 -33.173205 9.62966 -33.173205 13.2012H-40.392725 M-13.867797 15.1299C-14.528597 17.0338 -16.317417 18.3984 -18.420397 18.3984C-21.085347 18.3984 -23.245717 16.2071 -23.245717 13.5039V9.62109C-23.245717 6.91792 -21.085347 4.72656 -18.420397 4.72656C-16.317417 4.72656 -14.528597 6.09117 -13.867797 7.99505 M-1.628 13.4569C-1.628 16.5223 -3.49895 18.3403 -5.80689 18.3403C-8.11483 18.3403 -9.98579 16.5223 -9.98579 13.4569C-9.98579 10.3915 -8.11483 8.57349 -5.80689 8.57349C-3.49895 8.57349 -1.628 10.3915 -1.628 13.4569Z M2.584688 8.81417L2.584958 18.1624M9.419238 18.1624L9.408368 11.4697C9.343918 10.5262 8.976988 9.07848 7.102768 8.64916C5.163078 8.20484 3.683278 9.24827 2.946868 10.5949M16.254298 18.1624V12.1083C16.254298 11.3964 16.368898 9.20604 13.937898 8.64916C11.908798 8.18437 10.374498 9.34748 9.674108 10.7827 M21.054689 8.81417L21.054959 18.1624M27.889239 18.1624L27.878369 11.4697C27.813919 10.5262 27.446989 9.07848 25.572769 8.64916C23.633079 8.20484 22.153279 9.24827 21.416869 10.5949M34.724299 18.1624V12.1083C34.724299 11.3964 34.838899 9.20604 32.407899 8.64916C30.378799 8.18437 28.844499 9.34748 28.144109 10.7827 M46.31163 18.1148L46.31137 8.7666M39.47708 8.7666L39.47708 14.8207C39.47708 15.5325 39.38208 18.0958 41.76444 18.3075C43.85467 18.4933 45.1281 17.6528 45.83047 16.4701 M51.113911 8.77967L51.114171 18.1279M57.948461 18.1279V12.0738C57.948461 11.3619 58.044191 8.79026 55.661101 8.58694C53.903061 8.43694 52.214021 9.56164 51.437681 10.9562 M62.903441 4.97076H62.927371M62.887211 8.80402V18.1446 M74.626788 16.2538C74.254818 17.6492 72.687218 18.3386 71.218118 18.3386C69.080748 18.3386 67.314878 17.0276 67.314878 13.4561C67.314878 9.88449 69.184278 8.57349 71.321648 8.57349C72.828658 8.57349 74.478768 9.41043 74.712058 10.9154 M78.912623 10.2457C79.276983 9.28012 80.693333 8.56665 82.033353 8.56665C83.886593 8.56665 85.388943 9.8797 85.388943 11.4994L85.394693 12.957V15.5711C85.394693 16.614 85.370123 17.3527 85.671493 18.2784M85.015343 12.957H82.287373C79.783973 12.957 78.483723 14.3433 78.483723 15.8374C78.483723 17.3315 79.721833 18.3408 81.337503 18.3408C83.319733 18.3408 84.945573 16.8882 85.346143 15.7324 M93.194306 18.3258C91.784646 18.4655 90.926736 17.7322 90.926736 16.3869V6.08093M93.076646 8.642H91.313236M88.816544 8.642H90.550426 M97.283431 4.97076H97.307361M97.267201 8.80402V18.1446 M109.991987 13.4569C109.991987 16.5223 108.121037 18.3403 105.813097 18.3403C103.505157 18.3403 101.634197 16.5223 101.634197 13.4569C101.634197 10.3915 103.505157 8.57349 105.813097 8.57349C108.121037 8.57349 109.991987 10.3915 109.991987 13.4569Z M114.183903 8.77967L114.184163 18.1279M121.018453 18.1279V12.0738C121.018453 11.3619 121.114183 8.79026 118.731093 8.58694C116.973053 8.43694 115.284013 9.56164 114.507673 10.9562"></path></g></g></g><path id="cu_m7c46qxlugoy" d="M25 25 L 25 28 L 25 37 A12 12 45 0 0 37 49 L 37.1 49 L 43 49" transform="translate(312, 330)" style="fill:none;stroke-linecap:round;stroke-linejoin:round;stroke-miterlimit:1.5;stroke:#bbbbbb;stroke-width:2.23;stroke-dasharray:5.6, 7.8"></path><g id="g-root-tx_backend_vb3ak2xlt0qu-stroke" data-item-order="0" data-item-id="tx_backend_vb3ak2xlt0qu" data-item-class="Label Stroke" data-item-index="none" data-renderer-id="0" transform="matrix(1, 0, 0, 1, 183, 6)"><g id="tx_backend_vb3ak2xlt0qu-stroke" fill="none" stroke-linecap="square" stroke-linejoin="miter" stroke-miterlimit="4" stroke="#4682e3" stroke-width="2" transform="matrix(1, 0, 0, 1, 8, 2)"><g xmlns="http://www.w3.org/2000/svg" transform="translate(48, 8)"><path d="M-35.62148 18.1797V4.94531M-35.17844 11.1797H-30.97431M-35.17844 4.94531H-31.02773C-29.27773 4.94531 -27.9652 5.60156 -27.9652 8.00781C-27.9652 9.93281 -29.75169 10.9245 -30.64492 11.1797C-29.60585 11.2526 -27.5277 12.0656 -27.5277 14.7344C-27.5277 17.4031 -29.60585 18.1432 -30.64492 18.1797H-35.17844 M-22.80737 10.2457C-22.44301 9.28012 -21.02666 8.56665 -19.68664 8.56665C-17.8334 8.56665 -16.33105 9.8797 -16.33105 11.4994L-16.3253 12.957V15.5711C-16.3253 16.614 -16.34987 17.3527 -16.0485 18.2784M-16.70465 12.957H-19.43262C-21.93602 12.957 -23.23627 14.3433 -23.23627 15.8374C-23.23627 17.3315 -21.99816 18.3408 -20.38249 18.3408C-18.40026 18.3408 -16.77442 16.8882 -16.37385 15.7324 M-4.68321 16.2538C-5.05518 17.6492 -6.62278 18.3386 -8.09188 18.3386C-10.22925 18.3386 -11.99512 17.0276 -11.99512 13.4561C-11.99512 9.88449 -10.12572 8.57349 -7.98835 8.57349C-6.48134 8.57349 -4.83123 9.41043 -4.59794 10.9154 M-0.51951 4.125V18.1264M5.40266 8.61034L-0.13293 14.4619M6.06399 18.2842L1.94737 12.7849 M16.792459 17.2181C15.818669 18.1548 14.793969 18.3386 13.608509 18.3386C11.539739 18.3386 9.676499 17.0276 9.676499 13.4561C9.676499 9.88449 11.485889 8.57349 13.554659 8.57349C15.623439 8.57349 17.226789 9.62966 17.226789 13.2012H10.007269 M21.27391 8.77967L21.27417 18.1279M28.10846 18.1279V12.0738C28.10846 11.3619 28.20419 8.79026 25.8211 8.58694C24.06306 8.43694 22.37402 9.56164 21.59768 10.9562 M39.884761 18.1243V4.12329M39.525011 16.7727C38.663011 17.8707 37.564701 18.3402 36.255141 18.3402C34.073811 18.3402 32.422481 17.0292 32.422481 13.4576C32.422481 9.88607 34.179471 8.57507 36.360791 8.57507C37.630401 8.57507 38.839961 9.11426 39.525011 10.1748"></path></g></g></g><g id="g-root-tx_googlecl_1ur5f76xlt0xs-stroke" data-item-order="0" data-item-id="tx_googlecl_1ur5f76xlt0xs" data-item-class="Label Stroke" data-item-index="none" data-renderer-id="0" transform="matrix(1, 0, 0, 1, -9, 207)"><g id="tx_googlecl_1ur5f76xlt0xs-stroke" fill="none" stroke-linecap="square" stroke-linejoin="miter" stroke-miterlimit="4" stroke="#484848" stroke-width="2" transform="matrix(1, 0, 0, 1, 5, 2)"><g xmlns="http://www.w3.org/2000/svg" transform="translate(147, 8)"><path d="M-128.117991 12.3702L-124.544491 12.3361L-124.555291 16.8469C-125.761991 18.0193 -126.908931 18.3984 -129.226471 18.3984C-131.891421 18.3984 -134.051791 16.2071 -134.051791 13.5039V9.62109C-134.051791 6.91792 -131.891421 4.72656 -129.226471 4.72656C-127.218671 4.72656 -125.497291 5.97044 -124.770391 7.73992 M-111.847994 13.4569C-111.847994 16.5223 -113.718944 18.3403 -116.026884 18.3403C-118.334824 18.3403 -120.205784 16.5223 -120.205784 13.4569C-120.205784 10.3915 -118.334824 8.57349 -116.026884 8.57349C-113.718944 8.57349 -111.847994 10.3915 -111.847994 13.4569Z M-99.857988 13.4569C-99.857988 16.5223 -101.728938 18.3403 -104.036878 18.3403C-106.344818 18.3403 -108.215778 16.5223 -108.215778 13.4569C-108.215778 10.3915 -106.344818 8.57349 -104.036878 8.57349C-101.728938 8.57349 -99.857988 10.3915 -99.857988 13.4569Z M-88.655831 8.65246V18.6545C-88.655831 23.3512 -93.949251 23.0007 -95.384141 21.4703M-88.989511 16.5732C-89.669651 17.6608 -90.893921 18.2139 -92.179801 18.2139C-94.361121 18.2139 -96.118111 16.9029 -96.118111 13.3313C-96.118111 9.75974 -94.466781 8.44873 -92.285451 8.44873C-91.017421 8.44873 -89.712381 9.1294 -88.989511 10.5024 M-83.759374 4.125V18.1264 M-72.197531 17.2181C-73.171321 18.1548 -74.196021 18.3386 -75.381481 18.3386C-77.450251 18.3386 -79.313491 17.0276 -79.313491 13.4561C-79.313491 9.88449 -77.504101 8.57349 -75.435331 8.57349C-73.366551 8.57349 -71.763201 9.62966 -71.763201 13.2012H-78.982721 M-52.457794 15.1299C-53.118594 17.0338 -54.907414 18.3984 -57.010394 18.3984C-59.675344 18.3984 -61.835714 16.2071 -61.835714 13.5039V9.62109C-61.835714 6.91792 -59.675344 4.72656 -57.010394 4.72656C-54.907414 4.72656 -53.118594 6.09117 -52.457794 7.99505 M-47.879377 4.125V18.1264 M-35.167994 13.4569C-35.167994 16.5223 -37.038944 18.3403 -39.346884 18.3403C-41.654824 18.3403 -43.525784 16.5223 -43.525784 13.4569C-43.525784 10.3915 -41.654824 8.57349 -39.346884 8.57349C-37.038944 8.57349 -35.167994 10.3915 -35.167994 13.4569Z M-24.168366 18.1148L-24.168626 8.7666M-31.002916 8.7666L-31.002916 14.8207C-31.002916 15.5325 -31.097916 18.0958 -28.715556 18.3075C-26.625326 18.4933 -25.351896 17.6528 -24.649526 16.4701 M-12.365235 18.1243V4.12329M-12.724985 16.7727C-13.586985 17.8707 -14.685295 18.3402 -15.994855 18.3402C-18.176185 18.3402 -19.827515 17.0292 -19.827515 13.4576C-19.827515 9.88607 -18.070525 8.57507 -15.889205 8.57507C-14.619595 8.57507 -13.410035 9.11426 -12.724985 10.1748 M7.278211 4.94531C4.015271 4.94531 0.752281 4.95044 -2.510709 4.95044M2.374641 18.1241V5.45566 M14.639814 8.60908C13.259394 8.41894 12.011004 9.31927 11.369024 10.6193M11.014394 8.77269V18.1226 M18.262645 10.2457C18.627005 9.28012 20.043355 8.56665 21.383375 8.56665C23.236615 8.56665 24.738965 9.8797 24.738965 11.4994L24.744715 12.957V15.5711C24.744715 16.614 24.720145 17.3527 25.021515 18.2784M24.365365 12.957H21.637395C19.133995 12.957 17.833745 14.3433 17.833745 15.8374C17.833745 17.3315 19.071855 18.3408 20.687525 18.3408C22.669755 18.3408 24.295595 16.8882 24.696165 15.7324 M29.573917 8.77967L29.574177 18.1279M36.408467 18.1279V12.0738C36.408467 11.3619 36.504197 8.79026 34.121107 8.58694C32.363067 8.43694 30.674027 9.56164 29.897687 10.9562 M47.342838 10.3814C47.047108 9.4042 45.892798 8.58374 44.282708 8.58374C42.394988 8.58374 41.175318 9.44691 41.083668 10.7511C40.978628 12.2457 42.212738 12.8218 44.143238 13.3386C45.836848 13.7969 47.780258 14.2772 47.625968 16.1222C47.526598 17.3105 46.549828 18.3458 44.193108 18.3458C42.287178 18.3458 41.209798 17.5302 40.875438 16.4244 M52.130625 4.125V18.1264 M57.162639 10.2457C57.526999 9.28012 58.943349 8.56665 60.283369 8.56665C62.136609 8.56665 63.638959 9.8797 63.638959 11.4994L63.644709 12.957V15.5711C63.644709 16.614 63.620139 17.3527 63.921509 18.2784M63.265359 12.957H60.537389C58.033989 12.957 56.733739 14.3433 56.733739 15.8374C56.733739 17.3315 57.971849 18.3408 59.587519 18.3408C61.569749 18.3408 63.195589 16.8882 63.596159 15.7324 M71.444321 18.3258C70.034661 18.4655 69.176751 17.7322 69.176751 16.3869V6.08093M71.326661 8.642H69.563251M67.066559 8.642H68.800441 M75.533446 4.97076H75.557376M75.517216 8.80402V18.1446 M88.242002 13.4569C88.242002 16.5223 86.371052 18.3403 84.063112 18.3403C81.755172 18.3403 79.884212 16.5223 79.884212 13.4569C79.884212 10.3915 81.755172 8.57349 84.063112 8.57349C86.371052 8.57349 88.242002 10.3915 88.242002 13.4569Z M92.433918 8.77967L92.434178 18.1279M99.268468 18.1279V12.0738C99.268468 11.3619 99.364198 8.79026 96.981108 8.58694C95.223068 8.43694 93.534028 9.56164 92.757688 10.9562 M109.288549 18.1453L114.237219 4.97268L114.825089 4.97266L119.788709 18.1453M111.105969 14.2942H117.964609 M124.12622 18.1308V4.94395L129.40463 4.92822C130.50346 4.96678 132.88801 5.74944 132.88801 8.57165C132.88801 11.3939 130.50346 12.2536 129.40463 12.3307L124.6541 12.3449 M137.49011 4.93762V18.1269"></path></g></g></g></g></svg>