<svg id="logo" xmlns="http://www.w3.org/2000/svg" xmlns:xlink="http://www.w3.org/1999/xlink" viewBox="0 0 1842.90175 466">
    <defs>
        <linearGradient id="linear-gradient" x1="97.02319" y1="164.61475" x2="97.02319" y2="169.82239" gradientUnits="userSpaceOnUse"><stop offset="0" stop-color="#32b999"/>
            <stop offset="0.63108" stop-color="#acd83d"/>
            <stop offset="1" stop-color="#f6eb05"/>
        </linearGradient>
        <linearGradient id="linear-gradient-2" x1="16.26467" y1="325.45548" x2="190.66866" y2="325.45548" gradientUnits="userSpaceOnUse">
            <stop offset="0" stop-color="#1d4380"/>
            <stop offset="0.04157" stop-color="#1f4c85"/>
            <stop offset="0.24445" stop-color="#26739d"/>
            <stop offset="0.4451" stop-color="#2b92af"/>
            <stop offset="0.64054" stop-color="#2fa7bc"/>
            <stop offset="0.82833" stop-color="#31b5c4"/>
            <stop offset="1" stop-color="#32b9c7"/>
        </linearGradient>
        <linearGradient id="linear-gradient-3" x1="103.46594" y1="2.16143" x2="103.46594" y2="241.84377" gradientUnits="userSpaceOnUse">
            <stop offset="0" stop-color="#4bb940"/>
            <stop offset="0.27166" stop-color="#4bba42"/>
            <stop offset="0.42628" stop-color="#4cbc4b"/>
            <stop offset="0.55156" stop-color="#4dc059"/>
            <stop offset="0.66116" stop-color="#4fc66c"/>
            <stop offset="0.76048" stop-color="#51cd86"/>
            <stop offset="0.8524" stop-color="#53d7a6"/>
            <stop offset="0.93686" stop-color="#56e1ca"/>
            <stop offset="1" stop-color="#59ebeb"/>
        </linearGradient>
    </defs>
    <path d="M96.34474,166.53437l-1.8032,3.9219h4.9633l-1.8012-3.9219a14.716,14.716,0,0,1-.6787-1.8277A15.54108,15.54108,0,0,1,96.34474,166.53437Z" fill="url(#linear-gradient)"/>
    <path d="M162.26461,281.37616l-19.17578,19.17328c16.40039,16.5694,20.36621,29.69531,20.46393,40.36133.09277,12.76861-6.708,24.07721-12.62891,31.06549l-47.459,47.45209-39.626-39.6269c-1.06391-1.07226-2.06781-2.12988-3.0293-3.17681-.34466-.3769-.666-.75-.997-1.124-13.0069-14.55761-16.34088-26.33892-16.4317-36.04791a33.488,33.488,0,0,1,.7392-5.69171c.11248-.58148,11.582,11.112,19.60449,19.35132a13.30567,13.30567,0,0,0-.2533,2.57055,13.1257,13.1257,0,1,0,10.4527-12.917L50.23507,318.33331l11.32647-15.50592,20.5102,20.51117a13.38507,13.38507,0,1,0,9.58209-9.376L71.04006,293.34925,86.07223,278.319l15.543,15.54492a13.31206,13.31206,0,1,0,7.53118-8.4815L94.07717,270.316l16.57062-16.57,9.13135-9.2088,50.69158-50.61175.4004-.40869.31054-.375L53.45943,272.58759l-17.3847,17.3872-.34131.39161c-8.1665,9.64056-19.36188,26.439-19.46875,49.07855v.31744c0,18.416,8.27148,39.25586,28.39838,59.209l58.80182,58.79779,67.00585-67.00293.4004-.39447.31054-.374c8.20606-9.64459,19.38178-26.43945,19.48627-49.087C190.75783,322.41175,182.50973,301.45276,162.26461,281.37616Z" fill="url(#linear-gradient-2)"/><path d="M162.27242,65.18616,103.47115,6.39227,36.46047,73.39075l-.398.3999-.31061.36975c-8.207,9.64447-19.38177,26.44135-19.48724,49.08875-.08893,18.49762,8.15814,39.45849,28.40228,59.53711l9.886-9.88593.00073.00073,45.24408-45.2398s-16.57666-16.39551-32.96826-.00782L49.43477,145.0456a44.80734,44.80734,0,0,1-6.054-21.79645c-.09277-12.7685,6.71-24.07855,12.63281-31.06586l47.45752-47.45312,39.62067,39.626c1.0664,1.07422,2.0683,2.13233,3.0332,3.17621.34271.37994.663.75543.997,1.12891,12.41974,13.8966,16.57733,32.54187,16.95837,41.99206.00623.15418-9.82543-8.00378-17.60876-14.48541a12.879,12.879,0,1,0-8.36682,8.69055l21.97558,19.79486-6.18487,7.29706c-.99707,1.39551-2.00781,2.686-2.99219,3.85107l-5.5332,5.53272-15.74707-15.749a13.37093,13.37093,0,1,0-9.58014,9.37591l15.85162,15.84821-14.583,14.584-11.75292-11.7525a13.30822,13.30822,0,1,0-7.52924,8.479l11.27728,11.27643L36.46047,270.23694l-.398.40381-.31061.3775L153.47652,191.5705l17.38581-17.38282.33978-.39349c8.16113-9.63873,19.36133-26.43616,19.46582-49.08063v-.31536C190.66793,105.98169,182.40035,85.14179,162.27242,65.18616Z" fill="url(#linear-gradient-3)"/><path d="M118.47939,305.30273a14.3971,14.3971,0,0,1-4.74756.84864,7.25935,7.25935,0,0,1-7.93506-7.79688c.023-4.61035,3.188-7.98144,8.37061-7.98144a9.55262,9.55262,0,0,1,3.853.71093l-.48145,1.62891a8.00762,8.00762,0,0,0-3.417-.666c-3.76123,0-6.21533,2.33984-6.21533,6.21582,0,3.92187,2.3623,6.23828,5.96289,6.23828a6.50164,6.50164,0,0,0,2.66015-.41309v-4.61035h-3.1416v-1.60449h5.09131Z" fill="#f2f2f2"/><path d="M92.3998,322.73047H87.69814v-1.69629H99.142v1.69629H94.41787v13.76074H92.3998Z" fill="#f2f2f2"/><path d="M92.96377,172.62842l-1.60547,4.8623h-2.064l5.252-15.457h2.4082l5.2749,15.457h-2.1333l-1.65088-4.8623Zm5.06836-1.55957-1.51368-4.44922c-.34375-1.00879-.57324-1.92578-.80273-2.82031h-.04541c-.22949.917-.48193,1.85742-.77979,2.79785l-1.51367,4.47168Z" fill="#f2f2f2"/><path d="M120.516,149.23584a9.899,9.899,0,0,1-4.08252.73437c-4.35742,0-7.63672-2.752-7.63672-7.82031a7.69212,7.69212,0,0,1,8.07276-8.11914,8.28115,8.28115,0,0,1,3.66943.68848l-.48144,1.62793a7.26558,7.26558,0,0,0-3.11914-.6416c-3.62354,0-6.03174,2.31543-6.03174,6.375,0,3.78418,2.17871,6.21484,5.93994,6.21484a7.98846,7.98846,0,0,0,3.25635-.6416Z" fill="#f2f2f2"/>
    <g id="company_name" data-name="company name">
    <path d="M377.5375,180.59717a42.78351,42.78351,0,0,0-15.68067-12.47168,50.25033,50.25033,0,0,0-21.50976-4.35059,52.16781,52.16781,0,0,0-22.62012,4.93067,54.356,54.356,0,0,0-18.04,13.77685,64.82072,64.82072,0,0,0-11.93457,21.02783,83.565,83.565,0,0,0,0,52.93213,66.58716,66.58716,0,0,0,11.7959,20.88282,53.626,53.626,0,0,0,17.624,13.77636,49.07723,49.07723,0,0,0,21.78711,4.93067,47.10615,47.10615,0,0,0,23.59082-5.80078,47.80619,47.80619,0,0,0,16.93067-16.24219l36.08007,28.13379a75.91655,75.91655,0,0,1-31.63964,26.97363,94.32577,94.32577,0,0,1-39.41114,8.70117,116.39856,116.39856,0,0,1-42.46386-7.541,96.532,96.532,0,0,1-33.583-21.60743,98.27706,98.27706,0,0,1-22.06445-34.08007q-7.91016-20.0127-7.91016-44.66553,0-24.64893,7.91016-44.666a98.31143,98.31143,0,0,1,22.06445-34.07959,96.67258,96.67258,0,0,1,33.583-21.60791,116.39846,116.39846,0,0,1,42.46386-7.54052,99.97886,99.97886,0,0,1,17.34668,1.59472,90.74807,90.74807,0,0,1,17.7627,5.07569,78.17872,78.17872,0,0,1,16.791,9.28125,68.32742,68.32742,0,0,1,14.43262,14.21191Z" fill="#1b75bb"/><path d="M454.69375,127.23h76.04687a128.64933,128.64933,0,0,1,28.44824,3.04541,66.00835,66.00835,0,0,1,23.59082,10.15137,50.04441,50.04441,0,0,1,16.09766,19.14258q5.96484,12.0388,5.9668,30.019,0,21.75292-10.82422,36.98-10.82373,15.22705-31.63965,19.28711l49.958,86.72168H560.43789l-41.07715-82.08106H497.99062v82.08106H454.69375Zm43.29687,84.98145h25.53321q5.82861,0,12.35058-.43506a37.28777,37.28777,0,0,0,11.7959-2.61035,20.53284,20.53284,0,0,0,8.74316-6.81592q3.46582-4.63623,3.46875-13.05176,0-7.83105-3.05273-12.47168a20.71847,20.71847,0,0,0-7.77149-7.106,33.48827,33.48827,0,0,0-10.82421-3.33545,84.5715,84.5715,0,0,0-11.93457-.87011h-28.3086Z" fill="#1b75bb"/><path d="M649.52773,127.23h43.29688V332.57715H649.52773Z" fill="#1b75bb"/><path d="M863.0414,327.25391a102.22619,102.22619,0,0,1-26.2832,9.60644,132.05881,132.05881,0,0,1-27.92676,2.95606,78.75909,78.75909,0,0,1-27.92578-4.80274A63.77245,63.77245,0,0,1,758.81972,321.249,62.42468,62.42468,0,0,1,744.31,299.541a80.4025,80.4025,0,0,1,0-56.90235,62.4634,62.4634,0,0,1,14.50976-21.70752A63.851,63.851,0,0,1,780.90566,207.167a78.75916,78.75916,0,0,1,27.92578-4.80322,102.2745,102.2745,0,0,1,28.56543,3.78711,55.79369,55.79369,0,0,1,22.90723,13.0249L840.226,241.3457a40.06345,40.06345,0,0,0-13.1416-9.2373q-7.30224-3.13917-18.25293-3.14063a41.85075,41.85075,0,0,0-16.51758,3.14063,37.08261,37.08261,0,0,0-12.68554,8.77539,38.60992,38.60992,0,0,0-8.12305,13.39453,51.64317,51.64317,0,0,0,0,33.7168,38.74044,38.74044,0,0,0,8.12305,13.30176,37.00892,37.00892,0,0,0,12.68554,8.77539,41.79913,41.79913,0,0,0,16.51758,3.14062,53.76348,53.76348,0,0,0,16.0625-2.125,60.148,60.148,0,0,0,10.76856-4.34082V285.501H812.48183v-26.6045H863.0414Z"/><path d="M916.33925,205.68945h87.794V232.293H944.81289v24.38672h56.03418V283.2832H944.81289v26.6045h62.60547v26.60351H916.33925Z"/><path d="M1057.42812,205.68945h38.69531l54.93946,90.89649h.36523V205.68945h28.47363V336.49121h-37.23437L1086.267,243.37793h-.36524v93.11328h-28.47363Z"/><path d="M1234.474,205.68945h87.794V232.293h-59.32032v24.38672h56.03418V283.2832h-56.03418v26.6045h62.60547v26.60351H1234.474Z"/><path d="M1400.56875,231.18457h-36.87012V205.68945H1465.9125v25.49512h-36.87012V336.49121h-28.47363Z"/><path d="M1507.16054,205.68945h28.47364V336.49121h-28.47364Z"/><path d="M1673.25625,239.68311a28.01125,28.01125,0,0,0-10.3125-7.94434,33.96448,33.96448,0,0,0-14.14551-2.771,35.24759,35.24759,0,0,0-14.876,3.14063,35.64937,35.64937,0,0,0-11.86426,8.77539,41.00151,41.00151,0,0,0-7.84863,13.39453,51.64317,51.64317,0,0,0,0,33.7168,42.10489,42.10489,0,0,0,7.75781,13.30176,35.13923,35.13923,0,0,0,11.58985,8.77539,33.14781,33.14781,0,0,0,14.32812,3.14062,31.77364,31.77364,0,0,0,15.51465-3.69531,31.00922,31.00922,0,0,0,11.13379-10.3457l23.72852,17.92089a49.5421,49.5421,0,0,1-20.80762,17.18164,63.74292,63.74292,0,0,1-25.91895,5.542,78.75909,78.75909,0,0,1-27.92578-4.80274,63.77231,63.77231,0,0,1-22.08593-13.76465,62.42457,62.42457,0,0,1-14.50977-21.708,80.4025,80.4025,0,0,1,0-56.90235,62.46329,62.46329,0,0,1,14.50977-21.70752,63.85084,63.85084,0,0,1,22.08593-13.76416,78.75916,78.75916,0,0,1,27.92578-4.80322,67.82228,67.82228,0,0,1,11.40821,1.01611,61.14438,61.14438,0,0,1,11.68164,3.23291,51.95146,51.95146,0,0,1,11.043,5.91211,44.29971,44.29971,0,0,1,9.49121,9.05274Z"/><path d="M1804.85586,237.65088a20.29769,20.29769,0,0,0-9.40039-6.55859,33.37884,33.37884,0,0,0-11.22461-2.12452,29.17649,29.17649,0,0,0-6.38868.73877,24.36828,24.36828,0,0,0-6.20605,2.30957,13.56993,13.56993,0,0,0-4.74512,4.15674,10.61356,10.61356,0,0,0-1.82519,6.28125,10.4524,10.4524,0,0,0,4.37988,9.05274,41.18246,41.18246,0,0,0,11.043,5.35742q6.66065,2.21776,14.32812,4.43457a58.75324,58.75324,0,0,1,14.32813,6.28125,34.15872,34.15872,0,0,1,11.043,10.90039q4.37988,6.83643,4.38086,18.29a42.50565,42.50565,0,0,1-4.01563,19.02929,38.52832,38.52832,0,0,1-10.86035,13.48633,45.96165,45.96165,0,0,1-15.87988,7.94434,71.99048,71.99048,0,0,1-42.43653-1.294,58.37117,58.37117,0,0,1-20.07812-12.5625L1751.559,300.835a29.59209,29.59209,0,0,0,11.042,9.14453,31.19678,31.19678,0,0,0,13.78125,3.2334,30.868,30.868,0,0,0,7.02735-.83105,22.76545,22.76545,0,0,0,6.38769-2.49414,13.85348,13.85348,0,0,0,4.56348-4.249,10.69208,10.69208,0,0,0,1.7334-6.09765,11.11438,11.11438,0,0,0-4.47168-9.32911,41.14289,41.14289,0,0,0-11.22461-5.81933q-6.75587-2.39941-14.60254-4.80371a64.97692,64.97692,0,0,1-14.60156-6.4668,35.33018,35.33018,0,0,1-11.22559-10.71484q-4.4751-6.65186-4.47168-17.55176a38.814,38.814,0,0,1,15.0586-31.77637,47.41341,47.41341,0,0,1,15.78808-8.03662,63.966,63.966,0,0,1,18.43457-2.67871,71.71786,71.71786,0,0,1,21.17285,3.14062,48.74522,48.74522,0,0,1,18.43555,10.53077Z"/><path d="M768.01015,140.18115a9.7719,9.7719,0,0,0-3.60254-2.7417,11.989,11.989,0,0,0-4.94043-.95605,12.364,12.364,0,0,0-9.33886,4.11181,14.08911,14.08911,0,0,0-2.74121,4.62208,17.6142,17.6142,0,0,0,0,11.63427,14.4771,14.4771,0,0,0,2.709,4.58985,12.26,12.26,0,0,0,4.04785,3.02832,11.70021,11.70021,0,0,0,5.00489,1.08349,11.21178,11.21178,0,0,0,5.41894-1.2749,10.79646,10.79646,0,0,0,3.88867-3.56982l8.28711,6.18359a17.25268,17.25268,0,0,1-7.26758,5.92871,22.49007,22.49007,0,0,1-9.05273,1.9126,27.80864,27.80864,0,0,1-9.75293-1.65723,22.30643,22.30643,0,0,1-7.71387-4.74951,21.51951,21.51951,0,0,1-5.06836-7.49072,27.439,27.439,0,0,1,0-19.63477,21.5284,21.5284,0,0,1,5.06836-7.49072,22.32833,22.32833,0,0,1,7.71387-4.74951,27.8087,27.8087,0,0,1,9.75293-1.65772,23.91678,23.91678,0,0,1,3.98437.35108,21.54587,21.54587,0,0,1,4.08008,1.11523,18.23456,18.23456,0,0,1,3.85742,2.04,15.35808,15.35808,0,0,1,3.31446,3.124Z"/><path d="M785.35,128.45117h30.66406v9.17969H795.29531v8.415h19.57031v9.18017H795.29531v9.17969h21.86621v9.18018H785.35Z"/><path d="M828.31777,128.45117h9.94531v35.95459h18.42285v9.18018H828.31777Z"/><path d="M865.35586,128.45117h9.94531v35.95459H893.724v9.18018H865.35586Z"/><path d="M940.06972,156.18213a21.78694,21.78694,0,0,1-1.21093,7.395,16.26854,16.26854,0,0,1-3.60157,5.86523,16.499,16.499,0,0,1-5.96093,3.88867,25.00261,25.00261,0,0,1-16.51172,0,16.49493,16.49493,0,0,1-5.96-3.88867,16.2706,16.2706,0,0,1-3.60254-5.86523,21.763,21.763,0,0,1-1.21094-7.395v-27.731h9.94531V155.7998a10.98694,10.98694,0,0,0,.66895,3.88868,9.2785,9.2785,0,0,0,1.88086,3.09179,8.5218,8.5218,0,0,0,2.90039,2.04,9.097,9.097,0,0,0,3.666.73291,8.8801,8.8801,0,0,0,3.63379-.73291,8.615,8.615,0,0,0,2.86817-2.04,9.27867,9.27867,0,0,0,1.88086-3.09179,10.98735,10.98735,0,0,0,.66992-3.88868V128.45117h9.94433Z"/><path d="M952.43789,128.45117h9.94531v35.95459h18.42285v9.18018H952.43789Z"/><path d="M1003.94668,128.45117h8.22461l19.63476,45.13477h-11.2207l-3.88867-9.5625H999.16543l-3.76075,9.5625H984.43984Zm3.82519,13.13233-5.48242,14.0249h11.0293Z"/><path d="M1039.13613,128.45117h17.46777a30.81945,30.81945,0,0,1,6.53418.66895,15.51918,15.51918,0,0,1,5.41895,2.23144,11.13406,11.13406,0,0,1,3.69726,4.20752,14.25855,14.25855,0,0,1,1.3711,6.59815,13.24756,13.24756,0,0,1-2.48633,8.12793,11.19305,11.19305,0,0,1-7.26758,4.23974l11.47461,19.061h-11.9209l-9.43554-18.041h-4.90821v18.041h-9.94531Zm9.94531,18.67871h5.86524q1.33885,0,2.83691-.0957a8.89276,8.89276,0,0,0,2.709-.57373,4.68978,4.68978,0,0,0,2.00781-1.49805,4.56053,4.56053,0,0,0,.79687-2.86914,4.76225,4.76225,0,0,0-.70117-2.74121,4.68239,4.68239,0,0,0-1.78516-1.56152,7.93285,7.93285,0,0,0-2.48632-.7334,20.284,20.284,0,0,0-2.74121-.19141h-6.502Z"/><path d="M1104.92519,128.45117H1122.393a30.81959,30.81959,0,0,1,6.53418.66895,15.5192,15.5192,0,0,1,5.41894,2.23144,11.13417,11.13417,0,0,1,3.69727,4.20752,14.25868,14.25868,0,0,1,1.37109,6.59815,13.24756,13.24756,0,0,1-2.48633,8.12793,11.19305,11.19305,0,0,1-7.26758,4.23974l11.47461,19.061h-11.9209l-9.43554-18.041h-4.90821v18.041h-9.94531Zm9.94531,18.67871h5.86524q1.33887,0,2.83691-.0957a8.89276,8.89276,0,0,0,2.709-.57373,4.68978,4.68978,0,0,0,2.00781-1.49805,4.56053,4.56053,0,0,0,.79688-2.86914,4.76217,4.76217,0,0,0-.70118-2.74121,4.68243,4.68243,0,0,0-1.78515-1.56152,7.933,7.933,0,0,0-2.48633-.7334,20.28385,20.28385,0,0,0-2.74121-.19141h-6.502Z"/><path d="M1149.42226,128.45117h30.66407v9.17969h-20.71875v8.415h19.57031v9.18017h-19.57031v9.17969h21.86621v9.18018h-31.81153Z"/><path d="M1214.31972,139.47949a7.08452,7.08452,0,0,0-3.2832-2.26269,11.77806,11.77806,0,0,0-3.91992-.7334,10.32987,10.32987,0,0,0-2.23145.25488,8.59138,8.59138,0,0,0-2.168.79688,4.725,4.725,0,0,0-1.65722,1.43457,3.62826,3.62826,0,0,0-.6377,2.16748,3.59023,3.59023,0,0,0,1.53028,3.12353,14.45828,14.45828,0,0,0,3.85644,1.84912q2.32617.76466,5.00488,1.52979a20.66813,20.66813,0,0,1,5.00391,2.16748,11.87157,11.87157,0,0,1,3.85742,3.76123,11.47017,11.47017,0,0,1,1.5293,6.31152,14.51226,14.51226,0,0,1-1.40234,6.56592,13.31964,13.31964,0,0,1-3.793,4.65381,16.12053,16.12053,0,0,1-5.5459,2.74121,25.43433,25.43433,0,0,1-14.82227-.44629,20.44283,20.44283,0,0,1-7.01269-4.335l7.07617-7.77734a10.3183,10.3183,0,0,0,3.85742,3.15576,11.00064,11.00064,0,0,0,4.8125,1.11523,10.88735,10.88735,0,0,0,2.45508-.28662,8.01576,8.01576,0,0,0,2.23144-.86084,4.82266,4.82266,0,0,0,1.59375-1.46631,3.65638,3.65638,0,0,0,.60547-2.10351,3.81836,3.81836,0,0,0-1.5625-3.21924,14.42873,14.42873,0,0,0-3.91992-2.0083q-2.35986-.82764-5.10058-1.65723a22.86824,22.86824,0,0,1-5.09961-2.23144,12.27442,12.27442,0,0,1-3.9209-3.69776,10.57072,10.57072,0,0,1-1.56153-6.05615,13.55117,13.55117,0,0,1,1.43457-6.375,13.83758,13.83758,0,0,1,3.82422-4.58984,16.62495,16.62495,0,0,1,5.51465-2.773,22.58643,22.58643,0,0,1,6.43848-.92481,25.33162,25.33162,0,0,1,7.39551,1.084,17.07217,17.07217,0,0,1,6.43847,3.63379Z"/><path d="M1231.78652,128.45117h30.66406v9.17969h-20.71875v8.415h19.57032v9.18017h-19.57032v9.17969H1263.598v9.18018h-31.81152Z"/><path d="M1289.224,128.45117h8.22461l19.63477,45.13477h-11.22071l-3.88867-9.5625h-17.53125l-3.76074,9.5625h-10.96485Zm3.8252,13.13233-5.48243,14.0249h11.0293Z"/><path d="M1324.41347,128.45117h17.46778a30.81959,30.81959,0,0,1,6.53418.66895,15.5192,15.5192,0,0,1,5.41894,2.23144,11.13409,11.13409,0,0,1,3.69727,4.20752,14.25868,14.25868,0,0,1,1.37109,6.59815,13.24756,13.24756,0,0,1-2.48633,8.12793,11.193,11.193,0,0,1-7.26757,4.23974l11.4746,19.061h-11.92089l-9.43555-18.041h-4.9082v18.041h-9.94532Zm9.94532,18.67871h5.86523q1.33887,0,2.83691-.0957a8.89276,8.89276,0,0,0,2.709-.57373,4.68978,4.68978,0,0,0,2.00781-1.49805,4.56053,4.56053,0,0,0,.79688-2.86914,4.76217,4.76217,0,0,0-.70118-2.74121,4.68243,4.68243,0,0,0-1.78515-1.56152,7.933,7.933,0,0,0-2.48633-.7334,20.28385,20.28385,0,0,0-2.74121-.19141h-6.502Z"/><path d="M1398.04531,140.18115a9.772,9.772,0,0,0-3.60254-2.7417,11.989,11.989,0,0,0-4.94043-.95605,12.364,12.364,0,0,0-9.33887,4.11181,14.08928,14.08928,0,0,0-2.74121,4.62208,17.6142,17.6142,0,0,0,0,11.63427,14.47731,14.47731,0,0,0,2.709,4.58985,12.26,12.26,0,0,0,4.04785,3.02832,11.70019,11.70019,0,0,0,5.00488,1.08349,11.21182,11.21182,0,0,0,5.41895-1.2749,10.79646,10.79646,0,0,0,3.88867-3.56982l8.28711,6.18359a17.25268,17.25268,0,0,1-7.26758,5.92871,22.49014,22.49014,0,0,1-9.05273,1.9126,27.8086,27.8086,0,0,1-9.75293-1.65723,22.30643,22.30643,0,0,1-7.71387-4.74951,21.51951,21.51951,0,0,1-5.06836-7.49072,27.43885,27.43885,0,0,1,0-19.63477,21.5284,21.5284,0,0,1,5.06836-7.49072,22.32833,22.32833,0,0,1,7.71387-4.74951,27.80866,27.80866,0,0,1,9.75293-1.65772,23.91678,23.91678,0,0,1,3.98437.35108,21.54587,21.54587,0,0,1,4.08008,1.11523,18.23481,18.23481,0,0,1,3.85742,2.04,15.35827,15.35827,0,0,1,3.31445,3.124Z"/><path d="M1415.00234,128.45117h9.94531v16.82959h19.31641V128.45117h9.94434v45.13477h-9.94434V154.07861h-19.31641v19.50733h-9.94531Z"/><path d="M1487.74062,128.45117h9.94434v45.13477h-9.94434Z"/><path d="M1509.5414,128.45117H1523.057l19.18847,31.36475h.127V128.45117h9.94531v45.13477h-13.00488l-19.69922-32.12989h-.12695v32.12989h-9.94532Z"/><path d="M1586.61367,139.47949a7.08457,7.08457,0,0,0-3.2832-2.26269,11.77807,11.77807,0,0,0-3.91993-.7334,10.32978,10.32978,0,0,0-2.23144.25488,8.59124,8.59124,0,0,0-2.168.79688,4.72489,4.72489,0,0,0-1.65723,1.43457,3.62826,3.62826,0,0,0-.63769,2.16748,3.59022,3.59022,0,0,0,1.53027,3.12353,14.45835,14.45835,0,0,0,3.85645,1.84912q2.32617.76466,5.00488,1.52979a20.66813,20.66813,0,0,1,5.00391,2.16748,11.87157,11.87157,0,0,1,3.85742,3.76123,11.47017,11.47017,0,0,1,1.52929,6.31152,14.51226,14.51226,0,0,1-1.40234,6.56592,13.31964,13.31964,0,0,1-3.793,4.65381,16.12044,16.12044,0,0,1-5.5459,2.74121,25.4343,25.4343,0,0,1-14.82226-.44629,20.44287,20.44287,0,0,1-7.0127-4.335l7.07617-7.77734a10.31833,10.31833,0,0,0,3.85743,3.15576,11.00064,11.00064,0,0,0,4.8125,1.11523,10.88733,10.88733,0,0,0,2.45507-.28662,8.01582,8.01582,0,0,0,2.23145-.86084,4.82276,4.82276,0,0,0,1.59375-1.46631,3.65638,3.65638,0,0,0,.60547-2.10351,3.81839,3.81839,0,0,0-1.5625-3.21924,14.42873,14.42873,0,0,0-3.91992-2.0083q-2.35987-.82764-5.10059-1.65723a22.86824,22.86824,0,0,1-5.09961-2.23144,12.27463,12.27463,0,0,1-3.9209-3.69776,10.57072,10.57072,0,0,1-1.56152-6.05615,13.55117,13.55117,0,0,1,1.43457-6.375,13.83746,13.83746,0,0,1,3.82422-4.58984,16.62495,16.62495,0,0,1,5.51465-2.773,22.58636,22.58636,0,0,1,6.43847-.92481,25.33162,25.33162,0,0,1,7.39551,1.084,17.07221,17.07221,0,0,1,6.43848,3.63379Z"/><path d="M1612.433,137.24854h-12.87792v-8.79737h35.70019v8.79737h-12.87793v36.3374H1612.433Z"/><path d="M1642.96816,128.45117h9.94434v45.13477h-9.94434Z"/><path d="M1673.50332,137.24854h-12.87793v-8.79737h35.70019v8.79737h-12.87793v36.3374h-9.94433Z"/><path d="M1742.225,156.18213a21.78694,21.78694,0,0,1-1.21094,7.395,16.26852,16.26852,0,0,1-3.60156,5.86523,16.49908,16.49908,0,0,1-5.96094,3.88867,25.00261,25.00261,0,0,1-16.51172,0,16.495,16.495,0,0,1-5.96-3.88867,16.27073,16.27073,0,0,1-3.60254-5.86523,21.763,21.763,0,0,1-1.21094-7.395v-27.731h9.94532V155.7998a10.98694,10.98694,0,0,0,.66894,3.88868,9.2785,9.2785,0,0,0,1.88086,3.09179,8.5218,8.5218,0,0,0,2.90039,2.04,9.09712,9.09712,0,0,0,3.666.73291,8.88014,8.88014,0,0,0,3.63379-.73291,8.61493,8.61493,0,0,0,2.86816-2.04,9.2785,9.2785,0,0,0,1.88086-3.09179,10.98712,10.98712,0,0,0,.66992-3.88868V128.45117h9.94434Z"/><path d="M1762.94375,137.24854h-12.87793v-8.79737H1785.766v8.79737h-12.87793v36.3374h-9.94433Z"/><path d="M1793.98867,128.45117h30.66406v9.17969H1803.934v8.415h19.57031v9.18017H1803.934v9.17969h21.86621v9.18018h-31.81152Z"/></g></svg>