<svg viewBox="0 0 50 40" xmlns="http://www.w3.org/2000/svg">
    <path d="M9.4 36.5c0-.8-.6-1.4-1.4-1.4-.8 0-1.4.6-1.4 1.4S7.2 38 8 38c.8 0 1.4-.7 1.4-1.5z" fill="#fff"/>
    <path d="M11.5 36.5c0-1.6-1-2.9-2.4-3.3V15.9l5.4-3.9 8.8 17 .3.5v.1l6 10.4h12.7l6.3-11-5.8-10.1 3.7-11.3L35.8 0 25.3 7.6 29 18.9l-4.6 7.9-8.5-16.4-2.9-9H3.1L0 10.8l7 5.1v17.3c-1.4.4-2.4 1.8-2.4 3.3C4.5 38.4 6.1 40 8 40s3.5-1.6 3.5-3.5zm-4.9 0c0-.8.6-1.4 1.4-1.4.8 0 1.4.6 1.4 1.4S8.8 38 8 38c-.8 0-1.4-.7-1.4-1.5zm4.9-33l2.1 6.6-5.6 4L2.4 10l2.1-6.6h7zm3.3 7zm29.1-2.1L40.8 18h-10l-3.1-9.5 8.1-5.9 8.1 5.8zM30.7 37.9L25.5 29l5.2-8.9H41l5.2 8.9-5.2 8.9H30.7z" fill="#002431"/>
    <path fill="#006b92" d="M8 14.1l5.6-4-2.1-6.6h-7l-2.1 6.6z"/>
    <path fill="#bfe3f0" d="M30.8 18h10l3.1-9.6-8.1-5.9-8.1 5.9z"/>
    <path fill="#40abd2" d="M41 20.1H30.7L25.5 29l5.2 8.9H41l5.1-8.9z"/>
</svg>