<svg id="ONE_PLACE" xmlns="http://www.w3.org/2000/svg" xmlns:xlink="http://www.w3.org/1999/xlink" viewBox="0 0 365.5 165.17">
  <defs>
    <style>
      .cls-1, .cls-11, .cls-13, .cls-20, .cls-26, .cls-30, .cls-31 {
        fill: none;
      }

      .cls-14, .cls-2, .cls-5 {
        fill: #abe3ed;
      }

      .cls-3 {
        fill: #fd8a66;
      }

      .cls-10, .cls-16, .cls-18, .cls-19, .cls-22, .cls-29, .cls-4, .cls-7 {
        fill: #fff;
      }

      .cls-16, .cls-18, .cls-20, .cls-22, .cls-26, .cls-28, .cls-29, .cls-30, .cls-4, .cls-5, .cls-7 {
        stroke: #2cb8d2;
      }

      .cls-28, .cls-29, .cls-4, .cls-7 {
        stroke-linejoin: round;
      }

      .cls-13, .cls-14, .cls-16, .cls-18, .cls-4, .cls-5 {
        stroke-width: 0.5px;
      }

      .cls-11, .cls-13, .cls-14, .cls-16, .cls-18, .cls-19, .cls-20, .cls-22, .cls-26, .cls-30, .cls-31, .cls-5 {
        stroke-miterlimit: 10;
      }

      .cls-6 {
        fill: #d5f1f6;
      }

      .cls-11, .cls-13, .cls-18, .cls-7 {
        stroke-linecap: round;
      }

      .cls-7 {
        stroke-width: 2px;
      }

      .cls-8 {
        fill: #80d4e4;
      }

      .cls-28, .cls-9 {
        fill: #2cb8d2;
      }

      .cls-11, .cls-31 {
        stroke: #24537f;
      }

      .cls-12 {
        fill: #24537f;
      }

      .cls-13 {
        stroke: #fff;
      }

      .cls-14 {
        stroke: #d5f1f6;
      }

      .cls-15 {
        fill: #56c6db;
      }

      .cls-17 {
        fill: #feca40;
      }

      .cls-19 {
        stroke: #fd8a66;
      }

      .cls-21 {
        clip-path: url(#clip-path);
      }

      .cls-23 {
        clip-path: url(#clip-path-2);
      }

      .cls-24 {
        clip-path: url(#clip-path-3);
      }

      .cls-25 {
        clip-path: url(#clip-path-4);
      }

      .cls-26, .cls-28, .cls-29 {
        stroke-width: 0.25px;
      }

      .cls-27 {
        clip-path: url(#clip-path-5);
      }

      .cls-30 {
        stroke-dasharray: 1 2;
      }

      .cls-32 {
        clip-path: url(#clip-path-6);
      }
    </style>
    <clipPath id="clip-path">
      <rect class="cls-1" x="55.99" y="32.9" width="68.51" height="54.58"/>
    </clipPath>
    <clipPath id="clip-path-2">
      <rect class="cls-1" x="122.75" y="126.41" width="21.16" height="13.11"/>
    </clipPath>
    <clipPath id="clip-path-3">
      <rect class="cls-1" x="142.19" y="126.41" width="21.16" height="13.11"/>
    </clipPath>
    <clipPath id="clip-path-4">
      <rect class="cls-1" x="79.14" y="133.28" width="29.31" height="15.01"/>
    </clipPath>
    <clipPath id="clip-path-5">
      <rect class="cls-1" x="28.53" y="77.58" width="19.07" height="9.91"/>
    </clipPath>
    <clipPath id="clip-path-6">
      <rect class="cls-1" x="42.33" y="28.59" width="83.44" height="59"/>
    </clipPath>
  </defs>
  <title>ONE_PLACE-2</title>
  <g id="city-left">
    <g>
      <rect class="cls-2" x="47.93" y="99.86" width="9.77" height="25.74"/>
      <polygon class="cls-3" points="52.82 96.55 47.93 99.86 57.71 99.86 52.82 96.55"/>
      <g>
        <line class="cls-4" x1="47.93" y1="123.19" x2="57.71" y2="123.19"/>
        <line class="cls-4" x1="47.93" y1="121" x2="57.71" y2="121"/>
        <line class="cls-4" x1="47.93" y1="118.81" x2="57.71" y2="118.81"/>
        <line class="cls-4" x1="47.93" y1="116.62" x2="57.71" y2="116.62"/>
        <line class="cls-4" x1="47.93" y1="114.43" x2="57.71" y2="114.43"/>
        <line class="cls-4" x1="47.93" y1="112.24" x2="57.71" y2="112.24"/>
      </g>
      <rect class="cls-5" x="44.65" y="125.6" width="17.12" height="2.39"/>
      <rect class="cls-6" x="47.93" y="107.77" width="9.73" height="2.39"/>
      <rect class="cls-5" x="44.65" y="127.99" width="17.12" height="2.39"/>
    </g>
    <g>
      <line class="cls-7" x1="50.12" y1="107.87" x2="50.12" y2="110.06"/>
      <line class="cls-7" x1="51.49" y1="107.87" x2="51.49" y2="110.06"/>
      <line class="cls-7" x1="52.85" y1="107.87" x2="52.85" y2="110.06"/>
      <line class="cls-7" x1="54.22" y1="107.87" x2="54.22" y2="110.06"/>
      <line class="cls-7" x1="55.59" y1="107.87" x2="55.59" y2="110.06"/>
      <line class="cls-7" x1="48.76" y1="107.87" x2="48.76" y2="110.06"/>
      <line class="cls-7" x1="56.95" y1="107.87" x2="56.95" y2="110.06"/>
    </g>
    <g>
      <path class="cls-8" d="M28.05,129.72a17.53,17.53,0,0,0,2.49.54l.09,0v-18H26.22v16.82C26.85,129.23,27.43,129.53,28.05,129.72Z"/>
      <path class="cls-2" d="M28.05,129.72a17.53,17.53,0,0,0,2.49.54l.09,0V118.53H26.22v10.53C26.85,129.23,27.43,129.53,28.05,129.72Z"/>
      <path class="cls-6" d="M30.63,112.24v18l.15.06H44.62v-18.1Z"/>
      <rect class="cls-2" x="35.11" y="122.6" width="5.31" height="7.75"/>
    </g>
    <g id="GEAR">
      <path class="cls-9" d="M50.11,102.2a4.22,4.22,0,0,1,.27-.36l.47.1a2.86,2.86,0,0,1,1.29-.75l.16-.46.45,0H53l.45,0,.16.46a2.81,2.81,0,0,1,1.29.75l.47-.1a4.22,4.22,0,0,1,.27.36l.14.25a3.65,3.65,0,0,1,.18.41l-.31.37a3.13,3.13,0,0,1,0,1.49l.31.37a3.65,3.65,0,0,1-.18.41c0,.08-.09.16-.14.24a3.18,3.18,0,0,1-.27.37l-.47-.1a2.81,2.81,0,0,1-1.29.75l-.16.46-.45,0h-.28l-.45,0-.16-.46a2.86,2.86,0,0,1-1.29-.75l-.47.1a3.18,3.18,0,0,1-.27-.37c0-.08-.1-.16-.14-.24a3.65,3.65,0,0,1-.18-.41l.32-.37a2.83,2.83,0,0,1,0-1.49l-.32-.37a3.65,3.65,0,0,1,.18-.41l.14-.25"/>
      <path class="cls-10" d="M52,101.68a2.64,2.64,0,0,1,.48-.14l.15-.43.29,0,.29,0,.15.43a2.43,2.43,0,0,1,.48.14,2.84,2.84,0,0,1,.61.35,2.32,2.32,0,0,1,.35.35l.46-.09a3.1,3.1,0,0,1,.29.5l-.3.35a4.21,4.21,0,0,1,.12.48c0,.12,0,.24,0,.35s0,.24,0,.36a4.21,4.21,0,0,1-.12.48l.3.35a3.1,3.1,0,0,1-.29.5l-.46-.09a2.32,2.32,0,0,1-.35.35,2.84,2.84,0,0,1-.61.35,2.43,2.43,0,0,1-.48.14l-.15.43-.29,0-.29,0-.15-.43a2.64,2.64,0,0,1-.48-.14,2.84,2.84,0,0,1-.61-.35,2.32,2.32,0,0,1-.35-.35l-.46.09a3.1,3.1,0,0,1-.29-.5l.3-.35a2.77,2.77,0,0,1-.11-.48,2.19,2.19,0,0,1,0-.36,2.16,2.16,0,0,1,0-.35,2.77,2.77,0,0,1,.11-.48l-.3-.35a3.1,3.1,0,0,1,.29-.5l.46.09a2.32,2.32,0,0,1,.35-.35,2.84,2.84,0,0,1,.61-.35"/>
    </g>
    <g id="C-HEX">
      <polygon class="cls-9" points="55.03 105.21 52.89 106.45 50.75 105.21 50.75 102.74 52.89 101.5 55.03 102.74 55.03 105.21 55.03 105.21"/>
      <polygon class="cls-10" points="52.89 105.62 54.32 104.8 53.6 104.39 52.89 104.8 52.18 104.39 52.18 103.56 52.89 103.15 53.6 103.56 54.32 103.15 52.89 102.33 51.46 103.15 51.46 104.8 52.89 105.62"/>
    </g>
  </g>
  <g id="city-right">
    <g>
      <path class="cls-2" d="M263.36,93.53h-.13a2.58,2.58,0,0,1-1.49-4.7,2,2,0,1,1,3.45-1.27,2,2,0,0,1-.46,1.27,2.59,2.59,0,0,1-1.37,4.7"/>
      <line class="cls-11" x1="263.36" y1="90.28" x2="263.36" y2="91.64"/>
      <line class="cls-11" x1="263.36" y1="93.53" x2="263.36" y2="97.13"/>
      <line class="cls-11" x1="263.36" y1="93.53" x2="263.36" y2="91.64"/>
      <line class="cls-11" x1="263.36" y1="91.64" x2="264.29" y2="90.91"/>
    </g>
    <g>
      <path class="cls-2" d="M268.06,94.67a1.52,1.52,0,1,1,1.52-1.52,1.52,1.52,0,0,1-1.52,1.52"/>
      <line class="cls-11" x1="268.06" y1="94.67" x2="268.06" y2="93.15"/>
      <line class="cls-11" x1="268.06" y1="94.67" x2="268.06" y2="97.13"/>
    </g>
    <g>
      <path class="cls-2" d="M348.34,94.65a1.52,1.52,0,1,1,1.51-1.51,1.52,1.52,0,0,1-1.51,1.51"/>
      <line class="cls-11" x1="348.34" y1="94.65" x2="348.34" y2="93.14"/>
      <line class="cls-11" x1="348.34" y1="94.65" x2="348.34" y2="97.12"/>
    </g>
    <g>
      <path class="cls-2" d="M331.25,126.32h-.14a3,3,0,0,1-1.72-5.41,2.25,2.25,0,1,1,3.44,0,3,3,0,0,1-1.58,5.41"/>
      <line class="cls-11" x1="331.25" y1="122.58" x2="331.25" y2="124.14"/>
      <line class="cls-11" x1="331.25" y1="126.32" x2="331.25" y2="130.47"/>
      <line class="cls-11" x1="331.25" y1="126.32" x2="331.25" y2="124.14"/>
      <line class="cls-11" x1="331.25" y1="124.14" x2="332.33" y2="123.31"/>
    </g>
    <g>
      <path class="cls-2" d="M324.4,127.63a1.75,1.75,0,1,1,1.75-1.74,1.74,1.74,0,0,1-1.75,1.74"/>
      <line class="cls-11" x1="324.4" y1="127.63" x2="324.4" y2="125.89"/>
      <line class="cls-11" x1="324.4" y1="127.63" x2="324.4" y2="130.47"/>
    </g>
    <g>
      <path class="cls-2" d="M287.62,126.32h-.15a3,3,0,0,1-1.72-5.41,2.26,2.26,0,1,1,3.44,0,3,3,0,0,1-1.57,5.41"/>
      <line class="cls-11" x1="287.62" y1="122.58" x2="287.62" y2="124.14"/>
      <line class="cls-11" x1="287.62" y1="126.32" x2="287.62" y2="130.47"/>
      <line class="cls-11" x1="287.62" y1="126.32" x2="287.62" y2="124.14"/>
      <line class="cls-11" x1="287.62" y1="124.14" x2="288.69" y2="123.31"/>
    </g>
    <g>
      <path class="cls-2" d="M291.81,128.55a1.75,1.75,0,1,1,1.75-1.75,1.75,1.75,0,0,1-1.75,1.75"/>
      <line class="cls-11" x1="291.81" y1="128.55" x2="291.81" y2="126.8"/>
      <line class="cls-11" x1="291.81" y1="128.55" x2="291.81" y2="130.46"/>
    </g>
    <g>
      <path class="cls-2" d="M280.77,127.63a1.75,1.75,0,1,1,1.74-1.74,1.74,1.74,0,0,1-1.74,1.74"/>
      <line class="cls-11" x1="280.77" y1="127.63" x2="280.77" y2="125.89"/>
      <line class="cls-11" x1="280.77" y1="127.63" x2="280.77" y2="130.47"/>
    </g>
    <path class="cls-12" d="M289.78,130.21a3.66,3.66,0,0,0-6.28-1.4,2.44,2.44,0,0,0-4,1.4Z"/>
    <rect class="cls-2" x="292.7" y="77.37" width="25.16" height="19.89"/>
    <rect class="cls-6" x="303.22" y="94.46" width="11.74" height="1.98"/>
    <rect class="cls-6" x="303.22" y="92" width="11.74" height="1.98"/>
    <rect class="cls-6" x="303.22" y="89.55" width="11.74" height="1.98"/>
    <rect class="cls-6" x="303.22" y="87.09" width="11.74" height="1.98"/>
    <rect class="cls-6" x="303.22" y="84.64" width="11.74" height="1.98"/>
    <rect class="cls-6" x="303.22" y="82.19" width="11.74" height="1.98"/>
    <rect class="cls-6" x="303.22" y="79.73" width="11.74" height="1.98"/>
    <g>
      <line class="cls-13" x1="307.06" y1="48.83" x2="307.06" y2="50.47"/>
      <path class="cls-14" d="M311.59,56.08V55a4.53,4.53,0,0,0-4.53-4.54h0A4.53,4.53,0,0,0,302.53,55v1.07Z"/>
      <rect class="cls-6" x="305.94" y="55.73" width="2.25" height="13.57"/>
      <rect class="cls-2" x="303.27" y="58.9" width="7.58" height="1.12" rx="0.56" ry="0.56"/>
      <rect class="cls-3" x="302.11" y="55.31" width="9.9" height="1.4"/>
      <rect class="cls-6" x="306.52" y="70.11" width="1.08" height="3.34"/>
      <rect class="cls-6" x="306.02" y="74.27" width="2.09" height="1"/>
    </g>
    <rect class="cls-15" x="291.26" y="75.27" width="28.11" height="2.1"/>
    <g>
      <rect class="cls-10" x="319.83" y="58.95" width="24.08" height="38.44"/>
      <rect class="cls-2" x="319.83" y="58.95" width="24.08" height="38.44"/>
      <rect class="cls-9" x="319.48" y="73.48" width="24.61" height="1.99"/>
      <rect class="cls-9" x="319.48" y="67.65" width="24.61" height="1.99"/>
      <rect class="cls-9" x="319.48" y="96.79" width="24.61" height="0.6"/>
      <rect class="cls-9" x="319.48" y="61.83" width="24.61" height="1.99"/>
      <rect class="cls-9" x="319.48" y="79.31" width="24.61" height="1.99"/>
      <rect class="cls-9" x="319.48" y="90.96" width="24.61" height="1.99"/>
      <rect class="cls-9" x="319.48" y="85.13" width="24.61" height="1.99"/>
      <path class="cls-16" d="M340.37,58.83c0,12.19,0,26.09,0,38.42"/>
      <path class="cls-16" d="M342.22,58.83c0,12.19,0,26.09,0,38.42"/>
      <rect class="cls-2" x="319.83" y="55.91" width="1.23" height="3.03"/>
      <rect class="cls-15" x="321.8" y="53.43" width="20.42" height="5.52"/>
      <polygon class="cls-8" points="340.37 49.72 324.39 49.72 324.39 53.43 342.22 53.43 340.37 49.72"/>
      <rect class="cls-6" x="332.58" y="28.18" width="1.51" height="20.26"/>
      <ellipse class="cls-17" cx="333.41" cy="43.93" rx="2.65" ry="2.64"/>
      <rect class="cls-3" x="329.96" y="42.96" width="6.9" height="1.94" rx="0.97" ry="0.97"/>
      <rect class="cls-15" x="331.24" y="48.22" width="4.34" height="1.45"/>
      <line class="cls-18" x1="331.59" y1="30.91" x2="335.23" y2="30.91"/>
      <line class="cls-18" x1="331.59" y1="32.62" x2="335.23" y2="32.62"/>
      <ellipse class="cls-19" cx="333.29" cy="28.03" rx="1.36" ry="1.35"/>
    </g>
    <g>
      <g>
        <path class="cls-8" d="M270.4,112.34a5.06,5.06,0,0,1-.88.07,5.27,5.27,0,0,1-1.44-.19,5.44,5.44,0,0,1-7.31,0,5.2,5.2,0,0,1-1.43.19l-.55,0-8.69,16.39,0,0a1.92,1.92,0,0,1,1,.39,3.65,3.65,0,0,1,.89.32l.18.09a2.71,2.71,0,0,1,.67.29,1.84,1.84,0,0,1,.42.08h.07a2.11,2.11,0,0,1,.91.19h0a2.05,2.05,0,0,1,1.12.31H280Z"/>
        <path class="cls-6" d="M260.77,112.22a5.44,5.44,0,0,0,7.31,0,5.27,5.27,0,0,0,1.44.19,5.06,5.06,0,0,0,.88-.07l-2-3.76a4.3,4.3,0,0,0-7.6,0l-2,3.81.55,0A5.2,5.2,0,0,0,260.77,112.22Z"/>
      </g>
      <g>
        <g>
          <path class="cls-10" d="M253.55,116.52l-1.41-2.74a3,3,0,0,0-5.39,0l-1.42,2.78,4.11,2.38Z"/>
          <path class="cls-2" d="M252.18,129.6a2.71,2.71,0,0,1,.67.29,1.84,1.84,0,0,1,.42.08h.07a2.11,2.11,0,0,1,.91.19h0a2.08,2.08,0,0,1,1,.24h5.08l-6.81-13.23a4.21,4.21,0,0,1-.62,0,3.86,3.86,0,0,1-1-.14,3.77,3.77,0,0,1-5.18,0,3.75,3.75,0,0,1-1,.14,2.36,2.36,0,0,1-.38,0l-2.54,4.94a19.23,19.23,0,0,0,1.69,2.5c.38.41.76.73,1.13,1.09a1.86,1.86,0,0,1,1.4,1,1.84,1.84,0,0,1,.87.58,4.08,4.08,0,0,0,1,.87,1.65,1.65,0,0,1,.68.25c.19.12.36.26.53.39a1.92,1.92,0,0,1,1,.39,3.65,3.65,0,0,1,.89.32Z"/>
        </g>
        <path class="cls-9" d="M251.56,129.29v-6.2a2.11,2.11,0,0,0-4.22,0V127A18.7,18.7,0,0,0,251.56,129.29Z"/>
      </g>
    </g>
    <path class="cls-20" d="M336.86,130.46H257.67a16.55,16.55,0,1,1,0-33.09H353"/>
    <rect class="cls-2" x="277.08" y="76.55" width="12.56" height="21.04"/>
    <rect class="cls-15" x="281.8" y="75.27" width="3.25" height="22.32"/>
    <polygon class="cls-8" points="277.88 79.22 283 79.22 283 97.59 272.76 97.59 272.76 84.56 277.88 79.22"/>
    <g>
      <path class="cls-3" d="M302.29,100h2.63a3.07,3.07,0,0,1,3.07,3.07v0a0,0,0,0,1,0,0h-8.78a0,0,0,0,1,0,0v0A3.07,3.07,0,0,1,302.29,100Z"/>
      <path class="cls-2" d="M295.75,130.11s5.84-.57,5.84-5.92V109.54s-.32-2.48-1.78-2.48h7.47a3.85,3.85,0,0,0-1.78,2.83v14.32s-.4,6,5.59,5.9c2.35,0-4.12,0-4.12,0H295.75Z"/>
      <rect class="cls-6" x="293.2" y="102.06" width="20.65" height="4.99" rx="2.5" ry="2.5"/>
      <rect class="cls-15" x="292.53" y="103.85" width="21.99" height="1.43" rx="0.62" ry="0.62"/>
    </g>
    <path class="cls-12" d="M317.47,130.19a5.4,5.4,0,0,0-9.26-2.07,3.59,3.59,0,0,0-5.89,2.07Z"/>
  </g>
  <g class="cls-21">
    <g id="ppl-back">
      <animateTransform 
        attributeName="transform"
        type="translate"
        values="
          0 0;
          0 7;
          0 0;"
        keySplines="
          0.5 0 0.5 1;
          0.5 0 0.5 1"
        keyTimes="
          0;0.5;1"
        calcMode="spline"
        begin="0s"
        dur="2s"
        repeatCount="indefinite"/>
      <g>
        <circle class="cls-6" cx="70.15" cy="45.57" r="5.79"/>
        <path class="cls-6" d="M80.66,63A10.36,10.36,0,0,0,60,63h0V73.31a3.51,3.51,0,0,0,3.51,3.5,3.67,3.67,0,0,0,1.06-.16v24.44h11V76.39a3.51,3.51,0,0,0,5.18-3.08V63Z"/>
      </g>
      <g>
        <circle class="cls-6" cx="98.5" cy="45.57" r="5.79"/>
        <path class="cls-6" d="M109,63a10.36,10.36,0,0,0-20.72,0h0V73.31a3.5,3.5,0,0,0,3.5,3.5,3.79,3.79,0,0,0,1.07-.16v24.44h11V76.39A3.51,3.51,0,0,0,109,73.31V63Z"/>
      </g>
    </g>
  </g>
  <g>
    <!-- little coral gear -->
    <g>
      <path class="cls-3" d="M151.58,123.45a6.9,6.9,0,0,0-.09-1L153,122l-.58-1.93-1.53.46a7,7,0,0,0-2.15-2.63l.76-1.41-1.78-.95-.76,1.4a7.1,7.1,0,0,0-2.36-.42,8.43,8.43,0,0,0-1,.08l-.46-1.53-1.93.58.46,1.53a7.12,7.12,0,0,0-2.64,2.16l-1.41-.76-1,1.78,1.41.75a6.91,6.91,0,0,0-.42,2.37,6.8,6.8,0,0,0,.08,1l-1.53.46.58,1.93,1.53-.46a6.89,6.89,0,0,0,2.15,2.63l-.75,1.41,1.77,1,.76-1.41a6.87,6.87,0,0,0,2.37.42,6.77,6.77,0,0,0,1-.08l.47,1.53,1.92-.58-.46-1.53a7,7,0,0,0,2.64-2.16l1.41.76.95-1.77-1.41-.76A6.92,6.92,0,0,0,151.58,123.45Z">
        <animateTransform
          attributeName="transform"
          type="rotate"
          from="0 144.616 123.451"
          to="360 144.616 123.451"
          dur="4s"
          repeatCount="indefinite" />        
      </path>
      <circle class="cls-22" cx="144.62" cy="123.45" r="3.27"/>
    </g>
    <g class="cls-23">

      <!-- little white gear -->
      <g>
        <animateTransform
          attributeName="transform"
          type="rotate"
          from="0 133.789 135.851"
          to="-360 133.789 135.851"
          dur="4s"
          repeatCount="indefinite" /> 
        <path class="cls-14" d="M140.75,135.85a8.59,8.59,0,0,0-.08-1l1.53-.46-.58-1.93-1.53.46a7.08,7.08,0,0,0-2.16-2.63l.76-1.41-1.78-1-.75,1.4a7.16,7.16,0,0,0-2.37-.42,8.43,8.43,0,0,0-1,.08l-.46-1.53-1.93.58.46,1.53a7,7,0,0,0-2.63,2.16L126.8,131l-1,1.78,1.41.75a6.91,6.91,0,0,0-.42,2.37,6.8,6.8,0,0,0,.08,1l-1.53.46.58,1.93,1.53-.46a6.91,6.91,0,0,0,2.16,2.63l-.76,1.41,1.77,1,.76-1.41a6.79,6.79,0,0,0,3.39.34l.46,1.53,1.93-.58-.46-1.53a6.91,6.91,0,0,0,2.63-2.16l1.41.76.95-1.77-1.4-.76A7.16,7.16,0,0,0,140.75,135.85Z"/>
        <circle class="cls-22" cx="133.79" cy="135.85" r="3.27"/>
      </g>
    </g>
    <g class="cls-24">

      <!-- little gold gear -->
      <g>
        <animateTransform
          attributeName="transform"
          type="rotate"
          from="0 153.312 138.055"
          to="-360 153.312 138.055"
          dur="4s"
          repeatCount="indefinite" />
        <path class="cls-17" d="M160.19,137.91a6.79,6.79,0,0,0-.09-1l1.54-.46-.59-1.93-1.53.46a7,7,0,0,0-2.15-2.64l.76-1.41-1.78-.95-.75,1.41a7,7,0,0,0-2.37-.42,6.8,6.8,0,0,0-1,.08l-.46-1.53-1.93.58.46,1.53a7,7,0,0,0-2.64,2.15l-1.41-.75-.95,1.77,1.41.76a6.87,6.87,0,0,0-.42,2.37,6.77,6.77,0,0,0,.08,1l-1.53.47.58,1.92,1.53-.46a7,7,0,0,0,2.15,2.64l-.75,1.41,1.77.95.76-1.41a6.87,6.87,0,0,0,2.37.43,7,7,0,0,0,1-.09l.46,1.53,1.93-.58-.47-1.53a6.92,6.92,0,0,0,2.64-2.15l1.41.76.95-1.78-1.41-.76A6.86,6.86,0,0,0,160.19,137.91Z"/>
        <circle class="cls-22" cx="153.23" cy="137.91" r="3.27"/>
      </g>
    </g>
    <g class="cls-25">
      <g>
        <path class="cls-1" d="M90.65,147a3.19,3.19,0,0,1,.08-.7l-3.65-2.11a7.43,7.43,0,0,0,0,5.61l3.65-2.11A3.1,3.1,0,0,1,90.65,147Z"/>
        <path class="cls-1" d="M92.92,143.92v-4.2a7.37,7.37,0,0,0-4.86,2.8l3.65,2.1A3.32,3.32,0,0,1,92.92,143.92Z"/>
        <path class="cls-1" d="M99.73,142.52a7.37,7.37,0,0,0-4.86-2.8v4.2a3.32,3.32,0,0,1,1.21.7Z"/>
        <path class="cls-1" d="M95,145.26l-.11-.06a2,2,0,0,0-2,0l-.11.06a2.06,2.06,0,0,0-1,1.7s0,0,0,.06a.43.43,0,0,0,0,0,2.06,2.06,0,0,0,1,1.7l.11.06a2,2,0,0,0,2,0l.11-.06a2.06,2.06,0,0,0,1-1.7V147A2.06,2.06,0,0,0,95,145.26Z"/>
        <path class="cls-1" d="M97.06,146.32a3.19,3.19,0,0,1,.08.7,3.1,3.1,0,0,1-.08.69l3.65,2.11a7.43,7.43,0,0,0,0-5.61Z"/>
        <path class="cls-26" d="M88.06,151.51a7.37,7.37,0,0,0,4.86,2.8v-4.2a3.32,3.32,0,0,1-1.21-.7Z"/>
        <path class="cls-26" d="M94.87,150.11v4.2a7.37,7.37,0,0,0,4.86-2.8l-3.65-2.1A3.32,3.32,0,0,1,94.87,150.11Z"/>
        <path id="big-gear" class="cls-3" d="M106.43,147.42v-.81a.56.56,0,0,0-.57-.57h-.8a11,11,0,0,0-.47-2.39l.73-.31a.56.56,0,0,0,.31-.74l-.31-.76a.57.57,0,0,0-.74-.31l-.75.31a10.62,10.62,0,0,0-1.35-2l.57-.57a.58.58,0,0,0,0-.81l-.58-.58a.58.58,0,0,0-.81,0l-.56.57a11.2,11.2,0,0,0-2-1.35l.31-.74a.58.58,0,0,0-.31-.75l-.76-.31a.57.57,0,0,0-.74.31l-.31.74a11,11,0,0,0-2.39-.48v-.8a.57.57,0,0,0-.57-.57h-.81a.57.57,0,0,0-.57.57v.8a11,11,0,0,0-2.39.48l-.31-.74a.57.57,0,0,0-.74-.31l-.76.31a.58.58,0,0,0-.31.75l.31.74a11.12,11.12,0,0,0-2,1.35l-.57-.57a.58.58,0,0,0-.81,0l-.58.58a.58.58,0,0,0,0,.81l.57.57a11.12,11.12,0,0,0-1.35,2l-.74-.31a.58.58,0,0,0-.75.31l-.31.76a.57.57,0,0,0,.31.74l.74.31a11,11,0,0,0-.48,2.39h-.8a.57.57,0,0,0-.57.57v.81a.57.57,0,0,0,.57.57h.8a11,11,0,0,0,.48,2.39l-.74.31a.57.57,0,0,0-.31.74l.31.76a.58.58,0,0,0,.75.31l.74-.31a11.2,11.2,0,0,0,1.35,2l-.57.56a.58.58,0,0,0,0,.81l.58.58a.58.58,0,0,0,.81,0l.57-.57a10.62,10.62,0,0,0,2,1.35l-.31.75a.57.57,0,0,0,.31.74l.76.31a.56.56,0,0,0,.74-.31l.31-.73a11,11,0,0,0,2.39.47v.8a.56.56,0,0,0,.57.57h.81a.56.56,0,0,0,.57-.57v-.8a11,11,0,0,0,2.39-.47l.31.73a.56.56,0,0,0,.74.31l.76-.31a.57.57,0,0,0,.31-.74l-.31-.75a10.7,10.7,0,0,0,2-1.35l.56.57a.58.58,0,0,0,.81,0l.58-.58a.58.58,0,0,0,0-.81l-.57-.56a10.7,10.7,0,0,0,1.35-2l.75.31a.57.57,0,0,0,.74-.31l.31-.76a.56.56,0,0,0-.31-.74l-.73-.31a11,11,0,0,0,.47-2.39h.8A.56.56,0,0,0,106.43,147.42Zm-11.56-7.7a7.37,7.37,0,0,1,4.86,2.8l-3.65,2.1a3.32,3.32,0,0,0-1.21-.7ZM96,147v0a2.06,2.06,0,0,1-1,1.7l-.11.06a2,2,0,0,1-2,0l-.11-.06a2.06,2.06,0,0,1-1-1.7.43.43,0,0,1,0,0s0,0,0-.06a2.06,2.06,0,0,1,1-1.7l.11-.06a2,2,0,0,1,2,0l.11.06a2.06,2.06,0,0,1,1,1.7Zm-3-7.3v4.2a3.32,3.32,0,0,0-1.21.7l-3.65-2.1A7.37,7.37,0,0,1,92.92,139.72ZM86.53,147a7.48,7.48,0,0,1,.55-2.81l3.65,2.11a3.19,3.19,0,0,0-.08.7,3.1,3.1,0,0,0,.08.69l-3.65,2.11A7.47,7.47,0,0,1,86.53,147Zm6.39,7.29a7.37,7.37,0,0,1-4.86-2.8l3.65-2.1a3.32,3.32,0,0,0,1.21.7Zm2,0v-4.2a3.32,3.32,0,0,0,1.21-.7l3.65,2.1A7.37,7.37,0,0,1,94.87,154.31Zm5.84-4.49-3.65-2.11a3.1,3.1,0,0,0,.08-.69,3.19,3.19,0,0,0-.08-.7l3.65-2.11a7.43,7.43,0,0,1,0,5.61Z">
          <animateTransform
          attributeName="transform"
          type="rotate"
          from="0 93.896 147.016"
          to="360 93.896 147.016"
          dur="4s"
          repeatCount="indefinite" />
        </path>
      </g>
    </g>
    <g class="cls-27">
      <g id="blue-gear">
        <animateTransform
          attributeName="transform"
          type="rotate"
          from="0 38.462 87.09"
          to="360 38.462 87.09"
          dur="4s"
          repeatCount="indefinite" />
        <path class="cls-28" d="M46.79,88.12V86.06h-1.7a6.47,6.47,0,0,0-.37-1.39l1.47-.85-1-1.79-1.47.85a7.49,7.49,0,0,0-1-1l.85-1.47-1.79-1-.85,1.47a6.93,6.93,0,0,0-1.39-.37v-1.7H37.43v1.7a7.11,7.11,0,0,0-1.39.37l-.85-1.47-1.78,1,.84,1.47a6.89,6.89,0,0,0-1,1L31.77,82l-1,1.79,1.47.85a6.49,6.49,0,0,0-.38,1.39H30.14v2.06h1.69a6.49,6.49,0,0,0,.38,1.39l-1.47.85,1,1.79,1.47-.85a6.89,6.89,0,0,0,1,1l-.84,1.47,1.78,1L36,93.35a7.11,7.11,0,0,0,1.39.37v1.7h2.06v-1.7a6.93,6.93,0,0,0,1.39-.37l.85,1.47,1.79-1-.85-1.47a7.49,7.49,0,0,0,1-1l1.47.85,1-1.79-1.47-.85a6.47,6.47,0,0,0,.37-1.39Z"/>
        <circle class="cls-29" cx="38.46" cy="87.09" r="2.64"/>
        <circle class="cls-29" cx="38.46" cy="87.09" r="1.65"/>
      </g>
    </g>
  </g>
  <g>
    <rect class="cls-6" x="196.09" y="125.85" width="1.91" height="2.04"/>
    <path id="dashed-line2" class="cls-30" d="M210.51,43h-4.65c-2.56,0-4.65,4.5-4.65,10v68.67c0,5.5,2.09,10,4.65,10h4.65">
      <animate
      attributeType="XML"
      attributeName="stroke-dashoffset"
      dur="4s"
      repeatCount="indefinite"
      keySplines="
          0.5 0 0.5 1;
          0.5 0 0.5 1"
      keyTimes="
        0;0.5;1"
      calcMode="spline"
      begin="0s"
      values="0;37.219;0"
    />
    </path>
    <path id="dashed-line1" class="cls-30" d="M179.25,79h6.51A3.24,3.24,0,0,1,189,82.26v2.41a3.24,3.24,0,0,0,3.24,3.24h18.12">
      <animate
      attributeType="XML"
      attributeName="stroke-dashoffset"
      dur="4s"
      repeatCount="indefinite"
      keySplines="
          0.5 0 0.5 1;
          0.5 0 0.5 1"
      keyTimes="
        0;0.5;1"
      calcMode="spline"
      begin="0s"
      values="0;37.219;0" />
    </path>
  </g>
  <path class="cls-20" d="M188.41,107.45H126.84a16.15,16.15,0,1,0,0,32.3h83.52"/>
  <g>
    <rect class="cls-6" x="121.82" y="70.1" width="3.96" height="4.27"/>
    <rect class="cls-6" x="139.98" y="70.1" width="3.96" height="4.27"/>
    <rect class="cls-6" x="125.78" y="71.32" width="14.2" height="1.83"/>
    <rect class="cls-6" x="176.93" y="76.89" width="3.63" height="4.27"/>
    <rect class="cls-6" x="198" y="137.42" width="1.91" height="2.04"/>
  </g>
  <rect class="cls-10" x="167.33" y="133.63" width="8.61" height="2.01"/>
  <rect class="cls-2" x="169.63" y="121.12" width="27.04" height="16.28"/>
  <rect class="cls-3" x="166.06" y="123.6" width="11.29" height="10.59"/>
  <rect class="cls-9" x="168.13" y="125.54" width="7.15" height="6.71"/>
  <g id="exclamation-mark">
    <path class="cls-12" d="M172.18,130.31v.94h-1v-.94Zm-.26-.36h-.44l-.23-1.88V126.9h.9v1.17Z">
      <animate
      attributeType="XML"
      attributeName="fill"
      values="#24537f;#feca40;#24537f;#24537f"
      dur="0.4s"
      repeatCount="indefinite"/>
    </path>
  </g>
  <rect class="cls-10" x="190.72" y="124.63" width="2.34" height="10.01"/>
  <rect id="slider3" class="cls-12" x="190.01" y="130.78" width="3.75" height="1.75">
      <animateTransform attributeName="transform"
        type="translate"
        values="
          0 -4;
          0 0;
          0 0;
          0 -4;
          0 -4;"
        begin="0s"
        dur="2s"
        repeatCount="indefinite"/>
  </rect>
  <rect class="cls-10" x="185.57" y="124.63" width="2.34" height="10.01"/>
  <rect id="slider2" class="cls-12" x="184.87" y="127.47" width="3.75" height="1.75">
        <animateTransform attributeName="transform"
        type="translate"
        values="
          0 3;
          0 -1;
          0 -1;
          0 3;
          0 3;"
        begin="0s"
        dur="3s"
        repeatCount="indefinite"/>
  </rect>
  <rect class="cls-10" x="180.49" y="124.63" width="2.34" height="10.01"/>
  <rect id="slider1" class="cls-12" x="179.78" y="128.76" width="3.75" height="1.75">
      <animateTransform attributeName="transform"
        type="translate"
        values="
          0 3;
          0 -2;
          0 -2;
          0 3;
          0 3;"
        begin="0s"
        dur="5s"
        repeatCount="indefinite"/>
  </rect>
  <circle class="cls-2" cx="195.56" cy="115.44" r="3.18"/>
  <circle class="cls-2" cx="184.74" cy="115.76" r="3.18"/>
  <rect class="cls-3" x="184.58" y="112.26" width="11.05" height="6.68"/>
  <rect class="cls-6" x="183.84" y="111.97" width="1.47" height="7.26"/>
  <rect class="cls-6" x="194.98" y="111.97" width="1.47" height="7.26" transform="translate(391.43 231.2) rotate(180)"/>
  <path class="cls-31" d="M198,126.87h3.16A1.85,1.85,0,0,0,203,125v-7.57a1.85,1.85,0,0,0-1.85-1.85h-1.24"/>
  <line class="cls-20" x1="129.66" y1="148.29" x2="138.12" y2="148.29"/>
  <g class="cls-32">
    <g id="ppl-front">
      <animateTransform attributeName="transform"
          type="translate"
          values="
            0 7;
            0 0;
            0 7;"
          keySplines="
            0.5 0 0.5 1;
            0.5 0 0.5 1"
          keyTimes="
            0;0.5;1"
          calcMode="spline"
          begin="0s"
          dur="2s"
          repeatCount="indefinite"/>
      <g>
        <circle class="cls-8" cx="55.83" cy="43.13" r="5.79"/>
        <path class="cls-8" d="M66.34,60.51a10.36,10.36,0,0,0-20.72,0h0V70.87a3.49,3.49,0,0,0,4.57,3.34V97.48h11V74a3.5,3.5,0,0,0,5.18-3.08V60.51Z"/>
      </g>
      <g>
        <circle class="cls-8" cx="84.17" cy="43.13" r="5.79"/>
        <path class="cls-8" d="M94.68,60.51a10.36,10.36,0,0,0-20.71,0h0V70.87a3.51,3.51,0,0,0,3.51,3.51,3.36,3.36,0,0,0,1.06-.17V97.48h11V74a3.5,3.5,0,0,0,5.18-3.08V60.51Z"/>
      </g>
      <g>
        <circle class="cls-8" cx="112.21" cy="43.13" r="5.79"/>
        <path class="cls-8" d="M122.73,60.51a10.36,10.36,0,0,0-20.72,0h0V70.87a3.51,3.51,0,0,0,3.51,3.51,3.47,3.47,0,0,0,1.07-.17V97.48h11V74a3.5,3.5,0,0,0,5.18-3.08V60.51Z"/>
      </g>
    </g>
  </g>
  <line class="cls-20" x1="74.27" y1="148.29" x2="122.73" y2="148.29"/>
  <path class="cls-20" d="M66.34,130.66H34.59a21.59,21.59,0,0,1,0-43.18H143.05"/>
  <polygon class="cls-12" points="146.81 48.77 173.12 48.77 173.12 49.94 176.93 57.51 176.93 107.37 143.05 107.37 143.05 57.51 146.81 49.94 146.81 48.77"/>
  <rect class="cls-6" x="143.05" y="57.51" width="33.88" height="2.35"/>
  <polygon class="cls-12" points="176.93 57.51 143.05 57.51 146.81 49.94 173.12 49.94 176.93 57.51"/>
  <rect class="cls-6" x="146.81" y="48.77" width="26.31" height="1.17"/>
  <g id="logo-gear-background-2">
    <path class="cls-6" d="M160,68.48A10.54,10.54,0,1,1,149.5,79,10.54,10.54,0,0,1,160,68.48m0-7A17.54,17.54,0,1,0,177.58,79,17.56,17.56,0,0,0,160,61.48Z"/>
  </g>
  <circle id="logo-gear-background" class="cls-9" cx="160.04" cy="79.02" r="10.54"/>
  <g id="logo-gear">
    <animateTransform
          attributeName="transform"
          type="rotate"
          from="0 159.954 79.019"
          to="360 159.954 79.019"
          dur="4s"
          repeatCount="indefinite" />
    <g>
      <path d="M152.73,74.42a9.07,9.07,0,0,1,.69-.94l1.24.24A7.43,7.43,0,0,1,158,71.78l.41-1.19a11.12,11.12,0,0,1,1.16-.13h.75a11.12,11.12,0,0,1,1.16.13l.41,1.19a7.54,7.54,0,0,1,3.35,1.94l1.23-.24a7.82,7.82,0,0,1,.69.94c.14.21.26.42.38.64a8.47,8.47,0,0,1,.47,1.07l-.83,1a7.37,7.37,0,0,1,0,3.88l.83,1a8.34,8.34,0,0,1-.47,1.06c-.12.22-.24.44-.37.65a9.17,9.17,0,0,1-.7.94l-1.23-.24a7.58,7.58,0,0,1-3.35,1.94l-.42,1.18a7.23,7.23,0,0,1-1.15.13h-.75a7.49,7.49,0,0,1-1.16-.13L158,86.26a7.53,7.53,0,0,1-3.35-1.94l-1.24.24a9.07,9.07,0,0,1-.69-.94c-.13-.21-.26-.43-.37-.65a8.34,8.34,0,0,1-.47-1.06l.82-1a7.65,7.65,0,0,1,0-3.88l-.82-1a8.47,8.47,0,0,1,.47-1.07c.11-.22.24-.43.37-.64"/>
      <path class="cls-10" d="M157.57,73.06a6.33,6.33,0,0,1,1.24-.36l.39-1.14q.38,0,.75,0c.26,0,.51,0,.76,0l.39,1.14A6.51,6.51,0,0,1,163.92,74a7.13,7.13,0,0,1,.93.89l1.18-.22a6.79,6.79,0,0,1,.76,1.31l-.79.9a6.53,6.53,0,0,1,.31,1.25,6.08,6.08,0,0,1,0,1.84,6.25,6.25,0,0,1-.31,1.24l.79.91A7.45,7.45,0,0,1,166,83.4l-1.18-.23A6.4,6.4,0,0,1,162.34,85a6.54,6.54,0,0,1-1.24.36l-.39,1.13a7.15,7.15,0,0,1-1.51,0l-.39-1.13a6.33,6.33,0,0,1-1.24-.36,6.46,6.46,0,0,1-1.59-.92,5.54,5.54,0,0,1-.92-.89l-1.18.23a7.45,7.45,0,0,1-.76-1.31l.79-.91a6.25,6.25,0,0,1-.31-3.08,5.86,5.86,0,0,1,.31-1.25l-.79-.9a6.79,6.79,0,0,1,.76-1.31l1.18.22A7.74,7.74,0,0,1,156,74a6.76,6.76,0,0,1,1.59-.91"/>
    </g>

  </g>
      <g id="C-HEX-2" data-name="C-HEX">
      <polygon class="cls-9" points="165.52 82.23 159.95 85.44 154.39 82.23 154.39 75.81 159.95 72.6 165.52 75.81 165.52 82.23 165.52 82.23"/>
      <polygon class="cls-10" points="159.95 83.3 163.66 81.16 161.81 80.09 159.95 81.16 158.1 80.09 158.1 77.95 159.95 76.88 161.81 77.95 163.66 76.88 159.95 74.74 156.25 76.88 156.25 81.16 159.95 83.3"/>
    </g>
  <g id="clouds1">
      <animateTransform attributeName="transform"
        type="translate"
        values="
          7 0;
          0 0;
          7 0;"
        keySplines="
          0.5 0 0.5 1;
          0.5 0 0.5 1"
        keyTimes="
          0;0.5;1"
        calcMode="spline"
        begin="0s"
        dur="10s"
        repeatCount="indefinite"/>
    <g>
      <path class="cls-10" d="M23.13,66.33a3,3,0,0,1-2.21-1h-.13a2,2,0,1,1,0-3.91h.13a3,3,0,0,1,4.41,0h.14a2,2,0,0,1,0,3.91h-.14A2.94,2.94,0,0,1,23.13,66.33Z"/>
      <path class="cls-6" d="M23.13,60.94a2.42,2.42,0,0,1,2,1,1.34,1.34,0,0,1,.35,0,1.46,1.46,0,0,1,0,2.91,2,2,0,0,1-.35,0,2.45,2.45,0,0,1-4,0,1.86,1.86,0,0,1-.34,0,1.46,1.46,0,1,1,0-2.91,1.27,1.27,0,0,1,.34,0,2.42,2.42,0,0,1,2-1m0-1a3.45,3.45,0,0,0-2.42,1,2.46,2.46,0,0,0,0,4.91,3.44,3.44,0,0,0,4.83,0,2.46,2.46,0,0,0,0-4.91,3.43,3.43,0,0,0-2.41-1Z"/>
    </g>
    <g>
      <path class="cls-10" d="M342.22,112.75a3.39,3.39,0,0,1-2.59-1.2h-.2a2.24,2.24,0,1,1,0-4.47h.2a3.41,3.41,0,0,1,5.18,0h.2a2.24,2.24,0,1,1,0,4.47h-.2A3.4,3.4,0,0,1,342.22,112.75Z"/>
      <path class="cls-6" d="M342.22,106.41a2.9,2.9,0,0,1,2.38,1.23,1.84,1.84,0,0,1,.41,0,1.74,1.74,0,1,1,0,3.47,1.84,1.84,0,0,1-.41,0,2.9,2.9,0,0,1-4.76,0,1.84,1.84,0,0,1-.41,0,1.74,1.74,0,1,1,0-3.47,1.84,1.84,0,0,1,.41,0,2.9,2.9,0,0,1,2.38-1.23m0-1a3.91,3.91,0,0,0-2.8,1.18,2.74,2.74,0,0,0,0,5.47,3.89,3.89,0,0,0,5.6,0,2.74,2.74,0,0,0,0-5.47,3.91,3.91,0,0,0-2.8-1.18Z"/>
    </g>
    <g>
      <path class="cls-10" d="M323.17,36.67a2.43,2.43,0,0,1-1.78-.78h-.06a1.65,1.65,0,0,1,0-3.29h.06a2.42,2.42,0,0,1,3.56,0H325a1.65,1.65,0,0,1,0,3.29H325A2.44,2.44,0,0,1,323.17,36.67Z"/>
      <path class="cls-6" d="M323.17,32.32a1.92,1.92,0,0,1,1.57.81,1.12,1.12,0,0,1,.27,0,1.15,1.15,0,0,1,0,2.29.77.77,0,0,1-.27,0,1.91,1.91,0,0,1-3.14,0,.84.84,0,0,1-.27,0,1.15,1.15,0,0,1,0-2.29,1.24,1.24,0,0,1,.27,0,1.92,1.92,0,0,1,1.57-.81m0-1a2.94,2.94,0,0,0-2,.78,2.15,2.15,0,0,0,0,4.28,2.9,2.9,0,0,0,2,.79,2.94,2.94,0,0,0,2-.79,2.15,2.15,0,0,0,0-4.28,3,3,0,0,0-2-.78Z"/>
    </g>
    <g>
      <path class="cls-10" d="M131,42.2a2.41,2.41,0,0,1-1.78-.78h-.06a1.65,1.65,0,0,1,0-3.29h.06a2.42,2.42,0,0,1,3.56,0h.06a1.65,1.65,0,0,1,0,3.29h-.06A2.41,2.41,0,0,1,131,42.2Z"/>
      <path class="cls-6" d="M131,37.86a1.92,1.92,0,0,1,1.57.81,1.24,1.24,0,0,1,.27,0,1.14,1.14,0,0,1,0,2.28l-.27,0a1.93,1.93,0,0,1-3.14,0l-.27,0a1.14,1.14,0,0,1,0-2.28,1.24,1.24,0,0,1,.27,0,1.92,1.92,0,0,1,1.57-.81m0-1a2.93,2.93,0,0,0-2,.78,2.15,2.15,0,0,0,0,4.28,2.93,2.93,0,0,0,4,0,2.15,2.15,0,0,0,0-4.28,2.93,2.93,0,0,0-2-.78Z"/>
    </g>
    <g>
      <path class="cls-10" d="M199.15,97.75a3.44,3.44,0,0,1-2.59-1.19h-.2a2.24,2.24,0,0,1,0-4.47h.2a3.41,3.41,0,0,1,5.19,0h.2a2.24,2.24,0,0,1,0,4.47h-.2A3.45,3.45,0,0,1,199.15,97.75Z"/>
      <path class="cls-6" d="M199.15,91.41a2.92,2.92,0,0,1,2.39,1.24,1.77,1.77,0,0,1,.41-.05,1.74,1.74,0,0,1,0,3.47,1.77,1.77,0,0,1-.41,0,2.93,2.93,0,0,1-4.77,0,1.77,1.77,0,0,1-.41,0,1.74,1.74,0,0,1,0-3.47,1.77,1.77,0,0,1,.41.05,2.91,2.91,0,0,1,2.38-1.24m0-1a3.92,3.92,0,0,0-2.8,1.19,2.74,2.74,0,0,0,0,5.47,3.91,3.91,0,0,0,2.8,1.18A4,4,0,0,0,202,97.07a2.74,2.74,0,0,0,0-5.47,4,4,0,0,0-2.81-1.19Z"/>
    </g>
  </g>
  <g id="clouds2">
        <animateTransform attributeName="transform"
        type="translate"
        values="
          0 0;
          7 0;
          0 0;"
        keySplines="
          0.5 0 0.5 1;
          0.5 0 0.5 1"
        keyTimes="
          0;0.5;1"
        calcMode="spline"
        begin="0s"
        dur="10s"
        repeatCount="indefinite"/>
    <g>
      <path class="cls-10" d="M65.89,107a2.19,2.19,0,0,1-1.6-.7h0a1.52,1.52,0,1,1,0-3h0a2.18,2.18,0,0,1,1.6-.69,2.22,2.22,0,0,1,1.61.69h0a1.52,1.52,0,0,1,0,3h0A2.23,2.23,0,0,1,65.89,107Z"/>
      <path class="cls-6" d="M65.89,103a1.7,1.7,0,0,1,1.4.72.93.93,0,0,1,.24,0,1,1,0,1,1,0,2,.93.93,0,0,1-.24,0,1.7,1.7,0,0,1-2.79,0,1,1,0,0,1-.24,0,1,1,0,1,1,0-2,1,1,0,0,1,.24,0,1.7,1.7,0,0,1,1.39-.72m0-1a2.68,2.68,0,0,0-1.81.7,2,2,0,0,0,0,4,2.67,2.67,0,0,0,3.63,0,2,2,0,0,0,0-4,2.69,2.69,0,0,0-1.82-.7Z"/>
    </g>
    <g>
      <path class="cls-10" d="M33.68,58.64a2.41,2.41,0,0,1-1.78-.78h-.06a1.65,1.65,0,0,1,0-3.29h.06a2.42,2.42,0,0,1,3.56,0h.06a1.65,1.65,0,0,1,0,3.29h-.06A2.41,2.41,0,0,1,33.68,58.64Z"/>
      <path class="cls-6" d="M33.68,54.3a1.92,1.92,0,0,1,1.57.81l.27,0a1.14,1.14,0,0,1,0,2.28,1.24,1.24,0,0,1-.27,0,1.93,1.93,0,0,1-3.14,0,1.18,1.18,0,0,1-.27,0,1.14,1.14,0,0,1,0-2.28,1.18,1.18,0,0,1,.27,0,1.92,1.92,0,0,1,1.57-.81m0-1a2.93,2.93,0,0,0-2,.78,2.15,2.15,0,0,0,0,4.28,2.93,2.93,0,0,0,4,0,2.15,2.15,0,0,0,0-4.28,2.93,2.93,0,0,0-2-.78Z"/>
    </g>
    <g>
      <path class="cls-10" d="M318.56,44.26a2,2,0,0,1-1.42-.6,1.38,1.38,0,0,1,0-2.76,2,2,0,0,1,2.83,0,1.38,1.38,0,0,1,0,2.76A2,2,0,0,1,318.56,44.26Z"/>
      <path class="cls-6" d="M318.56,40.81a1.45,1.45,0,0,1,1.2.62.76.76,0,0,1,.21,0,.88.88,0,0,1,0,1.76l-.21,0a1.48,1.48,0,0,1-1.2.62,1.5,1.5,0,0,1-1.21-.62l-.2,0a.88.88,0,1,1,0-1.76.64.64,0,0,1,.2,0,1.47,1.47,0,0,1,1.21-.62m0-1a2.49,2.49,0,0,0-1.63.61,1.88,1.88,0,0,0,0,3.73,2.49,2.49,0,0,0,1.63.61,2.45,2.45,0,0,0,1.62-.61,1.88,1.88,0,0,0,0-3.73,2.45,2.45,0,0,0-1.62-.61Z"/>
    </g>
    <g>
      <path class="cls-10" d="M204.19,89.12a2.41,2.41,0,0,1-1.78-.78h-.06a1.64,1.64,0,1,1,0-3.28h.06a2.42,2.42,0,0,1,3.56,0H206a1.64,1.64,0,0,1,0,3.28H206A2.39,2.39,0,0,1,204.19,89.12Z"/>
      <path class="cls-6" d="M204.19,84.78a1.92,1.92,0,0,1,1.57.81,1.26,1.26,0,0,1,.27,0,1.15,1.15,0,0,1,0,2.29,1.24,1.24,0,0,1-.27,0,1.93,1.93,0,0,1-3.14,0,1.12,1.12,0,0,1-.27,0,1.15,1.15,0,0,1,0-2.29,1.1,1.1,0,0,1,.27,0,1.92,1.92,0,0,1,1.57-.81m0-1a2.93,2.93,0,0,0-2,.78,2.15,2.15,0,0,0,0,4.28,2.93,2.93,0,0,0,2,.78,2.89,2.89,0,0,0,2-.78,2.15,2.15,0,0,0,0-4.28,2.89,2.89,0,0,0-2-.78Z"/>
    </g>
  </g>
  <g id="report3">
    <rect class="cls-9" x="212.19" y="116.92" width="48.43" height="32.05"/>
    <rect class="cls-6" x="210.36" y="115.1" width="48.43" height="32.05"/>
    <rect class="cls-3" x="210.36" y="115.01" width="48.43" height="3.21"/>
    <g>
      <circle class="cls-12" cx="211.84" cy="116.61" r="0.51"/>
      <circle class="cls-12" cx="213.37" cy="116.61" r="0.51"/>
      <circle class="cls-12" cx="214.89" cy="116.61" r="0.51"/>
    </g>
    <g>
      <path class="cls-12" d="M229.57,132.42a1.41,1.41,0,0,0,.47-.11.91.91,0,0,0,.37-.27.72.72,0,0,0,.14-.46.81.81,0,0,0-.3-.68,1.07,1.07,0,0,0-.67-.23.94.94,0,0,0-.79.34,1.35,1.35,0,0,0-.26.88h-1.32a2.93,2.93,0,0,1,.19-1,2.24,2.24,0,0,1,.48-.75,2,2,0,0,1,.74-.48,2.4,2.4,0,0,1,.95-.17,2.91,2.91,0,0,1,.82.12,2.24,2.24,0,0,1,.74.37,2,2,0,0,1,.53.59,1.52,1.52,0,0,1,.2.81,1.64,1.64,0,0,1-.24.88,1.15,1.15,0,0,1-.71.51v0a1.53,1.53,0,0,1,.89.55,1.62,1.62,0,0,1,.32,1,2.12,2.12,0,0,1-.21,1,2.14,2.14,0,0,1-.56.7,2.62,2.62,0,0,1-.81.43,3.11,3.11,0,0,1-1,.15,3.21,3.21,0,0,1-1.05-.17,2.22,2.22,0,0,1-.8-.48,2.12,2.12,0,0,1-.51-.78,2.63,2.63,0,0,1-.17-1.05h1.31a2.18,2.18,0,0,0,.09.52,1.34,1.34,0,0,0,.22.43,1.06,1.06,0,0,0,.37.29,1.21,1.21,0,0,0,.52.11,1.15,1.15,0,0,0,.79-.29,1,1,0,0,0,.32-.79,1,1,0,0,0-.15-.59.85.85,0,0,0-.38-.3,1.72,1.72,0,0,0-.52-.11h-.53v-1A1.93,1.93,0,0,0,229.57,132.42Z"/>
      <path class="cls-12" d="M232.7,131.38a2.85,2.85,0,0,1,.54-1.09,2,2,0,0,1,.79-.59,2.87,2.87,0,0,1,1-.17,2.77,2.77,0,0,1,1,.17,2,2,0,0,1,.8.59,2.72,2.72,0,0,1,.55,1.09,6.05,6.05,0,0,1,.2,1.67,6.37,6.37,0,0,1-.2,1.71,2.84,2.84,0,0,1-.55,1.1,2,2,0,0,1-.8.58,2.56,2.56,0,0,1-1,.18,2.65,2.65,0,0,1-1-.18,2,2,0,0,1-.79-.58,3,3,0,0,1-.54-1.1,6,6,0,0,1-.2-1.71A5.69,5.69,0,0,1,232.7,131.38Zm1.2,2.38a5.32,5.32,0,0,0,.12.8,1.74,1.74,0,0,0,.33.65.8.8,0,0,0,.65.28.81.81,0,0,0,.65-.28,1.49,1.49,0,0,0,.33-.65,4.31,4.31,0,0,0,.13-.8c0-.28,0-.52,0-.71s0-.26,0-.43a4.75,4.75,0,0,0,0-.51,3.18,3.18,0,0,0-.1-.52,1.35,1.35,0,0,0-.19-.46.92.92,0,0,0-.32-.33.81.81,0,0,0-.47-.13.82.82,0,0,0-.48.13.9.9,0,0,0-.31.33,1.59,1.59,0,0,0-.19.46,3.18,3.18,0,0,0-.1.52,4.63,4.63,0,0,0,0,.51c0,.17,0,.31,0,.43S233.89,133.48,233.9,133.76Z"/>
      <path class="cls-12" d="M238.54,130.71a1.81,1.81,0,0,1,.31-.62,1.47,1.47,0,0,1,.51-.41,2,2,0,0,1,1.51,0,1.45,1.45,0,0,1,.49.43,1.63,1.63,0,0,1,.27.63,3.69,3.69,0,0,1,.08.76,2.8,2.8,0,0,1-.1.73,1.68,1.68,0,0,1-.3.58,1.22,1.22,0,0,1-.51.38,1.72,1.72,0,0,1-.74.14,1.91,1.91,0,0,1-.76-.14,1.28,1.28,0,0,1-.5-.39,1.65,1.65,0,0,1-.27-.6,3.31,3.31,0,0,1,0-1.49Zm.91,1.12a1.35,1.35,0,0,0,.07.36.64.64,0,0,0,.19.29.49.49,0,0,0,.36.12.5.5,0,0,0,.35-.12.66.66,0,0,0,.2-.29,1.35,1.35,0,0,0,.08-.36c0-.12,0-.24,0-.34s0-.22,0-.36a1.77,1.77,0,0,0-.08-.4,1,1,0,0,0-.18-.34.42.42,0,0,0-.33-.13.49.49,0,0,0-.37.13.67.67,0,0,0-.2.31,1.24,1.24,0,0,0-.08.4c0,.14,0,.27,0,.38S239.45,131.7,239.45,131.83Zm5.61-2.38-4,7.25h-.85l4-7.25ZM243.58,134a1.57,1.57,0,0,1,.3-.59,1.48,1.48,0,0,1,.52-.4,1.65,1.65,0,0,1,.74-.15,1.72,1.72,0,0,1,.76.15,1.51,1.51,0,0,1,.49.41,1.61,1.61,0,0,1,.27.61,3.67,3.67,0,0,1,.08.75,2.57,2.57,0,0,1-.1.75,1.57,1.57,0,0,1-.3.59,1.36,1.36,0,0,1-.51.4,1.84,1.84,0,0,1-.74.14,1.75,1.75,0,0,1-.76-.15,1.29,1.29,0,0,1-.49-.4,1.79,1.79,0,0,1-.28-.61,3.67,3.67,0,0,1-.08-.75A2.57,2.57,0,0,1,243.58,134Zm.9,1.12a1.59,1.59,0,0,0,.07.38.77.77,0,0,0,.19.31.49.49,0,0,0,.36.13.53.53,0,0,0,.36-.13.89.89,0,0,0,.19-.31,1.51,1.51,0,0,0,.08-.38c0-.13,0-.25,0-.35s0-.22,0-.35a2.32,2.32,0,0,0-.07-.38.71.71,0,0,0-.19-.31.42.42,0,0,0-.33-.13.53.53,0,0,0-.37.11.84.84,0,0,0-.2.29,1.59,1.59,0,0,0-.08.39c0,.13,0,.25,0,.37S244.48,134.94,244.48,135.08Z"/>
    </g>
  </g>
  <g id="report2">
    <rect class="cls-9" x="212.19" y="72.46" width="48.43" height="32.05"/>
    <rect class="cls-6" x="210.36" y="70.63" width="48.43" height="32.05"/>
    <rect class="cls-17" x="210.36" y="70.63" width="48.43" height="3.21"/>
    <g>
      <circle class="cls-12" cx="211.84" cy="72.24" r="0.51"/>
      <circle class="cls-12" cx="213.37" cy="72.24" r="0.51"/>
      <circle class="cls-12" cx="214.89" cy="72.24" r="0.51"/>
    </g>
    <g>
      <path class="cls-12" d="M229.57,87.73a1.41,1.41,0,0,0,.47-.11.91.91,0,0,0,.37-.27.75.75,0,0,0,.14-.47.81.81,0,0,0-.3-.67,1,1,0,0,0-.67-.23.94.94,0,0,0-.79.34,1.32,1.32,0,0,0-.26.88h-1.32a2.94,2.94,0,0,1,.19-1,2.3,2.3,0,0,1,.48-.74,2,2,0,0,1,.74-.48,2.4,2.4,0,0,1,.95-.17,2.91,2.91,0,0,1,.82.12,2.42,2.42,0,0,1,.74.36,2,2,0,0,1,.53.6,1.52,1.52,0,0,1,.2.81,1.64,1.64,0,0,1-.24.88,1.15,1.15,0,0,1-.71.51v0a1.53,1.53,0,0,1,.89.55,1.62,1.62,0,0,1,.32,1,2.12,2.12,0,0,1-.21,1,2.14,2.14,0,0,1-.56.7,2.62,2.62,0,0,1-.81.43,3.11,3.11,0,0,1-1,.15,3.21,3.21,0,0,1-1.05-.17,2.22,2.22,0,0,1-.8-.48,2.12,2.12,0,0,1-.51-.78,2.63,2.63,0,0,1-.17-1h1.31a2.27,2.27,0,0,0,.09.52,1.34,1.34,0,0,0,.22.43,1.06,1.06,0,0,0,.37.29,1.21,1.21,0,0,0,.52.1,1.14,1.14,0,0,0,.79-.28,1,1,0,0,0,.32-.79,1,1,0,0,0-.15-.59.85.85,0,0,0-.38-.3,1.72,1.72,0,0,0-.52-.11h-.53v-1A1.93,1.93,0,0,0,229.57,87.73Z"/>
      <path class="cls-12" d="M232.7,86.68a2.88,2.88,0,0,1,.54-1.08A1.94,1.94,0,0,1,234,85a2.64,2.64,0,0,1,1-.17,2.55,2.55,0,0,1,1,.17,1.9,1.9,0,0,1,.8.59,2.75,2.75,0,0,1,.55,1.08,6.18,6.18,0,0,1,.2,1.68,6.37,6.37,0,0,1-.2,1.71,2.84,2.84,0,0,1-.55,1.1,2,2,0,0,1-.8.58,2.56,2.56,0,0,1-1,.18,2.65,2.65,0,0,1-1-.18,2,2,0,0,1-.79-.58,3,3,0,0,1-.54-1.1,6,6,0,0,1-.2-1.71A5.81,5.81,0,0,1,232.7,86.68Zm1.2,2.38a5,5,0,0,0,.12.8,1.71,1.71,0,0,0,.33.66.79.79,0,0,0,.65.27.8.8,0,0,0,.65-.27,1.47,1.47,0,0,0,.33-.66,4.05,4.05,0,0,0,.13-.8c0-.27,0-.51,0-.7s0-.26,0-.43a4.75,4.75,0,0,0,0-.51,3,3,0,0,0-.1-.52,1.5,1.5,0,0,0-.19-.47,1.12,1.12,0,0,0-.32-.33A.89.89,0,0,0,235,86a.9.9,0,0,0-.48.12,1.08,1.08,0,0,0-.31.33,1.78,1.78,0,0,0-.19.47,3,3,0,0,0-.1.52,4.63,4.63,0,0,0,0,.51c0,.17,0,.31,0,.43S233.89,88.79,233.9,89.06Z"/>
      <path class="cls-12" d="M238.54,86a1.81,1.81,0,0,1,.31-.62,1.47,1.47,0,0,1,.51-.41,2,2,0,0,1,1.51,0,1.45,1.45,0,0,1,.49.43,1.52,1.52,0,0,1,.27.62,3.87,3.87,0,0,1,.08.77,2.8,2.8,0,0,1-.1.73,1.68,1.68,0,0,1-.3.58,1.32,1.32,0,0,1-.51.38,1.88,1.88,0,0,1-.74.14,1.91,1.91,0,0,1-.76-.14,1.5,1.5,0,0,1-.5-.39,1.65,1.65,0,0,1-.27-.6,3.31,3.31,0,0,1,0-1.49Zm.91,1.12a1.35,1.35,0,0,0,.07.36.64.64,0,0,0,.19.29.49.49,0,0,0,.36.12.5.5,0,0,0,.35-.12.66.66,0,0,0,.2-.29,1.35,1.35,0,0,0,.08-.36c0-.12,0-.24,0-.34s0-.22,0-.36a1.67,1.67,0,0,0-.08-.4.85.85,0,0,0-.18-.34.42.42,0,0,0-.33-.13.53.53,0,0,0-.37.12.76.76,0,0,0-.2.32,1.24,1.24,0,0,0-.08.4c0,.14,0,.27,0,.38S239.45,87,239.45,87.14Zm5.61-2.38L241,92h-.85l4-7.24Zm-1.48,4.51a1.57,1.57,0,0,1,.3-.59,1.48,1.48,0,0,1,.52-.4,1.65,1.65,0,0,1,.74-.15,1.72,1.72,0,0,1,.76.15,1.4,1.4,0,0,1,.49.41,1.61,1.61,0,0,1,.27.61,3.67,3.67,0,0,1,.08.75,2.45,2.45,0,0,1-.1.74,1.54,1.54,0,0,1-.3.6,1.25,1.25,0,0,1-.51.39,1.68,1.68,0,0,1-.74.15,1.75,1.75,0,0,1-.76-.15,1.23,1.23,0,0,1-.49-.41,1.66,1.66,0,0,1-.28-.6,3.69,3.69,0,0,1-.08-.76A2.55,2.55,0,0,1,243.58,89.27Zm.9,1.12a1.59,1.59,0,0,0,.07.38.77.77,0,0,0,.19.31.49.49,0,0,0,.36.12.52.52,0,0,0,.36-.12.89.89,0,0,0,.19-.31,1.61,1.61,0,0,0,.08-.38c0-.13,0-.25,0-.36s0-.21,0-.34a2.14,2.14,0,0,0-.07-.38.71.71,0,0,0-.19-.31.42.42,0,0,0-.33-.14.53.53,0,0,0-.37.12.84.84,0,0,0-.2.29,1.61,1.61,0,0,0-.08.38c0,.14,0,.26,0,.37S244.48,90.25,244.48,90.39Z"/>
    </g>
  </g>
  <g id="report1">
    <rect class="cls-9" x="212.19" y="27.98" width="48.43" height="32.05"/>
    <rect class="cls-6" x="210.36" y="26.15" width="48.43" height="32.05"/>
    <rect class="cls-9" x="210.36" y="26.15" width="48.43" height="3.21"/>
    <g>
      <circle class="cls-12" cx="211.84" cy="27.76" r="0.51"/>
      <circle class="cls-12" cx="213.37" cy="27.76" r="0.51"/>
      <circle class="cls-12" cx="214.89" cy="27.76" r="0.51"/>
    </g>
    <g>
      <path class="cls-12" d="M227,46.9V45.63l3-4h1.24v4.1h.91V46.9h-.91v1.58h-1.32V46.9Zm2.85-3.52-1.76,2.37h1.79V43.38Z"/>
      <path class="cls-12" d="M232.7,43.36a3,3,0,0,1,.54-1.09,1.91,1.91,0,0,1,.79-.58,2.65,2.65,0,0,1,1-.18,2.56,2.56,0,0,1,1,.18,1.88,1.88,0,0,1,.8.58,2.86,2.86,0,0,1,.55,1.09,6.11,6.11,0,0,1,.2,1.67,6.26,6.26,0,0,1-.2,1.71,2.77,2.77,0,0,1-.55,1.1,1.9,1.9,0,0,1-.8.59,2.77,2.77,0,0,1-1,.17,2.87,2.87,0,0,1-1-.17,1.94,1.94,0,0,1-.79-.59,2.9,2.9,0,0,1-.54-1.1,5.9,5.9,0,0,1-.2-1.71A5.74,5.74,0,0,1,232.7,43.36Zm1.2,2.38a5.14,5.14,0,0,0,.12.8,1.71,1.71,0,0,0,.33.66.79.79,0,0,0,.65.27.8.8,0,0,0,.65-.27,1.47,1.47,0,0,0,.33-.66,4.18,4.18,0,0,0,.13-.8c0-.28,0-.51,0-.71s0-.26,0-.42a4.38,4.38,0,0,0,0-.51,3,3,0,0,0-.1-.52,1.41,1.41,0,0,0-.19-.47,1,1,0,0,0-.32-.33.89.89,0,0,0-.47-.13.9.9,0,0,0-.48.13,1,1,0,0,0-.31.33,1.65,1.65,0,0,0-.19.47,3,3,0,0,0-.1.52,4.36,4.36,0,0,0,0,.51c0,.16,0,.31,0,.42S233.89,45.46,233.9,45.74Z"/>
      <path class="cls-12" d="M238.54,42.69a1.76,1.76,0,0,1,.31-.61,1.39,1.39,0,0,1,.51-.42,1.73,1.73,0,0,1,.75-.15,1.58,1.58,0,0,1,.76.16,1.33,1.33,0,0,1,.49.42,1.63,1.63,0,0,1,.27.63,3.77,3.77,0,0,1,.08.76,2.88,2.88,0,0,1-.1.74,1.77,1.77,0,0,1-.3.58,1.32,1.32,0,0,1-.51.38,1.88,1.88,0,0,1-.74.14,1.75,1.75,0,0,1-.76-.15,1.28,1.28,0,0,1-.5-.39,1.53,1.53,0,0,1-.27-.59,3,3,0,0,1-.08-.75A3.08,3.08,0,0,1,238.54,42.69Zm.91,1.12a1.43,1.43,0,0,0,.07.37.7.7,0,0,0,.19.29.63.63,0,0,0,.71,0,.72.72,0,0,0,.2-.29,1.35,1.35,0,0,0,.08-.36c0-.13,0-.24,0-.35s0-.21,0-.35a1.86,1.86,0,0,0-.08-.41.88.88,0,0,0-.18-.33.42.42,0,0,0-.33-.14.54.54,0,0,0-.37.13.79.79,0,0,0-.2.31,1.35,1.35,0,0,0-.08.4c0,.15,0,.27,0,.38S239.45,43.68,239.45,43.81Zm5.61-2.38-4,7.25h-.85l4-7.25ZM243.58,46a1.44,1.44,0,0,1,.3-.59,1.37,1.37,0,0,1,.52-.4,1.65,1.65,0,0,1,.74-.15,1.72,1.72,0,0,1,.76.15,1.4,1.4,0,0,1,.49.41,1.54,1.54,0,0,1,.27.61,3.52,3.52,0,0,1,.08.75,2.5,2.5,0,0,1-.1.74,1.54,1.54,0,0,1-.3.6,1.25,1.25,0,0,1-.51.39,1.69,1.69,0,0,1-.74.14,1.91,1.91,0,0,1-.76-.14,1.31,1.31,0,0,1-.49-.41,1.63,1.63,0,0,1-.28-.61,3.52,3.52,0,0,1-.08-.75A2.5,2.5,0,0,1,243.58,46Zm.9,1.11a1.59,1.59,0,0,0,.07.39.67.67,0,0,0,.19.3.45.45,0,0,0,.36.13.48.48,0,0,0,.36-.13.77.77,0,0,0,.19-.3,1.61,1.61,0,0,0,.08-.38c0-.14,0-.25,0-.36s0-.21,0-.35a2.32,2.32,0,0,0-.07-.38.77.77,0,0,0-.19-.31.42.42,0,0,0-.33-.13.53.53,0,0,0-.37.12.75.75,0,0,0-.2.29,1.51,1.51,0,0,0-.08.38c0,.14,0,.26,0,.37S244.48,46.93,244.48,47.06Z"/>
    </g>
  </g>
</svg>
