<?xml version="1.0" encoding="UTF-8"?>
<svg id="a" data-name="Layer 1" xmlns="http://www.w3.org/2000/svg" width="750" height="746.682" viewBox="0 0 750 746.682">
  <path d="M252.117,346.884c17.221,10.144,35.135,18.949,53.615,26.368,19.391,7.785,39.395,14.054,59.878,18.718,10.656,2.426,21.439,4.417,32.328,5.974-1.552-10.886-3.538-21.666-5.963-32.317-4.662-20.48-10.929-40.482-18.711-59.87-7.418-18.48-16.222-36.395-26.365-53.616-9.642-16.371-20.491-32.11-32.501-47.115-9.348-11.68-19.374-22.929-30.106-33.662C222.14,109.213,143.204,70.004,57.72,57.785c12.228,85.464,51.504,164.367,113.643,226.506,10.727,10.727,21.971,20.748,33.645,30.093,15.003,12.009,30.74,22.858,47.108,32.5Z" fill="lime"/>
  <path d="M455.655,455.655c0-.527-.018-1.05-.02-1.577-.525,.527-1.07,1.031-1.597,1.556,.54,.001,1.077,.02,1.618,.02Z"/>
  <path d="M455.635,454.078c17.3-17.359,33.588-35.721,48.825-54.954,76.483-96.547,125.853-215.545,136.577-345.518,.702-8.512,1.248-17.068,1.624-25.668,.667-15.231-11.552-27.939-26.798-27.939-14.326,0-26.129,11.269-26.751,25.582-.408,9.379-1.035,18.721-1.868,28.024-5.436,60.698-20.105,119.669-43.891,175.904-23.438,55.413-54.898,106.353-93.736,152.005,1.11,6.781,2.053,13.618,2.863,20.495,2.009,17.087,3.094,34.455,3.154,52.068Z"/>
  <path d="M722.224,.017c-14.181,.492-25.309,12.498-25.842,26.677-.339,9-.847,17.971-1.523,26.912-5.678,75.17-23.333,148.163-52.717,217.636-16.343,38.64-36.016,75.422-58.793,110.19-15.404,23.515-32.247,46.094-50.485,67.677-12.706,15.035-26.047,29.616-40.093,43.662-14.045,14.045-28.626,27.387-43.661,40.092-21.583,18.239-44.163,35.081-67.677,50.485-34.769,22.776-71.55,42.449-110.19,58.793-60.177,25.453-122.997,42.105-187.584,49.796-15.98,1.903-30.052-10.57-30.052-26.663h0c0-13.532,10.073-25.005,23.51-26.61,120.801-14.432,231.313-62.328,322.005-134.175,19.231-15.235,37.558-31.558,54.916-48.854-17.601-.062-34.96-1.136-52.038-3.14-6.88-.807-13.712-1.768-20.495-2.878-45.646,38.842-96.583,70.301-151.994,93.737-46.773,19.783-95.439,33.259-145.416,40.362-16.105,2.289-30.487-10.312-30.487-26.579h0c0-13.284,9.722-24.622,22.873-26.501,88.368-12.628,169.764-46.832,238.735-97.071-20.585-6.664-40.53-14.743-59.716-24.141-52.041,32.604-109.703,54.82-170.399,65.563-16.424,2.907-31.492-9.752-31.492-26.431h0c0-13.002,9.334-24.102,22.134-26.384,44.83-7.992,87.242-22.956,126.088-43.72-16.522-11.103-32.264-23.272-47.156-36.385-23.763,10.754-48.624,19.003-74.263,24.573-6.315,1.372-12.669,2.58-19.052,3.625C26.094,376.034,0,406.13,0,441.863v232.294c0,42.849,37.005,76.618,79.617,72.123,.264-.028,.529-.056,.793-.084,69.464-7.4,136.088-24.276,198.57-49.312,21.214-8.5,41.964-17.912,62.169-28.242,29.421-15.041,57.69-32.003,84.704-50.654,75.105-51.853,140.286-117.039,192.137-192.137,18.637-26.992,35.552-55.264,50.584-84.661,10.342-20.224,19.801-40.976,28.31-62.212,31.286-78.08,49.86-162.627,53.097-251.093,.568-15.533-12.087-28.414-27.758-27.87Z"/>
  <path d="M425.522,53.607c1.024-8.214,1.819-16.499,2.375-24.85,1.034-15.537-11.177-28.757-26.747-28.757h0c-14.187,0-25.8,11.065-26.741,25.221-.633,9.536-1.624,19.002-2.958,28.385-4.998,35.152-14.904,69.112-29.375,101.076,13.112,14.891,25.278,30.631,36.38,47.151,24.15-45.189,40.455-95.2,47.067-148.227Z"/>
  <path d="M533.404,53.607c.838-8.433,1.483-16.922,1.927-25.464,.798-15.305-11.465-28.143-26.791-28.143-14.316,0-26.003,11.26-26.76,25.556-.497,9.402-1.262,18.754-2.284,28.05-7.936,72.241-31.86,140.931-70.069,201.898,9.401,19.193,17.482,39.146,24.146,59.738,54.546-74.892,90.178-164.435,99.829-261.637Z"/>
  <path d="M255.498,409.424c19.186,9.398,39.131,17.477,59.716,24.141,21.445,6.942,43.584,12.335,66.291,16.052,6.783,1.11,13.615,2.071,20.495,2.878,17.078,2.004,34.438,3.078,52.038,3.14,.527-.525,1.072-1.03,1.597-1.556-.06-17.613-1.145-34.982-3.154-52.068-.809-6.878-1.752-13.714-2.863-20.495-3.715-22.699-9.105-44.832-16.044-66.272-6.664-20.593-14.746-40.545-24.146-59.738-9.129-18.639-19.481-36.569-30.973-53.671-11.102-16.52-23.268-32.261-36.38-47.151-35.968-40.848-79.129-75.2-127.515-101.076C165.58,27.413,111.251,9.935,53.645,3.17,36.047,1.104,18.154,0,0,0,0,18.157,1.095,36.057,3.161,53.66c6.76,57.607,24.253,111.924,50.446,160.901,25.874,48.381,60.222,91.54,101.066,127.506,14.891,13.113,30.634,25.282,47.156,36.385,17.102,11.493,35.031,21.844,53.669,30.973ZM57.72,57.785c85.483,12.219,164.42,51.428,226.571,113.579,10.733,10.733,20.758,21.982,30.106,33.662,12.009,15.006,22.859,30.745,32.501,47.115,10.143,17.222,18.946,35.136,26.365,53.616,7.782,19.388,14.049,39.39,18.711,59.87,2.425,10.651,4.41,21.432,5.963,32.317-10.89-1.556-21.672-3.548-32.328-5.974-20.483-4.664-40.487-10.933-59.878-18.718-18.48-7.419-36.393-16.224-53.615-26.368-16.368-9.641-32.105-20.491-47.108-32.5-11.674-9.344-22.918-19.365-33.645-30.093C109.224,222.152,69.948,143.249,57.72,57.785Z"/>
  <polygon points="589.181 619.343 595.649 619.343 595.649 643.278 601.256 643.278 601.256 619.343 607.725 619.343 607.725 614.513 589.181 614.513 589.181 619.343"/>
  <polygon points="633.903 614.513 625.925 632.798 618.292 614.513 614.238 614.513 608.89 643.278 614.583 643.278 617.516 625.553 624.89 643.278 626.788 643.278 634.507 625.553 637.095 643.278 642.787 643.278 637.957 614.513 633.903 614.513"/>
</svg>