<svg xmlns="http://www.w3.org/2000/svg" width="150.001" height="156.955" viewBox="0 0 150.001 156.955">
    <defs>
        <style>
            .cls-1{fill:none}.cls-2{clip-path:url(#clip-path)}.cls-3{fill:#80d4e4}.cls-4{fill:#d5f1f6}.cls-5{fill:#2cb8d2}.cls-6{clip-path:url(#clip-path-2)}.cls-7{fill:#fff}.cls-8{fill:#424242}
        </style>
        <clipPath id="clip-path">
            <path id="Path_4547" d="M-1862.853 39.84c0 35.856 0 70.653-38.955 85.36-38.955-14.707-38.955-49.5-38.955-85.36 21.515-4.347 56.396-4.347 77.91 0z" class="cls-1" data-name="Path 4547" transform="translate(1940.762 -36.58)"/>
        </clipPath>
        <clipPath id="clip-path-2">
            <path id="Rectangle_2380" d="M0 0h50.503v53.638H0z" class="cls-1" data-name="Rectangle 2380"/>
        </clipPath>
    </defs>
    <g id="Group_3606" data-name="Group 3606" transform="translate(2064.986 -29.293)">
        <g id="Group_3509" data-name="Group 3509" transform="translate(-2028.941 31.407)">
            <g id="Group_3508" class="cls-2" data-name="Group 3508">
                <g id="Group_3507" data-name="Group 3507" transform="translate(-12.985 -7.63)">
                    <g id="Group_3503" data-name="Group 3503" transform="translate(51.939)">
                        <path id="Rectangle_2375" d="M0 0h51.941v48.757H0z" class="cls-3" data-name="Rectangle 2375"/>
                    </g>
                    <g id="Group_3504" data-name="Group 3504" transform="translate(0 48.757)">
                        <path id="Rectangle_2376" d="M0 0h51.94v55.122H0z" class="cls-3" data-name="Rectangle 2376"/>
                    </g>
                    <g id="Group_3505" data-name="Group 3505" transform="translate(51.939 48.756)">
                        <path id="Rectangle_2377" d="M0 0h55.123v51.94H0z" class="cls-4" data-name="Rectangle 2377" transform="rotate(90 25.97 25.97)"/>
                    </g>
                    <g id="Group_3506" data-name="Group 3506">
                        <path id="Rectangle_2378" d="M0 0h48.757v51.939H0z" class="cls-4" data-name="Rectangle 2378" transform="rotate(90 25.97 25.97)"/>
                    </g>
                </g>
            </g>
        </g>
        <g id="Group_3510" data-name="Group 3510" transform="translate(-2031.069 29.293)">
            <path id="Path_4548" d="M-1907.014 122.3l-.752-.285c-40.33-15.226-40.33-51.891-40.33-87.35v-1.739l1.707-.345c21.713-4.382 57.04-4.386 78.753 0l1.707.345v1.742c0 35.459 0 72.124-40.332 87.35zm-36.825-85.878c.01 34.684.611 67.21 36.825 81.322 36.216-14.112 36.817-46.638 36.827-81.322-20.772-3.85-52.876-3.85-73.652.002z" class="cls-5" data-name="Path 4548" transform="translate(1948.096 -29.293)"/>
        </g>
        <g id="Group_3522" data-name="Group 3522" transform="translate(-2015.238 45.715)">
            <g id="Group_3521" data-name="Group 3521">
                <g id="Group_3520" class="cls-6" data-name="Group 3520">
                    <g id="Group_3519" data-name="Group 3519">
                        <g id="Group_3518" class="cls-6" data-name="Group 3518">
                            <g id="Group_3511" data-name="Group 3511">
                                <path id="Path_4549" d="M-1890.9 98.3a26.914 26.914 0 0 1 2.166-2.935l3.863.743a23.442 23.442 0 0 1 10.5-6.063l1.288-3.717a26.92 26.92 0 0 1 3.624-.407c.389-.017.779-.03 1.172-.03s.783.013 1.172.03a26.918 26.918 0 0 1 3.624.407l1.288 3.717a23.439 23.439 0 0 1 10.5 6.063l3.863-.743a26.948 26.948 0 0 1 2.167 2.935q.629.986 1.174 2.028a26.636 26.636 0 0 1 1.464 3.337l-2.58 2.979a23.493 23.493 0 0 1 .8 6.066 23.508 23.508 0 0 1-.8 6.064l2.58 2.979a26.6 26.6 0 0 1-1.464 3.338q-.543 1.042-1.173 2.027a26.909 26.909 0 0 1-2.165 2.935l-3.862-.743a23.439 23.439 0 0 1-10.5 6.066l-1.288 3.717a26.864 26.864 0 0 1-3.624.406c-.389.017-.778.03-1.171.03s-.782-.013-1.171-.03a26.869 26.869 0 0 1-3.624-.406l-1.288-3.717a23.437 23.437 0 0 1-10.5-6.066l-3.862.743a26.908 26.908 0 0 1-2.165-2.935q-.629-.985-1.173-2.027a26.6 26.6 0 0 1-1.464-3.338l2.58-2.979a23.492 23.492 0 0 1-.8-6.064 23.488 23.488 0 0 1 .8-6.066l-2.58-2.979a26.67 26.67 0 0 1 1.464-3.337q.544-1.042 1.174-2.028" data-name="Path 4549" transform="translate(1893.537 -85.891)"/>
                            </g>
                            <g id="Group_3512" data-name="Group 3512" transform="translate(3.851 3.352)">
                                <path id="Path_4550" d="M-1866.33 102.234a19.952 19.952 0 0 1 3.868-1.11l1.233-3.561q1.166-.117 2.364-.118t2.364.118l1.234 3.561a19.95 19.95 0 0 1 3.868 1.11 20.083 20.083 0 0 1 4.969 2.873 20.237 20.237 0 0 1 2.9 2.794l3.7-.711a23.456 23.456 0 0 1 2.368 4.1l-2.462 2.842a19.976 19.976 0 0 1 .968 3.91 20.287 20.287 0 0 1 .208 2.874 20.209 20.209 0 0 1-.208 2.871 19.984 19.984 0 0 1-.967 3.91l2.462 2.843a23.445 23.445 0 0 1-2.367 4.094l-3.7-.711a20.22 20.22 0 0 1-2.9 2.794 20.1 20.1 0 0 1-4.974 2.876 19.953 19.953 0 0 1-3.868 1.11l-1.233 3.561q-1.166.117-2.363.118t-2.363-.118l-1.234-3.561a19.953 19.953 0 0 1-3.867-1.11 20.087 20.087 0 0 1-4.974-2.876 20.247 20.247 0 0 1-2.9-2.794l-3.7.711a23.43 23.43 0 0 1-2.367-4.094l2.462-2.843a19.985 19.985 0 0 1-.968-3.91 20.281 20.281 0 0 1-.207-2.871 20.287 20.287 0 0 1 .208-2.874 20.012 20.012 0 0 1 .969-3.91l-2.462-2.842a23.442 23.442 0 0 1 2.369-4.1l3.7.711a20.233 20.233 0 0 1 2.9-2.794 20.093 20.093 0 0 1 4.969-2.873" class="cls-7" data-name="Path 4550" transform="translate(1880.265 -97.445)"/>
                            </g>
                            <g id="Group_3513" data-name="Group 3513" transform="translate(7.832 6.705)">
                                <path id="Path_4551" d="M-1831.705 139.169l-17.419 10.057-17.419-10.057v-20.114l17.419-10.055 17.419 10.057v20.114z" class="cls-5" data-name="Path 4551" transform="translate(1866.544 -108.998)"/>
                            </g>
                            <g id="Group_3514" data-name="Group 3514" transform="translate(39.766 24.807)">
                                <path id="Path_4552" d="M-1756.488 175.409a2.011 2.011 0 0 0 2.011-2.011 2.011 2.011 0 0 0-2.011-2.011" class="cls-8" data-name="Path 4552" transform="translate(1756.488 -171.386)"/>
                            </g>
                            <g id="Group_3515" data-name="Group 3515" transform="translate(21.016 22.125)">
                                <path id="Path_4553" d="M-1812.637 168.848a4.665 4.665 0 0 0 .458-2.011 4.666 4.666 0 0 0-.458-2.011 4.689 4.689 0 0 0-4.235-2.682 4.689 4.689 0 0 0-4.236 2.682h3.231a1 1 0 0 1 .411.089 1 1 0 0 1 .592.888v2.067a1 1 0 0 1-.594.888 1 1 0 0 1-.41.089h-3.231a4.689 4.689 0 0 0 4.236 2.682 4.689 4.689 0 0 0 4.235-2.682" class="cls-8" data-name="Path 4553" transform="translate(1821.108 -162.143)"/>
                            </g>
                            <g id="Group_3516" data-name="Group 3516" transform="translate(30.578 24.807)">
                                <path id="Path_4554" d="M-1778.965 171.386h-9.188a5.679 5.679 0 0 1 .372 2.011 5.681 5.681 0 0 1-.372 2.011h9.188" class="cls-8" data-name="Path 4554" transform="translate(1788.153 -171.386)"/>
                            </g>
                            <g id="Group_3517" data-name="Group 3517" transform="translate(13.639 13.409)">
                                <path id="Path_4555" d="M-1834.92 158.923l11.613-6.7-5.807-3.352-5.806 3.352-5.807-3.352v-6.7l5.807-3.352 5.806 3.352 5.807-3.352-11.613-6.7-11.613 6.7v13.409z" class="cls-7" data-name="Path 4555" transform="translate(1846.533 -132.104)"/>
                            </g>
                        </g>
                    </g>
                </g>
            </g>
        </g>
        <g id="Group_3547" data-name="Group 3547" transform="translate(-2064.986 46.152)">
            <g id="Group_3544" data-name="Group 3544" transform="translate(0 13.501)">
                <g id="Group_3529" data-name="Group 3529" transform="translate(21.306 61)">
                    <g id="Group_3524" data-name="Group 3524" transform="translate(0 8.733)">
                        <g id="Group_3523" data-name="Group 3523">
                            <path id="Path_4556" d="M-1991.559 379.226a44.878 44.878 0 0 0 6.608 3.455c1.113.5 2.2 1.031 3.307 1.459l3.368 1.088a105.087 105.087 0 0 0 8.758-7.081l-5.877-1.614a57.608 57.608 0 0 1-5.85-2.285 72.583 72.583 0 0 1-10.314 4.978z" data-name="Path 4556" transform="translate(1991.559 -374.248)"/>
                        </g>
                    </g>
                    <g id="Group_3526" data-name="Group 3526" transform="translate(26.189)">
                        <g id="Group_3525" data-name="Group 3525">
                            <path id="Path_4557" d="M-1899.281 344.151A95.916 95.916 0 0 0-1901.3 355a76.986 76.986 0 0 0 9.221 7.382q-.088-5.672.233-11.2a54.749 54.749 0 0 1-7.435-7.031z" data-name="Path 4557" transform="translate(1901.302 -344.151)"/>
                        </g>
                    </g>
                    <g id="Group_3528" data-name="Group 3528" transform="translate(6.77 .746)">
                        <g id="Group_3527" data-name="Group 3527">
                            <path id="Path_4558" d="M-1965.323 346.721c7.325 7.7 17.131 12.81 27.467 15.991l-.6-.091h.209v3.991h-.51l-.3-.091c-10.724-3.3-21.2-8.683-29.179-17.062z" data-name="Path 4558" transform="translate(1968.227 -346.721)"/>
                        </g>
                    </g>
                </g>
                <g id="Group_3536" data-name="Group 3536" transform="translate(2.419 32.946)">
                    <g id="Group_3531" data-name="Group 3531" transform="translate(0 5.144)">
                        <g id="Group_3530" data-name="Group 3530">
                            <path id="Path_4559" d="M-2056.649 265.194a89.915 89.915 0 0 0 6.913 12.219 91.529 91.529 0 0 0 11.388-.358 37.164 37.164 0 0 1-3.733-4.827 44.437 44.437 0 0 1-3.3-5.29 134.533 134.533 0 0 1-11.268-1.744z" data-name="Path 4559" transform="translate(2056.649 -265.194)"/>
                        </g>
                    </g>
                    <g id="Group_3533" data-name="Group 3533" transform="translate(22.543 10.669)">
                        <g id="Group_3532" data-name="Group 3532">
                            <path id="Path_4560" d="M-1970.694 284.235a85.8 85.8 0 0 0-8.263 7.419c.442 1.79.83 3.7 1.393 5.563.689 1.777 1.345 3.674 2.174 5.512a75.969 75.969 0 0 1 6.165-9.306 23.15 23.15 0 0 1-1.032-4.594 26.393 26.393 0 0 1-.437-4.594z" data-name="Path 4560" transform="translate(1978.957 -284.235)"/>
                        </g>
                    </g>
                    <g id="Group_3535" data-name="Group 3535" transform="translate(11.42)">
                        <g id="Group_3534" data-name="Group 3534">
                            <path id="Path_4561" d="M-2013.357 247.467c1.686 10.7 5.767 21.1 13.206 28.8l-2.9 2.737c-8.107-8.381-12.495-19.733-14.237-30.871z" data-name="Path 4561" transform="translate(2017.292 -247.467)"/>
                        </g>
                    </g>
                </g>
                <g id="Group_3543" data-name="Group 3543">
                    <g id="Group_3538" data-name="Group 3538" transform="translate(0 2.198)">
                        <g id="Group_3537" data-name="Group 3537">
                            <path id="Path_4562" d="M-2064.986 141.5l3.52 11.824q5.369 1.794 10.733 3.416c-1.287-3.808-2.476-7.675-3.633-11.551z" data-name="Path 4562" transform="translate(2064.986 -141.501)"/>
                        </g>
                    </g>
                    <g id="Group_3540" data-name="Group 3540" transform="translate(15.57 16.135)">
                        <g id="Group_3539" data-name="Group 3539">
                            <path id="Path_4563" d="M-1998.674 189.53c-3.508 1.3-6.99 2.636-10.429 4.042-.917 3.841-1.684 7.722-2.225 11.705 3.263-1.741 6.667-3.372 10.057-4.9.692-3.589 1.615-7.204 2.597-10.847z" data-name="Path 4563" transform="translate(2011.328 -189.53)"/>
                        </g>
                    </g>
                    <g id="Group_3542" data-name="Group 3542" transform="translate(12.008)">
                        <g id="Group_3541" data-name="Group 3541">
                            <path id="Path_4564" d="M-2019.613 133.925c.059 11.1-.075 22.209 1.776 32.946l-3.935.666c-1.926-11.231-1.766-22.5-1.832-33.612z" data-name="Path 4564" transform="translate(2023.604 -133.925)"/>
                        </g>
                    </g>
                </g>
            </g>
            <g id="Group_3546" data-name="Group 3546" transform="translate(8.18)">
                <g id="Group_3545" data-name="Group 3545">
                    <path id="Path_4565" d="M-2030.971 114.4l5.822-13.5-5.822-13.5-5.822 13.5z" data-name="Path 4565" transform="translate(2036.794 -87.394)"/>
                </g>
            </g>
        </g>
        <g id="Group_3572" data-name="Group 3572" transform="translate(-1973.433 46.152)">
            <g id="Group_3569" data-name="Group 3569" transform="translate(0 13.501)">
                <g id="Group_3554" data-name="Group 3554" transform="translate(0 61)">
                    <g id="Group_3549" data-name="Group 3549" transform="translate(15.101 8.733)">
                        <g id="Group_3548" data-name="Group 3548">
                            <path id="Path_4566" d="M-1675.38 379.226a44.885 44.885 0 0 1-6.608 3.455c-1.112.5-2.2 1.031-3.307 1.459l-3.368 1.088a105.087 105.087 0 0 1-8.758-7.081l5.877-1.614a57.623 57.623 0 0 0 5.849-2.285 72.578 72.578 0 0 0 10.315 4.978z" data-name="Path 4566" transform="translate(1697.42 -374.248)"/>
                        </g>
                    </g>
                    <g id="Group_3551" data-name="Group 3551" transform="translate(1.498)">
                        <g id="Group_3550" data-name="Group 3550">
                            <path id="Path_4567" d="M-1736.867 344.151a95.971 95.971 0 0 1 2.021 10.849 77.015 77.015 0 0 1-9.221 7.382q.087-5.672-.233-11.2a54.757 54.757 0 0 0 7.433-7.031z" data-name="Path 4567" transform="translate(1744.3 -344.151)"/>
                        </g>
                    </g>
                    <g id="Group_3553" data-name="Group 3553" transform="translate(0 .746)">
                        <g id="Group_3552" data-name="Group 3552">
                            <path id="Path_4568" d="M-1722 346.721c-7.325 7.7-17.131 12.81-27.467 15.991l.6-.091h-.209v3.991h.51l.3-.091c10.725-3.3 21.2-8.683 29.179-17.062z" data-name="Path 4568" transform="translate(1749.464 -346.721)"/>
                        </g>
                    </g>
                </g>
                <g id="Group_3561" data-name="Group 3561" transform="translate(23.753 32.946)">
                    <g id="Group_3556" data-name="Group 3556" transform="translate(13.975 5.144)">
                        <g id="Group_3555" data-name="Group 3555">
                            <path id="Path_4569" d="M-1601.141 265.194a89.9 89.9 0 0 1-6.912 12.219 91.532 91.532 0 0 1-11.388-.358 37.215 37.215 0 0 0 3.732-4.827 44.468 44.468 0 0 0 3.3-5.29 134.596 134.596 0 0 0 11.268-1.744z" data-name="Path 4569" transform="translate(1619.441 -265.194)"/>
                        </g>
                    </g>
                    <g id="Group_3558" data-name="Group 3558" transform="translate(0 10.669)">
                        <g id="Group_3557" data-name="Group 3557">
                            <path id="Path_4570" d="M-1666.135 284.235a85.827 85.827 0 0 1 8.263 7.419c-.441 1.79-.829 3.7-1.393 5.563-.689 1.777-1.345 3.674-2.174 5.512a75.969 75.969 0 0 0-6.165-9.306 23.107 23.107 0 0 0 1.031-4.594 26.416 26.416 0 0 0 .438-4.594z" data-name="Path 4570" transform="translate(1667.604 -284.235)"/>
                        </g>
                    </g>
                    <g id="Group_3560" data-name="Group 3560" transform="translate(3.714)">
                        <g id="Group_3559" data-name="Group 3559">
                            <path id="Path_4571" d="M-1641.6 247.467c-1.686 10.7-5.767 21.1-13.206 28.8l2.9 2.737c8.107-8.381 12.5-19.733 14.237-30.871z" data-name="Path 4571" transform="translate(1654.804 -247.467)"/>
                        </g>
                    </g>
                </g>
                <g id="Group_3568" data-name="Group 3568" transform="translate(30.223)">
                    <g id="Group_3563" data-name="Group 3563" transform="translate(13.971 2.198)">
                        <g id="Group_3562" data-name="Group 3562">
                            <path id="Path_4572" d="M-1582.9 141.5l-3.52 11.824q-5.369 1.794-10.733 3.416c1.287-3.808 2.476-7.675 3.633-11.551z" data-name="Path 4572" transform="translate(1597.158 -141.501)"/>
                        </g>
                    </g>
                    <g id="Group_3565" data-name="Group 3565" transform="translate(0 16.135)">
                        <g id="Group_3564" data-name="Group 3564">
                            <path id="Path_4573" d="M-1645.3 189.53c3.508 1.3 6.99 2.636 10.429 4.042.917 3.841 1.684 7.722 2.225 11.705-3.263-1.741-6.667-3.372-10.057-4.9-.697-3.589-1.62-7.204-2.597-10.847z" data-name="Path 4573" transform="translate(1645.305 -189.53)"/>
                        </g>
                    </g>
                    <g id="Group_3567" data-name="Group 3567" transform="translate(10.45)">
                        <g id="Group_3566" data-name="Group 3566">
                            <path id="Path_4574" d="M-1607.516 133.925c-.059 11.1.075 22.209-1.776 32.946l3.935.666c1.926-11.231 1.766-22.5 1.831-33.612z" data-name="Path 4574" transform="translate(1609.291 -133.925)"/>
                        </g>
                    </g>
                </g>
            </g>
            <g id="Group_3571" data-name="Group 3571" transform="translate(38.622)">
                <g id="Group_3570" data-name="Group 3570">
                    <path id="Path_4575" d="M-1610.537 114.4l-5.823-13.5 5.823-13.5 5.822 13.5z" data-name="Path 4575" transform="translate(1616.36 -87.394)"/>
                </g>
            </g>
        </g>
        <g id="Group_3605" data-name="Group 3605" transform="translate(-2046.778 154.224)">
            <g id="Group_3580" data-name="Group 3580" transform="translate(19.417 23.451)">
                <g id="Group_3573" data-name="Group 3573" transform="translate(0 .154)">
                    <path id="Path_4576" d="M-1926.875 549.209v.216h-3.648v-.216l1.268-.233-.948-2.544h-2.8l-.921 2.47.921.308v.216h-2.316v-.216l.908-.345 2.944-7.666h.6l2.956 7.716zm-4.723-6.5h-.025l-1.229 3.3h2.482z" data-name="Path 4576" transform="translate(1935.32 -541.198)"/>
                </g>
                <g id="Group_3574" data-name="Group 3574" transform="translate(10.345)">
                    <path id="Path_4577" d="M-1892.653 548.563a4.975 4.975 0 0 1-2.648.678 4.059 4.059 0 0 1-4.365-4.182 4.324 4.324 0 0 1 4.39-4.353 4.408 4.408 0 0 1 1.881.395l.551-.432h.139l.1 2.74-.206.025c-.856-1.717-1.715-2.357-3-2.357-1.124 0-2.38 1.1-2.38 3.762 0 2.611 1.459 3.97 3.214 3.97a2.424 2.424 0 0 0 1-.183l1.445-1.8.116.054z" data-name="Path 4577" transform="translate(1899.667 -540.668)"/>
                </g>
                <g id="Group_3575" data-name="Group 3575" transform="translate(19.78 .154)">
                    <path id="Path_4578" d="M-1858.7 549.209v.216h-3.648v-.216l1.268-.233-.948-2.544h-2.8l-.921 2.47.921.308v.216h-2.318v-.216l.91-.345 2.943-7.666h.6l2.956 7.716zm-4.723-6.5h-.025l-1.228 3.3h2.482z" data-name="Path 4578" transform="translate(1867.151 -541.198)"/>
                </g>
                <g id="Group_3576" data-name="Group 3576" transform="translate(30.269 .229)">
                    <path id="Path_4579" d="M-1831 541.676v-.22h3.929c2.79 0 4.452 1.767 4.452 4.07s-1.856 4.083-4.529 4.083H-1831v-.216l1.266-.233v-7.26zm3.671.2h-1.125v7.3h1.407c1.715 0 2.956-1 2.956-3.658s-1.422-3.638-3.241-3.638z" data-name="Path 4579" transform="translate(1831.003 -541.456)"/>
                </g>
                <g id="Group_3577" data-name="Group 3577" transform="translate(41.394 .229)">
                    <path id="Path_4580" d="M-1785.948 543.647l-.116.087-.985-1.089c-.461-.5-.628-.765-1.422-.765h-1.651v3.442h.678c.769 0 1.064-.308 1.293-1.206l.116-.42h.191v3.6h-.191l-.116-.4c-.229-.894-.524-1.214-1.293-1.214h-.678v3.492h2.241a1.264 1.264 0 0 0 1.28-.678l1.115-1.434.124.054-.345 2.494h-6.957v-.216l1.266-.233V541.9l-1.266-.229v-.22h6.408z" data-name="Path 4580" transform="translate(1792.664 -541.456)"/>
                </g>
                <g id="Group_3578" data-name="Group 3578" transform="translate(51.556 .229)">
                    <path id="Path_4581" d="M-1747.056 549.392v.216h-3.817v-.216l1.268-.233v-7.051h-.087l-3 7.5h-.308l-3.122-7.5h-.087v6.939l1.01.345v.216h-2.444v-.216l1.01-.345v-7.117l-1.01-.254v-.22h2.686l.5 1.318 2.05 5.055h.062l2-5.055.47-1.318h2.819v.22l-1.268.229v7.254z" data-name="Path 4581" transform="translate(1757.64 -541.456)"/>
                </g>
                <g id="Group_3579" data-name="Group 3579" transform="translate(64.34 .229)">
                    <path id="Path_4582" d="M-1708.72 545.871v3.288l1.3.233v.216h-3.887v-.216l1.305-.233v-3.068l-2.457-4.124-1.127-.291v-.22h3.737v.22l-1.1.229 1.933 3.646 2.021-3.571-.936-.3v-.22h2.623v.22l-1.01.345z" data-name="Path 4582" transform="translate(1713.584 -541.456)"/>
                </g>
            </g>
            <g id="Group_3599" data-name="Group 3599">
                <g id="Group_3582" data-name="Group 3582" transform="translate(0 .001)">
                    <g id="Group_3581" data-name="Group 3581">
                        <path id="Path_4583" d="M-1992.534 469.552a3.572 3.572 0 0 1-2.534 1.05 3.574 3.574 0 0 1-2.534-1.05 3.572 3.572 0 0 1-1.049-2.534 3.57 3.57 0 0 1 1.05-2.534 3.57 3.57 0 0 1 2.533-1.049 3.575 3.575 0 0 1 2.534 1.049l1.049-1.049 1.484-1.484a7.145 7.145 0 0 0-5.068-2.1 7.145 7.145 0 0 0-5.067 2.1 7.159 7.159 0 0 0-1.105 1.485 7.088 7.088 0 0 0-.994 3.58v.007a7.088 7.088 0 0 0 .994 3.58 7.153 7.153 0 0 0 1.1 1.484 7.141 7.141 0 0 0 5.063 2.1h.01a7.146 7.146 0 0 0 5.063-2.1l-1.484-1.484z" data-name="Path 4583" transform="translate(2002.236 -459.852)"/>
                    </g>
                </g>
                <g id="Group_3584" data-name="Group 3584" transform="translate(31.637 .001)">
                    <g id="Group_3583" data-name="Group 3583">
                        <path id="Path_4584" d="M-1882.451 470.6l-1.05-1.05a3.574 3.574 0 0 1-2.534 1.05 3.571 3.571 0 0 1-2.534-1.049 3.572 3.572 0 0 1-1.05-2.534 3.573 3.573 0 0 1 1.05-2.535 3.572 3.572 0 0 1 2.533-1.049 3.573 3.573 0 0 1 2.534 1.049l1.05-1.049 1.484-1.484a7.172 7.172 0 0 0-1.484-1.1 7.1 7.1 0 0 0-3.585-.994 7.144 7.144 0 0 0-5.067 2.1 7.171 7.171 0 0 0-1.106 1.485 7.092 7.092 0 0 0-.994 3.584 7.094 7.094 0 0 0 .994 3.583 7.186 7.186 0 0 0 1.105 1.484 7.142 7.142 0 0 0 5.063 2.1h.011a7.208 7.208 0 0 0 1.341-.135 7.079 7.079 0 0 0 2.239-.859 7.212 7.212 0 0 0 1.484-1.1l-.879-.879z" data-name="Path 4584" transform="translate(1893.203 -459.851)"/>
                    </g>
                </g>
                <g id="Group_3586" data-name="Group 3586" transform="translate(70.491 .001)">
                    <g id="Group_3585" data-name="Group 3585">
                        <path id="Path_4585" d="M-1747.064 461.95a7.145 7.145 0 0 0-5.068-2.1 7.145 7.145 0 0 0-5.067 2.1 7.16 7.16 0 0 0-1.019 1.324c-.032.051-.057.108-.087.16a7.088 7.088 0 0 0-.994 3.584 7.089 7.089 0 0 0 .994 3.583c.03.053.055.109.087.16a7.168 7.168 0 0 0 1.018 1.323 7.14 7.14 0 0 0 5.063 2.1h.011a7.144 7.144 0 0 0 5.063-2.1 7.178 7.178 0 0 0 1.1-1.484 7.1 7.1 0 0 0 .995-3.583 7.093 7.093 0 0 0-.995-3.584 7.177 7.177 0 0 0-1.105-1.484m-2.534 2.534a3.576 3.576 0 0 1 1.05 2.534 3.573 3.573 0 0 1-1.049 2.533 3.572 3.572 0 0 1-2.535 1.05 3.573 3.573 0 0 1-2.534-1.05 3.574 3.574 0 0 1-1.049-2.534 3.571 3.571 0 0 1 1.05-2.534 3.571 3.571 0 0 1 2.534-1.049 3.573 3.573 0 0 1 2.534 1.049" data-name="Path 4585" transform="translate(1759.299 -459.851)"/>
                    </g>
                </g>
                <g id="Group_3588" data-name="Group 3588" transform="translate(86.543 .001)">
                    <g id="Group_3587" data-name="Group 3587">
                        <path id="Path_4586" d="M-1690.637 463.435a7.2 7.2 0 0 0-1.1-1.484 7.145 7.145 0 0 0-5.068-2.1 7.145 7.145 0 0 0-5.068 2.1 7.165 7.165 0 0 0-1.106 1.485 7.1 7.1 0 0 0-.994 3.584 7.1 7.1 0 0 0 .994 3.583 7.157 7.157 0 0 0 1.105 1.484 7.143 7.143 0 0 0 5.063 2.1h.01a7.142 7.142 0 0 0 5.063-2.1 7.171 7.171 0 0 0 1.1-1.484 7.081 7.081 0 0 0 .643-1.479 7.073 7.073 0 0 0 .351-2.1 7.075 7.075 0 0 0-.351-2.105 7.07 7.07 0 0 0-.643-1.478m-3.64 1.049a3.572 3.572 0 0 1 1.049 2.534 3.571 3.571 0 0 1-1.049 2.533 3.573 3.573 0 0 1-2.534 1.05 3.57 3.57 0 0 1-2.534-1.05 3.571 3.571 0 0 1-1.05-2.534 3.574 3.574 0 0 1 1.05-2.534 3.574 3.574 0 0 1 2.534-1.049 3.572 3.572 0 0 1 2.534 1.049" data-name="Path 4586" transform="translate(1703.978 -459.851)"/>
                    </g>
                </g>
                <g id="Group_3590" data-name="Group 3590" transform="translate(103.012 .001)">
                    <g id="Group_3589" data-name="Group 3589">
                        <path id="Path_4587" d="M-1640.233 470.6h-3.405v-10.749h-3.584v14.334h10.573V470.6z" data-name="Path 4587" transform="translate(1647.222 -459.851)"/>
                    </g>
                </g>
                <g id="Group_3592" data-name="Group 3592" transform="translate(58.428 .001)">
                    <g id="Group_3591" data-name="Group 3591">
                        <path id="Path_4588" d="M-1789.422 459.851H-1800.874v3.583h3.927v10.75h3.584v-10.75h3.942z" data-name="Path 4588" transform="translate(1800.874 -459.85)"/>
                    </g>
                </g>
                <g id="Group_3594" data-name="Group 3594" transform="translate(26.142)">
                    <g id="Group_3593" data-name="Group 3593">
                        <path id="Path_4589" d="M-1912.141 459.849v14.335h3.584v-14.335h-3.584z" data-name="Path 4589" transform="translate(1912.141 -459.849)"/>
                    </g>
                </g>
                <g id="Group_3596" data-name="Group 3596" transform="translate(45.693)">
                    <g id="Group_3595" data-name="Group 3595">
                        <path id="Path_4590" d="M-1832.118 459.849h-4.356l-4.705 5.481v-5.481h-3.583v14.335h3.584v-4.076l1.332-1.546 4.191 5.622h3.989l-5.8-8.743z" data-name="Path 4590" transform="translate(1844.763 -459.849)"/>
                    </g>
                </g>
                <g id="Group_3598" data-name="Group 3598" transform="translate(13.774 .001)">
                    <g id="Group_3597" data-name="Group 3597">
                        <path id="Path_4591" d="M-1947.6 470.6h-3.584v-10.749h-3.584v14.334h10.751V470.6h-3.584z" data-name="Path 4591" transform="translate(1954.765 -459.851)"/>
                    </g>
                </g>
            </g>
            <g id="Group_3604" data-name="Group 3604" transform="translate(6.903 26.747)">
                <g id="Group_3601" data-name="Group 3601">
                    <g id="Group_3600" data-name="Group 3600">
                        <path id="Rectangle_2381" d="M0 0h8.768v1.064H0z" data-name="Rectangle 2381"/>
                    </g>
                </g>
                <g id="Group_3603" data-name="Group 3603" transform="translate(91.009)">
                    <g id="Group_3602" data-name="Group 3602">
                        <path id="Rectangle_2382" d="M0 0h8.772v1.064H0z" data-name="Rectangle 2382"/>
                    </g>
                </g>
            </g>
        </g>
    </g>
</svg>
