<svg xmlns="http://www.w3.org/2000/svg" viewBox="0 0 680 680">
  <defs>
    <style>
      .cls-1 {
        fill: #fff;
      }

      .cls-2 {
        fill: #2cb8d2;
      }

      .cls-3 {
        fill: #424242;
      }
    </style>
  </defs>
  <title>CLICKTOOL_MARK</title>
  <g id="Gear">
    <animateTransform
    attributeName="transform"
    type="rotate"
    from="0 340 340"
    to="360 340 340"
    dur="4s"
    repeatCount="indefinite" />
    <g>
      <path d="M53.32,157.31A339.93,339.93,0,0,1,80.78,120.1l49,9.42A297.17,297.17,0,0,1,262.87,52.66L279.2,5.53A340.17,340.17,0,0,1,325.14.38C330.07.16,335,0,340,0s9.93.16,14.86.38A340.17,340.17,0,0,1,400.8,5.53l16.33,47.13a297.17,297.17,0,0,1,133.12,76.86l49-9.42a339.93,339.93,0,0,1,27.46,37.21q8,12.49,14.88,25.7a337,337,0,0,1,18.56,42.31L627.41,263.1a298.12,298.12,0,0,1,0,153.77l32.71,37.78A338.35,338.35,0,0,1,641.58,497q-6.89,13.2-14.88,25.69a339.85,339.85,0,0,1-27.45,37.21l-49-9.42a297.14,297.14,0,0,1-133.17,76.91l-16.32,47.12a340.36,340.36,0,0,1-45.94,5.15c-4.93.22-9.87.38-14.85.38s-9.92-.16-14.85-.38a340.36,340.36,0,0,1-45.94-5.15l-16.32-47.12a297.14,297.14,0,0,1-133.17-76.91l-49,9.42A339.85,339.85,0,0,1,53.3,522.65q-8-12.48-14.88-25.69a338.35,338.35,0,0,1-18.55-42.31l32.71-37.78a298.12,298.12,0,0,1,0-153.77L19.88,225.32A337,337,0,0,1,38.44,183q6.89-13.2,14.88-25.7"/>
      <path class="cls-1" d="M245.35,103.22a253.16,253.16,0,0,1,49-14.07L310,44c9.86-1,19.85-1.5,30-1.5s20.11.52,30,1.5l15.64,45.15A255.2,255.2,0,0,1,534.4,175.07l46.87-9a296.42,296.42,0,0,1,30,51.91l-31.21,36a254,254,0,0,1,12.28,49.57,253.49,253.49,0,0,1,0,72.84A253.2,253.2,0,0,1,580.1,426l31.21,36a296.69,296.69,0,0,1-30,51.91l-46.86-9a256,256,0,0,1-99.81,71.89,252.84,252.84,0,0,1-49,14.06L370,636c-9.86,1-19.85,1.5-30,1.5s-20.1-.52-30-1.5L294.4,590.85a253.38,253.38,0,0,1-112.09-50.53,256.45,256.45,0,0,1-36.75-35.42l-46.86,9a296.69,296.69,0,0,1-30-51.91L99.9,426A253.2,253.2,0,0,1,87.63,376.4a253.49,253.49,0,0,1,0-72.84A254,254,0,0,1,99.91,254L68.7,218a296.79,296.79,0,0,1,30-51.91l46.87,9a255.77,255.77,0,0,1,99.75-71.85"/>
    </g>
  </g>
  <g id="Hex">
    <g>
      <polygon class="cls-2" points="561 467.59 340 595.19 119 467.59 119 212.41 340 84.81 561 212.41 561 467.57 561 467.59"/>
      <g>
        <path class="cls-3" d="M549.44,340A25.51,25.51,0,0,0,524,314.5H407.52a71.38,71.38,0,0,1,0,51H524A25.51,25.51,0,0,0,549.44,340Z"/>
        <path class="cls-3" d="M340,280.49a59.46,59.46,0,0,0-53.71,34h41A12.78,12.78,0,0,1,340,326.89v26.22a12.76,12.76,0,0,1-12.73,12.39h-41a59.46,59.46,0,1,0,53.71-85Z"/>
      </g>
      <polygon class="cls-1" points="340 510.89 488 425.45 414 382.72 340 425.45 266 382.72 266 297.28 340 254.55 414 297.28 488 254.55 340 169.1 192 254.55 192 425.45 340 510.89"/>
    </g>
  </g>
</svg>
