<svg xmlns="http://www.w3.org/2000/svg" viewBox="0 0 1054.28 1020.5">
  <title>CLICKTOOL_LOCKUP_LOOSE</title>
  <g id="GEAR">
    <animateTransform
      attributeName="transform"
      type="rotate"
      from="0 526.64 354"
      to="360 526.64 354"
      dur="4s"
      repeatCount="indefinite" />
    <g>
      <path d="M827.08,434.88a310.86,310.86,0,0,0,0-160.41l34.13-39.41a353.31,353.31,0,0,0-19.36-44.14q-7.19-13.77-15.53-26.82a355,355,0,0,0-28.65-38.81l-51.08,9.83A310,310,0,0,0,607.71,54.93l-17-49.16A354.77,354.77,0,0,0,542.75.39C537.6.17,532.44,0,527.24,0s-10.35.17-15.5.39a354.77,354.77,0,0,0-47.93,5.38l-17,49.16a310,310,0,0,0-138.87,80.19l-51.08-9.83a355,355,0,0,0-28.65,38.81q-8.33,13.05-15.53,26.82a353.31,353.31,0,0,0-19.36,44.14l34.13,39.41a310.86,310.86,0,0,0,0,160.41l-34.13,39.41a352,352,0,0,0,19.36,44.15q7.17,13.77,15.51,26.8a355.35,355.35,0,0,0,28.64,38.82l51.08-9.83A310.11,310.11,0,0,0,446.8,654.46l17,49.16A354.77,354.77,0,0,0,511.76,709c5.14.22,10.29.39,15.48.39s10.35-.17,15.49-.39a354.77,354.77,0,0,0,47.93-5.37l17-49.16a310.11,310.11,0,0,0,138.93-80.23l51.08,9.83a355.35,355.35,0,0,0,28.64-38.82q8.31-13,15.51-26.8a352,352,0,0,0,19.36-44.15ZM779,536.12l-48.89-9.4a266.82,266.82,0,0,1-104.12,75,264.12,264.12,0,0,1-51.15,14.68L558.5,663.48q-15.42,1.54-31.26,1.57T496,663.48l-16.31-47.09a264.69,264.69,0,0,1-116.94-52.72,267.89,267.89,0,0,1-38.33-36.95l-48.89,9.4A309.69,309.69,0,0,1,244.21,482l32.56-37.6A263.38,263.38,0,0,1,264,392.67a264.8,264.8,0,0,1,0-76A264.1,264.1,0,0,1,276.78,265l-32.56-37.59a310,310,0,0,1,31.33-54.16l48.89,9.41a267,267,0,0,1,104.07-74.95A263.82,263.82,0,0,1,479.66,93L496,45.9q15.42-1.55,31.26-1.56t31.27,1.56L574.83,93A264.51,264.51,0,0,1,691.7,145.68a267.49,267.49,0,0,1,38.35,36.95l48.89-9.41a310,310,0,0,1,31.33,54.16L777.71,265a264.1,264.1,0,0,1,12.81,51.71,264.8,264.8,0,0,1,0,76,263.38,263.38,0,0,1-12.8,51.71L810.28,482A309.69,309.69,0,0,1,779,536.12Z"/>
      <path d="M790.52,392.67a264.8,264.8,0,0,0,0-76A264.1,264.1,0,0,0,777.71,265l32.56-37.59a310,310,0,0,0-31.33-54.16l-48.89,9.41A267,267,0,0,0,626,107.68,263.82,263.82,0,0,0,574.83,93L558.51,45.9q-15.42-1.55-31.27-1.56T496,45.9L479.66,93a264.51,264.51,0,0,0-116.87,52.68,267.49,267.49,0,0,0-38.35,36.95l-48.89-9.41a310,310,0,0,0-31.33,54.16L276.78,265A264.1,264.1,0,0,0,264,316.68a264.8,264.8,0,0,0,0,76,263.38,263.38,0,0,0,12.8,51.71L244.21,482a309.69,309.69,0,0,0,31.31,54.14l48.89-9.4a266.82,266.82,0,0,0,104.12,75,264.12,264.12,0,0,0,51.15,14.68L496,663.48q15.42,1.54,31.25,1.57t31.26-1.57l16.31-47.09a264.69,264.69,0,0,0,116.94-52.72,267.89,267.89,0,0,0,38.33-36.95l48.89,9.4A309.69,309.69,0,0,0,810.28,482l-32.56-37.6A263.38,263.38,0,0,0,790.52,392.67Z" style="fill: #fff"/>
    </g>
  </g>
  <g id="TEXT">
    <g>
      <path d="M90.52,977a33.25,33.25,0,1,1,0-47l9.74-9.73L114,906.47a66.51,66.51,0,0,0-94,0A66.54,66.54,0,0,0,9.73,920.25,65.81,65.81,0,0,0,.5,953.47v.06a65.87,65.87,0,0,0,9.23,33.22A66.39,66.39,0,0,0,20,1000.52,66.28,66.28,0,0,0,67,1020h.1a66.3,66.3,0,0,0,47-19.47l-13.77-13.77Z"/>
      <path d="M393.8,986.75h0L384.06,977a33.24,33.24,0,1,1,0-47l9.73-9.73h0l13.77-13.77a66.74,66.74,0,0,0-13.77-10.25,66.08,66.08,0,0,0-90.53,90.53A64.58,64.58,0,0,0,360.5,1020h.1a67,67,0,0,0,12.43-1.25,65.68,65.68,0,0,0,20.77-8,66.48,66.48,0,0,0,13.77-10.25l-8.15-8.16Z"/>
      <path d="M768.07,906.47a66.51,66.51,0,0,0-94,0,67.11,67.11,0,0,0-9.46,12.29c-.29.48-.52,1-.8,1.49a64.56,64.56,0,0,0,0,66.5c.28.49.51,1,.8,1.49a67.33,67.33,0,0,0,9.45,12.28A66.28,66.28,0,0,0,721,1020h.09a66.28,66.28,0,0,0,47-19.47,67,67,0,0,0,10.25-13.77,64.5,64.5,0,0,0,0-66.5A66.81,66.81,0,0,0,768.07,906.47ZM744.56,930a33.27,33.27,0,1,1-23.51-9.73A33.19,33.19,0,0,1,744.56,930Z"/>
      <path d="M927.26,920.25a65.58,65.58,0,0,0-114.55,0,64.5,64.5,0,0,0,0,66.5A64.58,64.58,0,0,0,869.94,1020h.1a65.59,65.59,0,0,0,63.19-86A65.28,65.28,0,0,0,927.26,920.25ZM893.49,930A33.26,33.26,0,1,1,870,920.25,33.15,33.15,0,0,1,893.49,930Z"/>
      <polygon points="1020.53 986.75 988.93 986.75 988.93 920.25 988.93 887 955.68 887 955.68 920.25 955.68 986.75 955.68 1019.99 955.68 1020 969.06 1020 988.93 1020 988.93 1019.99 1002.31 1019.99 1020.53 1019.99 1020.53 1020 1035.56 1020 1053.78 1020 1053.78 1019.99 1053.78 986.75 1020.53 986.75"/>
      <polygon points="648.88 887 612.3 887 579.05 887 567.64 887 567.62 887 567.62 887.02 542.62 886.99 542.62 920.24 579.05 920.25 579.05 986.75 579.05 1019.99 578.94 1019.99 578.94 1020 612.3 1020 612.3 1019.99 612.3 986.75 612.3 920.25 648.88 920.25 648.88 887"/>
      <polygon points="243.06 886.99 243.06 920.25 243.06 986.75 243.06 1019.99 259.68 1019.99 259.68 1019.99 276.31 1019.99 276.31 986.75 276.31 920.25 276.31 886.99 259.68 886.99 243.06 886.99"/>
      <polygon points="541.78 886.99 501.36 886.99 457.71 937.85 457.71 886.99 424.46 886.99 424.46 1020 424.46 1020 457.71 1020 457.71 974.77 467.37 964.68 508.95 1020 545.96 1020 488.54 942.65 541.78 886.99"/>
      <polygon points="194.8 986.75 161.55 986.75 161.55 920.25 161.55 887 128.3 887 128.3 920.25 128.3 953.5 128.3 986.75 128.3 1019.99 128.3 1019.99 128.3 1020 161.55 1020 194.8 1020 194.8 1020 228.05 1020 228.05 1020 228.05 1020 228.05 1019.99 228.05 986.75 228.05 986.75 194.8 986.75"/>
    </g>
  </g>
  <g id="HEX">
    <g>
      <polygon points="757.62 487.7 527.25 620.71 296.87 487.7 296.87 221.68 527.25 88.67 757.62 221.68 757.62 487.67 757.62 487.7" style="fill: #2cb8d2"/>
      <path d="M583.26,381.29a62,62,0,1,0-112-53.2H514A13.33,13.33,0,0,1,527.23,341v27.35A13.33,13.33,0,0,1,514,381.28H471.23a62,62,0,0,0,112,0" style="fill: #424242"/>
      <path d="M719.24,328.09H597.7a74.37,74.37,0,0,1,0,53.2H719.24a26.6,26.6,0,0,0,0-53.2Z" style="fill: #424242"/>
      <polygon points="527.25 532.04 680.83 443.37 604.04 399.03 527.25 443.37 450.45 399.03 450.45 310.36 527.25 266.02 604.04 310.36 680.83 266.02 527.25 177.35 373.66 266.02 373.66 443.37 527.25 532.04" style="fill: #fff"/>
    </g>
  </g>
</svg>
