<svg xmlns="http://www.w3.org/2000/svg" xmlns:xlink="http://www.w3.org/1999/xlink" viewBox="0 0 490 490">
  <defs>
    <style>
      .cls-1 {
        fill: none;
      }

      .cls-2 {
        fill: #abe3ed;
      }

      .cls-3 {
        fill: #fff;
      }

      .cls-4 {
        fill: #d5f1f6;
      }

      .cls-5 {
        fill: #80d4e4;
      }

      .cls-6 {
        fill: #fd8a66;
      }

      .cls-12, .cls-7 {
        fill: #2cb8d2;
      }

      .cls-8 {
        fill: #feca40;
      }

      .cls-9 {
        fill: #24537f;
      }

      .cls-10 {
        clip-path: url(#clip-path);
      }

      .cls-11 {
        fill: #4fb26d;
      }

      .cls-12 {
        opacity: 0.2;
        isolation: isolate;
      }

      .cls-13 {
        fill: #424242;
      }
    </style>
    <clipPath id="clip-path">
      <circle class="cls-1" cx="0.04" cy="0.01" r="57">
        <animateMotion dur="20s" repeatCount="indefinite">
          <mpath xlink:href="#motion-path1"/>
        </animateMotion>  
      </circle>
    </clipPath>
  </defs>
  <title>magnifying_glass_animation</title>
  <g id="background">
    <g>
      <g>
        <path class="cls-2" d="M280.8,337.6l6.7,32.8h15.6a2.43,2.43,0,0,1,2.4,2.4v1.3a2.43,2.43,0,0,1-2.4,2.4H183.9a2.43,2.43,0,0,1-2.4-2.4v-1.3a2.43,2.43,0,0,1,2.4-2.4h15.6l6.7-32.8Z"/>
        <path class="cls-3" d="M303.1,377.5H183.9a3.5,3.5,0,0,1-3.4-3.4v-1.3a3.5,3.5,0,0,1,3.4-3.4h14.8l6.5-32a1,1,0,0,1,1-.8h74.6a1,1,0,0,1,1,.8l6.5,32h14.8a3.5,3.5,0,0,1,3.4,3.4v1.3A3.5,3.5,0,0,1,303.1,377.5Zm-119.2-6.1a1.51,1.51,0,0,0-1.4,1.4v1.3a1.51,1.51,0,0,0,1.4,1.4H303.1a1.51,1.51,0,0,0,1.4-1.4v-1.3a1.51,1.51,0,0,0-1.4-1.4H287.5a1,1,0,0,1-1-.8l-6.5-32H207l-6.5,32a1,1,0,0,1-1,.8Z"/>
      </g>
      <path class="cls-4" d="M86.8,338.6a13.36,13.36,0,0,1-13.3-13.3V126.8a13.36,13.36,0,0,1,13.3-13.3H391.2a13.36,13.36,0,0,1,13.3,13.3V325.3a13.36,13.36,0,0,1-13.3,13.3Z"/>
      <rect class="cls-5" x="87.4" y="126.2" width="303.2" height="179.6"/>
      <path class="cls-2" d="M246.5,331.7v-1.4a.87.87,0,0,1,.6-.9,7.82,7.82,0,0,0,3.7-3.7,1,1,0,0,1,.9-.6h1.4a1,1,0,0,0,1-1v-3.7a1,1,0,0,0-1-1h-1.4a.87.87,0,0,1-.9-.6,7.82,7.82,0,0,0-3.7-3.7,1,1,0,0,1-.6-.9v-1.8a1,1,0,0,0-1-1h-3.7a1,1,0,0,0-1,1v1.4a.87.87,0,0,1-.6.9,7.82,7.82,0,0,0-3.7,3.7,1,1,0,0,1-.9.6h-1.4a1,1,0,0,0-1,1v3.7a1,1,0,0,0,1,1h1.4a.87.87,0,0,1,.9.6,7.82,7.82,0,0,0,3.7,3.7,1,1,0,0,1,.6.9v1.4a1,1,0,0,0,1,1h3.7C246,332.7,246.5,332.2,246.5,331.7Zm-7.5-8.8a4.77,4.77,0,1,1,3.9,3.9A5,5,0,0,1,239,322.9Z"/>
      <rect class="cls-3" x="111.7" y="166.9" width="51.9" height="122.8"/>
      <rect class="cls-3" x="111.7" y="143.4" width="249.3" height="16.5"/>
      <rect class="cls-3" x="169.4" y="166.9" width="191.2" height="78.3"/>
      <g>
        <path class="cls-6" d="M198.4,253a20.21,20.21,0,1,0-8.8,38.4,20,20,0,0,0,10.1-2.7l-10.2-17.6Z"/>
        <path class="cls-7" d="M206.2,259.8a21.28,21.28,0,0,0-7.8-6.8l-8.8,18.2Z"/>
        <path class="cls-8" d="M207.3,261.6a17.39,17.39,0,0,0-1.1-1.8l-16.7,11.3,10.1,17.5a20.26,20.26,0,0,0,10.1-17.5A19.16,19.16,0,0,0,207.3,261.6Z"/>
      </g>
      <g>
        <path class="cls-8" d="M246.2,253a20.21,20.21,0,1,0-8.8,38.4,20,20,0,0,0,10.1-2.7l-10.1-17.5Z"/>
        <path class="cls-3" d="M254,259.8a21.28,21.28,0,0,0-7.8-6.8l-8.8,18.2Z"/>
        <path class="cls-9" d="M255.1,261.6a17.39,17.39,0,0,0-1.1-1.8l-16.7,11.4,10.1,17.5a20.26,20.26,0,0,0,10.1-17.5A19.27,19.27,0,0,0,255.1,261.6Z"/>
      </g>
      <g>
        <path class="cls-9" d="M294,253a20.21,20.21,0,1,0-8.8,38.4,20,20,0,0,0,10.1-2.7l-10.1-17.5Z"/>
        <path class="cls-6" d="M301.8,259.8A21.28,21.28,0,0,0,294,253l-8.8,18.2Z"/>
        <path class="cls-7" d="M302.9,261.6a17.39,17.39,0,0,0-1.1-1.8l-16.7,11.4,10.1,17.5a20.26,20.26,0,0,0,10.1-17.5A19.27,19.27,0,0,0,302.9,261.6Z"/>
      </g>
      <rect class="cls-8" x="309.5" y="251" width="34" height="10.7"/>
      <rect class="cls-6" x="309.5" y="265.8" width="51.9" height="10.7"/>
      <rect class="cls-7" x="309.5" y="280.6" width="21" height="10.7"/>
      <g>
        <polyline class="cls-3" points="169.4 232.8 194.9 218.8 240.2 223.8 257.5 181.7 281.4 212.2 313.6 221.3 360.6 207.3"/>
        <polygon class="cls-4" points="169.9 233.7 168.9 231.9 194.7 217.8 239.6 222.7 257.2 179.7 282 211.3 313.6 220.3 360.3 206.3 360.9 208.3 313.6 222.3 280.8 213.1 257.8 183.7 240.8 224.9 195.1 219.8 169.9 233.7"/>
      </g>
      <path class="cls-3" d="M287.5,371.4h-88a1,1,0,0,1,0-2h88a1,1,0,0,1,0,2Z"/>
    </g>
  </g>
  <g id="lens-view">
    <g class="cls-10">
      <g>
        <g>
          <path class="cls-3" d="M291.47,362.74l8.41,41.17h19.58a3.05,3.05,0,0,1,3,3v1.63a3.05,3.05,0,0,1-3,3H169.84a3.06,3.06,0,0,1-3-3v-1.63a3.05,3.05,0,0,1,3-3h19.58l8.41-41.17Z"/>
          <path class="cls-7" d="M319.46,412.82H169.84a4.4,4.4,0,0,1-4.27-4.27v-1.63a4.4,4.4,0,0,1,4.27-4.27h18.57l8.16-40.16a1.23,1.23,0,0,1,1.26-1h93.64a1.21,1.21,0,0,1,1.25,1l8.16,40.16h18.58a4.4,4.4,0,0,1,4.27,4.27v1.63A4.4,4.4,0,0,1,319.46,412.82Zm-149.62-7.66a1.89,1.89,0,0,0-1.76,1.76v1.63a1.89,1.89,0,0,0,1.76,1.76H319.46a1.89,1.89,0,0,0,1.76-1.76v-1.63a1.89,1.89,0,0,0-1.76-1.76H299.88a1.22,1.22,0,0,1-1.26-1L290.47,364H198.83l-8.16,40.17a1.21,1.21,0,0,1-1.25,1Z"/>
        </g>
        <g>
          <path class="cls-3" d="M48,364A16.76,16.76,0,0,1,31.26,347.3V98.13A16.77,16.77,0,0,1,48,81.43h382.1a16.77,16.77,0,0,1,16.69,16.7V347.3A16.76,16.76,0,0,1,430.05,364Z"/>
          <path class="cls-7" d="M430.05,82.69a15.42,15.42,0,0,1,15.44,15.44V347.3a15.43,15.43,0,0,1-15.44,15.44H48A15.43,15.43,0,0,1,32.51,347.3V98.13A15.42,15.42,0,0,1,48,82.69h382.1m0-2.51H48A17.94,17.94,0,0,0,30,98.13V347.3a18,18,0,0,0,18,17.95h382.1A18,18,0,0,0,448,347.3V98.13a17.94,17.94,0,0,0-17.95-17.95Z"/>
        </g>
        <g>
          <rect class="cls-2" x="48.7" y="97.38" width="380.59" height="225.44"/>
          <path class="cls-7" d="M428,98.63V321.56H50V98.63H428m2.51-2.51H47.45v228h383.1V96.12Z"/>
        </g>
        <g>
          <path class="cls-3" d="M248.41,355.33v-1.76a1.11,1.11,0,0,1,.76-1.13,9.77,9.77,0,0,0,4.64-4.64,1.21,1.21,0,0,1,1.13-.75h1.76a1.26,1.26,0,0,0,1.25-1.26v-4.64a1.25,1.25,0,0,0-1.25-1.26h-1.76a1.1,1.1,0,0,1-1.13-.75,9.79,9.79,0,0,0-4.64-4.65,1.21,1.21,0,0,1-.76-1.13V331.1a1.25,1.25,0,0,0-1.25-1.25h-4.65a1.26,1.26,0,0,0-1.25,1.25v1.76a1.1,1.1,0,0,1-.75,1.13,9.85,9.85,0,0,0-4.65,4.65,1.21,1.21,0,0,1-1.13.75H233a1.26,1.26,0,0,0-1.25,1.25v4.65a1.26,1.26,0,0,0,1.25,1.25h1.76a1.09,1.09,0,0,1,1.13.76,9.83,9.83,0,0,0,4.65,4.64,1.21,1.21,0,0,1,.75,1.13v1.76a1.26,1.26,0,0,0,1.25,1.25h4.65C247.79,356.59,248.41,356,248.41,355.33ZM239,344.28a6,6,0,1,1,4.9,4.9A6.31,6.31,0,0,1,239,344.28Z"/>
          <path class="cls-7" d="M247.66,357.46a1.64,1.64,0,0,1-.75-.12h-4.27a2.52,2.52,0,0,1-2.51-2.51v-1.76a11.3,11.3,0,0,1-5.27-5.27H233.1a2.52,2.52,0,0,1-2.51-2.51v-4.65a2.52,2.52,0,0,1,2.51-2.51h1.76a11.3,11.3,0,0,1,5.27-5.27h0V331.1a2.52,2.52,0,0,1,2.51-2.51h4.64a2.52,2.52,0,0,1,2.52,2.51v2.26a11.32,11.32,0,0,1,5.27,5.28h1.75a2.52,2.52,0,0,1,2.52,2.51v4.64a2.52,2.52,0,0,1-2.52,2.51h-1.75a11.25,11.25,0,0,1-5.27,5.27h0v1.76a2.25,2.25,0,0,1-1.26,2A2.58,2.58,0,0,1,247.66,357.46ZM237,346.79a8.3,8.3,0,0,0,4,4,2.42,2.42,0,0,1,1.5,2.26v1.76h4.65v-1.26a2.24,2.24,0,0,1,1.51-2.26,8.26,8.26,0,0,0,4-4,2.41,2.41,0,0,1,2.26-1.51h1.76v-4.64h-1.76a2.24,2.24,0,0,1-2.26-1.51,8.37,8.37,0,0,0-4-4,2.4,2.4,0,0,1-1.51-2.26V331.1h-4.65v1.76a2.23,2.23,0,0,1-1.5,2.26,8.34,8.34,0,0,0-4,4,2.41,2.41,0,0,1-2.26,1.5H233v4.65h1.76A2.24,2.24,0,0,1,237,346.79Zm7.91,3.77a3.63,3.63,0,0,1-1.13-.12,7.53,7.53,0,0,1-5.9-5.9v-.13A7.19,7.19,0,0,1,252.05,342a7.53,7.53,0,0,1-2,6.41A7.34,7.34,0,0,1,244.9,350.56ZM240.26,344a4.93,4.93,0,0,0,3.89,3.89,4.69,4.69,0,0,0,4.14-1.38,5.07,5.07,0,0,0,1.38-4.14,4.81,4.81,0,0,0-3.89-3.89,4.88,4.88,0,0,0-5.52,5.52Z"/>
        </g>
        <g>
          <rect class="cls-3" x="79.21" y="148.46" width="65.15" height="154.15"/>
          <path class="cls-9" d="M145.61,303.87H78V147.21h67.66Zm-65.15-2.52H143.1V149.72H80.46Z"/>
        </g>
        <g>
          <rect class="cls-3" x="79.21" y="118.97" width="312.94" height="20.71"/>
          <path class="cls-9" d="M393.4,140.93H78V117.71H393.4ZM80.46,138.42H390.89v-18.2H80.46Z"/>
        </g>
        <g>
          <rect class="cls-3" x="151.63" y="148.46" width="240" height="98.29"/>
          <path class="cls-9" d="M392.89,248H150.38V147.21H392.89Zm-240-2.51H390.38V149.72H152.89Z"/>
        </g>
        <g>
          <path class="cls-6" d="M188,256.54a25.37,25.37,0,1,0-11,48.2,25.11,25.11,0,0,0,12.68-3.39l-12.81-22.09Z"/>
          <path class="cls-7" d="M197.83,265.08a26.74,26.74,0,0,0-9.79-8.54l-11,22.85Z"/>
          <path class="cls-8" d="M199.21,267.34a21.73,21.73,0,0,0-1.38-2.26l-21,14.18,12.68,22a25.42,25.42,0,0,0,12.68-22A24,24,0,0,0,199.21,267.34Z"/>
        </g>
        <g>
          <path class="cls-7" d="M248,256.54a25.36,25.36,0,1,0-11,48.2,25.09,25.09,0,0,0,12.68-3.39l-12.68-22Z"/>
          <path class="cls-3" d="M257.83,265.08a26.74,26.74,0,0,0-9.79-8.54l-11,22.85Z"/>
          <path class="cls-8" d="M259.21,267.34a21.73,21.73,0,0,0-1.38-2.26l-21,14.31,12.67,22a25.4,25.4,0,0,0,12.68-22A24.14,24.14,0,0,0,259.21,267.34Z"/>
        </g>
        <g>
          <path class="cls-9" d="M308,256.54A25.36,25.36,0,1,0,297,304.74a25.09,25.09,0,0,0,12.68-3.39l-12.68-22Z"/>
          <path class="cls-6" d="M317.83,265.08a26.74,26.74,0,0,0-9.79-8.54L297,279.39Z"/>
          <path class="cls-7" d="M319.21,267.34a21.73,21.73,0,0,0-1.38-2.26l-21,14.31,12.68,22a25.41,25.41,0,0,0,12.67-22A24.14,24.14,0,0,0,319.21,267.34Z"/>
        </g>
        <g>
          <rect class="cls-8" x="327.5" y="254.03" width="42.68" height="13.43"/>
          <path class="cls-9" d="M371.43,268.72H326.24V252.78h45.19Zm-42.68-2.51h40.17V255.29H328.75Z"/>
        </g>
        <g>
          <rect class="cls-6" x="327.5" y="272.61" width="65.15" height="13.43"/>
          <path class="cls-9" d="M393.9,287.3H326.24V271.35H393.9Zm-65.15-2.51h62.64V273.86H328.75Z"/>
        </g>
        <g>
          <rect class="cls-7" x="327.5" y="291.19" width="26.36" height="13.43"/>
          <path class="cls-9" d="M355.11,305.87H326.24V289.93h28.87Zm-26.36-2.51H352.6V292.44H328.75Z"/>
        </g>
        <g>
          <polyline class="cls-3" points="151.63 231.19 183.64 213.61 240.51 219.89 262.22 167.04 292.22 205.33 332.64 216.75 391.64 199.18"/>
          <polygon class="cls-2" points="152.26 232.32 151.01 230.06 183.39 212.36 239.75 218.51 261.85 164.53 292.98 204.2 332.64 215.5 391.26 197.92 392.02 200.43 332.64 218.01 291.47 206.46 262.6 169.55 241.26 221.27 183.89 214.87 152.26 232.32"/>
        </g>
        <path class="cls-7" d="M299.88,405.16H189.42a1.26,1.26,0,1,1,0-2.51H299.88a1.26,1.26,0,1,1,0,2.51Z"/>
        <path class="cls-11" d="M256.71,173.54a25.23,25.23,0,0,1-8.77-4.84,2.24,2.24,0,0,1-.09-3.3l1.72-1.68a2.23,2.23,0,0,1,3.06-.06,17.62,17.62,0,0,0,5.64,3.6l1.05-5.06c-6.46-3-9.44-6-8.36-11.22l0-.09c1-5,5.37-7.68,11.91-6.81l.05-.21a2.23,2.23,0,0,1,2.64-1.74h0a2.24,2.24,0,0,1,1.74,2.65l-.07.33a19.47,19.47,0,0,1,6.47,3.52,2.24,2.24,0,0,1,.21,3.26l-1.56,1.66a2.22,2.22,0,0,1-3,.22,17.84,17.84,0,0,0-3.62-2.29l-1,4.89c6.39,2.95,9.26,6,8.18,11.28l0,.08c-1.06,5.15-5.68,7.49-11.78,6.8l-.4,1.94a2.24,2.24,0,0,1-2.65,1.74h0a2.23,2.23,0,0,1-1.73-2.65Zm5.12-23.26c-2.1-.26-3.08.42-3.3,1.52l0,.08c-.23,1.1.23,1.85,2.38,3Zm3.63,16.49v-.08c.24-1.14-.26-1.9-2.32-3l-1,4.64C264.17,168.53,265.2,168,265.46,166.77Z"/>
        <path class="cls-11" d="M240.45,151.07a9.73,9.73,0,0,1-3.81-.4.85.85,0,0,1-.52-1.15l.35-.85a.87.87,0,0,1,1.07-.48,6.64,6.64,0,0,0,2.52.44l-.38-1.94c-2.72-.08-4.21-.71-4.61-2.71v0c-.37-1.9.75-3.5,3.19-4.17l0-.08a.85.85,0,0,1,.67-1h0a.85.85,0,0,1,1,.67l0,.13a7.53,7.53,0,0,1,2.8.27.86.86,0,0,1,.56,1.12l-.3.82a.85.85,0,0,1-1,.52,7.11,7.11,0,0,0-1.61-.26l.37,1.87c2.68.09,4.15.75,4.55,2.75v0c.39,2-.89,3.48-3.14,4.15l.15.74a.85.85,0,0,1-.68,1h0a.85.85,0,0,1-1-.67Zm-1.66-8.95c-.78.22-1,.61-.93,1v0c.08.42.36.61,1.28.68Zm3.73,5.27v0c-.09-.43-.37-.63-1.26-.7l.35,1.77C242.33,148.2,242.61,147.85,242.52,147.39Z"/>
        <path class="cls-11" d="M236,168.06a7.87,7.87,0,0,1-2.32-2,.69.69,0,0,1,.18-1l.62-.39a.69.69,0,0,1,.92.17,5.48,5.48,0,0,0,1.46,1.43l.63-1.44c-1.74-1.29-2.44-2.39-1.79-3.88v0c.62-1.42,2.09-2,4-1.28l0-.06a.68.68,0,0,1,.9-.36h0a.69.69,0,0,1,.35.9l0,.1a6,6,0,0,1,1.71,1.46.68.68,0,0,1-.14,1l-.58.4A.66.66,0,0,1,241,163a5.74,5.74,0,0,0-.94-.91l-.61,1.39c1.72,1.29,2.38,2.39,1.73,3.89v0c-.64,1.47-2.17,1.88-3.95,1.29l-.24.55a.68.68,0,0,1-.9.36h0a.69.69,0,0,1-.35-.9Zm3-6.63c-.61-.21-.94-.06-1.08.25v0c-.14.32,0,.57.53,1Zm.05,5.16v0c.14-.32,0-.58-.51-1l-.58,1.33C238.52,167,238.87,166.94,239,166.59Z"/>
        <path class="cls-11" d="M286.9,174.87a11.62,11.62,0,0,1-4.56-.48,1,1,0,0,1-.63-1.37l.43-1a1,1,0,0,1,1.28-.57,8.11,8.11,0,0,0,3,.52l-.46-2.32c-3.25-.1-5.05-.85-5.52-3.25v0c-.45-2.28.9-4.2,3.81-5v-.1a1,1,0,0,1,.8-1.2h0a1,1,0,0,1,1.21.8l0,.16a8.74,8.74,0,0,1,3.35.33,1,1,0,0,1,.67,1.33l-.36,1a1,1,0,0,1-1.24.63,8,8,0,0,0-1.94-.33l.45,2.25c3.21.1,5,.9,5.45,3.3v0c.47,2.35-1.06,4.16-3.76,5l.18.89a1,1,0,0,1-.81,1.2h0a1,1,0,0,1-1.2-.8Zm-2-10.72c-.93.26-1.22.72-1.12,1.23v0c.1.5.43.73,1.53.82Zm4.46,6.31v0c-.11-.52-.45-.75-1.52-.84l.42,2.12C289.15,171.43,289.49,171,289.38,170.46Z"/>
        <path class="cls-11" d="M250.22,191.93a11.41,11.41,0,0,1-4.56-.48,1,1,0,0,1-.63-1.37l.43-1a1,1,0,0,1,1.28-.57,8.11,8.11,0,0,0,3,.52l-.46-2.32c-3.25-.1-5.05-.85-5.52-3.25v0c-.45-2.28.9-4.19,3.81-5l0-.1a1,1,0,0,1,.81-1.2h0a1,1,0,0,1,1.2.8l0,.16a8.79,8.79,0,0,1,3.35.33,1,1,0,0,1,.67,1.34l-.37,1a1,1,0,0,1-1.24.63,7.79,7.79,0,0,0-1.93-.32l.44,2.24c3.22.11,5,.9,5.46,3.3v0c.46,2.36-1.07,4.17-3.76,5l.17.89a1,1,0,0,1-.8,1.2h0a1,1,0,0,1-1.21-.8Zm-2-10.72c-.93.27-1.22.73-1.13,1.23v0c.1.5.43.74,1.53.82Zm4.46,6.31v0c-.1-.52-.45-.75-1.51-.84l.42,2.12C252.47,188.49,252.81,188.08,252.7,187.52Z"/>
        <path class="cls-11" d="M275.77,181.86a6.65,6.65,0,0,1-2.07-1.64.58.58,0,0,1,.12-.85l.52-.36a.58.58,0,0,1,.8.12,4.65,4.65,0,0,0,1.31,1.18l.49-1.27c-1.55-1-2.19-2-1.68-3.27v0c.48-1.24,1.73-1.75,3.39-1.24l0,0a.59.59,0,0,1,.76-.33h0a.58.58,0,0,1,.34.76l0,.08a5.27,5.27,0,0,1,1.53,1.19.6.6,0,0,1-.09.86l-.48.36a.58.58,0,0,1-.79-.08,5.32,5.32,0,0,0-.84-.75l-.48,1.22c1.53,1,2.14,2,1.63,3.28v0c-.5,1.29-1.81,1.69-3.36,1.24l-.19.49a.59.59,0,0,1-.76.33h0a.6.6,0,0,1-.34-.76Zm2.34-5.79c-.53-.16-.81,0-.92.25v0c-.11.27,0,.49.49.87Zm.22,4.43v0c.11-.29,0-.51-.47-.88l-.45,1.16C277.92,180.89,278.22,180.8,278.33,180.5Z"/>
        <path class="cls-11" d="M281.5,151a6.25,6.25,0,0,1-2.51-.4.56.56,0,0,1-.31-.77l.27-.55a.57.57,0,0,1,.73-.28,4.46,4.46,0,0,0,1.66.37l-.19-1.29c-1.8-.15-2.77-.62-3-2v0c-.18-1.27.62-2.29,2.26-2.64v-.06a.56.56,0,0,1,.48-.64h0a.56.56,0,0,1,.64.48l0,.09a4.78,4.78,0,0,1,1.84.28.55.55,0,0,1,.33.75l-.23.54a.56.56,0,0,1-.7.31,4.62,4.62,0,0,0-1.06-.24l.18,1.26c1.77.15,2.73.64,2.92,2v0c.19,1.32-.71,2.27-2.23,2.63l.07.5a.56.56,0,0,1-.48.64h0a.57.57,0,0,1-.64-.48Zm-.78-6c-.52.12-.69.37-.65.65v0c0,.28.21.42.82.5Zm2.29,3.62v0c0-.3-.23-.43-.82-.51l.17,1.18C282.85,149.14,283.06,148.92,283,148.61Z"/>
      </g>
    </g>
  </g>
  <g id="glass">
    <animateMotion dur="20s" repeatCount="indefinite">
      <mpath xlink:href="#motion-path2"/>
    </animateMotion>
    <g>
      <circle class="cls-12" cx="0.35" cy="0.06" r="57.3"/>
      <path class="cls-12" d="M45.91-3.75A45.6,45.6,0,0,1,.35,39.87,45.61,45.61,0,0,1-45.22-3.75c-.08,1.3-.16,2.59-.16,3.89A45.73,45.73,0,0,0,.35,45.86,45.74,45.74,0,0,0,46.07.06C46.07-1.24,46-2.45,45.91-3.75Z"/>
      <g>
        <g>
          <rect class="cls-4" x="36.85" y="40.86" width="14.81" height="6.47" transform="translate(-18.22 44.21) rotate(-45)"/>
          <polygon class="cls-7" points="51.82 41.09 41.3 51.61 37.09 55.82 42.67 61.48 44.54 59.62 59.75 44.41 61.69 42.47 56.03 36.88 51.82 41.09"/>
          <path class="cls-9" d="M85.16,100.17a10.75,10.75,0,0,0,15.22,0h0a10.75,10.75,0,0,0,0-15.22L59.75,44.33,44.54,59.54Z"/>
        </g>
        <path class="cls-8" d="M-42.06-42.19a59.73,59.73,0,0,0,0,84.57,59.81,59.81,0,0,0,84.57,0,59.81,59.81,0,0,0,0-84.57A59.81,59.81,0,0,0-42.06-42.19ZM38.3,38.09a53.71,53.71,0,0,1-76.07,0,53.8,53.8,0,0,1,0-76.07A53.8,53.8,0,0,1,38.3-38,53.78,53.78,0,0,1,38.3,38.09Z"/>
        <g>
          <path d="M81.59,90.17a5.73,5.73,0,0,1-.15-1l.91-.61a6.6,6.6,0,0,1,.87-3.28l-.48-1a8.3,8.3,0,0,1,.64-.8l.23-.24a2.39,2.39,0,0,1,.23-.22,6.8,6.8,0,0,1,.8-.64l1,.48A6.58,6.58,0,0,1,88.9,82l.62-.91a8.79,8.79,0,0,1,1,.15l.63.17a8.48,8.48,0,0,1,1,.37l.08,1.1a6.67,6.67,0,0,1,1.35,1,6.38,6.38,0,0,1,1,1.36l1.1.08a6.44,6.44,0,0,1,.37,1,4.91,4.91,0,0,1,.17.63,5.73,5.73,0,0,1,.15,1l-.91.61a6.57,6.57,0,0,1-.87,3.28l.48,1a7.9,7.9,0,0,1-.64.79l-.22.24-.24.23a7.9,7.9,0,0,1-.8.63l-1-.48a6.47,6.47,0,0,1-3.27.88l-.62.91a8.79,8.79,0,0,1-1-.15c-.21-.05-.42-.1-.63-.17a6.91,6.91,0,0,1-1-.37l-.08-1.1a6.67,6.67,0,0,1-1.35-1,6.38,6.38,0,0,1-1-1.36l-1.1-.08a6.33,6.33,0,0,1-.37-.94c-.07-.21-.12-.42-.17-.64"/>
          <path class="cls-3" d="M83.74,86.34a5.91,5.91,0,0,1,.54-1l-.46-.95c.14-.16.29-.33.45-.49s.32-.3.49-.44l.95.46a5.57,5.57,0,0,1,1-.55A5.64,5.64,0,0,1,88.24,83a6.08,6.08,0,0,1,1.13,0l.59-.87a6.27,6.27,0,0,1,1.27.34l.08,1a5.57,5.57,0,0,1,1,.58,5,5,0,0,1,.61.53,6,6,0,0,1,.53.6,5.66,5.66,0,0,1,.58,1l1.05.07a7.33,7.33,0,0,1,.34,1.28l-.87.59a6.1,6.1,0,0,1,0,1.13,5.66,5.66,0,0,1-.42,1.55,5.52,5.52,0,0,1-.54,1l.46,1c-.14.17-.29.33-.45.49a5.12,5.12,0,0,1-.49.44l-.94-.46a6,6,0,0,1-1,.55,5.64,5.64,0,0,1-1.55.41,5.24,5.24,0,0,1-1.12,0l-.59.87a6.19,6.19,0,0,1-1.28-.34l-.08-1.05a5,5,0,0,1-1-.58,6,6,0,0,1-.61-.52,7.46,7.46,0,0,1-.53-.61,5.66,5.66,0,0,1-.58-1l-1-.07a7.11,7.11,0,0,1-.34-1.28L83.3,89a5.54,5.54,0,0,1,.44-2.67"/>
          <polygon class="cls-7" points="94.34 87.1 92.88 92.53 87.45 93.98 83.47 90.01 84.93 84.58 90.36 83.12 94.34 87.1 94.34 87.1"/>
          <path class="cls-13" d="M92.17,86.08h0a.57.57,0,0,0,0-.8.57.57,0,0,0-.79,0h0"/>
          <path class="cls-13" d="M90.14,88.11a1.23,1.23,0,0,0-.31-.49,1.32,1.32,0,0,0-1.85,0A1.33,1.33,0,0,0,87.67,89l.64-.64a.21.21,0,0,1,.1-.06.26.26,0,0,1,.29.06l.41.41a.26.26,0,0,1,.06.29.61.61,0,0,1-.07.1l-.63.64a1.31,1.31,0,0,0,1.36-.31,1.33,1.33,0,0,0,.31-1.37"/>
          <path class="cls-13" d="M91.38,85.29h0L89.56,87.1a1.67,1.67,0,0,1,.8.8l1.81-1.82h0"/>
          <polygon class="cls-3" points="91.56 91.2 92.53 87.58 90.72 88.07 90.23 89.88 88.42 90.36 87.1 89.04 87.58 87.23 89.39 86.74 89.88 84.93 86.25 85.9 85.28 89.52 87.94 92.17 91.56 91.2"/>
        </g>
      </g>
    </g>
  </g>
    <path id="motion-path1" class="cls-1" d="M143.51,257s4.58-28.61,18.31-43.49,33.64-15.25,48.29-14.49,50.13,4.19,57-9.54-8-39.13-14.88-41.31-25.17,13.85-24,20.71,8.38,18.16,19.07,21.1,32.43,2.94,39.3-7.36,4.57-24-3.44-30.9-29.75,3.1-30.9,17,6.87,28.77,24,33.35,24.29,0,27.59-4,9-21.18,3.3-29.19-22.88-3.43-27.46,3.44-6.87,13.73-2.29,24,8,13.16,18.88,16.31,20,4.29,30.33.85,14.88-5.72,25.17-4.57,15.8,3.43,22.21,10.87,12.13,20,14.41,26.89,0,25.18-4.57,30.9-12.59,9.15-24,10.3-22.88-1.15-27.46-5.72-8-20.6-4.58-29.76,10.3-14.87,16-16.59,16.14-2.4,21.81,3.09,8.52,15.67,4.23,24.31-7.73,14.37-18,17.8-20.59,1.15-30.89,0-13.16-12.83-12.31-21.86S313.28,241,320,237.58s17-2.29,21.54,2.28,10.29,12.59,10.29,20,0,10.87-8,17.74-17.16,14.88-26.32,11.44-23.63-14.69-26.69-27.37-15.65-19.55-22.51-19.55-42.35-8-53.79-8-44.63,3.44-51.5,29.76,21.75,32,26.32,30.89,28.61-9.15,37.77-24,24-19.45,45.77-14.87,19.46,21.74,13.74,26.32-25.18,20.59-40.06,11.44S203,278.77,190.43,279.92,140.08,287.93,143.51,257Z"/>
    <path id="motion-path2" class="cls-1" d="M143.51,257s4.58-28.61,18.31-43.49,33.64-15.25,48.29-14.49,50.13,4.19,57-9.54-8-39.13-14.88-41.31-25.17,13.85-24,20.71,8.38,18.16,19.07,21.1,32.43,2.94,39.3-7.36,4.57-24-3.44-30.9-29.75,3.1-30.9,17,6.87,28.77,24,33.35,24.29,0,27.59-4,9-21.18,3.3-29.19-22.88-3.43-27.46,3.44-6.87,13.73-2.29,24,8,13.16,18.88,16.31,20,4.29,30.33.85,14.88-5.72,25.17-4.57,15.8,3.43,22.21,10.87,12.13,20,14.41,26.89,0,25.18-4.57,30.9-12.59,9.15-24,10.3-22.88-1.15-27.46-5.72-8-20.6-4.58-29.76,10.3-14.87,16-16.59,16.14-2.4,21.81,3.09,8.52,15.67,4.23,24.31-7.73,14.37-18,17.8-20.59,1.15-30.89,0-13.16-12.83-12.31-21.86S313.28,241,320,237.58s17-2.29,21.54,2.28,10.29,12.59,10.29,20,0,10.87-8,17.74-17.16,14.88-26.32,11.44-23.63-14.69-26.69-27.37-15.65-19.55-22.51-19.55-42.35-8-53.79-8-44.63,3.44-51.5,29.76,21.75,32,26.32,30.89,28.61-9.15,37.77-24,24-19.45,45.77-14.87,19.46,21.74,13.74,26.32-25.18,20.59-40.06,11.44S203,278.77,190.43,279.92,140.08,287.93,143.51,257Z"/>

</svg>
