<?xml version="1.0" encoding="UTF-8"?>
<svg id="a" data-name="Layer 1" xmlns="http://www.w3.org/2000/svg" width="1000" height="241.846" viewBox="0 0 1000 241.846">
  <path d="M787.685,116.024c-5.671,0-10.082,1.47-13.653,5.041-2.31,2.52-4.411,5.881-5.041,10.082h38.017c-.84-3.571-2.94-7.561-5.461-10.082-4.411-4.411-10.502-5.041-13.863-5.041Z" fill="none"/>
  <path d="M452.779,122.745c-4.201,0-9.872,1.47-14.703,6.091-4.621,4.411-6.721,10.502-6.721,15.333,0,5.461,2.311,11.342,6.511,15.333,3.571,3.361,9.452,6.301,15.123,6.301,5.461,0,10.922-2.311,15.123-6.511,2.94-2.941,6.301-7.561,6.301-15.123,0-4.411-1.261-10.292-6.512-15.333-3.151-2.941-7.982-6.091-15.123-6.091Z" fill="none"/>
  <path d="M663.459,122.745c-7.141,0-11.972,3.151-14.913,6.091-3.781,3.781-6.511,9.662-6.511,15.963,0,4.831,2.1,10.292,6.511,14.703,4.621,4.621,10.082,6.301,14.913,6.301,5.461,0,10.922-2.52,14.493-5.671,4.411-3.991,7.142-10.292,7.142-15.963,0-5.251-2.941-11.552-6.301-15.123-3.781-3.991-9.032-6.301-15.333-6.301Z" fill="none"/>
  <path d="M81.659,112.354c5.578,3.286,11.38,6.138,17.365,8.541,6.281,2.522,12.76,4.552,19.394,6.063,3.451,.786,6.944,1.431,10.471,1.935-.503-3.526-1.146-7.018-1.931-10.467-1.51-6.633-3.54-13.112-6.06-19.391-2.403-5.986-5.254-11.788-8.539-17.366-3.123-5.302-6.637-10.4-10.527-15.26-3.028-3.783-6.275-7.427-9.751-10.903C71.95,35.373,46.383,22.674,18.695,18.716c3.961,27.681,16.682,53.237,36.808,73.364,3.475,3.475,7.116,6.72,10.897,9.747,4.859,3.89,9.956,7.404,15.258,10.527Z" fill="lime"/>
  <path d="M147.584,147.584c0-.171-.006-.34-.007-.511-.17,.171-.347,.334-.517,.504,.175,0,.349,.007,.524,.007Z"/>
  <path d="M147.577,147.073c5.603-5.622,10.879-11.57,15.814-17.799,24.773-31.271,40.763-69.814,44.236-111.911,.228-2.757,.404-5.528,.526-8.314C208.37,4.116,204.412,0,199.474,0,194.834,0,191.011,3.65,190.81,8.286c-.132,3.038-.335,6.064-.605,9.077-1.761,19.66-6.512,38.76-14.216,56.974-7.591,17.948-17.781,34.447-30.36,49.233,.36,2.196,.665,4.411,.927,6.638,.651,5.534,1.002,11.16,1.022,16.865Z"/>
  <path d="M25.787,241.715l.257-.027c22.499-2.397,44.078-7.863,64.316-15.972,6.871-2.753,13.592-5.802,20.136-9.147,9.529-4.872,18.685-10.366,27.435-16.406,24.326-16.795,45.438-37.908,62.232-62.232,6.036-8.743,11.515-17.9,16.384-27.421,3.35-6.55,6.414-13.272,9.17-20.15,10.133-25.29,16.149-52.674,17.198-81.328,.184-5.031-3.915-9.203-8.991-9.027-4.593,.159-8.197,4.048-8.37,8.641-.11,2.915-.274,5.821-.493,8.717-1.839,24.347-7.557,47.989-17.075,70.491-5.294,12.515-11.665,24.429-19.043,35.69-4.989,7.616-10.445,14.93-16.352,21.92-4.115,4.87-8.436,9.593-12.986,14.142-4.549,4.549-9.272,8.87-14.142,12.986-6.991,5.907-14.304,11.362-21.92,16.352-11.261,7.377-23.175,13.749-35.69,19.043-19.491,8.244-39.838,13.638-60.757,16.129-5.176,.616-9.734-3.424-9.734-8.636,0-4.383,3.263-8.099,7.615-8.619,39.127-4.675,74.921-20.188,104.295-43.458,6.229-4.935,12.165-10.221,17.787-15.823-5.701-.02-11.323-.368-16.855-1.017-2.228-.261-4.441-.572-6.638-.932-14.784,12.581-31.283,22.77-49.23,30.361-15.149,6.408-30.912,10.773-47.099,13.073-5.216,.741-9.875-3.34-9.875-8.609,0-4.303,3.149-7.975,7.408-8.584,28.622-4.09,54.985-15.169,77.325-31.441-6.667-2.158-13.127-4.775-19.342-7.819-16.856,10.56-35.532,17.756-55.191,21.235-5.32,.941-10.2-3.159-10.2-8.561,0-4.211,3.023-7.807,7.169-8.546,14.52-2.589,28.257-7.435,40.839-14.161-5.351-3.596-10.45-7.538-15.273-11.785-7.697,3.483-15.749,6.155-24.053,7.959-2.046,.444-4.104,.836-6.171,1.174-11.422,1.869-19.873,11.617-19.873,23.191v75.238c0,13.878,11.986,24.816,25.787,23.36Z"/>
  <path d="M137.824,17.363c.332-2.66,.589-5.344,.769-8.049C138.928,4.282,134.973,0,129.93,0h0C125.334,0,121.573,3.584,121.268,8.169c-.205,3.089-.526,6.155-.958,9.194-1.619,11.386-4.827,22.385-9.514,32.738,4.247,4.823,8.187,9.921,11.783,15.272,7.822-14.637,13.103-30.835,15.245-48.01Z"/>
  <path d="M172.766,17.363c.271-2.731,.48-5.481,.624-8.248C173.649,4.158,169.677,0,164.713,0,160.076,0,156.291,3.647,156.046,8.278c-.161,3.045-.409,6.074-.74,9.085-2.57,23.398-10.319,45.647-22.695,65.394,3.045,6.217,5.662,12.679,7.821,19.349,17.667-24.257,29.208-53.26,32.334-84.742Z"/>
  <path d="M82.754,132.61c6.214,3.044,12.674,5.661,19.342,7.819,6.946,2.248,14.117,3.995,21.471,5.199,2.197,.36,4.41,.671,6.638,.932,5.531,.649,11.154,.997,16.855,1.017,.171-.17,.347-.333,.517-.504-.019-5.705-.371-11.33-1.022-16.865-.262-2.228-.568-4.442-.927-6.638-1.203-7.352-2.949-14.521-5.197-21.465-2.159-6.67-4.776-13.132-7.821-19.349-2.957-6.037-6.31-11.845-10.032-17.384-3.596-5.351-7.536-10.449-11.783-15.272-11.65-13.23-25.63-24.357-41.301-32.738C53.63,8.879,36.034,3.218,17.375,1.027,11.675,.358,5.88,0,0,0,0,5.881,.355,11.679,1.024,17.38c2.189,18.658,7.856,36.251,16.339,52.115,8.38,15.67,19.506,29.649,32.735,41.298,4.823,4.247,9.922,8.189,15.273,11.785,5.539,3.722,11.346,7.075,17.383,10.032ZM18.695,18.716c27.688,3.958,53.255,16.657,73.385,36.787,3.476,3.476,6.723,7.12,9.751,10.903,3.89,4.86,7.404,9.958,10.527,15.26,3.285,5.578,6.137,11.38,8.539,17.366,2.521,6.28,4.55,12.758,6.06,19.391,.785,3.45,1.429,6.942,1.931,10.467-3.527-.504-7.019-1.149-10.471-1.935-6.634-1.511-13.113-3.541-19.394-6.063-5.985-2.403-11.788-5.255-17.365-8.541-5.302-3.123-10.399-6.637-15.258-10.527-3.781-3.026-7.423-6.272-10.897-9.747C35.377,71.954,22.656,46.398,18.695,18.716Z"/>
  <path d="M405.765,52.087h-19.99c-3.12,0-6.036,1.55-7.782,4.137l-22.794,33.78-22.976-33.806c-1.748-2.571-4.655-4.111-7.764-4.111h-20.048c-7.599,0-12.049,8.558-7.685,14.779l38.547,54.948c1.108,1.579,1.702,3.462,1.702,5.391v54.279c0,5.185,4.203,9.388,9.388,9.388h17.302c5.185,0,9.387-4.203,9.387-9.388v-54.27c0-1.935,.598-3.822,1.712-5.404l38.675-54.93c4.379-6.219-.069-14.792-7.676-14.792Z"/>
  <path d="M500.157,97.33h-19.983c-3.762,0-6.812,3.05-6.812,6.812v2.22c-3.991-4.411-13.022-12.182-28.145-12.182-13.443,0-25.835,5.251-33.817,13.233-7.561,7.561-14.493,19.954-14.493,37.597,0,14.073,4.411,24.785,13.443,34.447,11.342,11.972,23.735,14.913,33.816,14.913,9.242,0,21.424-2.731,29.196-13.443v3.48c0,3.762,3.05,6.812,6.812,6.812h19.983c3.762,0,6.812-3.05,6.812-6.812V104.142c0-3.762-3.05-6.812-6.812-6.812Zm-32.046,61.962c-4.201,4.201-9.662,6.511-15.123,6.511-5.671,0-11.552-2.941-15.123-6.301-4.201-3.991-6.511-9.872-6.511-15.333,0-4.831,2.1-10.922,6.721-15.333,4.831-4.621,10.502-6.091,14.703-6.091,7.141,0,11.972,3.151,15.123,6.091,5.251,5.041,6.512,10.922,6.512,15.333,0,7.562-3.361,12.183-6.301,15.123Z"/>
  <path d="M593.682,95.862c-.051-.001-.1-.002-.146-.002-6.301,0-12.393,1.05-17.433,3.781-5.041,2.52-9.872,6.721-13.233,13.022v-8.521c0-3.762-3.05-6.812-6.812-6.812h-19.982c-3.762,0-6.812,3.05-6.812,6.812v80.264c0,3.762,3.05,6.812,6.812,6.812h19.982c3.762,0,6.812-3.05,6.812-6.812v-33.306c0-5.041,.42-14.913,7.562-21.424,4.831-4.411,10.922-5.041,15.333-5.041,2.458,0,4.594,.227,6.426,.567,4.195,.779,8.067-2.427,8.067-6.694v-15.839c0-3.67-2.906-6.717-6.575-6.808Z"/>
  <path d="M710.837,38.098h-19.983c-3.762,0-6.812,3.05-6.812,6.812v61.451c-6.091-6.511-15.123-12.182-27.935-12.182-11.552,0-23.945,3.781-33.187,12.602-8.612,8.192-15.333,21.214-15.333,37.177,0,14.913,5.671,28.146,15.123,37.387,8.822,8.612,19.534,13.023,32.977,13.023,6.511,0,18.904-1.26,28.356-13.443v3.48c0,3.762,3.05,6.812,6.812,6.812h19.983c3.762,0,6.812-3.05,6.812-6.812V44.91c0-3.762-3.05-6.812-6.812-6.812Zm-32.886,122.034c-3.571,3.151-9.032,5.671-14.493,5.671-4.831,0-10.292-1.68-14.913-6.301-4.411-4.411-6.511-9.872-6.511-14.703,0-6.301,2.731-12.182,6.511-15.963,2.94-2.941,7.772-6.091,14.913-6.091,6.301,0,11.552,2.311,15.333,6.301,3.36,3.571,6.301,9.872,6.301,15.123,0,5.671-2.731,11.972-7.142,15.963Z"/>
  <path d="M786.845,94.599c-18.484,0-30.666,6.091-38.438,13.653-8.192,7.981-14.073,20.584-14.073,36.337,0,17.853,7.772,29.406,13.863,35.497,11.552,11.552,26.465,14.283,38.858,14.283,20.374,0,31.296-6.301,38.228-13.023,3.089-2.995,5.385-6.116,7.112-9.119,2.61-4.54-.673-10.204-5.91-10.204h-18.307c-2.049,0-4.019,.899-5.283,2.512-1.301,1.66-2.844,2.923-4.288,3.79-4.201,2.31-10.082,2.521-10.922,2.521-7.561,0-11.762-2.521-13.862-4.621-3.991-3.991-5.881-10.712-5.881-15.753h69.943v-3.571c0-10.502-1.68-26.885-14.913-39.488-11.132-10.502-25.205-12.813-36.127-12.813Zm-17.854,36.547c.63-4.201,2.731-7.561,5.041-10.082,3.571-3.571,7.982-5.041,13.653-5.041,3.361,0,9.452,.63,13.863,5.041,2.521,2.52,4.621,6.511,5.461,10.082h-38.017Z"/>
  <path d="M918.212,95.23c-8.192,0-20.584,1.68-29.826,13.863v-4.95c0-3.762-3.05-6.812-6.812-6.812h-19.982c-3.762,0-6.812,3.05-6.812,6.812v80.264c0,3.762,3.05,6.812,6.812,6.812h19.982c3.762,0,6.812-3.05,6.812-6.812v-43.598c0-5.671,2.1-11.762,5.461-14.913,2.73-2.521,7.141-4.411,12.392-4.411,3.36,0,7.561,.63,10.712,3.991,4.411,4.621,4.2,12.813,4.2,18.274v40.657c0,3.762,3.05,6.812,6.812,6.812h19.983c3.762,0,6.812-3.05,6.812-6.812v-52.84c0-10.292-.84-18.274-8.821-26.255-7.772-7.772-18.064-10.082-27.726-10.082Z"/>
  <polygon points="954.759 77.13 960.218 77.13 960.218 97.33 964.95 97.33 964.95 77.13 970.409 77.13 970.409 73.053 954.759 73.053 954.759 77.13"/>
  <polygon points="992.503 73.053 985.769 88.485 979.327 73.053 975.906 73.053 971.392 97.33 976.197 97.33 978.672 82.371 984.896 97.33 986.497 97.33 993.012 82.371 995.196 97.33 1000 97.33 995.924 73.053 992.503 73.053"/>
</svg>