<?xml version="1.0" encoding="UTF-8"?>
<svg id="a" data-name="Layer 1" xmlns="http://www.w3.org/2000/svg" width="1000" height="885.793" viewBox="0 0 1000 885.793">
  <path d="M413.319,275.38c13.671,8.053,27.892,15.043,42.563,20.933,15.394,6.18,31.274,11.157,47.535,14.86,8.46,1.926,17.02,3.507,25.664,4.742-1.232-8.642-2.809-17.2-4.734-25.656-3.701-16.258-8.676-32.137-14.854-47.529-5.889-14.671-12.878-28.893-20.93-42.564-7.654-12.996-16.267-25.491-25.801-37.403-7.421-9.272-15.38-18.203-23.9-26.723-49.34-49.34-112.005-80.466-179.868-90.166,9.708,67.848,40.887,130.486,90.218,179.816,8.516,8.516,17.442,16.472,26.71,23.89,11.91,9.533,24.403,18.147,37.397,25.801Z" fill="lime"/>
  <path d="M156.937,684.186h-28.325c-4.421,0-8.553,2.197-11.026,5.862l-32.298,47.865-32.555-47.902c-2.476-3.644-6.596-5.825-11.001-5.825H13.325c-10.768,0-17.073,12.126-10.889,20.941l54.62,77.858c1.57,2.238,2.412,4.905,2.412,7.639v76.911c0,7.346,5.955,13.302,13.302,13.302h24.516c7.346,0,13.302-5.955,13.302-13.302v-76.899c0-2.742,.847-5.416,2.425-7.658l54.801-77.834c6.205-8.813-.098-20.959-10.876-20.959Z"/>
  <path d="M292.092,748.293h-28.315c-5.331,0-9.652,4.322-9.652,9.652v3.145c-5.655-6.25-18.452-17.262-39.881-17.262-19.048,0-36.607,7.441-47.917,18.75-10.714,10.714-20.535,28.274-20.535,53.274,0,19.94,6.25,35.119,19.048,48.809,16.071,16.964,33.631,21.131,47.916,21.131,13.096,0,30.357-3.869,41.369-19.048v4.931c0,5.331,4.321,9.652,9.652,9.652h28.315c5.331,0,9.652-4.321,9.652-9.652v-113.731c0-5.331-4.321-9.652-9.652-9.652Zm-45.407,87.798c-5.953,5.952-13.691,9.226-21.428,9.226-8.036,0-16.369-4.167-21.429-8.929-5.952-5.655-9.226-13.988-9.226-21.726,0-6.845,2.976-15.476,9.524-21.726,6.845-6.548,14.881-8.631,20.833-8.631,10.119,0,16.964,4.464,21.428,8.631,7.44,7.143,9.227,15.476,9.227,21.726,0,10.714-4.762,17.262-8.929,21.429Z"/>
  <path d="M424.613,746.212c-.072-.002-.141-.003-.207-.003-8.929,0-17.56,1.488-24.702,5.357-7.143,3.571-13.988,9.524-18.751,18.452v-12.074c0-5.331-4.321-9.652-9.652-9.652h-28.314c-5.331,0-9.652,4.322-9.652,9.652v113.731c0,5.331,4.321,9.652,9.652,9.652h28.314c5.331,0,9.652-4.321,9.652-9.652v-47.193c0-7.143,.595-21.131,10.715-30.357,6.845-6.25,15.476-7.143,21.726-7.143,3.482,0,6.509,.322,9.105,.804,5.943,1.104,11.43-3.439,11.43-9.485v-22.444c0-5.2-4.118-9.518-9.316-9.646Z"/>
  <path d="M590.617,664.364h-28.315c-5.331,0-9.652,4.321-9.652,9.652v87.074c-8.631-9.226-21.429-17.262-39.583-17.262-16.369,0-33.929,5.357-47.024,17.857-12.203,11.607-21.726,30.059-21.726,52.679,0,21.131,8.036,39.881,21.428,52.976,12.5,12.202,27.679,18.453,46.726,18.453,9.226,0,26.786-1.786,40.178-19.048v4.931c0,5.331,4.321,9.652,9.652,9.652h28.315c5.331,0,9.652-4.321,9.652-9.652v-197.66c0-5.331-4.321-9.652-9.652-9.652Zm-46.598,172.917c-5.059,4.464-12.797,8.036-20.535,8.036-6.846,0-14.584-2.381-21.131-8.929-6.25-6.25-9.226-13.988-9.226-20.833,0-8.928,3.869-17.262,9.226-22.619,4.166-4.167,11.012-8.631,21.131-8.631,8.929,0,16.369,3.274,21.726,8.929,4.762,5.06,8.929,13.988,8.929,21.428,0,8.036-3.869,16.964-10.119,22.619Z"/>
  <path d="M749.506,762.578c-15.774-14.881-35.714-18.155-51.19-18.155-26.191,0-43.452,8.631-54.464,19.345-11.607,11.309-19.941,29.167-19.941,51.488,0,25.298,11.012,41.666,19.643,50.297,16.369,16.369,37.5,20.238,55.06,20.238,28.869,0,44.345-8.929,54.167-18.453,4.377-4.244,7.63-8.665,10.077-12.922,3.698-6.433-.953-14.459-8.374-14.459h-25.94c-2.903,0-5.695,1.274-7.486,3.559-1.844,2.352-4.03,4.142-6.076,5.37-5.952,3.274-14.286,3.571-15.477,3.571-10.714,0-16.667-3.571-19.642-6.548-5.655-5.655-8.333-15.179-8.333-22.321h99.107v-5.06c0-14.881-2.381-38.095-21.131-55.952Zm-76.488,33.631c.893-5.952,3.869-10.714,7.143-14.286,5.06-5.06,11.31-7.143,19.345-7.143,4.762,0,13.393,.893,19.643,7.143,3.572,3.571,6.548,9.226,7.738,14.286h-53.869Z"/>
  <path d="M884.457,745.317c-11.607,0-29.167,2.381-42.262,19.643v-7.014c0-5.331-4.322-9.652-9.653-9.652h-28.314c-5.331,0-9.652,4.322-9.652,9.652v113.731c0,5.331,4.321,9.652,9.652,9.652h28.314c5.331,0,9.653-4.321,9.653-9.652v-61.776c0-8.036,2.976-16.667,7.739-21.131,3.869-3.571,10.119-6.25,17.559-6.25,4.762,0,10.714,.893,15.179,5.655,6.25,6.548,5.952,18.155,5.952,25.893v57.609c0,5.331,4.321,9.652,9.652,9.652h28.315c5.331,0,9.652-4.321,9.652-9.652v-74.871c0-14.583-1.191-25.893-12.5-37.202-11.012-11.012-25.596-14.286-39.286-14.286Z"/>
  <path d="M574.902,361.73c0-.418-.014-.834-.016-1.252-.417,.418-.85,.819-1.268,1.236,.429,.001,.855,.016,1.284,.016Z"/>
  <path d="M574.886,360.478c13.734-13.781,26.665-28.357,38.761-43.626,60.718-76.646,99.91-171.115,108.424-274.296,.558-6.757,.991-13.55,1.289-20.377,.53-12.092-9.171-22.18-21.274-22.18-11.373,0-20.743,8.946-21.237,20.309-.324,7.446-.821,14.862-1.483,22.248-4.316,48.186-15.961,95.001-34.843,139.644-18.606,43.991-43.582,84.43-74.414,120.672,.881,5.383,1.63,10.811,2.273,16.271,1.595,13.564,2.457,27.353,2.504,41.335Z"/>
  <path d="M551.243,490.602c59.623-41.164,111.369-92.914,152.532-152.531,14.796-21.428,28.223-43.873,40.157-67.209,8.21-16.055,15.72-32.529,22.475-49.388,24.837-61.985,39.582-129.104,42.152-199.335,.451-12.331-9.595-22.557-22.036-22.125-11.258,.391-20.092,9.922-20.515,21.178-.269,7.145-.673,14.267-1.209,21.365-4.507,59.675-18.523,117.622-41.851,172.774-12.975,30.675-28.592,59.875-46.674,87.476-12.229,18.668-25.6,36.593-40.079,53.727-10.087,11.936-20.678,23.511-31.828,34.662-11.15,11.15-22.725,21.741-34.661,31.828-17.134,14.479-35.06,27.85-53.727,40.078-27.602,18.082-56.801,33.699-87.477,46.674-47.773,20.206-97.643,33.426-148.917,39.531-12.686,1.511-23.857-8.391-23.857-21.167,0-10.743,7.997-19.851,18.664-21.125,95.9-11.457,183.632-49.48,255.63-106.517,15.267-12.095,29.816-25.053,43.596-38.784-13.973-.049-27.754-.902-41.311-2.493-5.462-.641-10.886-1.403-16.27-2.285-36.237,30.836-76.674,55.809-120.663,74.415-37.132,15.705-75.766,26.404-115.442,32.042-12.785,1.817-24.203-8.187-24.203-21.1h0c0-10.546,7.718-19.547,18.158-21.039,70.153-10.025,134.77-37.178,189.524-77.062-16.342-5.29-32.175-11.704-47.407-19.164-41.313,25.883-87.09,43.52-135.274,52.048-13.038,2.308-25-7.742-25-20.983,0-10.322,7.41-19.134,17.572-20.945,35.589-6.345,69.259-18.224,100.097-34.708-13.116-8.814-25.614-18.475-37.436-28.885-18.865,8.537-38.601,15.086-58.955,19.507-5.014,1.089-10.058,2.048-15.125,2.877-27.995,4.581-48.71,28.473-48.71,56.841v184.41c0,34.016,29.377,60.825,63.205,57.256,.21-.022,.42-.044,.629-.067,55.145-5.875,108.036-19.272,157.638-39.147,16.841-6.748,33.314-14.22,49.354-22.42,23.356-11.94,45.798-25.406,67.244-40.212Z"/>
  <path d="M550.98,42.556c.813-6.521,1.444-13.098,1.885-19.727,.821-12.334-8.873-22.829-21.234-22.829h0c-11.263,0-20.482,8.784-21.229,20.022-.503,7.57-1.289,15.085-2.348,22.534-3.968,27.906-11.832,54.865-23.32,80.241,10.409,11.821,20.067,24.317,28.881,37.432,19.172-35.874,32.116-75.576,37.365-117.673Z"/>
  <path d="M636.624,42.556c.665-6.694,1.177-13.434,1.53-20.215,.633-12.15-9.101-22.341-21.268-22.341-11.365,0-20.643,8.939-21.244,20.288-.394,7.464-1.002,14.889-1.813,22.268-6.3,57.35-25.293,111.881-55.626,160.281,7.463,15.237,13.878,31.076,19.169,47.424,43.302-59.454,71.59-130.54,79.251-207.705Z"/>
  <path d="M416.004,325.029c15.231,7.46,31.065,13.874,47.407,19.164,17.025,5.511,34.6,9.792,52.626,12.743,5.385,.881,10.809,1.644,16.27,2.285,13.557,1.591,27.339,2.444,41.311,2.493,.419-.417,.851-.817,1.268-1.236-.047-13.983-.909-27.771-2.504-41.335-.642-5.46-1.391-10.887-2.273-16.271-2.949-18.02-7.228-35.59-12.737-52.611-5.291-16.348-11.706-32.188-19.169-47.424-7.247-14.797-15.465-29.031-24.589-42.608-8.813-13.115-18.472-25.611-28.881-37.432-28.554-32.428-62.818-59.699-101.23-80.241C344.621,21.762,301.491,7.887,255.759,2.517c-13.971-1.641-28.175-2.517-42.587-2.517,0,14.415,.869,28.624,2.509,42.599,5.366,45.732,19.254,88.853,40.047,127.734,20.541,38.408,47.808,72.67,80.233,101.223,11.822,10.41,24.32,20.071,37.436,28.885,13.577,9.124,27.81,17.341,42.606,24.588ZM258.994,45.874c67.862,9.701,130.528,40.827,179.868,90.166,8.52,8.52,16.479,17.451,23.9,26.723,9.534,11.912,18.147,24.407,25.801,37.403,8.052,13.672,15.041,27.894,20.93,42.564,6.178,15.391,11.153,31.27,14.854,47.529,1.925,8.456,3.501,17.014,4.734,25.656-8.645-1.236-17.205-2.817-25.664-4.742-16.261-3.703-32.141-8.679-47.535-14.86-14.67-5.89-28.892-12.88-42.563-20.933-12.994-7.654-25.487-16.267-37.397-25.801-9.268-7.418-18.194-15.373-26.71-23.89-49.331-49.331-80.51-111.969-90.218-179.816Z"/>
  <polygon points="937.432 715.939 944.983 715.939 944.983 743.876 951.526 743.876 951.526 715.939 959.077 715.939 959.077 710.302 937.432 710.302 937.432 715.939"/>
  <polygon points="989.631 710.302 980.319 731.644 971.41 710.302 966.679 710.302 960.436 743.876 967.081 743.876 970.504 723.188 979.111 743.876 981.326 743.876 990.336 723.188 993.356 743.876 1000 743.876 994.362 710.302 989.631 710.302"/>
</svg>